<svg width="584" height="286" fill="none" xmlns="http://www.w3.org/2000/svg"><path d="M8.852 194.598v-23.435L98.687 53.726h36.195L46.349 171.163l-16.926-5.208h144.518v28.643H8.852zM108.843 236v-41.402l1.041-28.643v-36.716h31.768V236h-32.809z" fill="#EDEDED"/><g clip-path="url(#clip0_715_41443)" stroke="#EDEDED" stroke-width="7.911" stroke-miterlimit="10" stroke-linecap="round" stroke-linejoin="round"><path d="M292 196.141v18.798m-10.648-32.964l-26.515 45.926c-4.73 8.192 1.182 18.431 10.641 18.431h53.03c9.459 0 15.371-10.239 10.641-18.431l-26.515-45.926c-4.729-8.191-16.553-8.191-21.282 0z"/><path d="M367.813 130.604c0-8.605 6.54-15.679 14.921-16.525a91.685 91.685 0 00-3.85-14.553c-7.691 3.486-16.918.635-21.229-6.828-4.319-7.484-2.158-16.927 4.747-21.83a92.715 92.715 0 00-10.648-10.69c-4.9 6.925-14.359 9.095-21.847 4.771-7.51-4.336-10.353-13.652-6.765-21.364a90.906 90.906 0 00-14.6-3.918c-.753 8.479-7.869 15.125-16.542 15.125-8.672 0-15.789-6.646-16.542-15.125a90.898 90.898 0 00-14.599 3.918c3.587 7.716.744 17.028-6.761 21.364-7.492 4.324-16.948 2.154-21.847-4.772a92.137 92.137 0 00-10.652 10.695c6.904 4.9 9.07 14.342 4.751 21.826-4.311 7.463-13.542 10.314-21.229 6.828a91.109 91.109 0 00-3.854 14.553c8.385.842 14.925 7.92 14.925 16.521 0 8.571-6.494 15.632-14.832 16.516a91.15 91.15 0 003.917 14.494c7.658-3.38 16.791-.516 21.073 6.896 4.264 7.387 2.208 16.682-4.484 21.636a93.198 93.198 0 0010.61 10.576c4.958-6.68 14.244-8.724 21.623-4.463 7.306 4.221 10.196 13.157 7.031 20.746l19.143-33.155 1.079-1.87c4.73-8.191 16.555-8.191 21.284 0l1.079 1.866 19.186 33.235c-3.211-7.602-.33-16.588 7.006-20.823 7.374-4.26 16.66-2.217 21.618 4.459a92.962 92.962 0 0010.615-10.572c-6.697-4.95-8.749-14.248-4.484-21.635 4.281-7.412 13.411-10.276 21.068-6.896a90.626 90.626 0 003.918-14.494c-8.34-.888-14.829-7.945-14.829-16.512z"/><path d="M328.044 88.87c-7.128-6.254-15.819-10.747-25.324-12.625v29.208c9.638 4.151 16.385 13.737 16.385 24.902 0 1.041-.059 2.069-.173 3.08l25.316 14.617c2.099-6.004 3.038-12.447 2.89-18.797a51.732 51.732 0 00-1.661-12.342m-64.735-40.558c-31.653 6.032-51.36 41.574-40.99 71.696l25.316-14.612a27.408 27.408 0 01-.174-3.085c0-11.164 6.748-20.75 16.385-24.901V76.245a26.94 26.94 0 00-.537.11zm52.79 90.277c-7.962 9.138-18.551 14.875-29.818 17.21l-1.078-1.866c-4.73-8.191-16.555-8.191-21.285 0l-1.079 1.87c-11.257-2.327-21.846-8.064-29.804-17.215l25.265-14.591A26.997 26.997 0 00292 157.46a26.997 26.997 0 0016.267-5.42l25.265 14.592zM292 140.271c5.476 0 9.916-4.44 9.916-9.916s-4.44-9.916-9.916-9.916-9.916 4.44-9.916 9.916 4.44 9.916 9.916 9.916z"/></g><path d="M415.854 194.598v-23.435l89.835-117.437h36.195l-88.533 117.437-16.926-5.208h144.517v28.643H415.854zM515.844 236v-41.402l1.042-28.643v-36.716h31.768V236h-32.81z" fill="#EDEDED"/><defs><clipPath id="clip0_715_41443"><path fill="#fff" transform="translate(184.467 35.467)" d="M0 0h215.066v215.066H0z"/></clipPath></defs></svg>