<svg width="1387" height="557" fill="none" xmlns="http://www.w3.org/2000/svg"><path d="M467.924 22.587c6.536-13.238 14.2-19.737 23.034-19.66 31.031.273 71.592 82.16 110.828 161.354 36.693 74.05 74.616 150.621 100.935 149.732 21.846-.738 34.43-53.829 38.47-162.298C745.011 49.541 756.186-.089 775.329 0c24.395.111 57.659 78.371 92.879 161.237 36.931 86.887 75.127 176.724 104.019 177.458 21.555.55 35.803-48.341 43.543-149.494 7.04-91.937 22.81-137.322 48.18-138.76 36.46-2.084 87.48 85.754 141.48 178.729 59.75 102.87 121.53 209.228 170.25 207.5 36.32-1.283 61.06-62.789 75.61-188.029l1.06.367c-14.6 125.756-39.6 187.518-76.41 188.829-49.44 1.749-111.42-104.986-171.38-208.206-53.79-92.598-104.6-180.074-140.33-178.035-24.89 1.417-40.39 46.552-47.39 137.955-7.79 101.714-22.328 150.871-44.417 150.31-29.718-.761-68.092-91.026-105.195-178.33C832.192 79.105 799.1 1.261 775.525 1.161c-18.608-.089-29.486 49.274-33.283 150.866-4.075 109.03-16.926 162.392-39.283 163.142-27.104.916-63.541-72.65-102.124-150.521-39.039-78.81-79.41-160.31-109.675-160.57-20.099-.167-33.977 35.113-42.432 107.891l-1.063-.361c4.872-41.852 11.573-71.406 20.259-89.02z" fill="url(#paint0_linear_650_10758)" fill-opacity=".2"/><path d="M457.271 31.998c6.827-13.85 14.848-20.66 24.116-20.621 31.649.128 72.845 80.738 112.687 158.693 37.263 72.938 75.798 148.338 102.676 147.26 22.179-.894 35.119-52.857 39.616-158.865 4.224-99.936 15.733-148.532 35.19-148.554 24.876-.023 58.61 76.965 94.317 158.481 37.447 85.46 76.166 173.841 105.682 174.458 21.929.461 36.585-47.396 44.805-146.305 7.46-89.715 23.58-134.128 49.28-135.76 37.22-2.373 89.11 84.215 144.06 175.868 60.78 101.42 123.63 206.283 173.43 204.228 36.84-1.533 62.14-61.673 77.34-183.896l1.06.366c-15.26 122.713-40.83 183.108-78.15 184.646-50.49 2.095-113.57-103.136-174.56-204.9-54.73-91.287-106.4-177.513-142.89-175.185-25.22 1.594-41.08 45.746-48.5 134.95-8.27 99.47-23.215 147.582-45.679 147.105-30.312-.634-69.215-89.438-106.829-175.308-35.522-81.077-69.072-157.66-93.14-157.643-18.899.017-30.146 48.324-34.346 147.688-4.51 106.569-17.729 158.809-40.424 159.72-27.663 1.117-64.665-71.327-103.871-148.027-39.64-77.571-80.634-157.792-111.528-157.92-20.42-.083-34.644 34.436-43.496 105.547l-1.058-.367c4.949-39.824 11.645-68.278 20.212-85.66z" fill="url(#paint1_linear_650_10758)" fill-opacity=".2"/><path d="M446.375 41.252c7.129-14.476 15.512-21.62 25.25-21.62 32.297-.022 74.141 79.343 114.594 156.098 37.876 71.844 77.022 146.127 104.483 144.838 22.517-1.055 35.837-51.923 40.744-155.504 4.629-97.736 16.481-145.304 36.26-145.432 25.375-.172 59.584 75.594 95.814 155.798 37.97 84.066 77.247 171.02 107.375 171.503 22.304.378 37.375-46.457 46.065-143.177 7.87-87.538 24.35-130.978 50.38-132.812 37.98-2.677 90.8 82.688 146.71 173.07 61.86 100.003 125.82 203.411 176.71 201 37.36-1.761 63.22-60.59 79.07-179.836l1.07.384c-15.91 119.729-42.04 178.807-79.87 180.591-51.57 2.433-115.77-101.32-177.85-201.673-55.67-90.015-108.28-175.041-145.56-172.413-25.55 1.794-41.77 44.99-49.6 132.016-8.74 97.265-24.09 144.355-46.923 143.966-30.93-.522-70.379-87.865-108.534-172.341-36.021-79.766-70.053-155.126-94.637-154.976-19.214.128-30.806 47.413-35.416 144.582-4.925 104.12-18.519 155.26-41.541 156.349-28.221 1.333-65.835-70.039-105.665-145.594-40.275-76.382-81.899-155.37-113.471-155.343-20.747.017-35.303 33.78-44.535 103.225l-1.07-.389c5.062-37.847 11.716-65.206 20.147-82.31z" fill="url(#paint2_linear_650_10758)" fill-opacity=".2"/><path d="M435.254 50.346c7.45-15.127 16.22-22.61 26.427-22.67 32.985-.19 75.477 77.977 116.59 153.559 40.27 74.039 78.299 143.972 106.348 142.466 22.838-1.222 36.527-51.007 41.868-152.198 5.032-95.554 17.241-142.127 37.322-142.372 25.892-.305 60.607 74.25 97.359 153.176 38.523 82.727 78.377 168.276 109.152 168.637 22.672.277 38.16-45.547 47.32-140.1 8.28-85.365 25.11-127.862 51.46-129.906 38.77-3 92.54 81.193 149.44 170.325 62.99 98.631 128.12 200.634 180.13 197.867 37.87-2.011 64.29-59.539 80.78-175.847l1.07.395c-16.57 116.801-43.24 174.569-81.58 176.591-52.7 2.8-118.04-99.542-181.25-198.512-56.69-88.765-110.23-172.625-148.32-169.68-25.87 1.994-42.45 44.241-50.68 129.106-9.21 95.087-24.979 141.172-48.18 140.888-31.571-.372-71.586-86.331-110.31-169.464-36.557-78.504-71.087-152.66-96.195-152.36-19.54.223-31.476 46.52-36.473 141.528-5.353 101.725-19.309 151.776-42.658 153.037-28.803 1.545-67.04-68.761-107.518-143.205-40.911-75.216-83.225-153.004-115.468-152.826-21.079.117-35.991 33.142-45.604 100.953l-1.058-.394c5.127-35.942 11.752-62.184 20.028-78.994z" fill="url(#paint3_linear_650_10758)" fill-opacity=".2"/><path d="M423.9 59.262c7.771-15.799 16.956-23.637 27.65-23.748 33.663-.356 76.862 76.638 118.652 151.082 40.953 72.966 79.637 141.899 108.285 140.161 23.171-1.406 37.234-50.129 42.991-148.944 5.436-93.425 17.99-139.01 38.368-139.372 26.415-.46 61.652 72.928 98.963 150.605 39.105 81.432 79.535 165.608 110.976 165.842 23.058.166 38.955-44.674 48.595-137.078 8.68-83.243 25.86-124.79 52.51-127.04 39.59-3.338 94.33 79.711 152.3 167.642 64.15 97.315 130.49 197.951 183.65 194.807 38.37-2.278 65.35-58.501 82.48-171.942l1.06.394c-17.2 113.897-44.44 170.37-83.27 172.664-53.84 3.189-120.4-97.781-184.78-195.423-57.72-87.57-112.26-170.297-151.16-167.014-26.19 2.2-43.11 43.497-51.75 126.251-9.69 92.942-25.864 138.039-49.445 137.866-32.207-.227-72.833-84.82-112.129-166.642-37.108-77.265-72.161-150.265-97.792-149.81-19.85.356-32.136 45.652-37.537 138.539-5.775 99.353-20.093 148.355-43.769 149.782-29.397 1.778-68.288-67.516-109.467-140.871-41.582-74.089-84.579-150.71-117.523-150.36-21.394.227-36.645 32.514-46.644 98.714l-1.058-.4c5.175-34.058 11.734-59.212 19.844-75.705z" fill="url(#paint4_linear_650_10758)" fill-opacity=".2"/><path d="M412.314 68.044c8.104-16.487 17.711-24.698 28.928-24.864 34.358-.522 78.287 75.321 120.767 148.665 41.666 71.928 81.008 139.872 110.299 137.906 23.503-1.583 37.923-49.257 44.09-145.749 5.828-91.32 18.732-135.94 39.425-136.412 26.95-.633 62.752 71.611 100.639 148.105 39.693 80.144 80.747 163.015 112.877 163.092 23.444.056 39.741-43.818 49.851-134.111 9.09-81.143 26.61-121.779 53.56-124.24 40.42-3.688 96.19 78.26 155.23 165.02 65.36 96.042 132.95 195.351 187.32 191.818 38.87-2.517 66.39-57.507 84.15-168.081l1.05.411c-17.83 111.024-45.61 166.237-84.93 168.809-55.03 3.571-122.84-96.07-188.41-192.418-58.84-86.46-114.39-168.08-154.12-164.448-26.49 2.422-43.77 42.808-52.8 123.468-10.16 90.826-26.756 134.95-50.699 134.889-32.879-.089-74.117-83.354-114.018-163.887-37.697-76.077-73.285-147.932-99.462-147.315-20.17.472-32.807 44.83-38.606 135.583-6.208 97.009-20.871 144.96-44.868 146.588-30.009 2.022-69.578-66.278-111.451-138.594-42.284-73-86.005-148.494-119.651-147.966-21.721.333-37.31 31.909-47.696 96.52l-1.051-.406c5.139-32.186 11.645-56.245 19.576-72.383z" fill="url(#paint5_linear_650_10758)" fill-opacity=".2"/><path d="M399.665 76.283c8.46-17.199 18.489-25.787 30.259-26.004 35.1-.694 79.82 74.05 123.072 146.333 42.438 70.933 82.53 137.927 112.461 135.722 23.831-1.761 38.618-48.396 45.183-142.561 6.221-89.203 19.476-132.867 40.49-133.472 27.519-.789 63.915 70.355 102.444 145.694 40.359 78.91 82.096 160.509 114.933 160.459 23.83-.05 40.553-42.947 51.133-131.151 9.47-79.043 27.32-118.762 54.59-121.423 41.29-4.027 98.17 76.871 158.39 162.514 66.68 94.782 135.63 192.835 191.25 188.918 39.38-2.766 67.46-56.484 85.84-164.203l1.05.417c-18.47 108.174-46.8 162.12-86.62 164.925-56.28 3.955-125.45-94.425-192.35-189.551-59.99-85.315-116.66-165.903-157.28-161.926-26.81 2.617-44.42 42.086-53.84 120.663-10.63 88.726-27.632 131.878-51.961 131.933-33.58.056-75.519-81.932-116.074-161.22-38.32-74.916-74.514-145.688-101.28-144.91-20.503.583-33.472 43.985-39.663 132.639-6.601 94.698-21.638 141.599-45.961 143.394-30.657 2.266-70.956-65.084-113.62-136.406-43.05-71.944-87.556-146.343-121.967-145.655-22.048.44-38.001 31.292-48.748 94.315l-1.052-.411c5.181-30.359 11.586-53.301 19.321-69.033z" fill="url(#paint6_linear_650_10758)" fill-opacity=".2"/><path d="M386.339 84.115c8.811-17.91 19.303-26.892 31.625-27.175 35.88-.85 81.431 72.827 125.497 144.083 43.258 69.983 84.127 136.077 114.76 133.628 24.175-1.945 39.308-47.547 46.277-139.406 6.606-87.126 20.194-129.828 41.546-130.556 28.114-.955 65.146 69.134 104.358 143.339 41.077 77.715 83.545 158.087 117.119 157.898 24.229-.145 41.379-42.075 52.399-128.212 9.86-76.96 28.05-115.752 55.62-118.607 42.21-4.366 100.27 75.516 161.73 160.104 68.07 93.653 138.47 190.512 195.4 186.229 39.9-3.005 68.53-55.446 87.53-160.348l1.06.428c-19.08 105.341-47.97 158.026-88.3 161.053-57.57 4.328-128.19-92.831-196.49-186.796-61.24-84.265-119.08-163.853-160.62-159.537-27.12 2.8-45.07 41.352-54.88 117.852-11.09 86.637-28.519 128.817-53.247 128.973-34.304.194-76.986-80.549-118.248-158.643-38.998-73.794-75.828-143.5-103.193-142.588-20.842.71-34.156 43.146-40.727 129.739-7.011 92.37-22.392 138.239-47.049 140.222-31.334 2.511-72.417-63.928-115.913-134.284-43.858-70.927-89.201-144.249-124.397-143.416-22.386.534-38.671 30.67-49.805 92.137l-1.058-.427c5.181-28.554 11.479-50.385 19.006-65.69z" fill="url(#paint7_linear_650_10758)" fill-opacity=".2"/><path d="M372.717 91.815c9.185-18.66 20.152-28.026 33.063-28.392 36.669-1.028 83.105 71.644 127.997 141.899 44.126 69.056 85.797 134.284 117.125 131.573 24.514-2.133 40.015-46.702 47.37-136.3 6.987-85.071 20.919-126.834 42.586-127.684 28.72-1.122 66.435 67.933 106.336 141.038 41.803 76.572 85.025 155.743 119.353 155.399 24.645-.245 42.203-41.23 53.693-125.307 10.25-74.91 28.78-112.807 56.64-115.862 43.13-4.728 102.41 74.205 165.18 157.759 69.51 92.548 141.38 188.223 199.67 183.568 40.41-3.227 69.59-54.445 89.2-156.559l1.05.439c-19.7 102.541-49.12 153.993-89.96 157.259-58.92 4.711-131.02-91.287-200.76-184.118-62.52-83.244-121.59-161.859-164.08-157.221-27.42 3-45.71 40.658-55.89 115.119-11.56 84.587-29.391 125.823-54.523 126.067-35.065.356-78.501-79.193-120.494-156.12-39.693-72.722-77.194-141.4-105.183-140.306-21.168.822-34.833 42.336-41.784 126.873-7.391 90.099-23.136 134.939-48.13 137.106-32.035 2.761-73.927-62.801-118.29-132.217-44.696-69.944-90.912-142.26-126.898-141.266-22.731.633-39.373 30.064-50.875 89.97l-1.052-.439c5.193-26.742 11.366-47.452 18.656-62.278z" fill="url(#paint8_linear_650_10758)" fill-opacity=".2"/><path d="M358.868 99.38c9.565-19.436 21.02-29.224 34.542-29.647 37.483-1.194 84.811 70.456 130.582 139.767 45.005 68.161 87.526 132.556 119.573 129.584 24.852-2.3 40.697-45.891 48.445-133.251 7.367-83.043 21.638-123.895 43.638-124.867 29.344-1.306 67.736 66.744 108.374 138.788 42.557 75.439 86.551 153.443 121.664 152.949 25.042-.356 43.024-40.419 54.984-122.484 10.61-72.894 29.45-109.908 57.62-113.141 44.1-5.078 104.63 72.905 168.73 155.476 71 91.47 144.42 186.04 204.11 180.98 40.91-3.467 70.63-53.463 90.84-152.838l1.05.456c-20.3 99.803-50.27 150.015-91.6 153.515-60.3 5.105-133.95-89.759-205.17-181.507-63.86-82.255-124.17-159.96-167.63-154.938-27.73 3.194-46.34 39.969-56.89 112.413-12.02 82.555-30.277 122.868-55.795 123.235-35.831.5-80.052-77.872-122.799-153.671-40.424-71.667-78.608-139.344-107.215-138.083-21.501.95-35.522 41.535-42.842 124.056-7.795 87.849-23.89 131.701-49.199 134.039-32.742 3.044-75.483-61.678-120.72-130.195-45.557-68.989-92.665-140.322-129.477-139.133-23.07.733-40.038 29.47-51.926 87.849l-1.046-.45c5.056-24.971 11.098-44.569 18.157-58.901z" fill="url(#paint9_linear_650_10758)" fill-opacity=".2"/><path d="M344.727 106.797c9.963-20.226 21.929-30.43 36.092-30.942 38.321-1.378 86.57 69.311 133.22 137.683 45.944 67.306 89.321 130.89 122.116 127.634 25.167-2.5 41.369-45.096 49.508-130.245 7.748-81.054 22.363-120.995 44.684-122.1 29.992-1.49 69.085 65.594 110.465 136.599 43.324 74.35 88.138 151.232 124.059 150.588 25.44-.472 43.849-39.614 56.259-119.696 10.99-70.894 30.17-107.036 58.61-110.48 45.07-5.472 106.91 71.617 172.39 153.238 72.54 90.409 147.54 183.907 208.66 178.446 41.4-3.711 71.65-52.495 92.48-149.165l1.05.455c-20.91 97.081-51.41 146.088-93.22 149.843-61.71 5.517-136.95-88.259-209.71-178.957-65.23-81.31-126.85-158.12-171.31-152.721-28.02 3.4-46.95 39.302-57.86 109.752-12.49 80.555-31.154 119.94-57.088 120.413-36.627.672-81.644-76.583-125.181-151.277-41.173-70.65-80.058-137.372-109.318-135.917-21.828 1.1-36.189 40.775-43.888 121.307-8.193 85.632-24.638 128.484-50.263 131.028-33.473 3.317-77.081-60.584-123.251-128.234-46.442-68.055-94.477-138.438-132.144-137.077-23.391.833-40.715 28.897-52.96 85.776l-1.046-.467c4.979-23.214 10.849-41.685 17.646-55.484z" fill="url(#paint10_linear_650_10758)" fill-opacity=".2"/><path d="M330.278 114.074c10.373-21.054 22.849-31.686 37.691-32.286 39.182-1.572 88.381 68.194 135.964 135.672 46.888 66.489 91.168 129.278 124.724 125.745 25.5-2.694 42.04-44.335 50.554-127.3 8.134-79.077 23.082-118.13 45.73-119.385 30.645-1.7 70.463 64.45 112.633 134.483 44.144 73.3 89.778 149.099 126.536 148.272 25.857-.584 44.67-38.836 57.54-116.957 11.37-68.923 30.84-104.198 59.55-107.847 46.09-5.855 109.26 70.372 176.18 151.065 74.12 89.41 150.77 181.874 213.34 175.997 41.88-3.944 72.66-51.551 94.07-145.571l1.04.466c-21.51 94.415-52.52 142.238-94.81 146.227-63.17 5.933-140.06-86.798-214.39-176.486-66.65-80.398-129.62-156.348-175.1-150.571-28.3 3.595-47.53 38.642-58.83 107.142-12.95 78.588-32.038 117.085-58.352 117.679-37.441.839-83.308-75.299-127.647-148.949-41.939-69.661-81.561-135.461-111.493-133.8-22.161 1.222-36.859 40.019-44.939 118.596-8.573 83.448-25.357 125.339-51.303 128.084-34.221 3.605-78.727-59.501-125.852-126.318-47.37-67.172-96.343-136.616-134.896-135.078-23.723.95-41.398 28.337-54.012 83.721l-1.045-.466c4.919-21.571 10.605-38.908 17.117-52.135z" fill="url(#paint11_linear_650_10758)" fill-opacity=".2"/><path d="M315.574 121.229c10.789-21.893 23.806-32.986 39.325-33.664 40.056-1.76 90.247 67.095 138.775 133.695 47.88 65.689 93.087 127.728 127.421 123.879 25.809-2.9 42.676-43.586 51.6-124.401 8.508-77.144 23.806-115.308 46.757-116.707 31.316-1.9 71.901 63.328 114.874 132.394 44.963 72.267 91.471 147.005 129.061 146.005 26.242-.705 45.493-38.069 58.813-114.257 11.72-66.989 31.5-101.425 60.47-105.264 47.12-6.255 111.69 69.133 180.06 148.932 75.76 88.454 154.11 179.913 218.18 173.608 42.36-4.166 73.65-50.629 95.65-142.021l1.06.5c-22.1 91.787-53.64 138.455-96.38 142.66-64.66 6.372-143.24-85.365-219.23-174.069-68.12-79.532-132.47-154.643-178.99-148.471-28.57 3.794-48.11 37.991-59.76 104.558-13.41 76.644-32.912 114.241-59.618 114.968-38.279 1.023-84.983-74.055-130.166-146.665-42.747-68.706-83.129-133.606-113.733-131.734-22.481 1.372-37.524 39.291-45.973 115.935-8.965 81.293-26.082 122.229-52.324 125.167-35 3.928-80.438-58.434-128.556-124.456-48.32-66.311-98.28-134.856-137.718-133.117-24.044 1.061-42.046 27.792-55.033 81.727l-1.034-.478c4.777-19.893 10.249-36.108 16.469-48.724z" fill="url(#paint12_linear_650_10758)" fill-opacity=".2"/><path d="M300.56 128.262c11.223-22.77 24.811-34.325 41.042-35.108 40.977-1.961 92.172 66.033 141.686 131.767C532.173 289.843 578.354 351.155 613.496 347c26.1-3.095 43.323-42.853 52.61-121.541 8.882-75.216 24.519-112.535 47.785-114.09 32.017-2.128 73.38 62.234 117.19 130.367 45.837 71.283 93.218 144.999 131.682 143.799 26.646-.833 46.297-37.341 60.097-111.613 12.08-65.083 32.16-98.669 61.36-102.719 48.18-6.661 114.18 67.916 184.07 146.882 77.47 87.532 157.57 178.019 223.19 171.275 42.8-4.405 74.61-49.718 97.2-138.533l1.05.5c-22.69 89.204-54.73 134.717-97.92 139.161-66.19 6.805-146.53-83.971-224.22-171.731-69.64-78.693-135.43-153.015-183.01-146.443-28.81 3.983-48.66 37.358-60.67 102.019-13.87 74.739-33.788 111.469-60.886 112.308-39.141 1.222-86.742-72.828-132.786-144.433-43.579-67.794-84.74-131.817-116.05-129.734-22.808 1.511-38.178 38.575-47.001 113.313-9.346 79.155-26.795 119.157-53.34 122.307-35.778 4.244-82.191-57.373-131.325-122.612-49.294-65.467-100.276-133.156-140.635-131.234-24.365 1.167-42.705 27.248-56.061 79.744l-1.046-.5c4.629-18.182 9.881-33.259 15.78-45.23z" fill="url(#paint13_linear_650_10758)" fill-opacity=".2"/><path d="M285.22 135.156c11.663-23.66 25.82-35.697 42.806-36.575 41.91-2.161 94.151 64.983 144.675 129.917 49.948 64.189 97.133 124.807 133.083 120.307 26.403-3.294 43.93-42.141 53.62-118.74 9.262-73.328 25.22-109.797 48.801-111.514 32.712-2.349 74.889 61.151 119.561 128.395 46.722 70.334 95.03 143.055 134.379 141.656 27.044-.956 47.105-36.609 61.355-109.003 12.44-63.194 32.8-95.986 62.24-100.208 49.25-7.077 116.74 66.733 188.19 144.877 79.22 86.626 161.14 176.219 228.35 169.031 43.27-4.622 75.56-48.808 98.74-135.089l1.04.511c-23.29 86.643-55.81 131.045-99.44 135.716-67.78 7.244-149.93-82.576-229.37-169.458-71.22-77.877-138.48-151.438-187.15-144.444-29.05 4.172-49.19 36.725-61.54 99.542-14.33 72.839-34.664 108.73-62.16 109.702-40.02 1.417-88.542-71.638-135.483-142.282-44.435-66.901-86.398-130.073-118.439-127.773-23.117 1.672-38.832 37.891-48.035 110.741-9.737 77.049-27.507 116.14-54.338 119.495-36.598 4.567-84.009-56.339-134.2-120.845-50.31-64.656-102.343-131.517-143.623-129.379-24.686 1.267-43.353 26.732-57.071 77.794l-1.04-.517c4.48-16.637 9.482-30.569 15.049-41.857z" fill="url(#paint14_linear_650_10758)" fill-opacity=".2"/><path d="M269.6 141.933c12.12-24.576 26.878-37.108 44.636-38.097 42.854-2.361 96.177 63.945 147.752 128.09 51.041 63.483 99.254 123.429 136.06 118.601 26.688-3.505 44.547-41.452 54.594-115.985 9.637-71.461 25.922-107.097 49.805-108.958 33.438-2.594 76.47 60.095 122.021 126.468 47.637 69.4 96.895 141.172 137.159 139.561 27.431-1.078 47.913-35.914 62.613-106.453 12.79-61.35 33.43-93.32 63.1-97.742 50.37-7.505 119.39 65.567 192.46 142.922 81.03 85.776 164.81 174.458 233.66 166.82 43.69-4.839 76.47-47.935 100.23-131.701l1.03.522c-23.86 84.149-56.87 127.429-100.93 132.317-69.4 7.694-153.41-81.237-234.65-167.236-72.84-77.094-141.63-149.921-191.43-142.511-29.29 4.361-49.7 36.114-62.4 97.07-14.8 70.983-35.539 106.025-63.404 107.13-40.917 1.623-90.407-70.466-138.258-140.177-45.313-66.028-88.12-128.401-120.886-125.856-23.426 1.816-39.467 37.219-49.039 108.219-10.112 74.977-28.209 113.162-55.306 116.723-37.43 4.917-85.881-55.323-137.159-119.101-51.362-63.867-104.465-129.906-146.725-127.59-24.989 1.378-43.995 26.215-58.081 75.878l-1.034-.523c4.254-15.037 8.977-27.831 14.182-38.391z" fill="url(#paint15_linear_650_10758)" fill-opacity=".2"/><path d="M253.648 148.599c12.589-25.52 27.959-38.58 46.52-39.663 43.828-2.578 98.267 62.956 150.918 126.317 52.17 62.795 101.453 122.118 139.126 116.935 26.955-3.711 45.141-40.758 55.556-113.269 10.011-69.633 26.623-104.447 50.804-106.469 34.185-2.86 78.073 59.04 124.557 124.574 48.582 68.505 98.827 139.344 140.041 137.533 27.817-1.211 48.71-35.22 63.87-103.942 13.13-59.523 34.04-90.698 63.92-95.303 51.5-7.933 122.1 64.422 196.84 141.016 82.89 84.954 168.6 172.786 239.12 164.703 44.1-5.055 77.38-47.051 101.7-128.378l1.03.539c-24.43 81.688-57.93 123.879-102.4 128.967-71.07 8.138-156.99-79.927-240.11-165.097-74.5-76.344-144.86-148.472-195.81-140.628-29.49 4.544-50.18 35.503-63.23 94.648-15.26 69.15-36.4 103.375-64.651 104.613-41.856 1.834-92.315-69.31-141.116-138.121-46.24-65.201-89.92-126.79-123.429-123.985-23.729 1.983-40.103 36.558-50.042 105.736-10.493 72.944-28.899 110.23-56.264 113.991-38.291 5.277-87.811-54.324-140.213-117.413-52.431-63.111-106.651-128.373-149.903-125.834-25.297 1.489-44.624 25.687-59.073 74.005l-1.028-.539c4.01-13.51 8.437-25.137 13.267-34.936z" fill="url(#paint16_linear_650_10758)" fill-opacity=".2"/><path d="M237.334 155.137c13.077-26.514 29.083-40.074 48.487-41.291 44.832-2.783 100.424 61.984 154.174 124.612 53.346 62.14 103.734 120.846 142.298 115.291 27.217-3.916 45.7-40.102 56.501-110.591 10.391-67.817 27.318-101.842 51.796-104.019 34.952-3.122 79.755 58.012 127.171 122.74 49.562 67.639 100.823 137.583 142.994 135.55 28.209-1.35 49.515-34.547 65.125-101.464 13.47-57.734 34.64-88.126 64.71-92.904 52.66-8.366 124.89 63.301 201.36 139.172 84.8 84.149 172.5 171.158 244.75 162.631 44.52-5.26 78.27-46.185 103.16-125.095l1.02.544c-24.99 79.277-58.96 120.385-103.84 125.679-72.78 8.588-160.7-78.638-245.73-163.014-76.21-75.628-148.21-147.066-200.34-138.784-29.71 4.717-50.64 34.898-64.04 92.26-15.72 67.35-37.265 100.747-65.902 102.125-42.818 2.061-94.293-68.184-144.063-136.111-47.191-64.412-91.762-125.235-126.072-122.174-24.039 2.139-40.727 35.925-51.047 103.286-10.861 70.922-29.576 107.336-57.19 111.313-39.171 5.644-89.79-53.334-143.374-115.762-53.542-62.379-108.914-126.885-153.188-124.146-25.601 1.606-45.249 25.204-60.06 72.155l-1.022-.55c3.796-11.982 7.89-22.47 12.322-31.453z" fill="url(#paint17_linear_650_10758)" fill-opacity=".2"/><path d="M220.74 161.576c13.575-27.515 30.234-41.613 50.506-42.952 45.854-3.005 102.634 61.023 157.531 122.934 54.558 61.517 106.075 119.618 145.56 113.697 27.472-4.128 46.252-39.436 57.416-107.958 10.748-66.017 28.007-99.259 52.758-101.598 35.736-3.388 81.46 57.001 129.869 120.946 50.578 66.817 102.872 135.883 146.047 133.634 28.583-1.495 50.283-33.892 66.353-99.048 13.82-55.979 35.23-85.593 65.48-90.537 53.86-8.799 127.76 62.2 206 137.361 86.79 83.382 176.53 169.597 250.54 160.615 44.92-5.45 79.13-45.319 104.57-121.868l1.01.561c-25.56 76.905-59.98 116.952-105.25 122.434-74.53 9.044-164.5-77.399-251.5-160.992-78.02-74.938-151.68-145.727-205-137.011-29.91 4.877-51.09 34.292-64.82 89.909-16.17 65.562-38.128 98.164-67.121 99.687-43.793 2.288-96.325-67.089-147.111-134.178-48.183-63.628-93.681-123.729-128.782-120.402-24.311 2.306-41.327 35.309-52.009 100.875-11.229 68.939-30.235 104.481-58.117 108.664-40.074 6.022-91.828-52.346-146.629-114.152-54.683-61.673-111.232-125.445-156.546-122.49-25.897 1.689-45.866 24.692-61.028 70.333l-1.016-.561c3.511-10.449 7.272-19.771 11.289-27.903z" fill="url(#paint18_linear_650_10758)" fill-opacity=".2"/><path d="M203.754 167.886c14.086-28.542 31.429-43.207 52.603-44.668 46.912-3.211 104.91 60.106 160.989 121.312 55.8 60.923 108.505 118.463 148.923 112.146 27.716-4.327 46.787-38.796 58.295-105.369 11.116-64.25 28.69-96.703 53.709-99.23 36.55-3.667 83.236 56.023 132.661 119.206 51.624 65.995 104.999 134.245 149.196 131.751 28.964-1.622 51.06-33.253 67.58-96.659 14.14-54.251 35.79-83.11 66.22-88.204 55.08-9.232 130.7 61.123 210.78 135.622 88.83 82.649 180.69 168.103 256.5 158.687 45.31-5.627 79.97-44.457 105.96-118.695l1.02.583c-26.1 74.566-60.98 113.579-106.63 119.251-76.32 9.488-168.4-76.177-257.46-159.026-79.83-74.283-155.24-144.427-209.79-135.278-30.08 5.044-51.52 33.692-65.55 87.593-16.62 63.812-38.983 95.631-68.345 97.287-44.808 2.522-98.41-66.017-150.241-132.284-49.193-62.878-95.66-122.284-131.58-118.679-24.609 2.472-41.927 34.703-52.972 98.52-11.591 66.983-30.889 101.691-58.991 106.074-41.006 6.394-93.948-51.395-149.986-112.579-55.877-60.984-113.643-124.057-160.015-120.879-26.2 1.788-46.466 24.226-61.99 68.539l-1.022-.584c3.19-9.049 6.559-17.187 10.136-24.437z" fill="url(#paint19_linear_650_10758)" fill-opacity=".2"/><path d="M186.423 174.108c14.616-29.609 32.647-44.852 54.772-46.429 48.005-3.422 107.251 59.189 164.554 119.74 57.095 60.334 111.036 117.335 152.422 110.635 27.948-4.522 47.298-38.163 59.169-102.814 11.484-62.511 29.349-94.203 54.653-96.875 37.376-3.955 85.06 55.04 135.531 117.507 52.699 65.206 107.203 132.645 152.44 129.934 29.332-1.761 51.836-32.614 68.796-94.315 14.45-52.562 36.35-80.665 66.93-85.915 56.32-9.671 133.73 60.079 215.69 133.928 90.93 81.943 184.95 166.653 262.63 156.798 45.68-5.81 80.79-43.602 107.31-115.579l1.02.594c-26.65 72.3-61.96 110.269-108 116.113-78.17 9.921-172.42-74.999-263.57-157.137-81.72-73.644-158.9-143.194-214.72-133.611-30.24 5.194-51.91 33.091-66.27 85.315-17.08 62.084-39.813 93.137-69.543 94.925-45.836 2.75-100.555-64.955-153.473-130.428-50.233-62.167-97.686-120.89-134.456-116.996-24.888 2.633-42.516 34.097-53.911 96.187-11.936 65.061-31.53 98.919-59.852 103.513-41.951 6.789-96.123-50.451-153.467-111.057-57.083-60.328-116.109-122.712-163.574-119.318-26.474 1.889-47.066 23.737-62.929 66.783l-1.016-.594c2.786-7.633 5.751-14.593 8.864-20.904z" fill="url(#paint20_linear_650_10758)" fill-opacity=".2"/><path d="M168.725 180.208c15.156-30.709 33.912-46.519 57.018-48.23 49.11-3.633 109.657 58.306 168.196 118.213 58.437 59.795 113.637 116.268 155.998 109.174 28.155-4.722 47.791-37.525 60.018-100.303 11.829-60.8 30.009-91.753 55.574-94.581 38.232-4.261 86.944 54.085 138.508 115.841 53.816 64.455 109.473 131.117 155.791 128.145 29.688-1.9 52.582-31.987 69.992-91.987 14.78-50.89 36.89-78.266 67.62-83.66 57.6-10.105 136.85 59.051 220.74 132.284 93.09 81.243 189.35 165.269 268.94 154.976 46.06-5.95 81.6-42.741 108.66-112.497l1.01.606c-27.18 70.044-62.95 107.019-109.33 113.007-80.07 10.344-176.56-73.855-269.85-155.287-83.67-73.022-162.68-141.994-219.78-131.967-30.4 5.327-52.3 32.514-66.97 83.066-17.53 60.383-40.667 90.67-70.747 92.586-46.912 3-102.777-63.922-156.807-128.639-51.332-61.484-99.8-119.54-137.432-115.357-25.149 2.794-43.092 33.519-54.855 93.898-12.293 63.167-32.148 96.192-60.684 100.975-42.937 7.199-98.363-49.519-157.05-109.558-58.337-59.684-118.658-121.407-167.239-117.813-26.772 1.978-47.661 23.254-63.886 65.045l-1.01-.611c2.406-6.222 4.943-11.994 7.575-17.326z" fill="url(#paint21_linear_650_10758)" fill-opacity=".2"/><path d="M150.646 186.224c15.714-31.836 35.213-48.269 59.347-50.107 50.25-3.85 112.116 57.445 171.956 116.729 59.822 59.267 116.323 115.246 159.712 107.73 28.375-4.911 48.261-36.902 60.832-97.825 12.186-59.118 30.657-89.31 56.471-92.326 39.117-4.55 88.875 53.135 141.562 114.224 54.962 63.734 111.814 129.628 159.242 126.429 30.057-2.034 53.342-31.381 71.192-89.721 15.07-49.274 37.4-75.905 68.28-81.427 58.91-10.538 140.03 58.057 225.93 130.679 95.31 80.588 193.87 163.914 275.42 153.215 46.41-6.094 82.39-41.913 109.98-109.469l1.01.622c-27.71 67.862-63.91 103.842-110.64 109.975-82.01 10.76-180.79-72.75-276.32-153.521-85.66-72.422-166.56-140.833-224.98-130.384-30.54 5.461-52.67 31.909-67.65 80.849-17.97 58.712-41.5 88.243-71.936 90.309-48 3.245-105.065-62.917-160.253-126.9-52.455-60.818-101.993-118.246-140.504-113.769-25.41 2.972-43.656 32.947-55.758 91.654-12.655 61.3-32.76 93.531-61.509 98.486-43.948 7.605-100.669-48.59-160.734-108.113-59.626-59.068-121.284-120.152-171.024-116.357-27.039 2.066-48.243 22.798-64.807 63.339l-1.01-.622c2.014-4.817 4.07-9.411 6.191-13.699z" fill="url(#paint22_linear_650_10758)" fill-opacity=".2"/><path d="M132.186 192.123c16.291-32.997 36.569-50.046 61.753-52.029 51.422-4.044 114.654 56.623 175.807 115.302 61.236 58.756 119.092 114.263 163.508 106.336 28.571-5.083 48.73-36.281 61.628-95.393 12.542-57.456 31.305-86.92 57.369-90.087 40.008-4.871 90.877 52.213 144.722 112.663 56.15 63.029 114.208 128.184 162.777 124.746 30.414-2.156 54.09-30.759 72.36-87.476 15.38-47.685 37.93-73.6 68.93-79.244 60.24-10.96 143.31 57.09 231.25 129.128 97.6 79.949 198.52 162.621 282.07 151.527 46.75-6.211 83.17-41.041 111.29-106.491l.99.644c-28.24 65.728-64.85 100.72-111.93 106.975-84 11.165-185.13-71.683-282.94-151.799-87.72-71.855-170.56-139.728-230.33-128.856-30.67 5.577-53.01 31.314-68.27 78.682-18.42 57.062-42.329 85.86-73.105 88.054-49.122 3.494-107.423-61.923-163.787-125.201-53.608-60.173-104.233-117.007-143.665-112.207-25.66 3.122-44.191 32.375-56.655 89.431-12.994 59.468-33.36 90.876-62.282 96.042-44.969 8.017-103.039-47.707-164.53-106.685-60.945-58.468-123.958-118.935-174.886-114.941-27.312 2.15-48.813 22.321-65.722 61.673l-.998-.633a199.147 199.147 0 014.646-10.161z" fill="url(#paint23_linear_650_10758)" fill-opacity=".2"/><path d="M113.352 197.951c16.885-34.209 37.947-51.896 64.26-53.996 52.616-4.233 117.25 55.834 179.77 113.913 62.721 58.273 121.949 113.307 167.447 104.975 28.749-5.267 49.146-35.681 62.383-92.993 12.898-55.806 31.94-84.559 58.23-87.893 40.935-5.188 92.914 51.313 147.972 111.119 57.368 62.345 116.709 126.818 166.443 123.112 30.763-2.288 54.813-30.169 73.533-85.276 15.67-46.124 38.42-71.333 69.54-77.071 61.6-11.366 146.66 56.139 236.71 127.634 99.94 79.338 203.28 161.364 288.88 149.876 47.12-6.321 83.94-40.197 112.58-103.558l.98.656c-28.77 63.639-65.79 97.669-113.2 104.03-86.05 11.549-189.6-70.655-289.75-150.155-89.83-71.305-174.67-138.66-235.79-127.372-30.8 5.688-53.33 30.719-68.9 76.527-18.84 55.445-43.13 83.537-74.268 85.843-50.287 3.738-109.836-60.973-167.43-123.557-54.813-59.556-106.573-115.802-146.944-110.691-25.91 3.272-44.725 31.82-57.517 87.243-13.326 57.662-33.942 88.293-63.048 93.62-46.021 8.438-105.492-46.824-168.451-105.314-62.3-57.884-126.733-117.757-178.861-113.557-27.591 2.217-49.365 21.837-66.636 60.012l-.993-.656c.987-2.211 2.02-4.377 3.06-6.471z" fill="url(#paint24_linear_650_10758)" fill-opacity=".2"/><path d="M94.079 203.661c17.502-35.441 39.39-53.773 66.85-56.034 53.851-4.416 119.936 55.057 183.839 112.563 64.231 57.806 124.909 112.396 171.488 103.647 28.916-5.427 49.573-35.075 63.125-90.62 13.231-54.207 32.564-82.249 59.086-85.732 41.885-5.505 95.041 50.423 151.334 109.646 58.64 61.684 119.27 125.468 170.21 121.529 31.097-2.411 55.519-29.592 74.689-83.104 15.97-44.602 38.9-69.122 70.13-74.949 63.01-11.766 150.12 55.245 242.34 126.195 102.34 78.732 208.18 160.148 295.87 148.293 47.45-6.41 84.69-39.363 113.83-100.664l.98.667c-29.28 61.606-66.72 94.664-114.46 101.125-88.13 11.905-194.17-69.661-296.72-148.56-92-70.783-178.89-137.633-241.43-125.94-30.91 5.783-53.65 30.12-69.51 74.422-19.28 53.857-43.951 81.227-75.41 83.66-51.474 3.994-112.33-60.034-171.178-121.946-56.049-58.967-108.974-114.657-150.313-109.224-26.147 3.433-45.242 31.264-58.39 85.093-13.641 55.901-34.501 85.748-63.767 91.248-47.102 8.855-108.006-45.958-172.474-103.981-63.702-57.328-129.578-116.612-182.942-112.224-27.858 2.289-49.918 21.365-67.534 58.384l-.986-.666c.422-.961.885-1.895 1.343-2.828z" fill="url(#paint25_linear_650_10758)" fill-opacity=".2"/><path d="M74.841 208.4c18.056-36.142 40.662-54.874 69.103-57.235 55.105-4.583 122.662 54.307 187.992 111.269 65.799 57.357 127.956 111.541 175.652 102.364 29.082-5.588 49.954-34.464 63.844-88.282 13.564-52.618 33.164-79.954 59.906-83.593 42.865-5.833 97.222 49.546 154.78 108.186 59.929 61.05 121.902 124.178 174.084 119.995 31.429-2.522 56.248-29.008 75.828-80.993 16.25-43.119 39.37-66.944 70.71-72.855 64.43-12.16 153.64 54.379 248.09 124.812 104.81 78.166 213.2 158.987 303.04 146.788 47.79-6.488 85.43-38.486 115.09-97.836l.97.677c-29.78 59.606-67.62 91.759-115.7 98.27-90.27 12.26-198.86-68.717-303.88-147.032-94.24-70.261-183.22-136.628-247.2-124.563-31.02 5.856-53.95 29.52-70.09 72.345-19.7 52.301-44.74 78.96-76.543 81.521-52.693 4.227-114.88-59.129-175.04-120.402-57.327-58.395-111.47-113.546-153.765-107.791-26.367 3.589-45.748 30.72-59.222 82.982-13.962 54.174-35.065 83.244-64.48 88.899-48.213 9.266-110.584-45.113-176.627-102.686-65.139-56.785-132.489-115.497-187.124-110.941-28.126 2.333-50.513 20.926-68.431 56.789l-.987-.688z" fill="url(#paint26_linear_650_10758)" fill-opacity=".2"/><path d="M56.644 210.205c18.4-35.03 41.29-53.234 69.987-55.656 56.388-4.75 125.467 53.584 192.288 110.007 67.421 56.94 131.093 110.713 179.953 101.125 29.225-5.733 50.334-33.858 64.528-85.982 13.896-51.068 33.764-77.732 60.707-81.504 43.846-6.155 99.462 48.696 158.346 106.775 61.265 60.439 124.634 122.939 178.052 118.512 31.768-2.633 56.945-28.431 76.955-78.888 16.51-41.663 39.83-64.822 71.25-70.8 65.89-12.532 157.25 53.524 253.99 123.462 79.05 57.157 160.8 116.252 235.56 137.989 84.68 24.637 147.21-4.055 191.14-87.704l.96.706c-23.33 44.418-52.41 73.849-86.42 87.47-30.54 12.227-65.14 12.433-105.75.623-74.97-21.804-156.82-80.983-235.96-138.206-96.51-69.766-187.68-135.683-253.12-123.229-31.12 5.917-54.22 28.904-70.65 70.289-20.14 50.768-45.54 76.744-77.67 79.399-53.94 4.466-117.517-58.24-178.997-118.89-58.634-57.84-114.024-112.474-157.347-106.392-26.587 3.728-46.217 30.198-60.024 80.905-14.277 52.474-35.6 80.788-65.158 86.587-49.347 9.683-113.251-44.285-180.91-101.419-66.607-56.257-135.489-114.424-191.42-109.713-28.399 2.388-51.065 20.454-69.328 55.217l-.962-.683z" fill="url(#paint27_linear_650_10758)" fill-opacity=".2"/><path d="M38.094 211.861c18.733-33.931 41.916-51.624 70.873-54.079 57.707-4.894 128.342 52.901 196.666 108.807 69.079 56.529 134.331 109.919 184.368 99.915 29.362-5.867 50.697-33.248 65.193-83.71 14.224-49.541 34.346-75.516 61.504-79.438 44.88-6.478 101.779 47.874 162.017 105.408 62.65 59.839 127.433 121.729 182.157 117.074 32.119-2.734 57.658-27.854 78.088-76.816 16.79-40.247 40.29-62.74 71.79-68.761 67.36-12.894 160.94 52.701 260.01 122.145 80.52 56.457 163.79 114.819 240.06 136.55 86.38 24.609 150.3-3.155 195.42-84.893l.96.717c-45.33 82.126-109.6 110.013-196.45 85.265-76.47-21.787-159.82-80.227-240.44-136.728-98.86-69.3-192.23-134.75-259.18-121.962-31.21 5.977-54.5 28.303-71.19 68.278-20.55 49.273-46.331 74.555-78.776 77.316-55.23 4.694-120.239-57.385-183.091-117.424-60-57.307-116.667-111.447-161.031-105.053-26.806 3.872-46.692 29.659-60.826 78.838-14.591 50.802-36.128 78.372-65.823 84.316-50.518 10.093-115.984-43.48-185.3-100.192C236.971 211.7 166.532 154.06 109.264 158.915c-28.666 2.433-51.623 19.987-70.213 53.673l-.957-.727z" fill="url(#paint28_linear_650_10758)" fill-opacity=".2"/><path d="M19.226 213.394c19.065-32.87 42.527-50.063 71.734-52.535 59.05-5.033 131.301 52.257 201.164 107.658 70.796 56.14 137.664 109.163 188.895 98.753 29.492-5.988 51.029-32.642 65.823-81.482 14.55-48.029 34.922-73.355 62.27-77.405 45.931-6.805 104.155 47.052 165.795 104.086 64.065 59.273 130.321 120.562 186.382 115.68 32.439-2.828 58.341-27.293 79.181-74.783 17.07-38.864 40.72-60.718 72.31-66.773 68.89-13.204 164.74 51.946 266.21 120.94 82.04 55.763 166.85 113.43 244.64 135.139 88.11 24.598 153.46-2.261 199.78-82.098l.95.727c-46.54 80.222-112.21 107.197-200.78 82.471-77.99-21.765-162.9-79.499-245.02-135.322-101.27-68.844-196.92-133.878-265.39-120.74-31.32 6.005-54.78 27.692-71.73 66.3-20.98 47.78-47.1 72.416-79.871 75.261-56.549 4.933-123.001-56.557-187.291-116.024-61.403-56.801-119.413-110.458-164.834-103.736-27.008 4.005-47.155 29.12-61.61 76.821-14.901 49.169-36.634 76-66.458 82.066-51.713 10.499-118.795-42.702-189.834-99.02-69.673-55.251-141.71-112.374-200.344-107.374-28.922 2.46-52.176 19.515-71.093 52.129l-.88-.739z" fill="url(#paint29_linear_650_10758)" fill-opacity=".2"/><path d="M0 214.81c65.746-107.896 173.84-24.82 278.394 55.507 72.566 55.767 141.103 108.435 193.559 97.625 29.616-6.099 51.361-32.042 66.452-79.288 14.871-46.552 35.481-71.216 63.025-75.388 47.018-7.122 106.597 46.263 169.675 102.78 65.531 58.718 133.291 119.441 190.719 114.336 32.766-2.917 59.016-26.709 80.286-72.778 14.74-31.908 34.05-51.862 59.02-61 22.41-8.189 48.99-7.439 81.29 2.283 60.17 18.115 130.56 64.533 205.1 113.679 83.57 55.107 169.97 112.086 249.33 133.795 89.88 24.592 156.69-1.35 204.21-79.355l.94.75c-47.75 78.355-114.88 104.431-205.21 79.705-79.54-21.771-166.04-78.799-249.68-133.956-74.44-49.096-144.76-95.464-204.75-113.529-67.28-20.249-111.51-1.773-139.24 58.295-21.39 46.329-47.889 70.311-80.969 73.249-57.898 5.15-125.883-55.762-191.617-114.668-62.852-56.312-122.21-109.508-168.718-102.453-27.205 4.117-47.601 28.603-62.359 74.827-15.198 47.563-37.133 73.678-67.065 79.849-52.942 10.9-121.694-41.935-194.486-97.875C173.828 191.218 66.197 108.513.962 215.56L0 214.81z" fill="url(#paint30_linear_650_10758)" fill-opacity=".2"/><defs><linearGradient id="paint0_linear_650_10758" x1="1476.49" y1="0" x2="365.204" y2="106.298" gradientUnits="userSpaceOnUse"><stop stop-color="#BE8143"/><stop offset=".556" stop-color="#8F664E"/><stop offset="1" stop-color="#BB7F44"/></linearGradient><linearGradient id="paint1_linear_650_10758" x1="1486.14" y1="9.911" x2="353.669" y2="121.834" gradientUnits="userSpaceOnUse"><stop stop-color="#BE8143"/><stop offset=".556" stop-color="#8F664E"/><stop offset="1" stop-color="#BB7F44"/></linearGradient><linearGradient id="paint2_linear_650_10758" x1="1495.99" y1="19.632" x2="341.942" y2="137.452" gradientUnits="userSpaceOnUse"><stop stop-color="#BE8143"/><stop offset=".556" stop-color="#8F664E"/><stop offset="1" stop-color="#BB7F44"/></linearGradient><linearGradient id="paint3_linear_650_10758" x1="1506.11" y1="27.675" x2="329.995" y2="151.252" gradientUnits="userSpaceOnUse"><stop stop-color="#BE8143"/><stop offset=".556" stop-color="#8F664E"/><stop offset="1" stop-color="#BB7F44"/></linearGradient><linearGradient id="paint4_linear_650_10758" x1="1516.48" y1="35.513" x2="317.909" y2="165.085" gradientUnits="userSpaceOnUse"><stop stop-color="#BE8143"/><stop offset=".556" stop-color="#8F664E"/><stop offset="1" stop-color="#BB7F44"/></linearGradient><linearGradient id="paint5_linear_650_10758" x1="1527.11" y1="43.177" x2="305.706" y2="178.982" gradientUnits="userSpaceOnUse"><stop stop-color="#BE8143"/><stop offset=".556" stop-color="#8F664E"/><stop offset="1" stop-color="#BB7F44"/></linearGradient><linearGradient id="paint6_linear_650_10758" x1="1537.91" y1="50.275" x2="292.395" y2="192.632" gradientUnits="userSpaceOnUse"><stop stop-color="#BE8143"/><stop offset=".556" stop-color="#8F664E"/><stop offset="1" stop-color="#BB7F44"/></linearGradient><linearGradient id="paint7_linear_650_10758" x1="1548.98" y1="56.933" x2="278.453" y2="206.078" gradientUnits="userSpaceOnUse"><stop stop-color="#BE8143"/><stop offset=".556" stop-color="#8F664E"/><stop offset="1" stop-color="#BB7F44"/></linearGradient><linearGradient id="paint8_linear_650_10758" x1="1560.28" y1="63.412" x2="264.289" y2="219.617" gradientUnits="userSpaceOnUse"><stop stop-color="#BE8143"/><stop offset=".556" stop-color="#8F664E"/><stop offset="1" stop-color="#BB7F44"/></linearGradient><linearGradient id="paint9_linear_650_10758" x1="1571.91" y1="69.719" x2="250.092" y2="233.24" gradientUnits="userSpaceOnUse"><stop stop-color="#BE8143"/><stop offset=".556" stop-color="#8F664E"/><stop offset="1" stop-color="#BB7F44"/></linearGradient><linearGradient id="paint10_linear_650_10758" x1="1583.8" y1="75.835" x2="235.655" y2="246.955" gradientUnits="userSpaceOnUse"><stop stop-color="#BE8143"/><stop offset=".556" stop-color="#8F664E"/><stop offset="1" stop-color="#BB7F44"/></linearGradient><linearGradient id="paint11_linear_650_10758" x1="1595.92" y1="81.762" x2="220.967" y2="260.741" gradientUnits="userSpaceOnUse"><stop stop-color="#BE8143"/><stop offset=".556" stop-color="#8F664E"/><stop offset="1" stop-color="#BB7F44"/></linearGradient><linearGradient id="paint12_linear_650_10758" x1="1608.34" y1="87.532" x2="206.202" y2="274.652" gradientUnits="userSpaceOnUse"><stop stop-color="#BE8143"/><stop offset=".556" stop-color="#8F664E"/><stop offset="1" stop-color="#BB7F44"/></linearGradient><linearGradient id="paint13_linear_650_10758" x1="1621.08" y1="93.112" x2="191.217" y2="288.677" gradientUnits="userSpaceOnUse"><stop stop-color="#BE8143"/><stop offset=".556" stop-color="#8F664E"/><stop offset="1" stop-color="#BB7F44"/></linearGradient><linearGradient id="paint14_linear_650_10758" x1="1634.06" y1="98.53" x2="175.992" y2="302.797" gradientUnits="userSpaceOnUse"><stop stop-color="#BE8143"/><stop offset=".556" stop-color="#8F664E"/><stop offset="1" stop-color="#BB7F44"/></linearGradient><linearGradient id="paint15_linear_650_10758" x1="1647.38" y1="103.775" x2="160.692" y2="317.054" gradientUnits="userSpaceOnUse"><stop stop-color="#BE8143"/><stop offset=".556" stop-color="#8F664E"/><stop offset="1" stop-color="#BB7F44"/></linearGradient><linearGradient id="paint16_linear_650_10758" x1="1660.98" y1="108.862" x2="145.166" y2="331.452" gradientUnits="userSpaceOnUse"><stop stop-color="#BE8143"/><stop offset=".556" stop-color="#8F664E"/><stop offset="1" stop-color="#BB7F44"/></linearGradient><linearGradient id="paint17_linear_650_10758" x1="1674.89" y1="113.76" x2="129.367" y2="345.982" gradientUnits="userSpaceOnUse"><stop stop-color="#BE8143"/><stop offset=".556" stop-color="#8F664E"/><stop offset="1" stop-color="#BB7F44"/></linearGradient><linearGradient id="paint18_linear_650_10758" x1="1689.09" y1="118.522" x2="113.45" y2="360.679" gradientUnits="userSpaceOnUse"><stop stop-color="#BE8143"/><stop offset=".556" stop-color="#8F664E"/><stop offset="1" stop-color="#BB7F44"/></linearGradient><linearGradient id="paint19_linear_650_10758" x1="1703.62" y1="123.101" x2="97.32" y2="375.475" gradientUnits="userSpaceOnUse"><stop stop-color="#BE8143"/><stop offset=".556" stop-color="#8F664E"/><stop offset="1" stop-color="#BB7F44"/></linearGradient><linearGradient id="paint20_linear_650_10758" x1="1718.49" y1="127.544" x2="81.039" y2="390.462" gradientUnits="userSpaceOnUse"><stop stop-color="#BE8143"/><stop offset=".556" stop-color="#8F664E"/><stop offset="1" stop-color="#BB7F44"/></linearGradient><linearGradient id="paint21_linear_650_10758" x1="1733.68" y1="131.826" x2="64.488" y2="405.648" gradientUnits="userSpaceOnUse"><stop stop-color="#BE8143"/><stop offset=".556" stop-color="#8F664E"/><stop offset="1" stop-color="#BB7F44"/></linearGradient><linearGradient id="paint22_linear_650_10758" x1="1749.23" y1="135.944" x2="47.727" y2="420.999" gradientUnits="userSpaceOnUse"><stop stop-color="#BE8143"/><stop offset=".556" stop-color="#8F664E"/><stop offset="1" stop-color="#BB7F44"/></linearGradient><linearGradient id="paint23_linear_650_10758" x1="1765.06" y1="139.903" x2="30.818" y2="436.453" gradientUnits="userSpaceOnUse"><stop stop-color="#BE8143"/><stop offset=".556" stop-color="#8F664E"/><stop offset="1" stop-color="#BB7F44"/></linearGradient><linearGradient id="paint24_linear_650_10758" x1="1781.29" y1="143.744" x2="13.67" y2="452.19" gradientUnits="userSpaceOnUse"><stop stop-color="#BE8143"/><stop offset=".556" stop-color="#8F664E"/><stop offset="1" stop-color="#BB7F44"/></linearGradient><linearGradient id="paint25_linear_650_10758" x1="1797.85" y1="147.395" x2="-3.709" y2="468.049" gradientUnits="userSpaceOnUse"><stop stop-color="#BE8143"/><stop offset=".556" stop-color="#8F664E"/><stop offset="1" stop-color="#BB7F44"/></linearGradient><linearGradient id="paint26_linear_650_10758" x1="1814.75" y1="150.914" x2="-21.338" y2="484.126" gradientUnits="userSpaceOnUse"><stop stop-color="#BE8143"/><stop offset=".556" stop-color="#8F664E"/><stop offset="1" stop-color="#BB7F44"/></linearGradient><linearGradient id="paint27_linear_650_10758" x1="1832.01" y1="154.277" x2="-39.191" y2="500.359" gradientUnits="userSpaceOnUse"><stop stop-color="#BE8143"/><stop offset=".556" stop-color="#8F664E"/><stop offset="1" stop-color="#BB7F44"/></linearGradient><linearGradient id="paint28_linear_650_10758" x1="1849.7" y1="157.491" x2="-57.26" y2="516.932" gradientUnits="userSpaceOnUse"><stop stop-color="#BE8143"/><stop offset=".556" stop-color="#8F664E"/><stop offset="1" stop-color="#BB7F44"/></linearGradient><linearGradient id="paint29_linear_650_10758" x1="1867.73" y1="160.55" x2="-75.614" y2="533.536" gradientUnits="userSpaceOnUse"><stop stop-color="#BE8143"/><stop offset=".556" stop-color="#8F664E"/><stop offset="1" stop-color="#BB7F44"/></linearGradient><linearGradient id="paint30_linear_650_10758" x1="1886.25" y1="163.37" x2="-94.255" y2="550.241" gradientUnits="userSpaceOnUse"><stop stop-color="#BE8143"/><stop offset=".556" stop-color="#8F664E"/><stop offset="1" stop-color="#BB7F44"/></linearGradient></defs></svg>