<svg width="16" height="20" fill="none" xmlns="http://www.w3.org/2000/svg"><path d="M8 0C3.864 0 .5 3.364.5 7.5c0 5.199 6.77 12.029 7.058 12.317a.628.628 0 00.885 0C8.73 19.53 15.5 12.7 15.5 7.5 15.5 3.364 12.136 0 8 0zm0 18.471c-1.492-1.597-6.25-7-6.25-10.971A6.257 6.257 0 018 1.25a6.257 6.257 0 016.25 6.25c0 3.967-4.758 9.374-6.25 10.971z" fill="#EDEDED"/><path d="M8 3.75A3.755 3.755 0 004.25 7.5 3.755 3.755 0 008 11.25a3.755 3.755 0 003.75-3.75A3.755 3.755 0 008 3.75zM8 10a2.503 2.503 0 01-2.5-2.5C5.5 6.121 6.621 5 8 5s2.5 1.121 2.5 2.5S9.379 10 8 10z" fill="#EDEDED"/></svg>