<svg width="1920" height="299" fill="none" xmlns="http://www.w3.org/2000/svg"><path d="M1672.99-86.835c-9.57-16.402-21.34-25.39-35.05-27.058-48.24-5.838-114.45 79.599-178.6 162.256-59.87 77.283-121.82 157.16-162.69 150.951-33.88-5.189-51.34-68.294-53.41-192.928-1.94-117.407-17.33-176.342-47.07-180.048-37.9-4.726-92.73 78.024-150.67 165.685-60.783 91.924-123.635 186.905-168.64 181.994-33.496-3.614-53.8-62.271-61.818-179.307-7.372-106.379-30.133-161.33-69.448-168.002-56.645-9.637-139.284 80.619-226.838 176.064-96.994 105.638-197.222 214.797-272.877 203.214-56.386-8.71-92.468-83.769-110.186-229.716l-1.681.185c17.717 146.503 54.187 222.025 111.349 230.736 76.82 11.861 177.435-97.762 274.559-203.678 87.295-95.074 169.676-184.959 225.156-175.507 38.669 6.579 60.913 61.159 68.285 166.89 8.147 117.684 28.839 176.712 63.111 180.418 46.169 5.004 109.409-90.44 170.448-182.735 57.68-87.198 112.13-169.485 148.86-164.944 28.97 3.614 43.84 62.086 45.78 178.844 2.07 125.283 19.91 188.758 54.7 194.133 42.03 6.394 101.65-70.333 164.64-151.6 63.75-82.287 129.71-167.353 176.78-161.608 31.3 3.799 51.48 46.796 61.69 131.584l1.68-.185c-6.08-48.742-15.26-83.862-28.06-105.638z" fill="url(#paint0_linear_678_25023)" fill-opacity=".2"/><path d="M1687.86-74.603c-10.08-17.144-22.24-26.503-36.73-28.356-49.27-6.116-116.52 77.839-181.44 159.013-60.78 75.986-123.77 154.473-165.54 147.894-34.4-5.375-52.5-67.368-55.35-189.315-2.59-114.997-18.62-172.82-48.88-176.712-38.67-4.911-94.15 76.356-153 162.349-61.556 90.256-125.313 183.569-171.224 178.38-34.142-3.799-54.964-61.344-63.887-175.97-8.018-103.971-31.426-157.902-71.259-164.852-57.808-10.1-141.87 78.58-230.976 172.357C411.028 113.97 309.119 221.37 231.782 209.137c-57.291-9.081-94.278-82.75-113.03-225.362l-1.682.186c18.882 143.26 56.257 217.299 114.195 226.381 78.501 12.417 180.668-95.353 279.603-199.508 88.717-93.5 172.52-181.716 229.165-171.894 39.186 6.857 62.077 60.418 70.095 163.74 8.923 115.274 30.262 173.19 65.18 177.082 47.204 5.282 111.22-88.495 173.042-179.121 58.45-85.623 113.67-166.427 151.05-161.701 29.36 3.799 45 61.159 47.59 175.508 2.85 122.596 21.34 184.959 56.52 190.426 42.93 6.765 103.33-68.664 167.34-148.542 64.67-80.804 131.66-164.295 179.64-158.364 31.81 3.984 52.5 46.24 63.5 129.175l1.68-.186c-5.95-46.147-15.26-79.97-27.81-101.56z" fill="url(#paint1_linear_678_25023)" fill-opacity=".2"/><path d="M1703.12-62.464c-10.47-17.977-23.28-27.8-38.41-29.746-50.31-6.394-118.46 75.985-184.55 155.77-61.81 74.595-125.7 151.785-168.38 144.928-35.04-5.652-53.67-66.441-57.16-185.793-3.36-112.588-19.92-169.299-50.7-173.376-39.44-5.19-95.7 74.595-155.32 159.105-62.46 88.588-126.994 180.234-173.939 174.767-34.659-3.985-56.257-60.511-65.956-172.728-8.794-101.56-32.72-154.473-73.069-161.793-58.973-10.471-144.587 76.634-235.115 168.928-100.227 102.024-203.947 207.57-282.965 194.782-58.067-9.359-95.96-81.73-115.876-221.191l-1.681.185c20.046 140.017 58.326 212.666 117.04 222.211 80.182 12.973 184.16-92.943 284.776-195.338 90.269-91.924 175.495-178.658 233.303-168.28 39.703 7.135 63.241 59.676 71.906 160.681 9.699 112.866 31.684 169.763 67.249 173.84 48.109 5.56 113.031-86.55 175.757-175.508 59.23-84.047 115.23-163.461 153.38-158.457 29.87 3.985 46.04 60.233 49.4 172.264 3.49 120.002 22.63 181.068 58.46 186.906 43.84 7.135 105.27-66.997 170.19-145.484 65.7-79.322 133.59-161.423 182.74-155.121 32.33 4.17 53.54 45.59 65.18 126.765l1.68-.185c-6.34-44.294-15.52-76.912-27.94-98.132z" fill="url(#paint2_linear_678_25023)" fill-opacity=".2"/><path d="M1718.77-50.418c-10.99-18.81-24.31-29.097-40.22-31.135-51.34-6.765-120.66 74.224-187.65 152.619-65.7 76.727-127.65 149.191-171.23 141.87-35.56-5.93-54.83-65.514-59.1-182.272-4.01-110.271-21.21-165.963-52.38-170.133-40.35-5.467-97.38 72.927-157.78 155.955-63.236 87.013-128.804 176.991-176.654 171.338-35.306-4.17-57.55-59.584-68.026-169.577-9.44-99.244-34.012-151.137-74.879-158.735-60.266-11.12-147.303 74.595-239.512 165.221C389.301 125.09 283.771 228.875 202.942 215.439c-58.843-9.822-97.77-80.804-118.72-217.021l-1.682.278c21.08 136.866 60.395 208.125 119.885 218.041 81.993 13.621 187.781-90.534 290.207-191.261 91.822-90.349 178.599-175.6 237.701-164.759 40.221 7.414 64.275 58.935 73.716 157.624 10.605 110.549 33.237 166.333 69.319 170.596 49.144 5.838 114.97-84.603 178.472-171.986 60-82.565 116.78-160.496 155.84-155.214 30.39 4.077 47.2 59.398 51.08 169.02 4.27 117.407 24.05 177.362 60.26 183.385 44.75 7.413 107.09-65.422 173.17-142.519 66.73-77.931 135.66-158.55 185.84-151.97 32.85 4.262 54.71 45.035 66.99 124.448l1.69-.278c-6.47-42.07-15.78-73.39-27.94-94.24z" fill="url(#paint3_linear_678_25023)" fill-opacity=".2"/><path d="M1734.81-38.556c-11.51-19.646-25.48-30.395-42.16-32.619-52.38-7.042-122.86 72.557-190.89 149.47-66.73 75.429-129.84 146.595-174.33 138.997-36.08-6.209-56-64.68-60.91-178.844-4.66-107.955-22.37-162.534-54.19-166.982-41.12-5.745-99.06 71.26-160.23 152.804-64.149 85.438-130.623 173.747-179.508 167.817-35.953-4.355-58.843-58.75-70.224-166.427-10.217-96.927-35.306-147.8-76.69-155.677C664.119-141.6 575.53-57.46 481.64 31.776c-103.849 98.689-211.319 200.805-293.958 186.72-59.619-10.193-99.451-79.784-121.566-212.944l-1.681.278c22.244 133.716 62.335 203.678 122.73 213.964 83.803 14.27 191.531-88.125 295.768-187.184 93.503-88.773 181.703-172.727 242.227-161.237 40.738 7.691 65.439 58.286 75.527 154.658 11.38 108.233 34.789 162.998 71.517 167.446 50.179 6.116 116.911-82.657 181.446-168.558 60.91-81.082 118.46-157.716 158.42-152.063 30.91 4.355 48.24 58.564 52.9 165.87 5.04 114.812 25.34 173.654 62.2 179.956 45.78 7.784 109.15-63.754 176.27-139.554 67.77-76.541 137.87-155.77 189.21-148.82 33.36 4.448 55.74 44.387 68.67 122.133l1.68-.278c-6.98-40.124-16.16-70.24-28.19-90.72z" fill="url(#paint4_linear_678_25023)" fill-opacity=".2"/><path d="M1751.36-26.695c-11.9-20.48-26.64-31.785-44.1-34.101-53.54-7.32-125.06 70.796-194.25 146.41-67.89 74.133-131.91 144.095-177.56 136.126-36.6-6.394-57.16-63.847-62.85-175.508-5.44-105.638-23.67-159.291-55.87-163.832-42.03-6.023-100.75 69.591-162.82 149.654-65.184 83.955-132.433 170.689-182.612 164.481-36.599-4.541-60.136-57.916-72.293-163.276-10.863-94.611-36.599-144.558-78.501-152.712-62.852-12.139-153.122 70.61-248.693 158.364-105.66 96.928-214.94 197.284-299.648 182.55C111.638 210.898 71.03 142.604 47.751 12.594l-1.681.279c23.279 130.565 64.404 199.229 125.575 209.886 85.614 14.919 195.412-85.808 301.459-183.106 95.313-87.476 185.324-169.948 247.012-157.994 41.126 7.969 66.474 57.637 77.208 151.692 12.157 105.917 36.211 159.662 73.586 164.296 51.213 6.393 118.851-80.804 184.42-165.13 61.82-79.691 120.27-154.843 161.01-149.005 31.43 4.541 49.27 57.73 54.7 162.72 5.69 112.217 26.65 170.04 64.02 176.619 46.69 8.248 111.09-62.178 179.38-136.68C1583.37 10.925 1654.5-66.82 1707-59.593c33.89 4.634 56.91 43.831 70.48 119.816l1.69-.278c-6.86-37.807-16.04-66.626-27.81-86.642z" fill="url(#paint5_linear_678_25023)" fill-opacity=".2"/><path d="M1768.56-15.39c-12.41-21.313-27.8-33.175-46.04-35.677-54.7-7.69-127.38 69.036-197.74 143.26-69.06 72.835-134.24 141.593-180.8 133.16-37.11-6.672-58.19-63.012-64.66-171.986-6.08-103.322-24.96-155.863-57.68-160.681-42.8-6.301-102.42 67.923-165.53 146.596-66.09 82.379-134.503 167.538-185.716 161.052-37.117-4.726-61.43-57.082-74.363-160.125-11.51-92.295-37.763-141.315-80.182-149.655-64.145-12.695-156.096 68.665-253.479 154.844-107.857 95.167-219.336 193.762-305.855 178.38-61.3-10.935-102.814-77.931-127.128-204.79l-1.68.278c24.442 127.415 66.343 194.689 128.29 205.809 87.554 15.568 199.421-83.398 307.537-179.121 96.995-85.808 188.557-166.89 251.669-154.38 41.642 8.247 67.508 56.896 79.018 148.635 12.932 103.599 37.763 156.325 75.655 161.237 52.377 6.672 121.049-78.858 187.524-161.7 62.72-78.21 122.08-152.064 163.73-145.948 31.94 4.726 50.43 56.896 56.38 159.569 6.47 109.623 27.94 166.334 65.83 173.098 47.72 8.618 113.29-60.51 182.61-133.715C1595.91 18.896 1668.33-57.46 1722-49.955c34.41 4.819 57.94 43.275 72.17 117.5l1.68-.278c-6.85-35.584-15.91-63.105-27.29-82.657z" fill="url(#paint6_linear_678_25023)" fill-opacity=".2"/><path d="M1786.15-4.363c-13.06-22.24-28.97-34.565-48.24-37.344-55.87-8.062-129.84 67.274-201.36 140.11-70.22 71.537-136.57 139.089-184.16 130.286-37.63-6.95-59.36-62.178-66.47-168.558-6.73-101.004-26.26-152.526-59.49-157.53-43.71-6.672-104.24 66.255-168.38 143.445-67.124 80.804-136.572 164.388-188.82 157.624-37.763-4.912-62.723-56.248-76.432-156.975-12.286-89.978-39.056-137.978-81.863-146.689-65.568-13.343-159.33 66.626-258.393 151.322-109.798 93.777-223.475 190.705-311.934 174.581C78.531 214.604 36.113 148.997 10.635 25.197l-1.68.278C34.43 149.739 77.367 215.716 140.09 227.114c89.493 16.309 203.429-80.989 313.744-175.044C552.64-32.256 646.013-111.948 710.547-98.79c42.16 8.526 68.543 56.156 80.699 145.67 13.838 101.283 39.186 152.99 77.725 157.994 53.412 6.95 123.248-77.004 190.629-158.179 63.76-76.727 123.89-149.283 166.57-142.797 32.46 4.911 51.47 56.063 58.2 156.419 7.24 107.028 29.35 162.534 67.63 169.669 48.76 9.082 115.49-58.842 185.97-130.843 71.26-72.556 144.85-147.43 199.68-139.553 34.92 5.004 58.98 42.718 73.85 115.182l1.68-.278c-6.98-33.637-15.91-59.861-27.03-78.857z" fill="url(#paint7_linear_678_25023)" fill-opacity=".2"/><path d="M1804.26 6.571c-13.58-23.166-30.27-36.047-50.31-39.012-57.03-8.432-132.3 65.514-205.11 137.052-71.52 70.332-139.03 136.681-187.78 127.414-38.15-7.228-60.4-61.344-68.29-165.222-7.5-98.688-27.42-149.19-61.17-154.472-44.75-6.95-106.18 64.587-171.36 140.387-68.151 79.322-138.633 161.33-192.174 154.195-38.41-5.097-64.016-55.506-78.63-153.917-12.933-87.66-40.221-134.735-83.545-143.723-66.991-13.9-162.562 64.68-263.566 147.893-111.996 92.109-227.743 187.369-318.4 170.597C61.072 216.087 17.748 151.777-8.764 31.127l-1.68.278C16.066 152.611 59.907 217.2 123.277 228.967 215.1 246.018 331.234 150.48 443.618 58 544.363-24.842 639.547-103.144 705.503-89.523c42.549 8.804 69.578 55.507 82.381 142.705 14.614 99.059 40.738 149.746 79.794 154.936 54.575 7.32 125.446-75.152 193.992-154.844 64.79-75.336 125.96-146.503 169.41-139.739 32.98 5.097 52.51 55.321 60.01 153.361 7.89 104.526 30.65 158.921 69.45 166.334 49.79 9.452 117.69-57.267 189.59-127.878 72.42-71.167 147.3-144.835 203.3-136.588 35.44 5.189 60.14 42.162 75.66 112.958l1.68-.278c-6.99-31.598-15.78-56.525-26.51-74.873z" fill="url(#paint8_linear_678_25023)" fill-opacity=".2"/><path d="M1822.88 17.413c-14.1-24.093-31.56-37.53-52.64-40.68-58.32-8.803-134.88 63.846-208.86 134.086-72.81 69.036-141.61 134.272-191.4 124.542-38.54-7.506-61.56-60.51-70.1-161.886-8.14-96.371-28.71-145.947-62.98-151.414-45.65-7.32-108.11 62.92-174.33 137.33-69.317 77.838-140.964 158.364-195.539 150.858-38.927-5.375-65.31-54.672-80.7-150.951-13.579-85.438-41.513-131.492-85.225-140.759C632.692-96.009 535.31-18.726 432.108 63.004 317.913 153.631 199.839 247.222 107.112 229.71 43.484 217.662-.746 154.65-28.163 37.058l-1.681.278c27.675 118.148 72.293 181.438 136.439 193.67 93.632 17.699 212.223-76.171 326.677-167.075C535.957-17.522 633.08-94.526 700.459-80.163c43.066 9.08 70.612 54.857 84.062 139.739 15.39 96.742 42.16 146.503 81.992 151.97 55.74 7.599 127.774-73.205 197.347-151.507 65.83-73.947 128.04-143.816 172.53-136.774 33.49 5.282 53.67 54.487 61.68 150.303 8.67 102.024 31.95 155.307 71.26 162.998 50.83 9.915 120.02-55.599 193.22-125.098 73.71-69.87 149.88-142.148 207.18-133.53 35.95 5.374 61.17 41.606 77.33 110.734l1.68-.278c-6.85-29.652-15.52-53.282-25.86-70.981z" fill="url(#paint9_linear_678_25023)" fill-opacity=".2"/><path d="M1841.89 28.07c-14.74-25.113-32.98-39.105-54.96-42.534-59.62-9.174-137.48 62.179-212.87 131.121-74.24 67.831-144.33 131.955-195.16 121.762-39.05-7.784-62.59-59.769-71.9-158.642-8.8-94.148-30.01-142.705-64.67-148.45-46.68-7.598-110.18 61.344-177.43 134.365C994.546 142.14 921.606 221.183 865.738 213.4c-39.574-5.56-66.603-53.931-82.769-147.987-14.226-83.213-42.678-128.34-86.778-137.885-69.965-15.105-169.287 60.788-274.429 141.221-116.523 89.052-237.055 181.161-331.98 162.813-64.275-12.417-109.41-74.132-137.99-188.759l-1.682.278c28.71 115.09 74.233 177.176 139.155 189.686 95.83 18.533 216.75-73.854 333.531-163.183C527.55-10.48 626.614-86.186 695.545-71.175c43.453 9.452 71.517 54.21 85.743 136.867C797.453 160.21 825 208.952 865.35 214.604c57.032 7.969 130.101-71.444 200.97-148.264 66.86-72.65 130.1-141.221 175.63-133.808 33.88 5.56 54.7 53.746 63.5 147.337 9.31 99.523 33.23 151.786 72.94 159.755 51.98 10.378 122.34-54.024 196.96-122.225 75.01-68.665 152.6-139.647 211.19-130.658 36.34 5.56 62.2 41.05 79.02 108.51l1.68-.37c-6.86-27.429-15.26-49.669-25.35-66.811z" fill="url(#paint10_linear_678_25023)" fill-opacity=".2"/><path d="M1861.55 38.726c-15.26-26.132-34.27-40.773-57.42-44.387-60.92-9.544-140.19 60.51-217.01 128.249-75.66 66.719-147.05 129.731-199.04 119.074-39.57-8.154-63.62-58.935-73.58-155.492-9.57-92.016-31.17-139.553-66.35-145.484-47.59-7.969-112.25 59.77-180.66 131.492-71.651 75.059-145.625 152.712-202.787 144.465-40.22-5.745-68.025-53.19-84.838-145.021-15.002-80.99-43.841-125.19-88.329-135.013-71.518-15.846-172.78 58.842-280.12 137.886-118.851 87.568-241.839 178.102-338.963 159.013C7.402 220.72-38.638 160.21-68.124 48.548l-1.682.371C-40.06 161.044 6.238 221.925 71.935 234.805c98.03 19.274 221.406-71.537 340.645-159.384C519.532-3.344 620.536-77.66 691.018-62.094c43.842 9.73 72.423 53.56 87.295 134.087 17.071 92.387 45.264 140.202 86.131 146.04 58.197 8.34 132.689-69.592 204.596-145.021 68.02-71.352 132.3-138.72 178.86-130.936 34.4 5.745 55.73 53.005 65.18 144.465 10.08 97.113 34.53 148.264 74.75 156.511 53.15 10.842 124.93-52.448 200.84-119.538C1665.1 56.147 1743.99-13.63 1804-4.178c36.85 5.745 63.24 40.587 80.7 106.38l1.68-.371c-7.12-25.761-15.26-46.703-24.83-63.105z" fill="url(#paint11_linear_678_25023)" fill-opacity=".2"/><path d="M1881.59 49.29c-15.9-27.15-35.69-42.44-59.87-46.24-62.21-9.915-143.04 58.842-221.28 125.376-77.08 65.607-149.89 127.6-203.17 116.387-40.09-8.432-64.67-58.286-75.4-152.341-10.22-89.885-32.46-136.496-68.15-142.612-48.63-8.34-114.33 58.101-183.91 128.62-72.806 73.668-148.203 149.931-206.529 141.314-40.867-6.024-69.319-52.541-87.036-142.241C760.726-1.305 731.239-44.58 686.363-54.68 613.294-71.175 509.834 2.216 400.294 79.87 278.857 165.954 153.411 255.005 53.96 235.082-11.738 221.925-58.554 162.619-89.204 53.831l-1.681.37c30.909 109.252 78.113 168.836 144.457 182.087 100.357 20.108 226.191-69.221 348.016-155.585C510.739 3.328 613.811-69.785 685.975-53.568c44.23 10.008 73.328 52.911 88.847 131.306 17.847 90.256 46.687 137.052 88.2 143.168 59.49 8.71 135.146-67.831 208.348-141.87 69.19-70.055 134.62-136.218 182.22-128.064 34.91 6.024 56.77 52.356 66.99 141.592 10.73 94.704 35.69 144.836 76.43 153.361 54.32 11.398 127.51-50.873 204.98-116.758 77.85-66.255 158.3-134.642 219.6-124.912 37.37 5.93 64.27 40.031 82.38 104.248l1.68-.371c-6.99-23.63-14.87-43.182-24.06-58.842z" fill="url(#paint12_linear_678_25023)" fill-opacity=".2"/><path d="M1902.16 59.76c-16.56-28.262-37.25-44.108-62.47-48.185-63.63-10.378-146.01 57.174-225.54 122.503-78.63 64.495-152.87 125.376-207.31 113.7-40.48-8.71-65.7-57.545-77.08-149.283-10.86-87.661-33.63-133.438-69.84-139.832-49.66-8.803-116.65 56.619-187.39 125.747-74.104 72.371-150.665 147.245-210.543 138.256-41.384-6.209-70.482-51.8-89.105-139.46C756.716 6.478 726.713-35.87 681.449-46.342 606.827-63.39 501.298 8.702 389.431 85.151 265.407 169.847 137.245 257.415 35.466 236.658-30.88 223.129-78.6 165.121-110.285 59.112l-1.681.37c31.814 106.38 79.794 164.759 146.785 178.381 102.685 20.85 231.235-66.904 355.517-151.878C501.944 9.907 607.216-62 680.931-45.043c44.618 10.285 74.233 52.355 90.27 128.619 18.623 88.124 48.109 134.086 90.269 140.387 60.783 9.174 137.732-66.07 212.22-138.72 70.49-68.85 136.96-133.808 185.59-125.282 35.43 6.208 57.81 51.614 68.67 138.812 11.38 92.294 36.99 141.407 78.11 150.303 55.48 11.953 130.1-49.298 209.12-114.071 79.28-65.051 161.27-132.326 223.99-122.133 37.9 6.116 65.31 39.568 84.07 102.21l1.68-.371c-6.47-21.869-13.97-40.124-22.76-54.95z" fill="url(#paint13_linear_678_25023)" fill-opacity=".2"/><path d="M1923.36 70.14c-17.2-29.375-38.79-45.87-65.18-50.225-65.05-10.75-148.98 55.599-230.07 119.723-80.18 63.476-155.96 123.337-211.7 111.106-40.87-8.989-66.61-56.804-78.76-146.226-11.51-85.622-34.92-130.472-71.52-137.052-50.82-9.173-118.85 55.044-191.01 122.967-75.401 71.074-153.384 144.65-214.555 135.198-42.031-6.486-71.776-51.151-91.175-136.68-16.812-74.689-47.204-116.11-92.856-126.766-76.302-17.792-184.16 53.097-298.355 128.248-126.481 83.213-257.358 169.392-361.595 147.801-67.12-13.807-115.617-70.704-148.207-173.84l-1.682.37c32.849 103.6 81.605 160.775 149.242 174.767 105.142 21.684 236.408-64.68 363.406-148.171C493.15 16.486 600.62-54.217 676.017-36.61c45.005 10.47 75.009 51.706 91.821 125.931 19.399 86.086 49.661 131.121 92.339 137.608 62.206 9.544 140.573-64.31 216.363-135.755 71.77-67.645 139.54-131.491 189.2-122.503 35.96 6.487 58.85 50.966 70.36 136.032 12.15 89.978 38.15 138.164 79.79 147.245 56.77 12.51 132.82-47.722 213.52-111.476 80.83-63.939 164.37-130.009 228.52-119.352 38.28 6.3 66.34 39.104 85.74 100.171l1.68-.371c-6.6-19.923-13.84-36.788-21.99-50.78z" fill="url(#paint14_linear_678_25023)" fill-opacity=".2"/><path d="M1944.96 80.425c-17.85-30.487-40.35-47.722-67.89-52.355-66.48-11.213-152.09 54.023-234.73 117.035-81.86 62.364-159.2 121.299-216.23 108.511-41.39-9.266-67.64-56.155-80.32-143.26-12.15-83.491-36.08-127.507-73.19-134.364-51.86-9.637-121.31 53.467-194.77 120.279-76.82 69.869-156.224 142.055-218.818 132.233-42.548-6.672-73.069-50.503-93.114-133.994-17.459-72.65-48.239-113.236-94.279-124.17C593.636-48.195 483.45 21.582 366.798 95.436 237.472 177.353 103.749 262.049-3.074 239.716c-67.767-14.177-117.04-69.869-150.665-170.318l-1.681.37c33.754 100.82 83.415 156.79 151.7 171.153 107.598 22.518 241.709-62.364 371.423-144.557 116.264-73.67 226.062-143.168 303.269-124.82 45.394 10.749 75.785 51.058 93.244 123.244 20.175 84.048 51.084 128.156 94.408 134.921 63.499 9.915 143.296-62.549 220.496-132.697 73.07-66.44 142.13-129.175 192.96-119.816 36.34 6.672 59.88 50.317 72.03 133.345 12.81 87.662 39.45 134.828 81.35 144.28 57.94 13.066 135.66-46.147 217.91-108.882 82.38-62.734 167.48-127.692 233.18-116.665 38.8 6.487 67.38 38.641 87.29 98.132l1.68-.37c-5.94-17.977-12.8-33.452-20.56-46.61z" fill="url(#paint15_linear_678_25023)" fill-opacity=".2"/><path d="M1967.34 90.711c-18.63-31.599-41.91-49.576-70.75-54.487-68.02-11.676-155.19 52.449-239.51 114.349-83.54 61.344-162.56 119.352-220.89 106.009-41.77-9.545-68.54-55.507-81.86-140.388-12.8-81.545-37.24-124.542-74.75-131.677-53.02-10.008-123.63 51.985-198.51 117.592-78.25 68.572-159.075 139.553-223.092 129.36-43.194-6.95-74.362-49.854-95.184-131.399-18.105-70.61-49.402-110.364-95.571-121.484-79.794-19.274-192.308 49.39-311.546 122.04-132.171 80.619-268.869 163.925-378.15 140.666-68.413-14.549-118.462-69.036-153.121-166.797l-1.681.37c34.788 98.133 85.225 152.99 154.156 167.631 110.186 23.352 247.142-60.139 379.701-140.943 118.85-72.464 230.976-140.85 309.994-121.762 45.652 11.027 76.561 50.502 94.537 120.65 20.951 82.008 52.507 125.283 96.348 132.326 65.051 10.378 146.269-60.881 224.769-129.731 74.49-65.33 144.71-126.952 196.7-117.129 36.86 6.95 60.92 49.668 73.59 130.658 13.45 85.344 40.61 131.584 83.03 141.314 59.36 13.622 138.63-44.665 222.57-106.287 83.93-61.715 170.84-125.468 237.96-113.978 39.31 6.672 68.41 38.178 88.97 96.186l1.68-.37c-5.94-16.402-12.28-30.58-19.39-42.719z" fill="url(#paint16_linear_678_25023)" fill-opacity=".2"/><path d="M1990.1 100.904c-19.27-32.896-43.59-51.521-73.72-56.803-69.58-12.047-158.55 50.873-244.55 111.754-85.36 60.417-165.93 117.406-225.68 103.414-42.16-9.823-69.45-54.858-83.54-137.515-13.45-79.507-38.41-121.762-76.43-129.082-54.19-10.472-126.23 50.41-202.53 114.904-79.66 67.368-162.044 137.144-227.612 126.395-43.842-7.135-75.656-49.297-97.253-128.804-18.623-68.572-50.437-107.492-96.995-118.89-81.475-20.015-196.575 47.538-318.4 118.983C208.245 184.581 68.573 266.497-43.424 242.404c-68.93-14.827-119.885-68.294-155.449-163.276l-1.552.463c35.694 95.445 86.907 149.191 156.484 164.11 112.772 24.278 252.832-57.915 388.366-137.422C465.862 35.019 580.574-32.255 661.273-12.518c46.04 11.305 77.337 49.854 95.96 118.056 21.727 80.062 53.929 122.41 98.417 129.731 66.473 10.841 149.24-59.121 229.29-126.859 75.92-64.217 147.57-124.82 200.72-114.534 37.24 7.228 61.82 49.113 75.27 128.063 14.09 83.121 41.77 128.434 84.58 138.442 60.65 14.178 141.61-43.089 227.35-103.785 85.61-60.603 174.2-123.337 243-111.383 39.71 6.95 69.32 37.714 90.53 94.333l1.55-.464c-5.3-14.27-11.25-27.058-17.84-38.178z" fill="url(#paint17_linear_678_25023)" fill-opacity=".2"/><path d="M2013.5 111.005c-20.04-34.101-45.39-53.56-76.81-59.028-71.13-12.51-161.92 49.298-249.6 109.16-87.17 59.398-169.55 115.553-230.72 100.912-42.55-10.193-70.35-54.209-84.97-134.643-14.09-77.468-39.57-118.889-77.98-126.487-55.35-10.935-128.81 48.927-206.54 112.31-81.21 66.255-165.144 134.735-232.135 123.615-44.359-7.413-76.82-48.649-99.193-126.303C736.023 43.915 703.951 5.923 657.135-5.753 573.72-26.51 456.162 39.93 331.621 110.263c-138.12 77.932-281.025 158.55-395.607 133.623-69.578-15.104-121.179-67.46-157.778-159.94l-1.552.464c36.729 92.85 88.588 145.484 158.812 160.681 115.359 25.205 258.652-55.692 397.031-133.901C456.68 41.135 573.978-25.12 656.488-4.549c46.299 11.49 78.113 49.298 97.253 115.554 22.503 78.024 55.352 119.63 100.357 127.136 68.026 11.305 152.342-57.452 233.822-123.986C1165.26 51.05 1238.33-8.533 1292.77 2.216c37.64 7.413 62.85 48.464 76.95 125.468 14.74 80.897 42.94 125.284 86 135.569 62.08 14.827 144.72-41.513 232.4-101.282 87.43-59.584 177.82-121.206 248.05-108.79 40.22 7.043 70.35 37.252 92.08 92.388l1.55-.464c-4.91-12.602-10.35-24-16.3-34.1z" fill="url(#paint18_linear_678_25023)" fill-opacity=".2"/><path d="M2037.43 121.105c-20.82-35.398-47.2-55.599-80.05-61.437-72.81-12.973-165.41 47.816-254.9 106.565-89.11 58.472-173.17 113.7-235.77 98.503-42.93-10.471-71.12-53.56-86.51-131.862-14.75-75.522-40.87-116.11-79.54-123.986-56.64-11.398-131.52 47.444-210.8 109.808-82.77 65.144-168.383 132.418-236.926 120.835-45.005-7.598-77.983-48.093-101.262-123.8C731.885 50.958 699.295 13.707 652.22 1.845c-85.225-21.498-205.498 43.83-332.884 113.052-141.224 76.726-287.363 156.048-404.79 130.287-70.224-15.383-122.472-66.626-159.976-156.511l-1.552.463c37.633 90.348 90.269 141.777 161.01 157.345 118.204 25.946 264.601-53.56 406.213-130.472C447.368 46.973 567.253-18.171 651.574 3.143c46.557 11.768 78.759 48.649 98.417 113.051 23.278 76.171 56.774 116.943 102.426 124.635 69.577 11.768 155.453-55.877 238.603-121.206 78.89-61.993 153.38-120.65 209.12-109.345 38.15 7.691 63.76 47.908 78.5 122.966 15.39 78.766 43.97 122.226 87.56 132.789 63.5 15.475 147.95-40.031 237.44-98.781 89.23-58.564 181.44-119.074 253.35-106.286 40.61 7.227 71.26 36.88 93.63 90.533l1.55-.463c-4.52-10.934-9.44-20.942-14.74-29.931z" fill="url(#paint19_linear_678_25023)" fill-opacity=".2"/><path d="M2062.13 131.206c-21.6-36.695-49.01-57.638-83.28-63.846-74.5-13.437-168.9 46.239-260.34 104.062-91.04 57.545-177.04 111.94-241.19 96.094-43.2-10.749-72.03-52.912-87.94-129.082-15.39-73.669-41.9-113.422-81.09-121.484-57.94-11.954-134.37 45.962-215.2 107.213-84.45 63.939-171.742 130.195-241.966 118.056-45.523-7.784-79.277-47.538-103.202-121.299C727.488 58 694.639 21.583 647.306 9.537c-87.166-22.24-210.154 42.07-340.386 110.086-144.457 75.429-293.828 153.453-414.101 126.765-70.741-15.66-123.765-65.792-162.175-153.267l-1.552.463c38.539 87.846 91.951 138.163 163.21 154.009 121.049 26.873 270.808-51.429 415.653-127.044 129.843-67.83 252.444-131.955 338.834-109.9 46.686 11.953 79.277 48.093 99.581 110.549 24.054 74.317 58.196 114.256 104.366 122.133 71.129 12.231 158.814-54.209 243.524-118.426 80.44-60.974 156.48-118.612 213.51-106.843 38.54 7.969 64.8 47.352 80.06 120.557 16.03 76.634 45.13 119.167 88.97 130.102 64.92 16.123 151.31-38.549 242.75-96.372 91.04-57.545 185.19-117.036 258.78-103.785 41.12 7.414 72.16 36.418 95.18 88.773l1.55-.463a234.74 234.74 0 00-12.93-25.668z" fill="url(#paint20_linear_678_25023)" fill-opacity=".2"/><path d="M2087.35 141.213c-22.37-38.085-50.83-59.861-86.65-66.348-76.17-13.9-172.65 44.758-265.89 101.561-93.12 56.619-181.06 110.179-246.63 93.685-43.58-11.028-72.81-52.356-89.36-126.396-16.04-71.722-43.07-110.734-82.64-118.982-59.23-12.417-137.22 44.48-219.73 104.712-86.13 62.92-175.232 127.97-247.008 115.368-46.04-8.062-80.44-46.981-105.141-118.889-20.951-61.067-54.317-96.65-101.78-108.974-89.105-22.981-214.94 40.216-348.145 107.213-147.82 74.225-300.683 151.044-423.93 123.523-71.388-15.939-125.059-64.959-164.374-150.025l-1.551.463c39.444 85.345 93.631 134.643 165.407 150.674C-6.048 276.504 147.074 199.5 295.281 125.09 428.099 58.37 553.545-4.734 641.874 18.062c47.075 12.139 80.053 47.537 100.875 108.14 24.83 72.371 59.619 111.568 106.305 119.723 72.811 12.695 162.176-52.541 248.696-115.739 82.12-59.954 159.72-116.665 218.04-104.433 38.93 8.154 65.7 46.796 81.61 118.055 16.68 74.595 46.17 116.202 90.39 127.322 66.48 16.772 154.81-36.973 248.31-93.87 92.99-56.525 189.08-114.997 264.47-101.283 41.52 7.599 73.07 36.047 96.74 86.92l1.55-.463c-3.88-7.599-7.63-14.641-11.51-21.221z" fill="url(#paint21_linear_678_25023)" fill-opacity=".2"/><path d="M2113.21 151.129c-23.14-39.476-52.89-62.086-90.26-68.943-77.99-14.363-176.41 43.274-271.72 99.151-95.18 55.785-185.19 108.419-252.31 91.276-43.84-11.213-73.59-51.708-90.66-123.708-16.68-69.87-44.1-108.048-84.19-116.573-60.53-12.973-140.19 42.997-224.38 102.302-87.81 61.808-178.73 125.747-252.317 112.681-46.557-8.247-81.604-46.425-107.082-116.573-21.468-59.213-55.092-94.055-102.943-106.472C546.303.548 417.494 62.726 281.314 128.611c-151.053 72.835-307.537 148.45-433.759 120.001-71.905-16.216-126.352-64.217-166.572-146.781l-1.552.463c40.35 82.935 95.184 131.214 167.607 147.523 126.997 28.541 283.74-47.167 435.181-120.372C418.141 63.745 546.432 1.753 636.831 25.29c47.204 12.324 80.57 46.888 101.908 105.73 25.607 70.611 61.042 108.974 108.246 117.407 74.492 13.251 165.665-50.966 253.865-113.051 83.81-59.028 163.08-114.72 222.7-101.932 39.32 8.433 66.47 46.24 83.03 115.739 17.2 72.464 47.2 113.236 91.69 124.634 67.9 17.421 158.3-35.49 253.87-91.46 94.92-55.599 193.08-113.052 270.16-98.874 41.9 7.691 74.1 35.584 98.16 85.159l1.55-.556c-2.59-5.93-5.69-11.583-8.8-16.957z" fill="url(#paint22_linear_678_25023)" fill-opacity=".2"/><path d="M2139.73 161.044c-24.06-40.865-54.84-64.403-93.89-71.63-79.67-14.827-180.28 41.884-277.54 96.742-97.38 54.95-189.46 106.75-258.13 88.866-44.23-11.491-74.23-51.059-92.08-121.113-17.2-68.11-45.27-105.453-85.62-114.256-61.94-13.53-143.16 41.514-229.16 99.892-89.62 60.789-182.35 123.616-257.747 110.087-47.204-8.526-82.769-45.87-109.022-114.256-21.985-57.453-55.998-91.554-103.978-104.156-93.115-24.464-224.898 36.695-364.311 101.468-154.674 71.908-314.65 146.226-443.976 116.944-72.422-16.402-127.644-63.383-168.77-143.631l-1.552.556c41.255 80.618 96.865 127.877 169.676 144.372 130.101 29.375 290.336-45.128 445.398-117.129C408.183 69.213 539.448 8.146 631.917 32.425c47.462 12.417 81.087 46.24 103.072 103.414 26.383 68.757 62.335 106.379 110.186 114.997 76.173 13.715 169.285-49.39 259.295-110.364 85.62-58.008 166.45-112.866 227.62-99.522 39.7 8.618 67.38 45.684 84.58 113.329 17.84 70.426 48.23 110.364 92.98 122.04 69.58 18.07 161.92-34.008 259.69-89.144 96.99-54.672 197.22-111.105 276.11-96.464 42.29 7.877 75.01 35.213 99.71 83.491l1.55-.556a320.053 320.053 0 00-6.98-12.602z" fill="url(#paint23_linear_678_25023)" fill-opacity=".2"/><path d="M2166.88 170.959c-24.95-42.441-56.9-66.812-97.77-74.41-81.6-15.29-184.28 40.402-283.74 94.333-99.71 54.024-193.86 105.082-264.21 86.549-44.49-11.768-75.01-50.502-93.24-118.519-17.85-66.255-46.3-102.858-87.04-111.846-63.37-14.085-146.27 40.124-234.21 97.483-91.56 59.769-186.228 121.577-263.306 107.492-47.721-8.711-83.932-45.313-110.962-111.94C709.9 84.317 675.499 51.051 627.39 38.355 532.206 13.15 397.448 73.29 254.673 137.043 96.378 207.747-67.349 280.86-199.908 250.744c-72.94-16.588-128.808-62.549-170.839-140.573l-1.552.556c42.289 78.394 98.417 124.541 171.744 141.221 133.465 30.116 297.58-43.089 456.133-113.978C397.836 74.402 532.335 14.355 626.872 39.374c47.592 12.603 81.605 45.684 104.108 101.005 27.158 66.997 63.757 103.878 111.996 112.774 77.983 14.27 173.034-47.815 264.864-107.77 87.42-57.081 170.06-111.012 232.52-97.205 40.09 8.896 68.29 45.22 86.01 111.012 18.49 68.48 49.27 107.492 94.27 119.353 71.13 18.811 165.67-32.525 265.77-86.734 99.06-53.654 201.49-109.253 282.32-94.055 42.8 8.061 75.78 34.749 101.13 81.73l1.55-.556c-1.42-2.687-2.97-5.375-4.53-7.969z" fill="url(#paint24_linear_678_25023)" fill-opacity=".2"/><path d="M2194.82 180.874c-25.74-43.923-59.1-69.221-101.65-77.19-83.42-15.753-188.43 39.012-289.95 91.924-102.04 53.19-198.39 103.507-270.42 84.232-44.75-11.953-75.66-49.853-94.54-116.016-18.49-64.495-47.33-100.356-88.46-109.623-64.79-14.64-149.63 38.642-239.38 95.074-93.5 58.75-190.107 119.538-269.125 104.897-48.239-8.896-85.097-44.85-112.772-109.715-23.02-54.116-57.679-86.642-106.047-99.522-97.383-25.947-235.374 33.266-381.382 95.908C79.048 210.342-88.558 282.25-224.221 251.3-297.549 234.805-354.193 189.77-397 113.97l-1.552.556c43.065 76.171 99.969 121.391 173.814 138.164 136.439 31.135 304.303-40.866 466.737-110.55C387.62 79.591 525.222 20.564 621.958 46.325c47.851 12.787 82.122 45.035 105.013 98.781 27.805 65.328 65.051 101.468 113.936 110.456 79.794 14.734 176.793-46.24 270.683-105.175 89.36-56.154 173.68-109.252 237.7-94.796 40.48 9.081 69.06 44.665 87.42 108.696 19.01 66.534 50.31 104.712 95.57 116.851 72.81 19.459 169.55-31.043 271.98-84.418 101.13-52.819 205.75-107.399 288.52-91.738 43.2 8.154 76.69 34.286 102.69 80.062l1.55-.556c-.91-1.297-1.55-2.409-2.2-3.614z" fill="url(#paint25_linear_678_25023)" fill-opacity=".2"/><path d="M2222.75 189.677c-26.64-44.85-61.04-70.703-105.14-79.043-85.35-16.216-192.69 37.622-296.28 89.7-104.5 52.355-203.05 101.931-276.76 81.916-45.01-12.14-76.3-49.298-95.7-113.422-19.01-62.735-48.37-97.855-89.75-107.307-66.35-15.197-153 37.252-244.69 92.758-95.44 57.823-194.246 117.499-275.075 102.395-48.756-9.081-86.26-44.294-114.582-107.491-23.538-52.449-58.585-84.233-106.953-97.206-99.581-26.688-240.805 31.506-390.176 93.221-166.184 68.201-337.67 138.998-476.695 107.213-73.975-16.957-131.266-60.881-174.978-134.549l-1.552.556c43.971 73.947 101.521 118.148 175.883 135.105 139.801 31.877 311.546-38.919 477.73-107.491 149.113-61.53 289.949-119.538 388.883-93.036 47.98 12.88 82.639 44.387 106.047 96.465 28.581 63.66 66.474 99.059 115.747 108.232 81.734 15.29 180.801-44.664 276.631-102.673 91.3-55.228 177.56-107.491 243-92.48 40.87 9.36 69.84 44.202 88.72 106.473 19.53 64.587 51.21 102.024 96.73 114.256 74.49 20.108 173.56-29.56 278.31-82.101 103.33-51.893 210.29-105.546 294.99-89.422 43.59 8.247 77.6 33.915 104.11 78.395l1.55-.464z" fill="url(#paint26_linear_678_25023)" fill-opacity=".2"/><path d="M2249.27 194.867c-27.16-43.646-62.08-68.943-106.57-77.468-87.42-16.587-196.96 36.232-303.01 87.383-106.95 51.614-207.95 100.356-283.48 79.692-45.14-12.325-76.82-48.649-96.87-110.92-19.65-61.067-49.4-95.445-91.17-105.082-67.9-15.753-156.36 35.861-250.12 90.441-97.51 56.803-198.383 115.553-281.152 99.893-49.273-9.36-87.295-43.738-116.522-105.361-24.055-50.873-59.361-81.915-107.987-94.981-101.909-27.43-246.366 29.838-399.359 90.441C87.972 198.481-41.225 249.632-158.264 259.64c-132.301 11.305-228.261-33.823-293.312-138.071l-1.551.648c34.53 55.321 78.5 94.704 130.877 117.036 46.946 20.016 100.745 27.151 164.244 21.684 117.299-10.008 246.754-61.252 371.941-110.92C366.54 89.599 510.738 32.425 611.871 59.668c48.109 12.973 83.157 43.738 106.953 94.241 29.357 61.993 67.766 96.649 117.557 106.101 83.674 15.846 184.809-43.182 282.709-100.171 93.37-54.394 181.44-105.73 248.56-90.163 41.13 9.545 70.61 43.645 90.14 104.248 20.18 62.735 52.12 99.245 97.9 111.754 76.3 20.85 177.7-28.077 284.91-79.877 105.66-50.966 214.94-103.692 301.58-87.198 43.98 8.34 78.51 33.545 105.53 76.82l1.56-.556z" fill="url(#paint27_linear_678_25023)" fill-opacity=".2"/><path d="M2276.29 199.963c-27.8-42.441-63.11-67.275-107.98-75.8-89.5-17.051-201.36 34.935-309.74 85.159-109.54 50.78-213 98.781-290.21 77.468-45.39-12.51-77.46-48-98.02-108.511-20.18-59.398-50.44-93.035-92.47-102.858-69.45-16.309-159.98 34.379-255.81 88.124-99.71 55.878-202.652 113.608-287.49 97.484-49.791-9.452-88.459-43.274-118.333-103.229-24.572-49.297-60.137-79.599-108.893-92.757-104.107-28.078-252.056 28.17-408.669 87.753-127.257 48.464-258.91 98.503-378.149 108.14-135.016 10.935-233.304-33.452-300.165-135.661l-1.552.649c67.249 102.765 165.925 147.337 301.846 136.31 119.627-9.637 251.41-59.862 378.796-108.326 156.225-59.49 303.786-115.646 407.376-87.753 48.239 13.065 83.545 43.089 107.987 92.109 30.004 60.325 69.06 94.333 119.368 103.877 85.614 16.309 188.948-41.606 288.918-97.669 95.44-53.468 185.58-104.063 254.25-87.939 41.51 9.73 71.39 43.089 91.43 102.024 20.7 60.881 53.03 96.65 98.94 109.345 78.11 21.591 181.83-26.595 291.76-77.561 107.98-50.131 219.59-101.838 308.44-84.973 44.49 8.432 79.41 33.081 106.95 75.244l1.42-.649z" fill="url(#paint28_linear_678_25023)" fill-opacity=".2"/><path d="M2303.84 205.06c-28.32-41.329-64.14-65.607-109.41-74.225-91.56-17.514-206.01 33.545-316.72 82.935-112.12 50.039-218.04 97.298-297.19 75.244-45.52-12.695-77.98-47.352-99.06-106.101-20.69-57.731-51.34-90.627-93.76-100.727-71.13-16.865-163.6 32.989-261.63 85.9-101.78 54.951-207.179 111.754-293.957 94.982-50.308-9.637-89.623-42.719-120.144-101.098-24.96-47.722-60.912-77.375-109.668-90.533-106.565-28.726-257.876 26.594-418.24 85.159-129.585 47.352-263.566 96.371-385.262 105.638-137.732 10.564-238.218-33.081-307.02-133.438l-1.551.649c69.189 100.82 170.063 144.65 308.7 133.994 121.955-9.36 256.066-58.379 385.909-105.824 159.976-58.472 311.029-113.7 416.946-85.066 48.368 13.065 84.062 42.44 108.893 89.885 30.779 58.749 70.353 92.016 121.178 101.746 87.683 16.865 193.216-40.124 295.376-95.26 97.65-52.633 189.73-102.395 260.08-85.622 41.77 9.915 72.16 42.626 92.73 99.893 21.21 59.12 53.92 94.055 100.09 106.842 79.93 22.24 186.23-25.112 298.75-75.336 110.31-49.205 224.51-100.078 315.42-82.75 44.88 8.525 80.31 32.618 108.38 73.669l1.16-.556z" fill="url(#paint29_linear_678_25023)" fill-opacity=".2"/><path d="M2332.03 210.064c-97.89-136.218-269.12-62.827-434.53 8.061-114.84 49.206-223.35 95.723-304.43 73.021-45.78-12.881-78.5-46.796-100.1-103.693-21.34-56.062-52.38-88.31-94.93-98.595-72.81-17.421-167.34 31.599-267.57 83.584-104.11 54.023-211.709 109.808-300.685 92.665-50.825-9.823-90.657-42.163-121.954-99.059-21.597-39.383-50.825-65.978-89.235-81.36-34.53-13.807-75.785-18.255-126.351-13.53-94.15 8.711-205.37 47.723-323.056 89.052-131.913 46.332-268.352 94.148-392.505 103.229-140.577 10.193-243.391-32.711-314.132-131.214l-1.552.649c71.129 98.873 174.331 142.055 315.684 131.769 124.412-9.081 260.98-56.989 393.022-103.321 117.557-41.236 228.519-80.248 322.409-88.866 105.272-9.73 173.297 20.108 214.035 94.148 31.426 57.174 71.646 89.792 122.859 99.707 89.752 17.421 197.741-38.641 302.101-92.85 99.84-51.8 194.12-100.727 266.03-83.399 42.03 10.101 72.81 42.07 93.89 97.762 21.73 57.267 54.83 91.46 101 104.434 81.87 22.98 190.63-23.723 305.86-73.113 164.76-70.611 335.21-143.631 432.33-8.525l1.81-.556z" fill="url(#paint30_linear_678_25023)" fill-opacity=".2"/><defs><linearGradient id="paint0_linear_678_25023" x1="96.365" y1="-174" x2="1795.85" y2="116.568" gradientUnits="userSpaceOnUse"><stop stop-color="#BE8143"/><stop offset=".556" stop-color="#8F664E"/><stop offset="1" stop-color="#BB7F44"/></linearGradient><linearGradient id="paint1_linear_678_25023" x1="78.666" y1="-162.959" x2="1808.22" y2="144.986" gradientUnits="userSpaceOnUse"><stop stop-color="#BE8143"/><stop offset=".556" stop-color="#8F664E"/><stop offset="1" stop-color="#BB7F44"/></linearGradient><linearGradient id="paint2_linear_678_25023" x1="60.814" y1="-152.188" x2="1820.97" y2="174.043" gradientUnits="userSpaceOnUse"><stop stop-color="#BE8143"/><stop offset=".556" stop-color="#8F664E"/><stop offset="1" stop-color="#BB7F44"/></linearGradient><linearGradient id="paint3_linear_678_25023" x1="42.56" y1="-141.464" x2="1833.41" y2="204.212" gradientUnits="userSpaceOnUse"><stop stop-color="#BE8143"/><stop offset=".556" stop-color="#8F664E"/><stop offset="1" stop-color="#BB7F44"/></linearGradient><linearGradient id="paint4_linear_678_25023" x1="23.628" y1="-131.089" x2="1845.95" y2="235.257" gradientUnits="userSpaceOnUse"><stop stop-color="#BE8143"/><stop offset=".556" stop-color="#8F664E"/><stop offset="1" stop-color="#BB7F44"/></linearGradient><linearGradient id="paint5_linear_678_25023" x1="4.434" y1="-120.643" x2="1857.63" y2="267.575" gradientUnits="userSpaceOnUse"><stop stop-color="#BE8143"/><stop offset=".556" stop-color="#8F664E"/><stop offset="1" stop-color="#BB7F44"/></linearGradient><linearGradient id="paint6_linear_678_25023" x1="-14.772" y1="-110.76" x2="1869.25" y2="300.147" gradientUnits="userSpaceOnUse"><stop stop-color="#BE8143"/><stop offset=".556" stop-color="#8F664E"/><stop offset="1" stop-color="#BB7F44"/></linearGradient><linearGradient id="paint7_linear_678_25023" x1="-34.391" y1="-101.459" x2="1881.36" y2="332.196" gradientUnits="userSpaceOnUse"><stop stop-color="#BE8143"/><stop offset=".556" stop-color="#8F664E"/><stop offset="1" stop-color="#BB7F44"/></linearGradient><linearGradient id="paint8_linear_678_25023" x1="-54.678" y1="-92.334" x2="1892.87" y2="365.554" gradientUnits="userSpaceOnUse"><stop stop-color="#BE8143"/><stop offset=".556" stop-color="#8F664E"/><stop offset="1" stop-color="#BB7F44"/></linearGradient><linearGradient id="paint9_linear_678_25023" x1="-74.975" y1="-83.235" x2="1904.01" y2="399.866" gradientUnits="userSpaceOnUse"><stop stop-color="#BE8143"/><stop offset=".556" stop-color="#8F664E"/><stop offset="1" stop-color="#BB7F44"/></linearGradient><linearGradient id="paint10_linear_678_25023" x1="-95.947" y1="-74.405" x2="1914.68" y2="435.494" gradientUnits="userSpaceOnUse"><stop stop-color="#BE8143"/><stop offset=".556" stop-color="#8F664E"/><stop offset="1" stop-color="#BB7F44"/></linearGradient><linearGradient id="paint11_linear_678_25023" x1="-116.801" y1="-65.533" x2="1925.25" y2="471.978" gradientUnits="userSpaceOnUse"><stop stop-color="#BE8143"/><stop offset=".556" stop-color="#8F664E"/><stop offset="1" stop-color="#BB7F44"/></linearGradient><linearGradient id="paint12_linear_678_25023" x1="-138.85" y1="-57.021" x2="1934.61" y2="510.085" gradientUnits="userSpaceOnUse"><stop stop-color="#BE8143"/><stop offset=".556" stop-color="#8F664E"/><stop offset="1" stop-color="#BB7F44"/></linearGradient><linearGradient id="paint13_linear_678_25023" x1="-160.9" y1="-48.866" x2="1943.5" y2="547.859" gradientUnits="userSpaceOnUse"><stop stop-color="#BE8143"/><stop offset=".556" stop-color="#8F664E"/><stop offset="1" stop-color="#BB7F44"/></linearGradient><linearGradient id="paint14_linear_678_25023" x1="-183.242" y1="-40.584" x2="1951.77" y2="588.268" gradientUnits="userSpaceOnUse"><stop stop-color="#BE8143"/><stop offset=".556" stop-color="#8F664E"/><stop offset="1" stop-color="#BB7F44"/></linearGradient><linearGradient id="paint15_linear_678_25023" x1="-206.374" y1="-32.683" x2="1958.87" y2="628.986" gradientUnits="userSpaceOnUse"><stop stop-color="#BE8143"/><stop offset=".556" stop-color="#8F664E"/><stop offset="1" stop-color="#BB7F44"/></linearGradient><linearGradient id="paint16_linear_678_25023" x1="-229.264" y1="-24.702" x2="1965.69" y2="671.089" gradientUnits="userSpaceOnUse"><stop stop-color="#BE8143"/><stop offset=".556" stop-color="#8F664E"/><stop offset="1" stop-color="#BB7F44"/></linearGradient><linearGradient id="paint17_linear_678_25023" x1="-253.479" y1="-17.29" x2="1970.85" y2="714.419" gradientUnits="userSpaceOnUse"><stop stop-color="#BE8143"/><stop offset=".556" stop-color="#8F664E"/><stop offset="1" stop-color="#BB7F44"/></linearGradient><linearGradient id="paint18_linear_678_25023" x1="-277.445" y1="-9.613" x2="1975.25" y2="759.042" gradientUnits="userSpaceOnUse"><stop stop-color="#BE8143"/><stop offset=".556" stop-color="#8F664E"/><stop offset="1" stop-color="#BB7F44"/></linearGradient><linearGradient id="paint19_linear_678_25023" x1="-302.217" y1="-2.32" x2="1978.79" y2="804.464" gradientUnits="userSpaceOnUse"><stop stop-color="#BE8143"/><stop offset=".556" stop-color="#8F664E"/><stop offset="1" stop-color="#BB7F44"/></linearGradient><linearGradient id="paint20_linear_678_25023" x1="-327.267" y1="5.056" x2="1980.63" y2="851.885" gradientUnits="userSpaceOnUse"><stop stop-color="#BE8143"/><stop offset=".556" stop-color="#8F664E"/><stop offset="1" stop-color="#BB7F44"/></linearGradient><linearGradient id="paint21_linear_678_25023" x1="-353.001" y1="12.137" x2="1981.13" y2="900.984" gradientUnits="userSpaceOnUse"><stop stop-color="#BE8143"/><stop offset=".556" stop-color="#8F664E"/><stop offset="1" stop-color="#BB7F44"/></linearGradient><linearGradient id="paint22_linear_678_25023" x1="-379.249" y1="19.116" x2="1979.96" y2="949.926" gradientUnits="userSpaceOnUse"><stop stop-color="#BE8143"/><stop offset=".556" stop-color="#8F664E"/><stop offset="1" stop-color="#BB7F44"/></linearGradient><linearGradient id="paint23_linear_678_25023" x1="-405.932" y1="25.71" x2="1978.29" y2="1000.14" gradientUnits="userSpaceOnUse"><stop stop-color="#BE8143"/><stop offset=".556" stop-color="#8F664E"/><stop offset="1" stop-color="#BB7F44"/></linearGradient><linearGradient id="paint24_linear_678_25023" x1="-433.409" y1="32.477" x2="1973.09" y2="1053.08" gradientUnits="userSpaceOnUse"><stop stop-color="#BE8143"/><stop offset=".556" stop-color="#8F664E"/><stop offset="1" stop-color="#BB7F44"/></linearGradient><linearGradient id="paint25_linear_678_25023" x1="-460.908" y1="38.679" x2="1968.97" y2="1104.33" gradientUnits="userSpaceOnUse"><stop stop-color="#BE8143"/><stop offset=".556" stop-color="#8F664E"/><stop offset="1" stop-color="#BB7F44"/></linearGradient><linearGradient id="paint26_linear_678_25023" x1="-489.205" y1="45.325" x2="1959.46" y2="1160.04" gradientUnits="userSpaceOnUse"><stop stop-color="#BE8143"/><stop offset=".556" stop-color="#8F664E"/><stop offset="1" stop-color="#BB7F44"/></linearGradient><linearGradient id="paint27_linear_678_25023" x1="-518.05" y1="51.408" x2="1950.79" y2="1214.17" gradientUnits="userSpaceOnUse"><stop stop-color="#BE8143"/><stop offset=".556" stop-color="#8F664E"/><stop offset="1" stop-color="#BB7F44"/></linearGradient><linearGradient id="paint28_linear_678_25023" x1="-547.437" y1="57.603" x2="1938.65" y2="1270.63" gradientUnits="userSpaceOnUse"><stop stop-color="#BE8143"/><stop offset=".556" stop-color="#8F664E"/><stop offset="1" stop-color="#BB7F44"/></linearGradient><linearGradient id="paint29_linear_678_25023" x1="-577.367" y1="63.61" x2="1924.21" y2="1327.97" gradientUnits="userSpaceOnUse"><stop stop-color="#BE8143"/><stop offset=".556" stop-color="#8F664E"/><stop offset="1" stop-color="#BB7F44"/></linearGradient><linearGradient id="paint30_linear_678_25023" x1="-607.974" y1="69.336" x2="1908.93" y2="1385.06" gradientUnits="userSpaceOnUse"><stop stop-color="#BE8143"/><stop offset=".556" stop-color="#8F664E"/><stop offset="1" stop-color="#BB7F44"/></linearGradient></defs></svg>