<svg width="29" height="35" fill="none" xmlns="http://www.w3.org/2000/svg"><path d="M27.553 24.961a4.886 4.886 0 01-1.423-.861 6.33 6.33 0 01-2.184-3.982 6.525 6.525 0 01.1-2.272 5.385 5.385 0 011.465-2.613c.477-.466.968-.918 1.423-1.39a.752.752 0 00.1-1.028 9.629 9.629 0 00-1.808-1.752 7.802 7.802 0 00-2.91-1.327 7.604 7.604 0 00-2.297-.195c-1.29.152-2.558.451-3.778.89a4.903 4.903 0 01-2.938.125 20.868 20.868 0 00-3.557-.792 7.478 7.478 0 00-4.015.551 7.28 7.28 0 00-3.1 2.555 10.1 10.1 0 00-1.507 2.995 12.157 12.157 0 00-.577 3.224c-.06 1.442.072 2.886.392 4.295.214.927.5 1.838.853 2.724a20.557 20.557 0 003.373 5.837 7.796 7.796 0 002.845 2.23 4.01 4.01 0 002.255.314 12.01 12.01 0 002.362-.695 8.11 8.11 0 011.501-.424 5.266 5.266 0 012.39.243c.826.243 1.623.535 2.448.75a4.366 4.366 0 003.486-.48 10.86 10.86 0 003.215-3.244 17.915 17.915 0 002.341-4.607.758.758 0 00-.17-.904.795.795 0 00-.285-.167zM14.228 8.978l.434-.042a5.54 5.54 0 002.774-.861 8.7 8.7 0 001.665-1.515 7.609 7.609 0 001.423-2.363c.197-.635.319-1.29.362-1.953.043-.396.043-.778.072-1.174a.816.816 0 00-.274-.77.86.86 0 00-.815-.175c-.703.163-1.387.396-2.042.695a7.042 7.042 0 00-2.604 1.876 8.693 8.693 0 00-1.92 5.226v.312a.722.722 0 00.274.595.762.762 0 00.65.149z" fill="#EDEDED"/></svg>