<svg width="1920" height="723" fill="none" xmlns="http://www.w3.org/2000/svg"><mask id="a" style="mask-type:alpha" maskUnits="userSpaceOnUse" x="0" y="0" width="1920" height="723"><path transform="matrix(-1 0 0 1 1920 0)" fill="#292A2B" d="M0 0h1920v723H0z"/></mask><g mask="url(#a)" fill-opacity=".2"><path d="M1600.81 178.769c-2.64-22.705-10.15-35.887-22.49-39.803-43.37-13.757-139.84 89.738-233.16 189.824-87.26 93.581-177.46 190.359-213.69 177.023-30.08-11.071-21.69-95.914 25.62-259.369 44.55-153.976 53.21-233.02 26.5-241.624-34.04-10.968-118.58 90.452-208.091 197.841-93.859 112.601-190.92 229.019-231.528 216.926-30.296-9.018-26.279-88.364 12.31-242.607 35.068-140.192 35.255-215.009.616-228.73-49.786-19.748-163.732 87.839-284.341 201.721-133.443 126-271.427 256.268-338.452 231.46-49.977-18.49-54.411-121.418-13.558-314.659l-1.66.061c-41.04 194.033-36.358 297.463 14.276 316.214 68.033 25.175 206.474-105.566 340.385-231.991C593.674 37.64 707.155-69.504 755.935-50.16c33.98 13.47 33.551 87.795-1.314 227.173-38.798 155.101-42.539 234.976-11.492 244.222 41.771 12.429 139.29-104.545 233.592-217.688C1065.76 96.727 1149.86-4.15 1182.75 6.46c25.97 8.36 17.03 86.872-27.27 239.968-47.54 164.307-55.69 249.677-24.91 260.998 37.31 13.736 123.98-79.243 215.74-177.656 92.85-99.604 188.87-202.607 231.16-189.183 28.08 8.925 30.2 67.824 6.45 180.115l1.66-.052c13.64-64.58 18.73-111.671 15.23-141.881z" fill="url(#paint0_linear_1209_25628)"/><path d="M1611.05 197.652c-2.75-23.749-10.59-37.557-23.52-41.729-44.16-14.254-140.89 87.047-234.45 185.01-87.51 91.666-178 186.419-214.92 172.546-30.46-11.454-23.12-94.78 22.36-254.777 42.89-150.825 50.58-228.481 23.49-237.395-34.65-11.386-119.22 87.924-208.751 193.08-93.882 110.238-190.962 224.249-232.381 211.697-30.774-9.322-27.825-87.312 8.999-238.431 33.395-137.074 32.619-210.602-2.388-224.766C698.793-57.635 584.24 47.692 462.96 159.173 328.777 282.538 190.033 410.092 121.669 384.304c-50.584-19.101-56.47-120.25-17.983-309.29l-1.653.064c-38.643 189.795-32.5 291.45 18.735 310.773 69.321 26.166 208.559-101.831 343.2-225.615C584.763 49.201 698.833-55.687 748.541-35.563c34.348 13.884 34.895 86.906 1.691 223.2-37.031 151.976-39.7 230.48-8.172 240.021 42.536 12.89 140.079-101.666 234.393-212.44C1065.51 110.632 1149.63 11.842 1183.15 22.851c26.32 8.65 18.41 85.757-24.24 235.719-45.73 160.838-52.82 244.705-21.64 256.42 37.99 14.289 124.9-76.76 216.95-173.143 93.09-97.484 189.35-198.298 232.45-184.388 28.49 9.195 31.46 67.118 9.08 177.107l1.65-.063c12.54-61.594 17.11-107.043 13.65-136.851z" fill="url(#paint1_linear_1209_25628)"/><path d="M1621.72 216.414c-2.87-24.823-11.06-39.293-24.63-43.737-44.98-14.773-142.01 84.379-235.83 180.275-87.83 89.757-178.62 182.566-216.25 168.113-30.85-11.849-24.58-93.718 19.14-250.284 41.26-147.733 47.97-224.015 20.48-233.232-35.27-11.838-119.91 85.435-209.529 188.399-93.929 107.921-191.09 219.55-233.297 206.52-31.255-9.616-29.384-86.273 5.71-234.348 31.769-134.014 30.014-206.26-5.351-220.87-51.606-21.324-166.862 81.756-288.854 190.905C318.311 288.916 178.73 413.794 109.017 386.978 57.833 367.304 50.527 267.854 86.643 82.95l-1.67.085C48.698 268.684 56.254 368.63 108.08 388.55c70.662 27.164 210.735-98.122 346.202-219.307C575.78 60.537 690.572-42.135 741.226-21.205c34.714 14.333 36.233 86.097 4.654 219.331-35.301 148.905-36.899 226.073-4.902 235.914 43.343 13.338 140.933-98.792 235.32-207.242 89.112-102.405 173.312-199.155 207.482-187.71 26.71 8.959 19.78 84.7-21.23 231.58-43.96 157.377-49.99 239.776-18.45 251.906 38.67 14.866 125.9-74.306 218.27-168.699 93.39-95.423 189.93-194.112 233.9-179.662 28.9 9.493 32.69 66.442 11.66 174.123l1.68-.092c11.42-58.699 15.5-102.498 12.11-131.83z" fill="url(#paint2_linear_1209_25628)"/><path d="M1632.77 235.038c-2.99-25.938-11.56-41.088-25.75-45.838-45.86-15.336-143.21 81.733-237.37 175.581-92.24 91.933-179.36 178.772-217.7 163.728-31.22-12.244-25.98-92.667 15.97-245.873 39.63-144.663 45.35-219.627 17.5-229.156-35.92-12.272-120.68 82.966-210.4 183.787-94.046 105.675-191.323 214.947-234.373 201.439-31.719-9.933-30.929-85.276 2.461-230.335 30.13-130.968 27.434-201.963-8.275-217.034-52.55-22.165-168.549 78.737-291.33 185.565C307.611 295.107 167.093 417.36 95.989 389.501c-51.774-20.279-60.5-118.05-26.705-298.866l-1.674.102C33.673 272.322 42.64 370.566 95.053 391.073c72.055 28.226 213.037-94.434 349.392-213.046C566.749 71.647 682.28-28.859 733.896-7.091c35.063 14.777 37.542 85.289 7.582 215.487-33.576 145.878-34.105 221.737-1.646 231.904 44.164 13.854 141.866-95.957 236.391-202.144C1065.47 137.874 1149.77 43.148 1184.6 55.054c27.11 9.25 21.14 83.674-18.27 227.511-42.2 154.005-47.19 234.948-15.27 247.483 39.37 15.446 126.95-71.852 219.68-164.294 93.71-93.395 190.62-189.982 235.45-175.002 29.31 9.795 33.97 65.805 14.26 171.226l1.66-.105c10.4-55.89 13.99-98.013 10.66-126.835z" fill="url(#paint3_linear_1209_25628)"/><path d="M1644.24 253.504c-3.12-27.086-12.09-42.956-26.93-48.002-46.72-15.894-144.48 79.106-239.04 170.949-92.67 90.023-180.2 175.074-219.26 159.408-31.6-12.669-27.41-91.682 12.81-241.535 38.03-141.678 42.79-215.326 14.58-225.164-36.58-12.742-121.49 80.519-211.381 179.223-94.225 103.481-191.636 210.445-235.55 196.443-32.203-10.275-32.456-84.337-.785-226.412 28.54-127.988 24.883-197.73-11.148-213.247-53.518-23.04-170.316 75.712-293.993 180.267C296.68 301.148 155.132 420.809 82.607 391.862c-52.339-20.905-62.48-116.986-30.97-293.821l-1.665.105C18.338 275.692 28.713 372.263 81.69 393.403c73.455 29.326 215.463-90.734 352.801-206.834C557.652 82.441 674.012-15.924 726.597 6.719c35.409 15.23 38.824 84.482 10.465 211.722-31.867 142.9-31.342 217.473 1.592 227.979 44.979 14.36 142.866-93.136 237.546-197.109 89.41-98.185 173.88-190.95 209.36-178.574 27.48 9.589 22.48 82.684-15.33 223.543-40.45 150.664-44.42 230.208-12.14 243.14 40.09 16.065 128.09-69.428 221.26-159.928 94.09-91.409 191.39-185.946 237.11-170.389 29.7 10.104 35.18 65.168 16.8 168.365l1.67-.113c9.41-53.106 12.55-93.577 9.31-121.851z" fill="url(#paint4_linear_1209_25628)"/><path d="M1656.09 271.877c-3.24-28.263-12.62-44.881-28.16-50.249-47.61-16.458-145.83 76.494-240.81 166.384-93.15 88.15-181.12 171.427-220.97 155.129-31.97-13.086-28.78-90.697 9.72-237.277 36.46-138.721 40.26-211.088 11.66-221.236-37.23-13.243-122.37 78.056-212.486 174.734-94.416 101.292-192.058 206.027-236.856 191.479-32.687-10.617-33.975-83.424-3.989-222.568 26.944-125.046 22.371-193.586-13.962-209.55-54.515-23.945-172.208 72.7-296.802 175.021C285.504 307.01 142.866 424.123 68.851 394.046 15.933 372.558 4.437 278.067 33.663 105.212l-1.666.133C2.643 278.9 14.403 373.844 67.914 395.618c74.924 30.439 218.022-87.074 356.4-200.697C548.489 92.957 665.716-3.299 719.289 20.246c35.715 15.696 40.071 83.753 13.28 208.052-30.172 139.963-28.593 213.278 4.792 224.114 45.847 14.873 143.938-90.365 238.833-192.142 89.646-96.144 174.296-186.961 210.466-174.095 27.87 9.909 23.82 81.766-12.4 219.628-38.7 147.369-41.68 225.506-9.04 238.882 40.81 16.709 129.28-66.994 222.91-155.629 94.54-89.466 192.29-181.992 238.91-165.85 30.09 10.41 36.4 64.569 19.33 165.575l1.66-.124c8.55-50.301 11.23-89.116 8.06-116.78z" fill="url(#paint5_linear_1209_25628)"/><path d="M1669.69 289.925c-3.39-29.486-13.17-46.859-29.46-52.553-48.56-17.055-147.34 73.899-242.88 161.855-93.74 86.316-182.29 167.836-222.91 150.889-32.34-13.499-30.18-89.731 6.64-233.025 34.87-135.746 37.72-206.85 8.74-217.343-37.95-13.735-123.38 75.654-213.829 170.318-94.741 99.151-192.714 201.678-238.435 186.617-33.173-10.95-35.525-82.493-7.212-218.739 25.389-122.091 19.905-189.418-16.786-205.828-55.549-24.843-174.286 69.727-299.982 169.845-139.153 110.785-283.065 225.41-358.64 194.19C1.43 374.057-11.466 281.207 15.505 112.324l-1.66.144C-13.233 282.067-.101 375.37 54 397.723c76.474 31.579 220.86-83.431 360.496-194.626C539.709 103.362 657.988 9.154 712.635 33.619c36.075 16.135 41.342 82.978 16.106 204.35-28.502 137.046-25.877 209.099 7.989 220.286 46.753 15.408 145.197-87.607 240.395-187.231 89.955-94.13 174.915-183.056 211.825-169.682 28.28 10.226 25.16 80.811-9.49 215.724-37.03 144.105-38.97 220.848-5.96 234.622 41.6 17.368 130.62-64.586 224.86-151.378 95.09-87.544 193.41-178.082 241.01-161.35 30.5 10.716 37.66 63.965 21.88 162.769l1.66-.132c7.6-47.597 9.88-84.702 6.78-111.672z" fill="url(#paint6_linear_1209_25628)"/><path d="M1684.43 307.677c-3.53-30.705-13.76-48.877-30.79-54.923-49.57-17.641-148.99 71.343-245.16 157.397-94.42 84.527-183.61 164.35-225.09 146.719-32.73-13.929-31.55-88.779 3.58-228.823 33.32-132.826 35.23-202.65 5.84-213.48-38.7-14.254-124.5 73.272-215.343 165.935-95.159 97.044-193.551 197.409-240.23 181.804-33.682-11.272-37.102-81.57-10.419-214.941 23.835-119.163 17.426-185.262-19.592-202.1-56.666-25.769-176.538 66.753-303.448 164.731C263.23 318.464 117.89 430.65 40.673 398.287-13.447 375.599-27.735 284.4-3.005 119.43l-1.685.154C-29.532 285.241-14.998 376.923 39.706 399.84c78.097 32.725 223.89-79.808 364.912-188.633C531.057 113.605 650.487 21.425 706.242 46.812c36.425 16.552 42.611 82.184 18.927 200.636-26.828 134.148-23.141 204.946 11.231 216.463 47.694 15.946 146.566-84.876 242.166-182.398 90.344-92.149 175.684-179.196 213.354-165.349 28.69 10.571 26.53 79.873-6.59 211.889-35.32 140.824-36.28 216.185-2.9 230.392 42.43 18.042 132.09-62.197 227.02-147.17 95.72-85.66 194.68-174.21 243.3-156.905 30.93 11.011 38.91 63.345 24.41 160.007l1.69-.154c6.72-44.907 8.6-80.308 5.58-106.546z" fill="url(#paint7_linear_1209_25628)"/><path d="M1699.65 325.365c-3.68-31.993-14.39-50.953-32.2-57.391-50.58-18.267-150.74 68.815-247.57 153.002-95.18 82.749-185.07 160.915-227.39 142.578-33.11-14.365-32.95-87.844.54-224.695 31.79-129.938 32.76-198.52 2.99-209.676-39.46-14.779-125.7 70.896-216.974 161.606-95.611 95.008-194.468 193.241-242.123 177.06-34.212-11.611-38.664-80.689-13.641-211.204 22.296-116.285 14.979-181.206-22.339-198.472-57.781-26.73-178.894 63.818-307.121 159.661C251.82 324.001 104.988 433.746 26.058 400.208c-54.723-23.253-70.37-112.88-47.84-273.97l-1.683.173c-22.61 161.769-6.73 251.858 48.561 275.36 79.789 33.912 227.084-76.213 369.548-182.697C522.38 123.584 643.04 33.411 699.963 59.712c36.74 16.986 43.835 81.439 21.676 197.027-25.191 131.303-20.472 200.881 14.419 212.715 48.676 16.533 148.016-82.165 244.064-177.616 90.798-90.234 176.558-175.443 215.018-161.039 29.09 10.886 27.86 78.974-3.72 208.101-33.68 137.613-33.64 211.608.13 226.243 43.28 18.734 133.64-59.828 229.32-143.007 96.41-83.813 196.09-170.466 245.74-152.56 31.35 11.317 40.17 62.762 26.95 157.267l1.68-.173c5.82-42.214 7.33-75.887 4.41-101.305z" fill="url(#paint8_linear_1209_25628)"/><path d="M1715.25 342.959c-3.84-33.326-15.02-53.137-33.65-59.938-51.63-18.886-152.54 66.267-250.13 148.645-95.97 81.015-186.64 157.552-229.83 138.498-33.5-14.769-34.3-86.947-2.45-220.642 30.27-127.09 30.33-194.47.16-205.96-40.24-15.337-126.94 68.531-218.719 157.324-96.108 92.975-195.472 189.117-244.146 172.356-34.713-11.959-40.211-79.858-16.806-207.585 20.798-113.45 12.612-177.198-25.05-194.87-58.959-27.693-181.347 60.87-310.948 154.64C240.119 329.305 91.683 436.701 11.006 401.921c-55.302-23.836-72.3-111.89-51.957-269.178l-1.683.2c-20.43 157.966-3.192 246.456 52.681 270.534 81.508 35.125 230.419-72.601 374.406-176.798 129.116-93.407 251.07-181.654 309.162-154.337 37.068 17.414 45.041 80.698 24.379 193.45-23.552 128.485-17.795 196.882 17.574 209.074 49.673 17.098 149.53-79.488 246.08-172.914 91.292-88.328 177.522-171.736 216.762-156.801 29.49 11.228 29.21 78.097-.87 204.388-32.02 134.445-31.01 207.126 3.11 222.162 44.13 19.479 135.26-57.446 231.72-138.886 97.14-81.996 197.59-166.777 248.29-148.205 31.78 11.621 41.39 62.181 29.46 154.586l1.68-.193c5.14-39.511 6.29-71.469 3.45-96.044z" fill="url(#paint9_linear_1209_25628)"/><path d="M1731.33 360.462c-4.01-34.683-15.7-55.348-35.18-62.574-52.71-19.542-154.43 63.759-252.79 144.337-96.86 79.312-188.32 154.25-232.42 134.433-33.84-15.211-35.62-86.071-5.39-216.65 28.77-124.301 27.9-190.481-2.65-202.315-41.06-15.906-128.26 66.201-220.568 153.108-96.645 91.003-196.603 185.099-246.33 167.745-35.21-12.314-41.746-79.032-19.946-204.013 19.292-110.643 10.216-173.244-27.723-191.356-60.124-28.725-183.896 57.909-314.954 149.635-145.18 101.598-295.31 206.67-377.787 170.64-55.86-24.422-74.192-110.915-56.018-264.45l-1.684.2C-80.37 293.387-61.81 380.321-5.392 405c83.278 36.383 233.867-68.997 379.502-170.922C504.668 142.702 628.006 56.384 687.297 84.717c37.373 17.853 46.227 79.986 27.043 189.932-21.922 125.72-15.15 192.918 20.748 205.458 50.697 17.718 151.119-76.841 248.229-168.259 91.843-86.472 178.583-168.136 218.633-152.614 29.87 11.601 30.51 77.267 1.93 200.768-30.39 131.324-28.39 202.676 6.06 218.162 45.02 20.218 136.96-55.086 234.3-134.809 97.91-80.201 199.19-163.144 251-143.925 32.17 11.917 42.61 61.637 31.9 151.97l1.69-.218c4.39-36.86 5.23-67.059 2.5-90.72z" fill="url(#paint10_linear_1209_25628)"/><path d="M1747.91 377.899c-4.18-36.103-16.37-57.639-36.75-65.306-53.82-20.225-156.41 61.268-255.64 140.088-97.77 77.664-190.1 151.007-235.13 130.428-34.2-15.652-36.92-85.243-8.29-212.741 27.27-121.53 25.51-186.537-5.43-198.744-41.86-16.519-129.62 63.867-222.55 148.965-97.274 89.064-197.846 181.172-248.65 163.163-35.735-12.67-43.268-78.248-23.071-200.518 17.809-107.876 7.896-169.322-30.316-187.861-61.344-29.757-186.566 54.981-319.165 144.671-146.91 99.381-298.82 202.165-383.114 164.853-56.425-24.992-76.062-109.969-59.99-259.822l-1.683.219c-16.112 150.49 3.737 235.894 60.703 261.137 85.11 37.671 237.482-65.402 384.818-165.102C495.743 151.958 620.54 67.539 681.069 96.901c37.668 18.27 47.361 79.267 29.659 186.482-20.317 123.001-12.515 189.07 23.853 201.965 51.75 18.338 152.81-74.169 250.528-163.665 92.431-84.649 179.741-164.603 220.631-148.468 30.27 11.935 31.81 76.447 4.72 197.209-28.79 128.245-25.86 198.319 8.95 214.249 45.91 20.99 138.71-52.721 236.98-130.765 98.77-78.463 200.9-159.578 253.85-139.691 32.59 12.243 43.84 61.113 34.38 149.389l1.68-.219c3.68-34.383 4.22-62.81 1.61-85.488z" fill="url(#paint11_linear_1209_25628)"/><path d="M1764.9 395.269c-4.34-37.542-17.06-60.012-38.35-68.104-54.94-20.905-158.47 58.778-258.59 135.859-98.76 76.02-192.02 147.822-237.97 126.416-34.54-16.099-38.18-84.416-11.16-208.898 25.8-118.821 23.11-182.664-8.18-195.224-42.69-17.123-131.07 61.539-224.649 144.831-97.912 87.15-199.183 177.279-251.061 158.634-36.214-13.028-44.793-77.483-26.161-197.076 16.369-105.159 5.624-165.493-32.867-184.436-62.59-30.824-189.33 52.032-323.529 139.723C203.663 344.206 49.876 444.716-36.31 406.078c-56.973-25.538-77.883-109.044-63.922-255.253l-1.727.259c-14.001 146.846 7.144 230.769 64.638 256.542 86.973 39.006 241.218-61.813 390.374-159.295 133.722-87.407 260.029-169.947 321.823-139.52 37.942 18.69 48.472 78.559 32.21 183.056-18.73 120.313-9.909 185.232 26.939 198.504 52.828 18.993 154.537-71.551 252.923-159.114C1080.04 248.4 1167.97 170.134 1209.69 186.89c30.65 12.305 33.1 75.667 7.46 193.716-27.2 125.213-23.33 194.016 11.79 210.371 46.84 21.825 140.58-50.351 239.84-126.759 99.68-76.746 202.74-156.071 256.83-135.481 32.98 12.554 45.01 60.598 36.78 146.883l1.67-.24c3.06-31.819 3.35-58.476.84-80.111z" fill="url(#paint12_linear_1209_25628)"/><path d="M1782.38 412.6c-4.52-39.048-17.81-62.465-40.04-71.04-56.12-21.623-160.63 56.318-261.69 131.659-99.79 74.419-194.06 144.692-240.98 122.462-34.85-16.522-39.44-83.619-13.97-205.096 24.34-116.12 20.77-178.859-10.88-191.795-43.56-17.782-132.6 59.234-226.891 140.752-98.649 85.287-200.637 173.495-253.635 154.152-36.714-13.402-46.273-76.766-29.239-193.722 14.942-102.482 3.361-161.687-35.351-181.051C605.84 87.009 477.5 168.004 341.589 253.759 190.944 348.819 35.19 447.081-52.934 407.085c-57.478-26.099-79.678-108.131-67.794-250.767l-1.701.268c-11.93 143.263 10.481 225.694 68.481 252.027 88.889 40.348 245.123-58.234 396.178-153.535 135.43-85.463 263.363-166.17 326.435-134.664 38.19 19.082 49.551 77.868 34.725 179.691-17.163 117.683-7.34 181.5 30 195.117 53.931 19.685 156.388-68.919 255.484-154.591 93.796-81.12 182.396-157.723 224.996-140.329 31.03 12.66 34.35 74.897 10.16 190.278-25.61 122.2-20.83 189.764 14.61 206.572 47.77 22.652 142.51-47.971 242.8-122.748 100.63-75.043 204.69-152.627 259.97-131.344 33.38 12.859 46.2 60.088 39.18 144.398l1.7-.268c2.43-29.201 2.47-54.061.09-74.59z" fill="url(#paint13_linear_1209_25628)"/><path d="M1800.39 429.872c-4.7-40.573-18.55-64.97-41.78-74.03-57.33-22.346-162.88 53.851-264.96 127.539-100.92 72.841-196.24 141.621-244.12 118.51-35.18-16.958-40.63-82.836-16.74-201.386 22.89-113.479 18.46-175.099-13.56-188.418-44.42-18.431-134.17 56.931-229.227 136.732-99.418 83.467-202.212 169.77-256.345 149.726-37.209-13.766-47.749-76.04-32.268-190.407 13.515-99.833 1.165-157.98-37.794-177.709-65.159-33.023-195.202 46.149-332.888 129.966-152.645 92.911-310.487 189.014-400.62 147.626-58.011-26.631-81.436-107.203-71.608-246.334l-1.697.287c-9.853 139.718 13.785 220.718 72.285 247.591 90.885 41.726 249.169-54.607 402.245-147.799 137.225-83.527 266.831-162.43 331.22-129.797 38.437 19.475 50.597 77.166 37.15 176.398-15.59 115.064-4.786 177.819 33.044 191.816 55.06 20.375 158.315-66.326 258.191-150.157 94.552-79.396 183.852-154.367 227.362-136.318 31.39 13.042 35.6 74.178 12.86 186.919-24.04 119.241-18.36 185.595 17.38 202.839 48.75 23.506 144.53-45.601 245.94-118.803 101.64-73.371 206.76-149.242 263.23-127.216 33.77 13.154 47.34 59.614 41.53 141.954l1.7-.296c1.88-26.833 1.71-49.874-.53-69.233z" fill="url(#paint14_linear_1209_25628)"/><path d="M1818.84 447.099c-4.89-42.148-19.33-67.555-43.59-77.133-58.54-23.076-165.19 51.378-268.35 123.411-102.09 71.291-198.52 138.6-247.44 114.61-35.47-17.403-41.82-82.092-19.44-197.725 21.46-110.869 16.17-171.396-16.2-185.069-45.31-19.126-135.86 54.637-231.715 132.737-100.237 81.66-203.892 166.113-259.197 145.337-37.687-14.125-49.213-75.374-35.267-187.183 12.127-97.245-1.022-154.297-40.197-174.427-66.507-34.17-198.324 43.202-337.877 125.106-154.746 90.82-314.75 184.711-406.932 141.91-58.506-27.15-83.136-106.321-75.344-241.968l-1.695.306c-7.836 136.265 17.024 215.814 76.028 243.209C4.54 453.354 164.98 359.194 320.142 268.142c139.102-81.62 270.478-158.733 336.236-124.964 38.683 19.867 51.615 76.491 39.557 173.108-14.039 112.511-2.25 174.186 36.028 188.55 56.21 21.092 160.342-63.728 261.029-145.754 95.358-77.695 185.438-151.089 229.838-132.345 31.75 13.398 36.82 73.467 15.49 183.619-22.51 116.326-15.94 181.479 20.08 199.151 49.74 24.408 146.64-43.232 249.21-114.853 102.72-71.716 208.93-145.874 266.68-123.135 34.13 13.457 48.49 59.136 43.87 139.558l1.7-.306c1.41-24.346 1.08-45.563-1.02-63.672z" fill="url(#paint15_linear_1209_25628)"/><path d="M1837.81 464.311c-5.08-43.769-20.12-70.242-45.45-80.327-59.8-23.843-167.62 48.951-271.9 119.326-103.33 69.749-200.94 135.644-250.89 110.728-35.74-17.831-42.99-81.328-22.11-194.117 20.04-108.317 13.89-167.768-18.8-181.817-46.23-19.864-137.59 52.333-234.331 128.758-101.117 79.896-205.69 162.509-262.221 141.001-38.16-14.5-50.67-74.706-38.239-184.014 10.762-94.677-3.155-150.671-42.53-171.168-67.87-35.323-201.54 40.26-343.055 120.265-156.935 88.747-319.215 180.49-413.499 136.267-58.977-27.662-84.835-105.421-79.022-237.692l-1.696.334c-5.837 132.859 20.228 211.006 79.702 238.886 95.029 44.559 257.72-47.435 415.076-136.401 141.054-79.744 274.281-155.096 341.433-120.155 38.867 20.23 52.575 75.797 41.882 169.874-12.491 109.994.252 170.634 39.003 185.373 57.414 21.834 162.435-61.137 264.007-141.388 96.24-76.039 187.16-147.868 232.47-128.395 32.09 13.785 38.02 72.772 18.1 180.377-20.99 113.47-13.55 177.424 22.74 195.516 50.77 25.339 148.84-40.861 252.64-110.944 103.85-70.102 211.23-142.591 270.25-119.069 34.52 13.764 49.63 58.638 46.17 137.223l1.7-.334c1-21.959.51-41.302-1.43-58.107z" fill="url(#paint16_linear_1209_25628)"/><path d="M1857.34 481.498c-5.27-45.473-20.95-72.981-47.39-83.649-61.1-24.608-170.16 46.518-275.6 115.298-104.65 68.236-203.5 132.708-254.51 106.831-36.01-18.257-44.09-80.607-24.73-190.559 18.62-105.784 11.65-164.204-21.39-178.62-47.16-20.603-139.42 50.034-237.07 124.833-102.06 78.158-207.612 158.974-265.367 136.699-38.639-14.886-52.115-74.071-41.195-180.895 9.409-92.169-5.246-147.112-44.802-167.953-69.273-36.497-204.882 37.314-348.445 115.457C137.626 365.611-27.017 455.224-123.51 409.543c-59.447-28.154-86.492-104.533-82.639-233.46l-1.69.345c-3.879 129.523 23.37 206.271 83.313 234.643 97.194 46.011 262.248-43.825 421.889-130.732 143.088-77.895 278.263-151.472 346.832-115.344 39.089 20.587 53.525 75.11 44.181 166.687-10.974 107.521 2.744 167.115 41.965 182.237 58.644 22.613 164.64-58.553 267.13-137.046 97.179-74.43 188.959-144.71 235.269-124.49 32.44 14.157 39.2 72.112 20.7 177.185-19.49 110.625-11.2 173.42 25.33 191.949 51.82 26.286 151.12-38.485 256.24-107.043 105.04-68.502 213.66-139.34 274-115.053 34.88 14.076 50.74 58.202 48.45 134.916l1.69-.353c.56-19.585-.02-37.08-1.81-52.486z" fill="url(#paint17_linear_1209_25628)"/><path d="M1877.32 498.665c-5.48-47.191-21.81-75.8-49.39-87.046-62.42-25.405-172.77 44.077-279.47 111.267-106.03 66.756-206.16 129.81-258.27 102.966-36.26-18.687-45.19-79.865-27.29-187.053 17.25-103.265 9.43-160.67-23.91-175.45-48.13-21.359-141.3 47.749-239.953 120.928C895.964 460.746 789.4 539.783 730.352 516.726c-39.09-15.271-53.511-73.446-44.096-177.858 8.081-89.708-7.293-143.603-47.025-164.776-70.733-37.691-208.342 34.365-354.017 110.643-161.614 84.62-328.707 172.12-427.427 124.958-59.913-28.619-88.117-103.636-86.185-229.297l-1.69.372c-1.935 126.247 26.476 201.625 86.858 230.453 99.413 47.489 266.949-40.241 428.956-125.081 145.259-76.048 282.426-147.9 352.463-110.575 39.276 20.914 54.433 74.408 46.405 163.538-9.473 105.062 5.204 163.659 44.851 179.159 59.891 23.397 166.937-55.995 270.433-132.774 98.182-72.811 190.902-141.592 238.172-120.614 32.75 14.53 40.34 71.468 23.22 174.033-18.01 107.838-8.88 169.466 27.92 188.424 52.89 27.261 153.48-36.082 259.99-103.157 106.28-66.931 216.19-136.139 277.87-111.055 35.25 14.335 51.84 57.722 50.69 132.644l1.69-.373c.21-17.171-.48-32.775-2.11-46.725z" fill="url(#paint18_linear_1209_25628)"/><path d="M1897.9 515.819c-5.69-48.955-22.69-78.72-51.48-90.561-63.78-26.194-175.48 41.674-283.48 107.272-107.48 65.304-208.98 126.98-262.21 99.123-36.5-19.097-46.24-79.158-29.78-183.598 15.88-100.801 7.24-157.174-26.38-172.358-49.13-22.144-143.3 45.482-243 117.064-104.126 74.766-211.798 152.093-272.15 128.206-39.557-15.635-54.899-72.847-46.967-174.858 6.79-87.28-9.292-140.161-49.199-161.639-72.218-38.892-211.913 31.417-359.83 105.87-164.095 82.597-333.772 167.995-434.793 119.365-60.375-29.064-89.694-102.732-89.665-225.204l-1.711.402c-.035 123.01 29.514 197.057 90.336 226.34 101.693 48.969 271.788-36.64 436.286-119.435 147.473-74.241 286.767-144.333 358.289-105.807 39.443 21.244 55.33 73.712 48.57 160.426-7.998 102.658 7.624 160.273 47.719 176.14 61.192 24.207 169.319-53.447 273.875-128.524 99.22-71.232 192.95-138.536 241.23-116.771 33.07 14.914 41.47 70.84 25.7 170.963-16.54 105.09-6.6 165.61 30.41 184.966 54 28.241 155.96-33.699 263.89-99.283 107.61-65.36 218.87-132.969 281.92-107.071 35.63 14.623 52.91 57.301 52.91 130.41l1.7-.403c-.02-14.939-.74-28.602-2.19-41.035z" fill="url(#paint19_linear_1209_25628)"/><path d="M1919.01 532.999c-5.91-50.785-23.59-81.726-53.64-94.174-65.21-27.008-178.3 39.239-287.69 103.302-108.99 63.836-211.95 124.145-266.34 95.275-36.72-19.493-47.26-78.447-32.24-180.189 14.51-98.379 5.09-153.751-28.85-169.28-50.14-22.952-145.36 43.184-246.17 113.221-105.238 73.1-214.086 148.704-275.782 124.019-40.002-16.01-56.294-72.25-49.799-171.918 5.519-84.911-11.263-136.775-51.309-158.555-73.734-40.112-215.625 28.479-365.84 101.106C94.678 376.396-77.649 459.697-181.06 409.56c-60.807-29.508-91.266-101.836-93.079-221.181l-1.708.421c1.828 119.882 32.494 192.571 93.771 222.287 104.06 50.46 276.812-33.05 443.877-113.832 149.792-72.427 291.263-140.825 364.345-101.073 39.593 21.54 56.169 72.997 50.674 157.357-6.508 100.296 10.009 156.94 50.553 173.173 62.512 25.017 171.788-50.886 277.467-124.284 100.32-69.698 195.09-135.534 244.42-112.951 33.38 15.282 42.58 70.206 28.15 167.916-15.13 102.383-4.36 161.772 32.85 181.543 55.13 29.26 158.54-31.299 268.01-95.426 108.96-63.833 221.64-129.841 286.11-103.121 35.96 14.896 53.98 56.846 55.07 128.222l1.7-.422c-.15-12.644-.89-24.367-2.14-35.19z" fill="url(#paint20_linear_1209_25628)"/><path d="M1940.68 550.163c-6.12-52.67-24.53-84.786-55.89-97.88-66.64-27.827-181.22 36.825-292.01 99.364-110.6 62.42-215.06 121.368-270.61 91.466-36.92-19.886-48.26-77.721-34.65-176.836 13.2-95.987 2.98-150.402-31.26-166.282-51.18-23.797-147.52 40.901-249.49 109.38-106.435 71.473-216.509 145.392-279.583 119.824-40.431-16.38-57.644-71.656-52.607-168.997 4.256-82.567-13.188-133.446-53.362-155.507-75.318-41.346-219.468 25.524-372.089 96.346C79.794 379.603-95.319 460.864-201.172 409.203c-61.262-29.885-92.817-100.923-96.461-217.202l-1.705.441c3.677 116.766 35.462 188.181 97.146 218.269 106.494 51.954 282.014-29.458 451.73-108.207 152.196-70.613 295.942-137.313 370.586-96.316 39.743 21.809 56.989 72.313 52.75 154.325-5.05 97.97 12.396 153.653 53.365 170.236 63.889 25.88 174.38-48.333 281.241-120.097 101.52-68.179 197.38-132.558 247.76-109.151 33.67 15.641 43.67 69.608 30.59 164.936-13.71 99.724-2.17 157.991 35.25 178.141 56.3 30.323 161.2-28.887 272.26-91.557 110.4-62.3 224.56-126.732 290.48-99.205 36.33 15.165 55.05 56.398 57.25 126.069l1.71-.45c-.32-10.368-1.03-20.125-2.1-29.272z" fill="url(#paint21_linear_1209_25628)"/><path d="M1962.94 567.378c-6.36-54.605-25.5-87.987-58.22-101.741-68.13-28.669-184.23 34.421-296.53 95.439-112.27 61.001-218.3 118.619-275.08 87.618-37.13-20.267-49.22-77.007-36.99-173.515 11.88-93.642.88-147.056-33.61-163.332-52.27-24.631-149.75 38.605-252.96 105.578-107.678 69.874-219.042 142.106-283.553 115.692-40.879-16.747-58.991-71.099-55.386-166.169 3.054-80.293-15.051-130.161-55.378-152.483-76.92-42.585-223.411 22.592-378.523 91.59C64.6 382.626-113.378 461.794-221.758 408.636c-61.685-30.262-94.317-100.049-99.788-213.297l-1.705.468c5.486 113.757 38.343 183.883 100.45 214.348 109.004 53.463 287.373-25.879 459.871-102.626 154.683-68.808 300.779-133.813 377.072-91.579 39.876 22.073 57.797 71.579 54.774 151.332-3.629 95.676 14.741 150.415 56.133 167.385 65.284 26.74 177.076-45.791 285.191-115.935 102.76-66.673 199.8-129.628 251.27-105.381 33.94 16.025 44.73 69.013 32.93 162.004-12.29 97.109-.01 154.306 37.62 174.81 57.51 31.388 163.96-26.452 276.69-87.723 111.9-60.793 227.61-123.664 295.05-95.31 36.66 15.419 56.08 55.985 59.36 123.948l1.71-.466c-.45-8.095-1.07-15.878-1.93-23.236z" fill="url(#paint22_linear_1209_25628)"/><path d="M1985.77 584.593c-6.59-56.598-26.52-91.254-60.63-105.703-69.66-29.493-187.36 32.037-301.2 91.554-113.99 59.595-221.68 115.891-279.68 83.809-37.33-20.613-50.18-76.295-39.3-170.254 10.58-91.33-1.18-143.792-35.94-160.405-53.36-25.518-152.09 36.317-256.61 101.809-108.985 68.281-221.668 138.861-287.651 111.571-41.316-17.092-60.337-70.514-58.112-163.359 1.856-78.065-16.913-126.968-57.338-149.523-78.567-43.822-227.516 19.652-385.19 86.848-174.986 74.576-355.926 151.691-466.904 97.032-62.105-30.593-95.832-99.107-103.054-209.455l-1.699.506c7.251 110.816 41.185 179.664 103.71 210.467 111.577 54.976 292.901-22.308 468.257-97.037 157.279-67.023 305.818-130.338 383.767-86.866 40.002 22.307 58.56 70.848 56.71 148.392-2.195 93.424 17.053 147.241 58.856 164.556 66.726 27.625 179.875-43.233 289.288-111.788 104.05-65.187 202.31-126.761 254.9-101.614 34.23 16.363 45.76 68.405 35.28 159.104-10.93 94.531 2.11 150.623 39.88 171.52 58.74 32.467 166.83-24.054 281.28-83.864 113.44-59.297 230.74-120.63 299.74-91.436 37 15.668 57.11 55.534 61.45 121.883l1.7-.488a313.39 313.39 0 00-1.51-17.259z" fill="url(#paint23_linear_1209_25628)"/><path d="M2009.16 601.871c-6.82-58.674-27.53-94.639-63.16-109.777-71.23-30.32-190.6 29.677-306.04 87.676-115.82 58.197-225.19 113.163-284.51 79.983-37.48-20.967-51.05-75.59-41.51-167.022 9.27-89.034-3.22-140.565-38.22-157.53-54.5-26.412-154.49 34.047-260.38 98.026-110.35 66.706-224.487 135.683-291.963 107.464-41.739-17.45-61.634-69.967-60.816-160.616.68-75.874-18.706-123.816-59.25-146.566-80.265-45.047-231.713 16.71-392.06 82.133-177.956 72.594-361.96 147.643-475.603 91.459-62.545-30.92-97.304-98.196-106.275-205.671l-1.697.526c9.027 107.952 43.988 175.55 106.928 206.664 114.24 56.48 298.62-18.739 476.936-91.481 159.957-65.239 311.017-126.876 390.657-82.162 40.122 22.53 59.297 70.109 58.623 145.463-.819 91.208 19.312 144.15 61.565 161.796 68.229 28.521 182.773-40.717 293.555-107.677 105.43-63.717 204.99-123.896 258.74-97.857 34.49 16.7 46.77 67.821 37.54 156.236-9.58 91.994 4.19 147.04 42.13 168.261 60 33.576 169.82-21.618 286.08-80.029 115.04-57.81 234.03-117.61 304.6-87.562 37.35 15.895 58.11 55.066 63.53 119.826l1.71-.524c-.3-3.744-.68-7.444-1.11-11.039z" fill="url(#paint24_linear_1209_25628)"/><path d="M2033.23 619.176c-7.09-60.793-28.63-98.095-65.78-113.997-72.86-31.157-193.96 27.293-311.05 83.808-117.69 56.813-228.87 110.455-289.49 76.161-37.63-21.283-51.94-74.884-43.71-163.827 8.03-86.803-5.21-137.407-40.46-154.7-55.66-27.319-157.01 31.751-264.34 94.297C906.597 506.059 791 573.421 721.958 544.304c-42.144-17.784-62.901-69.429-63.482-157.905-.477-73.742-20.456-120.742-61.114-143.676-82.031-46.286-236.093 13.8-399.195 77.421-181.013 70.594-368.185 143.597-484.565 85.912-62.979-31.209-98.773-97.303-109.438-201.932l-1.693.545c10.723 105.153 46.736 171.492 110.087 202.905 116.975 57.963 304.508-15.169 485.876-85.922 162.722-63.471 316.399-123.416 397.804-77.455 40.24 22.724 60.044 69.364 60.51 142.607.57 89.042 21.583 141.082 64.221 159.064 69.759 29.444 185.79-38.179 297.991-103.565 106.86-62.276 207.78-121.096 262.71-94.135 34.75 17.049 47.77 67.23 39.81 153.432-8.28 89.513 6.21 143.504 44.3 165.055 61.29 34.69 172.89-19.18 291.02-76.208 116.73-56.342 237.44-114.605 309.64-83.712 37.69 16.125 59.11 54.614 65.58 117.81l1.7-.543c-.12-1.625-.31-3.226-.49-4.826z" fill="url(#paint25_linear_1209_25628)"/><path d="M2057.71 635.015c-7.51-62.088-29.86-100.315-68.33-116.812-74.52-31.978-197.38 24.93-316.2 79.984-119.66 55.426-232.7 107.789-294.66 72.348-37.79-21.599-52.77-74.147-45.85-160.671 6.79-84.587-7.18-134.262-42.65-151.888-56.87-28.254-159.63 29.449-268.43 90.548-113.291 63.61-230.439 129.382-301.091 99.334-42.552-18.101-64.196-68.89-66.101-155.281-1.59-71.659-22.165-117.709-62.948-140.821-83.816-47.521-240.578 10.901-406.531 72.736C.748 393.116-189.69 464.068-308.893 404.89c-63.408-31.478-100.234-96.333-112.574-198.294l-1.691.564c12.391 102.4 49.418 167.577 113.221 199.221 119.774 59.466 310.57-11.626 495.103-80.379 165.572-61.676 321.934-119.944 405.168-72.769 40.355 22.88 60.752 68.605 62.328 139.774 1.925 86.92 23.79 138.066 66.845 156.396 71.343 30.347 188.899-35.667 302.613-99.502 108.37-60.841 210.71-118.302 266.83-90.424 34.98 17.381 48.73 66.649 41.99 150.666-6.99 87.086 8.22 140.029 46.44 161.88 62.64 35.809 176.07-16.746 296.18-72.384 118.46-54.875 240.94-111.614 314.83-79.892 38.05 16.313 60.16 54.232 67.61 115.844l1.71-.576z" fill="url(#paint26_linear_1209_25628)"/><path d="M2082.18 646.01c-8.53-60.59-31.54-98.16-70.33-114.865-76.24-32.812-200.94 22.575-321.57 76.144-121.72 54.066-236.67 105.125-300.05 68.54-37.92-21.88-53.6-73.419-47.93-157.556 5.57-82.43-9.09-131.226-44.79-149.142-58.07-29.182-162.32 27.16-272.7 86.818-114.854 62.089-233.641 126.289-305.895 95.313-42.97-18.421-65.446-68.347-68.702-152.659-2.664-69.61-23.837-114.756-64.695-138.003-85.671-48.743-245.193 7.977-414.092 68.032-138.028 49.079-280.755 99.818-395.518 98.083-129.999-1.942-203.102-73.229-223.465-217.906l-1.688.611c10.823 76.829 36.972 133.951 77.705 169.768 36.58 32.157 84.673 48.251 147.007 49.188 115.091 1.732 258-49.084 396.185-98.222 168.5-59.901 327.681-116.504 412.769-68.08 40.457 23.015 61.425 67.809 64.109 136.967 3.269 84.83 25.981 135.126 69.445 153.747 72.964 31.272 192.141-33.139 307.395-95.445 109.91-59.417 213.74-115.539 271.13-86.703 35.22 17.687 49.64 66.085 44.13 147.936-5.73 84.697 10.16 136.615 48.5 158.746 64.02 36.948 179.39-14.295 301.53-68.542 120.25-53.419 244.6-108.647 320.22-76.102 38.4 16.52 61.15 53.78 69.63 113.911l1.67-.579z" fill="url(#paint27_linear_1209_25628)"/><path d="M2107.22 656.943c-9.54-59.104-33.2-96.045-72.34-112.92-78-33.628-204.62 20.245-327.09 72.359-123.82 52.697-240.78 102.463-305.61 64.72-38.04-22.14-54.39-72.673-49.96-154.474 4.37-80.303-10.98-128.189-46.9-146.427-59.36-30.133-165.16 24.878-277.16 83.107-116.484 60.564-236.942 123.208-310.907 91.296-43.409-18.731-66.721-67.812-71.293-150.09-3.745-67.627-25.492-111.861-66.444-135.212-87.54-49.951-249.931 5.068-421.833 63.323-139.731 47.367-284.217 96.32-401.081 93.887-132.344-2.756-207.849-73.299-230.801-215.672l-1.685.63c23.055 143.049 98.974 213.929 232.048 216.695 117.169 2.441 261.81-46.589 401.703-93.976 171.542-58.135 333.565-113.036 420.585-63.43 40.568 23.152 62.107 67.042 65.852 134.221 4.578 82.793 28.15 132.225 72.002 151.147 74.648 32.2 195.513-30.623 312.374-91.392 111.56-57.998 216.93-112.801 275.61-83.027 35.46 18.003 50.57 65.499 46.26 145.223-4.47 82.35 12.07 133.256 50.54 155.664 65.45 38.095 182.8-11.847 307.05-64.708 122.1-51.95 248.36-105.681 325.77-72.311 38.75 16.709 62.16 53.34 71.62 112.014l1.69-.647z" fill="url(#paint28_linear_1209_25628)"/><path d="M2132.75 667.838c-10.51-57.674-34.81-93.998-74.29-111.011-79.8-34.449-208.42 17.934-332.79 68.592-126.02 51.334-245.06 99.817-311.35 60.925-38.16-22.382-55.15-71.923-51.92-151.443 3.17-78.201-12.85-125.232-48.97-143.747-60.66-31.102-168.06 22.568-281.77 79.412-118.183 59.074-240.401 120.152-316.116 87.291-43.81-19.018-67.947-67.288-73.801-147.557-4.817-65.697-27.091-109.049-68.143-132.488-89.523-51.114-254.851 2.21-429.894 58.694-141.502 45.64-287.806 92.852-406.767 89.696-134.758-3.565-212.686-73.408-238.234-213.497l-1.682.649c25.672 140.762 103.99 210.925 239.454 214.511 119.267 3.165 265.73-44.104 407.386-89.795 174.68-56.355 339.67-109.598 428.646-58.773 40.703 23.242 62.794 66.259 67.562 131.518 5.912 80.765 30.27 129.392 74.536 148.586 76.37 33.158 198.958-28.128 317.543-87.389 113.27-56.605 220.27-110.074 280.27-79.33 35.67 18.294 51.48 64.908 48.33 142.577-3.24 80.057 13.94 129.952 52.52 152.602 66.92 39.244 186.34-9.406 312.79-60.893 124.03-50.522 252.27-102.754 331.51-68.545 39.09 16.866 63.16 52.889 73.6 110.115l1.58-.7z" fill="url(#paint29_linear_1209_25628)"/><path d="M2158.85 678.724c-38.93-190.764-230.06-116.319-414.93-44.356-128.31 49.971-249.5 97.162-317.29 57.116-38.29-22.605-55.92-71.181-53.88-148.461 2.01-76.146-14.66-122.301-51-141.087-62.02-32.07-171.08 20.278-286.54 75.697-119.953 57.576-243.988 117.124-321.499 83.308-44.222-19.299-69.175-66.728-76.327-145.076-4.959-54.269-22.111-92.809-52.437-117.82-27.223-22.428-64.627-33.445-114.364-33.7-92.66-.47-213.38 36.564-341.216 75.767-143.31 43.967-291.486 89.428-412.638 85.555-137.22-4.382-217.624-73.523-245.754-211.434l-1.675.689c28.271 138.534 109.065 208.023 246.968 212.408 121.433 3.865 269.77-41.626 413.212-85.633 127.671-39.173 248.267-76.165 340.662-75.7 103.609.537 156.202 48.249 165.518 150.403 7.182 78.788 32.39 126.612 77.04 146.088 78.143 34.097 202.585-25.629 322.91-83.395 115.05-55.215 223.7-107.382 285.05-75.645 35.89 18.549 52.35 64.341 50.35 139.947-2.05 77.801 15.77 126.721 54.45 149.577 68.43 40.401 190-6.941 318.71-57.065 184.03-71.668 374.34-145.769 412.97 43.495l1.71-.678z" fill="url(#paint30_linear_1209_25628)"/></g><defs><linearGradient id="paint0_linear_1209_25628" x1="206.805" y1="-315.185" x2="1711.29" y2="331.193" gradientUnits="userSpaceOnUse"><stop stop-color="#BE8143"/><stop offset=".556" stop-color="#8F664E"/><stop offset="1" stop-color="#BB7F44"/></linearGradient><linearGradient id="paint1_linear_1209_25628" x1="188.526" y1="-304.822" x2="1720.27" y2="358.621" gradientUnits="userSpaceOnUse"><stop stop-color="#BE8143"/><stop offset=".556" stop-color="#8F664E"/><stop offset="1" stop-color="#BB7F44"/></linearGradient><linearGradient id="paint2_linear_1209_25628" x1="170.053" y1="-294.836" x2="1729.5" y2="386.214" gradientUnits="userSpaceOnUse"><stop stop-color="#BE8143"/><stop offset=".556" stop-color="#8F664E"/><stop offset="1" stop-color="#BB7F44"/></linearGradient><linearGradient id="paint3_linear_1209_25628" x1="152.035" y1="-287.468" x2="1739.92" y2="411.225" gradientUnits="userSpaceOnUse"><stop stop-color="#BE8143"/><stop offset=".556" stop-color="#8F664E"/><stop offset="1" stop-color="#BB7F44"/></linearGradient><linearGradient id="paint4_linear_1209_25628" x1="133.768" y1="-280.523" x2="1750.54" y2="436.31" gradientUnits="userSpaceOnUse"><stop stop-color="#BE8143"/><stop offset=".556" stop-color="#8F664E"/><stop offset="1" stop-color="#BB7F44"/></linearGradient><linearGradient id="paint5_linear_1209_25628" x1="115.207" y1="-273.958" x2="1761.32" y2="461.505" gradientUnits="userSpaceOnUse"><stop stop-color="#BE8143"/><stop offset=".556" stop-color="#8F664E"/><stop offset="1" stop-color="#BB7F44"/></linearGradient><linearGradient id="paint6_linear_1209_25628" x1="96.699" y1="-268.312" x2="1773.79" y2="486.784" gradientUnits="userSpaceOnUse"><stop stop-color="#BE8143"/><stop offset=".556" stop-color="#8F664E"/><stop offset="1" stop-color="#BB7F44"/></linearGradient><linearGradient id="paint7_linear_1209_25628" x1="78.029" y1="-263.444" x2="1787.27" y2="512.011" gradientUnits="userSpaceOnUse"><stop stop-color="#BE8143"/><stop offset=".556" stop-color="#8F664E"/><stop offset="1" stop-color="#BB7F44"/></linearGradient><linearGradient id="paint8_linear_1209_25628" x1="59.128" y1="-258.946" x2="1801.05" y2="537.434" gradientUnits="userSpaceOnUse"><stop stop-color="#BE8143"/><stop offset=".556" stop-color="#8F664E"/><stop offset="1" stop-color="#BB7F44"/></linearGradient><linearGradient id="paint9_linear_1209_25628" x1="39.855" y1="-254.855" x2="1814.85" y2="562.954" gradientUnits="userSpaceOnUse"><stop stop-color="#BE8143"/><stop offset=".556" stop-color="#8F664E"/><stop offset="1" stop-color="#BB7F44"/></linearGradient><linearGradient id="paint10_linear_1209_25628" x1="20.298" y1="-251.171" x2="1828.97" y2="588.679" gradientUnits="userSpaceOnUse"><stop stop-color="#BE8143"/><stop offset=".556" stop-color="#8F664E"/><stop offset="1" stop-color="#BB7F44"/></linearGradient><linearGradient id="paint11_linear_1209_25628" x1=".513" y1="-247.874" x2="1843.45" y2="614.582" gradientUnits="userSpaceOnUse"><stop stop-color="#BE8143"/><stop offset=".556" stop-color="#8F664E"/><stop offset="1" stop-color="#BB7F44"/></linearGradient><linearGradient id="paint12_linear_1209_25628" x1="-19.598" y1="-244.944" x2="1857.99" y2="640.664" gradientUnits="userSpaceOnUse"><stop stop-color="#BE8143"/><stop offset=".556" stop-color="#8F664E"/><stop offset="1" stop-color="#BB7F44"/></linearGradient><linearGradient id="paint13_linear_1209_25628" x1="-40.064" y1="-242.443" x2="1872.83" y2="666.967" gradientUnits="userSpaceOnUse"><stop stop-color="#BE8143"/><stop offset=".556" stop-color="#8F664E"/><stop offset="1" stop-color="#BB7F44"/></linearGradient><linearGradient id="paint14_linear_1209_25628" x1="-60.79" y1="-240.294" x2="1887.98" y2="693.483" gradientUnits="userSpaceOnUse"><stop stop-color="#BE8143"/><stop offset=".556" stop-color="#8F664E"/><stop offset="1" stop-color="#BB7F44"/></linearGradient><linearGradient id="paint15_linear_1209_25628" x1="-81.911" y1="-238.56" x2="1903.21" y2="720.191" gradientUnits="userSpaceOnUse"><stop stop-color="#BE8143"/><stop offset=".556" stop-color="#8F664E"/><stop offset="1" stop-color="#BB7F44"/></linearGradient><linearGradient id="paint16_linear_1209_25628" x1="-103.339" y1="-237.187" x2="1918.71" y2="747.165" gradientUnits="userSpaceOnUse"><stop stop-color="#BE8143"/><stop offset=".556" stop-color="#8F664E"/><stop offset="1" stop-color="#BB7F44"/></linearGradient><linearGradient id="paint17_linear_1209_25628" x1="-125.116" y1="-236.241" x2="1934.57" y2="774.413" gradientUnits="userSpaceOnUse"><stop stop-color="#BE8143"/><stop offset=".556" stop-color="#8F664E"/><stop offset="1" stop-color="#BB7F44"/></linearGradient><linearGradient id="paint18_linear_1209_25628" x1="-147.222" y1="-235.627" x2="1950.55" y2="801.917" gradientUnits="userSpaceOnUse"><stop stop-color="#BE8143"/><stop offset=".556" stop-color="#8F664E"/><stop offset="1" stop-color="#BB7F44"/></linearGradient><linearGradient id="paint19_linear_1209_25628" x1="-169.687" y1="-235.432" x2="1966.81" y2="829.626" gradientUnits="userSpaceOnUse"><stop stop-color="#BE8143"/><stop offset=".556" stop-color="#8F664E"/><stop offset="1" stop-color="#BB7F44"/></linearGradient><linearGradient id="paint20_linear_1209_25628" x1="-192.576" y1="-235.6" x2="1983.23" y2="857.639" gradientUnits="userSpaceOnUse"><stop stop-color="#BE8143"/><stop offset=".556" stop-color="#8F664E"/><stop offset="1" stop-color="#BB7F44"/></linearGradient><linearGradient id="paint21_linear_1209_25628" x1="-215.836" y1="-236.156" x2="1999.97" y2="886.018" gradientUnits="userSpaceOnUse"><stop stop-color="#BE8143"/><stop offset=".556" stop-color="#8F664E"/><stop offset="1" stop-color="#BB7F44"/></linearGradient><linearGradient id="paint22_linear_1209_25628" x1="-239.499" y1="-237.113" x2="2016.96" y2="914.691" gradientUnits="userSpaceOnUse"><stop stop-color="#BE8143"/><stop offset=".556" stop-color="#8F664E"/><stop offset="1" stop-color="#BB7F44"/></linearGradient><linearGradient id="paint23_linear_1209_25628" x1="-263.483" y1="-238.439" x2="2034.14" y2="943.549" gradientUnits="userSpaceOnUse"><stop stop-color="#BE8143"/><stop offset=".556" stop-color="#8F664E"/><stop offset="1" stop-color="#BB7F44"/></linearGradient><linearGradient id="paint24_linear_1209_25628" x1="-287.968" y1="-240.124" x2="2051.56" y2="972.878" gradientUnits="userSpaceOnUse"><stop stop-color="#BE8143"/><stop offset=".556" stop-color="#8F664E"/><stop offset="1" stop-color="#BB7F44"/></linearGradient><linearGradient id="paint25_linear_1209_25628" x1="-312.825" y1="-242.243" x2="2069.29" y2="1002.45" gradientUnits="userSpaceOnUse"><stop stop-color="#BE8143"/><stop offset=".556" stop-color="#8F664E"/><stop offset="1" stop-color="#BB7F44"/></linearGradient><linearGradient id="paint26_linear_1209_25628" x1="-338.087" y1="-244.714" x2="2087.29" y2="1032.41" gradientUnits="userSpaceOnUse"><stop stop-color="#BE8143"/><stop offset=".556" stop-color="#8F664E"/><stop offset="1" stop-color="#BB7F44"/></linearGradient><linearGradient id="paint27_linear_1209_25628" x1="-363.778" y1="-247.582" x2="2105.58" y2="1062.66" gradientUnits="userSpaceOnUse"><stop stop-color="#BE8143"/><stop offset=".556" stop-color="#8F664E"/><stop offset="1" stop-color="#BB7F44"/></linearGradient><linearGradient id="paint28_linear_1209_25628" x1="-389.981" y1="-250.864" x2="2124.05" y2="1093.45" gradientUnits="userSpaceOnUse"><stop stop-color="#BE8143"/><stop offset=".556" stop-color="#8F664E"/><stop offset="1" stop-color="#BB7F44"/></linearGradient><linearGradient id="paint29_linear_1209_25628" x1="-416.59" y1="-254.534" x2="2142.94" y2="1124.39" gradientUnits="userSpaceOnUse"><stop stop-color="#BE8143"/><stop offset=".556" stop-color="#8F664E"/><stop offset="1" stop-color="#BB7F44"/></linearGradient><linearGradient id="paint30_linear_1209_25628" x1="-443.773" y1="-258.787" x2="2162.22" y2="1155.56" gradientUnits="userSpaceOnUse"><stop stop-color="#BE8143"/><stop offset=".556" stop-color="#8F664E"/><stop offset="1" stop-color="#BB7F44"/></linearGradient></defs></svg>