<svg width="1920" height="950" fill="none" xmlns="http://www.w3.org/2000/svg"><path d="M1641.81 325.769c-2.64-22.706-10.15-35.887-22.49-39.804-43.36-13.756-139.84 89.739-233.15 189.824-87.27 93.582-177.47 190.36-213.7 177.024-30.08-11.071-21.69-95.915 25.62-259.369 44.56-153.976 53.21-233.021 26.5-241.625-34.04-10.968-118.58 90.452-208.09 197.842-93.859 112.601-190.92 229.019-231.528 216.925-30.296-9.018-26.279-88.363 12.31-242.606 35.068-140.193 35.255-215.009.616-228.731-49.786-19.747-163.732 87.84-284.341 201.721C380.114 422.971 242.13 553.239 175.105 528.431c-49.977-18.491-54.411-121.418-13.558-314.659l-1.66.061c-41.04 194.032-36.358 297.463 14.276 316.214 68.033 25.175 206.474-105.567 340.385-231.991C634.675 184.639 748.156 77.496 796.936 96.84c33.98 13.469 33.551 87.794-1.314 227.173-38.798 155.101-42.539 234.976-11.492 244.222 41.771 12.429 139.29-104.545 233.59-217.688 89.04-106.82 173.14-207.698 206.03-197.087 25.97 8.36 17.03 86.871-27.27 239.968-47.54 164.306-55.69 249.677-24.91 260.998 37.31 13.735 123.98-79.243 215.74-177.657 92.85-99.604 188.88-202.606 231.16-189.182 28.09 8.924 30.2 67.824 6.45 180.115l1.66-.053c13.64-64.58 18.73-111.67 15.23-141.88z" fill="url(#paint0_linear_603_1626)" fill-opacity=".2"/><path d="M1652.06 344.652c-2.75-23.749-10.6-37.557-23.53-41.729-44.16-14.254-140.89 87.047-234.45 185.01-87.51 91.666-178 186.419-214.91 172.546-30.46-11.454-23.13-94.78 22.35-254.777 42.9-150.825 50.59-228.482 23.49-237.395-34.64-11.386-119.22 87.924-208.75 193.08-93.881 110.238-190.961 224.249-232.38 211.697-30.774-9.322-27.825-87.312 8.999-238.431 33.395-137.074 32.619-210.602-2.388-224.766-50.696-20.522-165.249 84.805-286.529 196.286-134.183 123.365-272.927 250.919-341.291 225.131-50.584-19.101-56.471-120.25-17.984-309.289l-1.652.063c-38.643 189.795-32.5 291.45 18.735 310.773 69.321 26.166 208.559-101.831 343.2-225.615C625.765 196.201 739.835 91.313 789.543 111.437c34.348 13.884 34.895 86.906 1.691 223.2-37.031 151.976-39.7 230.48-8.172 240.021 42.536 12.89 140.078-101.666 234.388-212.44 89.07-104.586 173.19-203.376 206.71-192.367 26.32 8.65 18.4 85.757-24.25 235.719-45.73 160.838-52.81 244.705-21.64 256.42 37.99 14.289 124.9-76.76 216.95-173.143 93.09-97.484 189.35-198.298 232.46-184.388 28.48 9.195 31.45 67.118 9.07 177.107l1.65-.063c12.55-61.594 17.11-107.043 13.66-136.851z" fill="url(#paint1_linear_603_1626)" fill-opacity=".2"/><path d="M1662.72 363.414c-2.87-24.823-11.06-39.293-24.62-43.737-44.98-14.773-142.02 84.379-235.84 180.275-87.83 89.756-178.62 182.566-216.25 168.113-30.85-11.849-24.58-93.718 19.14-250.285 41.26-147.732 47.97-224.014 20.48-233.231-35.27-11.838-119.91 85.435-209.53 188.399-93.926 107.921-191.087 219.55-233.294 206.52-31.255-9.616-29.384-86.273 5.71-234.348 31.769-134.014 30.014-206.259-5.351-220.87-51.606-21.324-166.862 81.756-288.854 190.905-134.998 120.761-274.579 245.639-344.292 218.823-51.185-19.674-58.49-119.124-22.375-304.029l-1.668.086C89.699 415.684 97.255 515.629 149.082 535.55c70.662 27.164 210.735-98.122 346.201-219.307 121.499-108.706 236.291-211.378 286.945-190.449 34.714 14.333 36.233 86.098 4.654 219.332-35.301 148.905-36.899 226.072-4.902 235.913 43.343 13.339 140.933-98.791 235.32-207.241 89.12-102.405 173.31-199.155 207.49-187.711 26.7 8.959 19.77 84.701-21.24 231.581-43.96 157.377-49.99 239.776-18.45 251.905 38.67 14.867 125.91-74.305 218.27-168.699 93.39-95.422 189.93-194.112 233.9-179.661 28.9 9.493 32.69 66.442 11.66 174.122l1.68-.091c11.42-58.699 15.51-102.499 12.11-131.83z" fill="url(#paint2_linear_603_1626)" fill-opacity=".2"/><path d="M1673.77 382.038c-2.99-25.937-11.56-41.088-25.75-45.838-45.86-15.335-143.2 81.733-237.37 175.582-92.24 91.932-179.35 178.771-217.69 163.727-31.22-12.244-25.99-92.667 15.96-245.872 39.63-144.664 45.36-219.628 17.5-229.157-35.92-12.272-120.67 82.966-210.4 183.787-94.043 105.675-191.32 214.947-234.37 201.439-31.719-9.933-30.929-85.276 2.461-230.335 30.13-130.967 27.434-201.963-8.275-217.034-52.55-22.165-168.549 78.737-291.33 185.565-135.892 118.205-276.41 240.458-347.514 212.6-51.774-20.28-60.5-118.051-26.705-298.867l-1.674.102c-33.937 181.585-24.972 279.829 27.443 300.336 72.055 28.226 213.037-94.434 349.392-213.046 122.304-106.38 237.835-206.886 289.451-185.118 35.063 14.777 37.542 85.289 7.582 215.487-33.576 145.878-34.105 221.737-1.646 231.904 44.164 13.854 141.865-95.957 236.395-202.144 89.24-100.282 173.54-195.008 208.37-183.102 27.12 9.249 21.15 83.675-18.27 227.511-42.19 154.006-47.18 234.948-15.27 247.483 39.37 15.446 126.96-71.852 219.68-164.294 93.71-93.395 190.62-189.982 235.46-175.002 29.3 9.795 33.96 65.806 14.25 171.226l1.67-.105c10.4-55.89 13.98-98.012 10.65-126.835z" fill="url(#paint3_linear_603_1626)" fill-opacity=".2"/><path d="M1685.24 400.504c-3.12-27.085-12.09-42.956-26.93-48.002-46.72-15.893-144.48 79.106-239.04 170.949-92.66 90.024-180.2 175.074-219.26 159.409-31.6-12.669-27.4-91.682 12.81-241.535 38.03-141.678 42.79-215.326 14.58-225.165-36.58-12.742-121.49 80.519-211.38 179.223-94.225 103.481-191.636 210.446-235.55 196.444-32.203-10.275-32.456-84.338-.785-226.413 28.54-127.988 24.883-197.73-11.148-213.246-53.518-23.042-170.316 75.711-293.993 180.266-136.863 115.715-278.411 235.375-350.936 206.428-52.339-20.904-62.48-116.986-30.97-293.821l-1.666.105C59.34 422.693 69.715 519.263 122.691 540.404c73.455 29.325 215.463-90.735 352.801-206.835C598.653 229.441 715.013 131.077 767.598 153.72c35.409 15.23 38.824 84.482 10.465 211.722-31.867 142.899-31.342 217.473 1.592 227.978 44.979 14.36 142.866-93.136 237.545-197.109 89.41-98.184 173.88-190.95 209.36-178.574 27.48 9.589 22.48 82.685-15.33 223.544-40.45 150.664-44.42 230.207-12.14 243.14 40.09 16.065 128.09-69.429 221.26-159.929 94.09-91.408 191.39-185.945 237.12-170.388 29.69 10.103 35.18 65.168 16.79 168.365l1.67-.114c9.42-53.106 12.56-93.576 9.31-121.851z" fill="url(#paint4_linear_603_1626)" fill-opacity=".2"/><path d="M1697.09 418.877c-3.24-28.264-12.62-44.881-28.16-50.249-47.61-16.458-145.83 76.494-240.81 166.384-93.15 88.15-181.12 171.427-220.97 155.129-31.97-13.086-28.78-90.697 9.72-237.277 36.46-138.721 40.26-211.088 11.67-221.236-37.24-13.243-122.38 78.055-212.5 174.734-94.411 101.292-192.053 206.027-236.851 191.479-32.687-10.617-33.975-83.424-3.989-222.568 26.944-125.046 22.371-193.587-13.962-209.55-54.515-23.945-172.208 72.7-296.802 175.021C326.505 454.01 183.867 571.123 109.852 541.046c-52.918-21.488-64.414-115.979-35.189-288.834l-1.665.133C43.644 425.9 55.404 520.844 108.915 542.618c74.924 30.439 218.022-87.074 356.4-200.697C589.49 239.957 706.717 143.701 760.29 167.246c35.715 15.696 40.071 83.753 13.28 208.052-30.172 139.963-28.593 213.278 4.792 224.114C824.209 614.285 922.3 509.047 1017.2 407.27c89.64-96.144 174.3-186.961 210.46-174.095 27.87 9.909 23.82 81.765-12.4 219.628-38.7 147.369-41.68 225.505-9.04 238.882 40.82 16.709 129.28-66.994 222.91-155.629 94.54-89.466 192.29-181.992 238.91-165.85 30.09 10.41 36.4 64.569 19.33 165.575l1.66-.124c8.55-50.301 11.23-89.116 8.06-116.78z" fill="url(#paint5_linear_603_1626)" fill-opacity=".2"/><path d="M1710.69 436.925c-3.39-29.486-13.17-46.859-29.46-52.553-48.56-17.055-147.34 73.898-242.88 161.855-93.74 86.316-182.29 167.836-222.91 150.889-32.34-13.499-30.18-89.731 6.64-233.025 34.87-135.746 37.72-206.85 8.74-217.343-37.95-13.735-123.38 75.653-213.83 170.318-94.738 99.15-192.711 201.678-238.432 186.617-33.173-10.95-35.526-82.493-7.213-218.739 25.389-122.091 19.905-189.418-16.786-205.828-55.549-24.843-174.286 69.727-299.982 169.845-139.153 110.785-283.065 225.41-358.64 194.189-53.507-22.093-66.402-114.944-39.43-283.826l-1.661.143C27.769 429.067 40.9 522.37 95.001 544.722c76.474 31.58 220.861-83.43 360.497-194.626 125.213-99.735 243.492-193.942 298.138-169.477 36.076 16.135 41.342 82.978 16.106 204.349-28.501 137.046-25.876 209.1 7.989 220.287 46.753 15.408 145.198-87.607 240.399-187.231 89.95-94.13 174.92-183.057 211.82-169.682 28.28 10.226 25.16 80.811-9.49 215.724-37.02 144.105-38.97 220.848-5.96 234.622 41.6 17.368 130.62-64.586 224.86-151.379 95.09-87.543 193.41-178.081 241.01-161.349 30.5 10.716 37.67 63.965 21.88 162.769l1.66-.132c7.6-47.597 9.88-84.703 6.78-111.672z" fill="url(#paint6_linear_603_1626)" fill-opacity=".2"/><path d="M1725.43 454.676c-3.53-30.705-13.76-48.877-30.79-54.923-49.57-17.641-148.99 71.344-245.16 157.397-94.42 84.527-183.61 164.351-225.09 146.72-32.73-13.93-31.55-88.779 3.57-228.823 33.33-132.827 35.24-202.651 5.85-213.48-38.7-14.255-124.5 73.271-215.34 165.935-95.162 97.043-193.554 197.408-240.234 181.804-33.681-11.273-37.101-81.571-10.418-214.941 23.834-119.164 17.426-185.263-19.593-202.101-56.666-25.768-176.537 66.754-303.448 164.732C304.229 465.464 158.889 577.65 81.673 545.287 27.553 522.598 13.265 431.4 37.995 266.43l-1.686.153C11.468 432.241 26.001 523.923 80.706 546.84c78.097 32.725 223.89-79.808 364.912-188.634 126.439-97.601 245.868-189.782 301.624-164.394 36.425 16.552 42.61 82.183 18.927 200.635-26.828 134.149-23.142 204.947 11.23 216.464 47.695 15.946 146.566-84.876 242.171-182.398 90.34-92.149 175.67-179.196 213.35-165.35 28.69 10.572 26.52 79.874-6.59 211.889-35.32 140.825-36.28 216.185-2.9 230.393 42.43 18.042 132.09-62.197 227.02-147.17 95.72-85.661 194.68-174.21 243.3-156.906 30.93 11.012 38.91 63.345 24.41 160.008l1.69-.155c6.72-44.906 8.6-80.308 5.58-106.546z" fill="url(#paint7_linear_603_1626)" fill-opacity=".2"/><path d="M1740.65 472.365c-3.69-31.993-14.39-50.953-32.2-57.391-50.58-18.267-150.74 68.815-247.57 153.002-95.18 82.749-185.07 160.915-227.39 142.578-33.11-14.366-32.95-87.844.54-224.695 31.79-129.938 32.76-198.521 2.99-209.676-39.46-14.779-125.71 70.895-216.97 161.606-95.615 95.007-194.473 193.24-242.127 177.06-34.213-11.612-38.665-80.69-13.641-211.204 22.296-116.286 14.979-181.206-22.339-198.473-57.781-26.729-178.894 63.819-307.121 159.661C292.819 471.001 145.987 580.746 67.057 547.207c-54.723-23.252-70.37-112.879-47.839-273.969l-1.683.172c-22.61 161.769-6.73 251.858 48.56 275.361 79.789 33.912 227.085-76.213 369.549-182.697 127.735-95.49 248.396-185.664 305.318-159.363 36.741 16.986 43.835 81.44 21.676 197.028-25.19 131.303-20.471 200.881 14.42 212.715 48.675 16.533 148.015-82.165 244.062-177.616 90.79-90.234 176.56-175.444 215.02-161.039 29.09 10.886 27.86 78.974-3.72 208.101-33.68 137.613-33.64 211.608.12 226.243 43.29 18.734 133.65-59.829 229.33-143.007 96.41-83.813 196.09-170.466 245.74-152.561 31.35 11.318 40.17 62.763 26.95 157.268l1.68-.174c5.82-42.214 7.33-75.886 4.41-101.304z" fill="url(#paint8_linear_603_1626)" fill-opacity=".2"/><path d="M1756.25 489.959c-3.84-33.326-15.02-53.137-33.65-59.938-51.63-18.886-152.54 66.266-250.13 148.645-95.97 81.015-186.64 157.552-229.83 138.498-33.5-14.769-34.3-86.948-2.45-220.642 30.27-127.091 30.33-194.471.16-205.96-40.24-15.337-126.94 68.53-218.72 157.324-96.107 92.975-195.471 189.117-244.145 172.355-34.713-11.959-40.211-79.858-16.806-207.585 20.798-113.449 12.612-177.198-25.05-194.87-58.959-27.692-181.347 60.871-310.948 154.641C281.119 476.305 132.683 583.701 52.006 548.921c-55.302-23.836-72.3-111.89-51.957-269.178l-1.683.2c-20.43 157.965-3.192 246.455 52.681 270.534 81.508 35.125 230.419-72.601 374.406-176.798 129.116-93.407 251.07-181.654 309.162-154.337 37.068 17.414 45.041 80.698 24.379 193.45-23.552 128.485-17.795 196.881 17.574 209.073 49.673 17.099 149.53-79.487 246.082-172.913 91.29-88.328 177.52-171.736 216.76-156.801 29.49 11.228 29.21 78.097-.87 204.387-32.02 134.445-31.01 207.127 3.11 222.162 44.13 19.479 135.26-57.446 231.72-138.885 97.14-81.996 197.59-166.777 248.29-148.205 31.78 11.621 41.39 62.18 29.46 154.586l1.68-.193c5.14-39.512 6.29-71.469 3.45-96.044z" fill="url(#paint9_linear_603_1626)" fill-opacity=".2"/><path d="M1772.33 507.462c-4.01-34.683-15.69-55.348-35.18-62.574-52.71-19.542-154.43 63.759-252.79 144.337-96.86 79.312-188.32 154.25-232.42 134.433-33.84-15.211-35.62-86.071-5.39-216.65 28.77-124.301 27.9-190.481-2.65-202.315-41.06-15.906-128.26 66.201-220.57 153.108-96.642 91.003-196.6 185.099-246.326 167.745-35.211-12.314-41.746-79.032-19.947-204.013 19.293-110.643 10.217-173.244-27.723-191.356-60.124-28.725-183.896 57.909-314.953 149.635-145.18 101.598-295.311 206.67-377.787 170.64-55.861-24.422-74.192-110.915-56.019-264.45l-1.684.2c-18.26 154.185.3 241.119 56.719 265.798 83.277 36.383 233.866-68.997 379.502-170.922 130.558-91.376 253.896-177.694 313.186-149.361 37.374 17.853 46.227 79.986 27.044 189.932-21.922 125.72-15.15 192.918 20.747 205.458 50.698 17.718 151.119-76.841 248.231-168.259 91.84-86.472 178.58-168.136 218.63-152.614 29.87 11.601 30.51 77.267 1.93 200.768-30.38 131.324-28.39 202.676 6.06 218.162 45.02 20.218 136.96-55.086 234.3-134.809 97.92-80.201 199.19-163.144 251-143.925 32.18 11.917 42.61 61.637 31.91 151.97l1.68-.218c4.4-36.86 5.24-67.059 2.5-90.72z" fill="url(#paint10_linear_603_1626)" fill-opacity=".2"/><path d="M1788.91 524.898c-4.18-36.102-16.37-57.638-36.75-65.305-53.82-20.225-156.41 61.268-255.63 140.088-97.78 77.664-190.11 151.006-235.13 130.428-34.21-15.652-36.93-85.243-8.29-212.741 27.26-121.531 25.5-186.538-5.44-198.745-41.86-16.518-129.62 63.868-222.55 148.965-97.273 89.065-197.844 181.173-248.648 163.163-35.736-12.669-43.268-78.247-23.072-200.518 17.809-107.876 7.896-169.321-30.315-187.861-61.344-29.757-186.566 54.982-319.166 144.671-146.91 99.382-298.82 202.166-383.113 164.854-56.426-24.993-76.063-109.97-59.991-259.822l-1.682.219c-16.113 150.489 3.736 235.893 60.703 261.137 85.11 37.671 237.482-65.402 384.817-165.102 132.092-89.371 256.888-173.79 317.418-144.429 37.667 18.27 47.36 79.268 29.658 186.482-20.316 123.001-12.514 189.071 23.853 201.966 51.75 18.338 152.81-74.17 250.528-163.666 92.43-84.649 179.74-164.603 220.63-148.467 30.28 11.934 31.82 76.447 4.72 197.208-28.79 128.245-25.86 198.32 8.95 214.25 45.91 20.99 138.71-52.721 236.98-130.766 98.78-78.462 200.9-159.578 253.85-139.69 32.59 12.242 43.84 61.113 34.38 149.388l1.69-.218c3.67-34.383 4.21-62.81 1.6-85.489z" fill="url(#paint11_linear_603_1626)" fill-opacity=".2"/><path d="M1805.9 542.269c-4.34-37.542-17.06-60.012-38.35-68.104-54.94-20.905-158.47 58.778-258.59 135.859-98.76 76.02-192.02 147.822-237.97 126.416-34.54-16.099-38.18-84.415-11.16-208.897 25.8-118.821 23.11-182.664-8.18-195.225-42.69-17.123-131.07 61.54-224.65 144.831-97.911 87.151-199.181 177.279-251.06 158.634-36.214-13.028-44.792-77.482-26.16-197.076 16.368-105.158 5.624-165.492-32.868-184.436-62.589-30.824-189.33 52.033-323.529 139.723C244.663 491.206 90.877 591.717 4.69 553.079c-56.972-25.539-77.882-109.045-63.922-255.254l-1.726.259C-74.96 444.93-53.814 528.853 3.679 554.626c86.973 39.006 241.219-61.813 390.375-159.294 133.721-87.407 260.028-169.948 321.822-139.521 37.942 18.69 48.472 78.559 32.211 183.056-18.731 120.313-9.91 185.232 26.939 198.504 52.827 18.994 154.537-71.55 252.924-159.114 93.09-82.856 181.02-161.123 222.74-144.366 30.65 12.304 33.1 75.667 7.46 193.716-27.2 125.212-23.33 194.015 11.79 210.37 46.84 21.825 140.58-50.351 239.84-126.759 99.68-76.746 202.74-156.07 256.83-135.481 32.98 12.555 45.01 60.598 36.78 146.884l1.67-.24c3.06-31.819 3.35-58.476.84-80.112z" fill="url(#paint12_linear_603_1626)" fill-opacity=".2"/><path d="M1823.38 559.6c-4.52-39.048-17.81-62.465-40.04-71.04-56.12-21.623-160.63 56.319-261.69 131.659-99.79 74.419-194.06 144.692-240.98 122.462-34.85-16.521-39.44-83.618-13.97-205.096 24.34-116.12 20.77-178.859-10.88-191.795-43.56-17.782-132.6 59.234-226.89 140.753-98.65 85.287-200.638 173.494-253.636 154.152-36.714-13.403-46.273-76.767-29.239-193.723 14.942-102.482 3.361-161.687-35.351-181.051C646.84 234.01 518.5 315.005 382.589 400.759 231.944 495.819 76.19 594.081-11.934 554.085c-57.478-26.098-79.678-108.13-67.794-250.767l-1.7.268c-11.931 143.263 10.48 225.694 68.48 252.027 88.889 40.348 245.123-58.233 396.178-153.535 135.43-85.463 263.363-166.169 326.435-134.664 38.19 19.082 49.551 77.868 34.725 179.691-17.163 117.683-7.34 181.5 30 195.117 53.931 19.685 156.388-68.919 255.48-154.591 93.8-81.119 182.4-157.723 225-140.329 31.03 12.661 34.35 74.897 10.16 190.278-25.61 122.2-20.83 189.764 14.61 206.572 47.77 22.652 142.51-47.97 242.8-122.748 100.63-75.043 204.69-152.626 259.97-131.343 33.38 12.858 46.2 60.087 39.18 144.397l1.7-.267c2.43-29.202 2.47-54.062.09-74.591z" fill="url(#paint13_linear_603_1626)" fill-opacity=".2"/><path d="M1841.39 576.872c-4.7-40.573-18.55-64.97-41.78-74.03-57.33-22.346-162.88 53.851-264.96 127.539-100.92 72.841-196.24 141.621-244.12 118.51-35.18-16.958-40.63-82.836-16.74-201.386 22.89-113.479 18.46-175.099-13.56-188.418-44.42-18.431-134.17 56.931-229.23 136.732-99.415 83.468-202.209 169.77-256.342 149.726-37.209-13.766-47.748-76.04-32.268-190.407 13.515-99.833 1.165-157.98-37.793-177.709-65.159-33.023-195.202 46.15-332.889 129.966-152.644 92.911-310.486 189.014-400.62 147.626-58.01-26.63-81.436-107.203-71.607-246.334l-1.698.287c-9.853 139.719 13.786 220.718 72.286 247.591 90.884 41.726 249.169-54.607 402.244-147.799 137.225-83.527 266.832-162.43 331.221-129.797 38.436 19.475 50.596 77.166 37.15 176.398-15.59 115.064-4.787 177.819 33.043 191.816 55.061 20.376 158.315-66.326 258.193-150.157 94.55-79.396 183.85-154.367 227.36-136.318 31.39 13.042 35.6 74.178 12.86 186.919-24.04 119.241-18.36 185.595 17.38 202.839 48.75 23.506 144.53-45.601 245.94-118.803 101.64-73.371 206.77-149.242 263.23-127.216 33.77 13.154 47.34 59.614 41.53 141.954l1.7-.296c1.88-26.833 1.71-49.874-.53-69.233z" fill="url(#paint14_linear_603_1626)" fill-opacity=".2"/><path d="M1859.84 594.099c-4.89-42.148-19.33-67.555-43.59-77.133-58.54-23.076-165.19 51.379-268.35 123.411-102.09 71.291-198.52 138.601-247.44 114.61-35.46-17.402-41.82-82.091-19.44-197.725 21.46-110.869 16.17-171.396-16.2-185.069-45.31-19.126-135.86 54.637-231.71 132.738-100.241 81.659-203.896 166.113-259.201 145.336-37.687-14.124-49.213-75.374-35.267-187.182 12.127-97.246-1.022-154.298-40.197-174.428-66.507-34.17-198.324 43.202-337.877 125.106-154.746 90.82-314.75 184.711-406.932 141.91-58.506-27.15-83.136-106.321-75.344-241.968l-1.696.307c-7.835 136.264 17.025 215.813 76.029 243.208 92.916 43.134 253.357-51.026 408.518-142.077 139.102-81.621 270.478-158.734 336.236-124.965 38.683 19.867 51.615 76.491 39.557 173.108-14.039 112.511-2.25 174.187 36.028 188.551 56.21 21.091 160.342-63.729 261.026-145.754 95.36-77.696 185.44-151.09 229.84-132.345 31.75 13.398 36.82 73.466 15.49 183.618-22.51 116.326-15.93 181.479 20.08 199.151 49.74 24.408 146.64-43.232 249.21-114.853 102.72-71.716 208.94-145.874 266.68-123.135 34.14 13.457 48.49 59.136 43.87 139.559l1.7-.307c1.41-24.346 1.08-45.563-1.02-63.672z" fill="url(#paint15_linear_603_1626)" fill-opacity=".2"/><path d="M1878.81 611.311c-5.08-43.769-20.12-70.242-45.45-80.326-59.8-23.844-167.62 48.951-271.9 119.325-103.33 69.75-200.94 135.644-250.89 110.728-35.74-17.831-42.99-81.328-22.11-194.117 20.04-108.317 13.9-167.768-18.8-181.817-46.23-19.864-137.58 52.333-234.33 128.758-101.116 79.896-205.689 162.509-262.221 141.001-38.16-14.5-50.669-74.706-38.239-184.014 10.763-94.677-3.154-150.671-42.53-171.168-67.87-35.323-201.539 40.26-343.055 120.265C192.35 508.693 30.071 600.437-64.213 556.213c-58.978-27.662-84.836-105.42-79.023-237.692l-1.696.334c-5.836 132.859 20.229 211.006 79.702 238.886C29.8 602.3 192.491 510.307 349.846 421.34 490.9 341.596 624.127 266.244 691.279 301.185c38.868 20.23 52.576 75.798 41.882 169.874-12.49 109.994.252 170.634 39.003 185.373 57.415 21.834 162.435-61.137 264.006-141.387 96.24-76.04 187.16-147.868 232.47-128.396 32.09 13.785 38.02 72.772 18.1 180.378-20.99 113.469-13.55 177.423 22.74 195.515 50.77 25.339 148.85-40.861 252.64-110.944 103.85-70.102 211.24-142.591 270.25-119.069 34.52 13.764 49.63 58.638 46.17 137.223l1.7-.334c1.01-21.959.52-41.302-1.43-58.107z" fill="url(#paint16_linear_603_1626)" fill-opacity=".2"/><path d="M1898.34 628.498c-5.27-45.472-20.95-72.981-47.39-83.649-61.09-24.608-170.15 46.518-275.6 115.299-104.65 68.236-203.5 132.707-254.51 106.83-36-18.257-44.09-80.606-24.73-190.559 18.63-105.784 11.65-164.203-21.38-178.619-47.17-20.604-139.43 50.033-237.08 124.833-102.057 78.157-207.609 158.974-265.364 136.698-38.639-14.886-52.115-74.07-41.195-180.894 9.409-92.17-5.246-147.113-44.802-167.954-69.273-36.496-204.882 37.314-348.445 115.457-159.215 86.671-323.858 176.284-420.35 130.604-59.448-28.155-86.493-104.534-82.64-233.46l-1.69.344c-3.879 129.523 23.37 206.271 83.313 234.643 97.194 46.011 262.248-43.824 421.889-130.732 143.088-77.895 278.263-151.472 346.832-115.343 39.089 20.587 53.525 75.11 44.181 166.686-10.974 107.521 2.744 167.116 41.965 182.238 58.644 22.612 164.64-58.554 267.126-137.047 97.19-74.43 188.97-144.71 235.27-124.49 32.44 14.157 39.2 72.113 20.7 177.186-19.49 110.625-11.19 173.419 25.34 191.949 51.81 26.286 151.11-38.485 256.23-107.044 105.04-68.502 213.67-139.34 274.01-115.053 34.88 14.076 50.73 58.202 48.45 134.917l1.69-.353c.56-19.586-.03-37.081-1.82-52.487z" fill="url(#paint17_linear_603_1626)" fill-opacity=".2"/><path d="M1918.32 645.665c-5.48-47.19-21.81-75.8-49.39-87.046-62.42-25.405-172.77 44.078-279.47 111.267-106.03 66.756-206.16 129.81-258.27 102.966-36.26-18.687-45.19-79.865-27.29-187.053 17.25-103.265 9.43-160.669-23.91-175.45-48.13-21.359-141.3 47.749-239.95 120.929-103.077 76.468-209.64 155.505-268.689 132.449-39.089-15.272-53.511-73.447-44.096-177.858 8.081-89.709-7.293-143.604-47.024-164.777-70.734-37.69-208.343 34.365-354.017 110.643C164.6 516.355-2.494 603.855-101.214 556.694c-59.912-28.619-88.117-103.637-86.185-229.297l-1.69.372c-1.934 126.246 26.477 201.624 86.859 230.452C-2.818 605.71 164.718 517.98 326.725 433.14c145.259-76.047 282.427-147.9 352.464-110.575 39.276 20.914 54.433 74.408 46.404 163.538-9.472 105.062 5.205 163.66 44.852 179.16 59.89 23.396 166.937-55.996 270.435-132.775 98.18-72.811 190.9-141.591 238.17-120.614 32.75 14.53 40.34 71.468 23.22 174.033-18.01 107.838-8.88 169.467 27.92 188.424 52.89 27.261 153.48-36.082 259.99-103.157 106.28-66.931 216.19-136.139 277.87-111.055 35.25 14.336 51.84 57.723 50.69 132.644l1.69-.373c.2-17.17-.48-32.775-2.11-46.725z" fill="url(#paint18_linear_603_1626)" fill-opacity=".2"/><path d="M1938.9 662.819c-5.69-48.954-22.69-78.72-51.48-90.56-63.78-26.194-175.48 41.673-283.48 107.272-107.47 65.303-208.98 126.979-262.21 99.122-36.49-19.097-46.24-79.157-29.78-183.597 15.88-100.802 7.24-157.175-26.38-172.359-49.13-22.144-143.3 45.482-243 117.064-104.126 74.767-211.797 152.094-272.15 128.206-39.557-15.635-54.899-72.847-46.967-174.857 6.791-87.281-9.291-140.162-49.198-161.64-72.218-38.892-211.914 31.417-359.831 105.87-164.095 82.598-333.772 167.995-434.793 119.365-60.374-29.063-89.694-102.732-89.665-225.204l-1.711.402c-.034 123.011 29.515 197.057 90.336 226.34 101.694 48.97 271.788-36.639 436.287-119.435 147.472-74.241 286.766-144.333 358.289-105.807 39.442 21.244 55.33 73.713 48.569 160.426-7.997 102.658 7.625 160.273 47.72 176.14 61.192 24.208 169.319-53.446 273.874-128.524 99.22-71.232 192.95-138.536 241.23-116.77 33.07 14.914 41.47 70.839 25.7 170.962-16.54 105.091-6.6 165.61 30.41 184.966 54 28.241 155.96-33.698 263.89-99.283 107.61-65.359 218.87-132.969 281.92-107.071 35.63 14.623 52.91 57.302 52.91 130.41l1.7-.403c-.02-14.939-.74-28.601-2.19-41.035z" fill="url(#paint19_linear_603_1626)" fill-opacity=".2"/><path d="M1960.01 679.998c-5.91-50.785-23.59-81.725-53.64-94.173-65.21-27.008-178.3 39.239-287.69 103.302-108.99 63.836-211.95 124.145-266.34 95.274-36.72-19.492-47.26-78.447-32.24-180.188 14.51-98.379 5.09-153.751-28.85-169.28-50.14-22.952-145.37 43.184-246.17 113.221-105.239 73.1-214.087 148.704-275.782 124.019-40.003-16.01-56.295-72.25-49.799-171.918 5.519-84.911-11.263-136.775-51.309-158.555-73.734-40.112-215.625 28.479-365.841 101.106-166.672 80.59-338.998 163.891-442.41 113.754-60.806-29.508-91.266-101.836-93.079-221.181l-1.708.421c1.828 119.881 32.495 192.571 93.771 222.287 104.06 50.46 276.812-33.05 443.877-113.832 149.793-72.427 291.263-140.825 364.345-101.073 39.593 21.54 56.17 72.997 50.675 157.357-6.509 100.296 10.009 156.94 50.552 173.173 62.513 25.017 171.789-50.887 277.468-124.284 100.32-69.698 195.09-135.534 244.42-112.951 33.38 15.282 42.58 70.206 28.15 167.915-15.13 102.384-4.36 161.773 32.85 181.544 55.13 29.26 158.54-31.299 268-95.426 108.97-63.833 221.65-129.841 286.12-103.122 35.96 14.897 53.98 56.847 55.07 128.223l1.7-.422c-.15-12.644-.89-24.367-2.14-35.191z" fill="url(#paint20_linear_603_1626)" fill-opacity=".2"/><path d="M1981.69 697.164c-6.13-52.671-24.54-84.787-55.89-97.881-66.64-27.826-181.23 36.826-292.02 99.365-110.59 62.419-215.06 121.367-270.61 91.465-36.92-19.885-48.26-77.721-34.65-176.836 13.2-95.987 2.98-150.401-31.25-166.282-51.18-23.797-147.52 40.901-249.5 109.38C941.338 627.848 831.264 701.767 768.19 676.2c-40.432-16.38-57.644-71.657-52.608-168.998 4.256-82.566-13.187-133.446-53.361-155.507-75.319-41.346-219.469 25.524-372.09 96.347-169.335 78.562-344.448 159.823-450.3 108.162-61.262-29.886-92.817-100.923-96.462-217.202l-1.705.44c3.678 116.766 35.463 188.182 97.147 218.27 106.493 51.953 282.013-29.459 451.73-108.207 152.195-70.614 295.941-137.314 370.586-96.317 39.743 21.81 56.989 72.313 52.749 154.326-5.05 97.969 12.396 153.652 53.366 170.236 63.888 25.879 174.379-48.333 281.238-120.098 101.52-68.179 197.38-132.558 247.76-109.151 33.67 15.641 43.67 69.609 30.59 164.937-13.71 99.724-2.17 157.991 35.25 178.14 56.3 30.323 161.2-28.886 272.26-91.556 110.4-62.3 224.56-126.732 290.49-99.205 36.33 15.164 55.04 56.398 57.25 126.068l1.7-.449c-.31-10.368-1.03-20.125-2.09-29.272z" fill="url(#paint21_linear_603_1626)" fill-opacity=".2"/><path d="M2003.94 714.378c-6.36-54.605-25.5-87.987-58.22-101.741-68.13-28.669-184.23 34.42-296.53 95.439-112.27 61.001-218.3 118.619-275.08 87.618-37.13-20.267-49.22-77.007-36.99-173.515 11.88-93.642.88-147.056-33.61-163.332-52.27-24.631-149.74 38.605-252.96 105.578-107.678 69.874-219.042 142.106-283.552 115.692-40.88-16.747-58.991-71.099-55.386-166.169 3.053-80.293-15.052-130.161-55.378-152.483-76.92-42.585-223.412 22.592-378.524 91.59C105.6 529.626-72.377 608.794-180.757 555.636c-61.686-30.262-94.318-100.049-99.788-213.297l-1.705.468c5.485 113.757 38.342 183.883 100.449 214.348 109.004 53.463 287.374-25.879 459.872-102.626 154.683-68.808 300.779-133.813 377.071-91.579 39.877 22.073 57.798 71.579 54.775 151.332-3.629 95.676 14.74 150.415 56.133 167.385 65.284 26.74 177.075-45.791 285.19-115.935 102.76-66.673 199.8-129.628 251.27-105.381 33.94 16.025 44.73 69.013 32.94 162.004-12.3 97.109-.02 154.306 37.61 174.81 57.51 31.388 163.96-26.452 276.69-87.723 111.9-60.793 227.61-123.664 295.05-95.31 36.66 15.419 56.08 55.985 59.36 123.948l1.71-.466c-.45-8.095-1.07-15.878-1.93-23.236z" fill="url(#paint22_linear_603_1626)" fill-opacity=".2"/><path d="M2026.77 731.593c-6.59-56.598-26.51-91.254-60.63-105.703-69.66-29.493-187.36 32.037-301.2 91.554-113.98 59.595-221.67 115.891-279.68 83.809-37.32-20.613-50.18-76.295-39.29-170.254 10.57-91.33-1.19-143.792-35.95-160.405-53.36-25.518-152.09 36.317-256.6 101.809-108.992 68.281-221.675 138.861-287.658 111.571-41.316-17.092-60.337-70.514-58.112-163.359 1.856-78.065-16.913-126.968-57.338-149.523-78.567-43.822-227.516 19.652-385.191 86.848-174.985 74.576-355.925 151.691-466.903 97.032-62.105-30.593-95.832-99.107-103.054-209.455l-1.699.506c7.251 110.816 41.185 179.664 103.709 210.467 111.578 54.976 292.902-22.308 468.258-97.037 157.279-67.023 305.818-130.338 383.767-86.866 40.002 22.307 58.56 70.848 56.71 148.392-2.195 93.424 17.053 147.241 58.856 164.556 66.726 27.625 179.875-43.233 289.285-111.788 104.05-65.187 202.32-126.761 254.91-101.614 34.22 16.363 45.76 68.405 35.27 159.104-10.93 94.531 2.12 150.623 39.89 171.52 58.73 32.467 166.82-24.054 281.28-83.864 113.44-59.297 230.73-120.63 299.73-91.436 37 15.668 57.11 55.534 61.46 121.883l1.7-.488c-.37-5.986-.88-11.735-1.52-17.259z" fill="url(#paint23_linear_603_1626)" fill-opacity=".2"/><path d="M2050.17 748.871c-6.83-58.674-27.54-94.639-63.17-109.777-71.23-30.32-190.59 29.677-306.04 87.676-115.82 58.197-225.19 113.163-284.51 79.983-37.48-20.967-51.05-75.59-41.51-167.022 9.27-89.034-3.22-140.565-38.22-157.53-54.49-26.412-154.48 34.047-260.38 98.026-110.348 66.706-224.485 135.683-291.96 107.464-41.74-17.45-61.635-69.967-60.816-160.615.68-75.875-18.707-123.817-59.251-146.567-80.265-45.047-231.712 16.71-392.059 82.133-177.956 72.594-361.96 147.643-475.604 91.459-62.544-30.92-97.304-98.196-106.275-205.671l-1.696.526c9.026 107.952 43.988 175.55 106.927 206.664 114.241 56.48 298.62-18.739 476.936-91.481C412.499 398.9 563.559 337.263 643.2 381.978c40.121 22.529 59.296 70.108 58.622 145.462-.818 91.208 19.313 144.15 61.566 161.796 68.229 28.521 182.772-40.717 293.552-107.677 105.43-63.717 204.99-123.896 258.74-97.857 34.5 16.7 46.77 67.821 37.54 156.236-9.58 91.994 4.19 147.04 42.14 168.261 59.99 33.576 169.81-21.618 286.07-80.029 115.04-57.81 234.03-117.61 304.6-87.562 37.35 15.895 58.11 55.066 63.54 119.826l1.7-.524c-.3-3.744-.68-7.444-1.1-11.039z" fill="url(#paint24_linear_603_1626)" fill-opacity=".2"/><path d="M2074.23 766.176c-7.09-60.794-28.63-98.096-65.78-113.997-72.86-31.157-193.96 27.293-311.05 83.808-117.69 56.813-228.87 110.455-289.49 76.161-37.63-21.284-51.94-74.884-43.71-163.828 8.03-86.802-5.21-137.406-40.46-154.7-55.66-27.318-157.01 31.751-264.34 94.297C947.597 653.059 832 720.421 762.958 691.304c-42.144-17.784-62.901-69.429-63.482-157.906-.477-73.742-20.456-120.741-61.114-143.675-82.031-46.286-236.093 13.799-399.195 77.421-181.013 70.594-368.185 143.596-484.565 85.911-62.979-31.209-98.773-97.302-109.438-201.932l-1.693.545c10.723 105.153 46.736 171.493 110.087 202.906 116.975 57.962 304.508-15.17 485.876-85.922 162.722-63.471 316.399-123.417 397.804-77.456 40.24 22.724 60.044 69.364 60.51 142.608.57 89.041 21.583 141.081 64.221 159.064 69.759 29.444 185.79-38.179 297.991-103.565 106.86-62.277 207.78-121.096 262.71-94.135 34.75 17.048 47.77 67.229 39.81 153.431-8.28 89.514 6.21 143.505 44.3 165.056 61.29 34.69 172.89-19.181 291.02-76.208 116.73-56.342 237.44-114.606 309.64-83.712 37.69 16.124 59.11 54.614 65.58 117.809l1.7-.543c-.12-1.624-.31-3.226-.49-4.825z" fill="url(#paint25_linear_603_1626)" fill-opacity=".2"/><path d="M2098.71 782.015c-7.51-62.088-29.86-100.314-68.33-116.812-74.52-31.978-197.38 24.931-316.2 79.984-119.66 55.427-232.7 107.789-294.66 72.348-37.79-21.599-52.77-74.147-45.85-160.671 6.79-84.587-7.18-134.262-42.65-151.888-56.87-28.254-159.63 29.449-268.43 90.548-113.29 63.61-230.438 129.382-301.09 99.335-42.553-18.102-64.196-68.891-66.102-155.281-1.59-71.66-22.164-117.709-62.947-140.822-83.817-47.521-240.578 10.901-406.532 72.736-184.17 68.624-374.609 139.577-493.812 80.398-63.407-31.477-100.233-96.332-112.574-198.294l-1.69.564c12.39 102.4 49.418 167.577 113.22 199.221 119.774 59.466 310.57-11.625 495.104-80.378 165.571-61.676 321.934-119.945 405.168-72.77 40.354 22.88 60.751 68.605 62.328 139.775 1.924 86.919 23.79 138.065 66.845 156.395 71.342 30.347 188.899-35.667 302.612-99.502 108.37-60.841 210.72-118.301 266.83-90.423 34.98 17.38 48.73 66.648 41.99 150.665-6.99 87.086 8.22 140.029 46.44 161.88 62.64 35.809 176.07-16.746 296.18-72.384 118.46-54.875 240.94-111.613 314.83-79.891 38.05 16.312 60.16 54.231 67.61 115.844l1.71-.577z" fill="url(#paint26_linear_603_1626)" fill-opacity=".2"/><path d="M2123.18 793.011c-8.53-60.591-31.53-98.161-70.33-114.866-76.23-32.812-200.94 22.575-321.57 76.145-121.72 54.065-236.66 105.124-300.05 68.539-37.92-21.879-53.6-73.418-47.93-157.556 5.57-82.43-9.09-131.225-44.78-149.142-58.08-29.181-162.33 27.16-272.71 86.819-114.852 62.089-233.639 126.289-305.893 95.313-42.97-18.422-65.446-68.348-68.702-152.66-2.664-69.61-23.838-114.756-64.695-138.002-85.671-48.743-245.193 7.977-414.092 68.031C74.4 524.711-68.327 575.45-183.091 573.715c-129.998-1.942-203.101-73.229-223.464-217.906l-1.688.611c10.823 76.829 36.972 133.952 77.705 169.769 36.58 32.156 84.673 48.251 147.007 49.187 115.091 1.733 258-49.084 396.185-98.222 168.5-59.901 327.681-116.503 412.769-68.08 40.457 23.015 61.425 67.809 64.109 136.968 3.269 84.83 25.981 135.126 69.445 153.746 72.964 31.272 192.141-33.139 307.393-95.445 109.91-59.417 213.75-115.538 271.13-86.703 35.22 17.688 49.64 66.085 44.13 147.936-5.73 84.697 10.16 136.615 48.5 158.746 64.02 36.948 179.39-14.295 301.53-68.542 120.25-53.419 244.6-108.646 320.22-76.102 38.4 16.521 61.16 53.781 69.63 113.911l1.67-.578z" fill="url(#paint27_linear_603_1626)" fill-opacity=".2"/><path d="M2148.22 803.943c-9.54-59.104-33.2-96.045-72.34-112.919-78-33.629-204.61 20.244-327.08 72.358-123.83 52.697-240.79 102.463-305.62 64.721-38.04-22.141-54.39-72.674-49.96-154.475 4.37-80.303-10.98-128.189-46.9-146.426-59.36-30.134-165.16 24.877-277.16 83.107-116.483 60.563-236.941 123.207-310.905 91.295-43.41-18.73-66.721-67.812-71.294-150.09-3.745-67.627-25.492-111.861-66.444-135.212-87.539-49.95-249.931 5.069-421.833 63.324-139.73 47.366-284.217 96.319-401.08 93.887-132.344-2.757-207.85-73.3-230.802-215.673l-1.684.631c23.054 143.048 98.974 213.928 232.048 216.695 117.169 2.44 261.809-46.59 401.702-93.977 171.542-58.134 333.566-113.036 420.585-63.43 40.568 23.152 62.107 67.043 65.852 134.221 4.578 82.793 28.151 132.226 72.002 151.147 74.649 32.2 195.513-30.622 312.383-91.392 111.55-57.998 216.92-112.8 275.6-83.027 35.46 18.003 50.57 65.499 46.26 145.223-4.47 82.35 12.08 133.257 50.54 155.665 65.45 38.094 182.8-11.848 307.05-64.709 122.1-51.95 248.37-105.681 325.77-72.31 38.75 16.708 62.16 53.339 71.62 112.014l1.69-.648z" fill="url(#paint28_linear_603_1626)" fill-opacity=".2"/><path d="M2173.75 814.839c-10.51-57.675-34.8-93.999-74.29-111.012-79.8-34.448-208.42 17.934-332.79 68.593-126.02 51.333-245.06 99.816-311.35 60.924-38.16-22.382-55.15-71.923-51.92-151.443 3.17-78.201-12.85-125.232-48.97-143.747-60.66-31.101-168.06 22.568-281.77 79.413-118.181 59.074-240.399 120.151-316.114 87.29-43.81-19.018-67.947-67.288-73.801-147.557-4.817-65.697-27.091-109.049-68.143-132.487-89.523-51.114-254.851 2.21-429.894 58.693-141.502 45.641-287.806 92.852-406.768 89.696-134.757-3.565-212.685-73.408-238.233-213.497l-1.682.65c25.672 140.762 103.99 210.925 239.454 214.511 119.267 3.164 265.73-44.105 407.386-89.796 174.68-56.355 339.67-109.597 428.646-58.773 40.703 23.242 62.794 66.26 67.562 131.519 5.912 80.764 30.27 129.391 74.536 148.586 76.37 33.158 198.958-28.129 317.551-87.389 113.26-56.606 220.26-110.075 280.26-79.33 35.67 18.294 51.48 64.907 48.33 142.576-3.24 80.058 13.94 129.953 52.53 152.603 66.91 39.244 186.33-9.406 312.79-60.894 124.02-50.521 252.26-102.753 331.5-68.544 39.09 16.866 63.16 52.888 73.6 110.114l1.58-.699z" fill="url(#paint29_linear_603_1626)" fill-opacity=".2"/><path d="M2199.85 825.724c-38.93-190.764-230.06-116.32-414.93-44.356-128.31 49.971-249.5 97.162-317.29 57.115-38.29-22.604-55.92-71.181-53.88-148.461 2.01-76.145-14.66-122.3-51-141.087-62.02-32.069-171.08 20.279-286.54 75.697-119.953 57.577-243.988 117.124-321.499 83.308-44.222-19.299-69.175-66.727-76.327-145.076-4.959-54.268-22.111-92.808-52.437-117.82-27.223-22.427-64.627-33.444-114.364-33.7-92.66-.469-213.38 36.565-341.216 75.767-143.31 43.967-291.486 89.429-412.638 85.555-137.22-4.381-217.624-73.523-245.754-211.433l-1.675.688c28.271 138.534 109.065 208.024 246.968 212.409 121.433 3.865 269.77-41.627 413.212-85.633 127.671-39.174 248.267-76.166 340.662-75.701 103.609.537 156.202 48.25 165.518 150.403 7.182 78.789 32.39 126.613 77.04 146.089 78.143 34.096 202.585-25.63 322.91-83.395 115.05-55.216 223.7-107.382 285.05-75.645 35.89 18.549 52.35 64.341 50.35 139.947-2.05 77.801 15.77 126.72 54.45 149.576 68.43 40.401 190-6.94 318.71-57.065 184.03-71.667 374.34-145.768 412.97 43.496l1.71-.678z" fill="url(#paint30_linear_603_1626)" fill-opacity=".2"/><defs><linearGradient id="paint0_linear_603_1626" x1="247.806" y1="-168.185" x2="1752.29" y2="478.193" gradientUnits="userSpaceOnUse"><stop stop-color="#BE8143"/><stop offset=".556" stop-color="#8F664E"/><stop offset="1" stop-color="#BB7F44"/></linearGradient><linearGradient id="paint1_linear_603_1626" x1="229.528" y1="-157.822" x2="1761.27" y2="505.621" gradientUnits="userSpaceOnUse"><stop stop-color="#BE8143"/><stop offset=".556" stop-color="#8F664E"/><stop offset="1" stop-color="#BB7F44"/></linearGradient><linearGradient id="paint2_linear_603_1626" x1="211.055" y1="-147.836" x2="1770.5" y2="533.214" gradientUnits="userSpaceOnUse"><stop stop-color="#BE8143"/><stop offset=".556" stop-color="#8F664E"/><stop offset="1" stop-color="#BB7F44"/></linearGradient><linearGradient id="paint3_linear_603_1626" x1="193.038" y1="-140.468" x2="1780.92" y2="558.225" gradientUnits="userSpaceOnUse"><stop stop-color="#BE8143"/><stop offset=".556" stop-color="#8F664E"/><stop offset="1" stop-color="#BB7F44"/></linearGradient><linearGradient id="paint4_linear_603_1626" x1="174.769" y1="-133.523" x2="1791.54" y2="583.31" gradientUnits="userSpaceOnUse"><stop stop-color="#BE8143"/><stop offset=".556" stop-color="#8F664E"/><stop offset="1" stop-color="#BB7F44"/></linearGradient><linearGradient id="paint5_linear_603_1626" x1="156.208" y1="-126.959" x2="1802.32" y2="608.505" gradientUnits="userSpaceOnUse"><stop stop-color="#BE8143"/><stop offset=".556" stop-color="#8F664E"/><stop offset="1" stop-color="#BB7F44"/></linearGradient><linearGradient id="paint6_linear_603_1626" x1="137.7" y1="-121.312" x2="1814.8" y2="633.784" gradientUnits="userSpaceOnUse"><stop stop-color="#BE8143"/><stop offset=".556" stop-color="#8F664E"/><stop offset="1" stop-color="#BB7F44"/></linearGradient><linearGradient id="paint7_linear_603_1626" x1="119.029" y1="-116.444" x2="1828.27" y2="659.011" gradientUnits="userSpaceOnUse"><stop stop-color="#BE8143"/><stop offset=".556" stop-color="#8F664E"/><stop offset="1" stop-color="#BB7F44"/></linearGradient><linearGradient id="paint8_linear_603_1626" x1="100.128" y1="-111.947" x2="1842.05" y2="684.433" gradientUnits="userSpaceOnUse"><stop stop-color="#BE8143"/><stop offset=".556" stop-color="#8F664E"/><stop offset="1" stop-color="#BB7F44"/></linearGradient><linearGradient id="paint9_linear_603_1626" x1="80.855" y1="-107.856" x2="1855.85" y2="709.954" gradientUnits="userSpaceOnUse"><stop stop-color="#BE8143"/><stop offset=".556" stop-color="#8F664E"/><stop offset="1" stop-color="#BB7F44"/></linearGradient><linearGradient id="paint10_linear_603_1626" x1="61.3" y1="-104.171" x2="1869.98" y2="735.679" gradientUnits="userSpaceOnUse"><stop stop-color="#BE8143"/><stop offset=".556" stop-color="#8F664E"/><stop offset="1" stop-color="#BB7F44"/></linearGradient><linearGradient id="paint11_linear_603_1626" x1="41.515" y1="-100.875" x2="1884.45" y2="761.582" gradientUnits="userSpaceOnUse"><stop stop-color="#BE8143"/><stop offset=".556" stop-color="#8F664E"/><stop offset="1" stop-color="#BB7F44"/></linearGradient><linearGradient id="paint12_linear_603_1626" x1="21.403" y1="-97.944" x2="1899" y2="787.664" gradientUnits="userSpaceOnUse"><stop stop-color="#BE8143"/><stop offset=".556" stop-color="#8F664E"/><stop offset="1" stop-color="#BB7F44"/></linearGradient><linearGradient id="paint13_linear_603_1626" x1=".936" y1="-95.442" x2="1913.83" y2="813.967" gradientUnits="userSpaceOnUse"><stop stop-color="#BE8143"/><stop offset=".556" stop-color="#8F664E"/><stop offset="1" stop-color="#BB7F44"/></linearGradient><linearGradient id="paint14_linear_603_1626" x1="-19.79" y1="-93.294" x2="1928.98" y2="840.483" gradientUnits="userSpaceOnUse"><stop stop-color="#BE8143"/><stop offset=".556" stop-color="#8F664E"/><stop offset="1" stop-color="#BB7F44"/></linearGradient><linearGradient id="paint15_linear_603_1626" x1="-40.91" y1="-91.56" x2="1944.21" y2="867.191" gradientUnits="userSpaceOnUse"><stop stop-color="#BE8143"/><stop offset=".556" stop-color="#8F664E"/><stop offset="1" stop-color="#BB7F44"/></linearGradient><linearGradient id="paint16_linear_603_1626" x1="-62.337" y1="-90.187" x2="1959.71" y2="894.165" gradientUnits="userSpaceOnUse"><stop stop-color="#BE8143"/><stop offset=".556" stop-color="#8F664E"/><stop offset="1" stop-color="#BB7F44"/></linearGradient><linearGradient id="paint17_linear_603_1626" x1="-84.113" y1="-89.24" x2="1975.57" y2="921.413" gradientUnits="userSpaceOnUse"><stop stop-color="#BE8143"/><stop offset=".556" stop-color="#8F664E"/><stop offset="1" stop-color="#BB7F44"/></linearGradient><linearGradient id="paint18_linear_603_1626" x1="-106.222" y1="-88.627" x2="1991.55" y2="948.917" gradientUnits="userSpaceOnUse"><stop stop-color="#BE8143"/><stop offset=".556" stop-color="#8F664E"/><stop offset="1" stop-color="#BB7F44"/></linearGradient><linearGradient id="paint19_linear_603_1626" x1="-128.686" y1="-88.432" x2="2007.81" y2="976.626" gradientUnits="userSpaceOnUse"><stop stop-color="#BE8143"/><stop offset=".556" stop-color="#8F664E"/><stop offset="1" stop-color="#BB7F44"/></linearGradient><linearGradient id="paint20_linear_603_1626" x1="-151.577" y1="-88.6" x2="2024.23" y2="1004.64" gradientUnits="userSpaceOnUse"><stop stop-color="#BE8143"/><stop offset=".556" stop-color="#8F664E"/><stop offset="1" stop-color="#BB7F44"/></linearGradient><linearGradient id="paint21_linear_603_1626" x1="-174.833" y1="-89.155" x2="2040.97" y2="1033.02" gradientUnits="userSpaceOnUse"><stop stop-color="#BE8143"/><stop offset=".556" stop-color="#8F664E"/><stop offset="1" stop-color="#BB7F44"/></linearGradient><linearGradient id="paint22_linear_603_1626" x1="-198.498" y1="-90.113" x2="2057.96" y2="1061.69" gradientUnits="userSpaceOnUse"><stop stop-color="#BE8143"/><stop offset=".556" stop-color="#8F664E"/><stop offset="1" stop-color="#BB7F44"/></linearGradient><linearGradient id="paint23_linear_603_1626" x1="-222.48" y1="-91.439" x2="2075.14" y2="1090.55" gradientUnits="userSpaceOnUse"><stop stop-color="#BE8143"/><stop offset=".556" stop-color="#8F664E"/><stop offset="1" stop-color="#BB7F44"/></linearGradient><linearGradient id="paint24_linear_603_1626" x1="-246.965" y1="-93.124" x2="2092.56" y2="1119.88" gradientUnits="userSpaceOnUse"><stop stop-color="#BE8143"/><stop offset=".556" stop-color="#8F664E"/><stop offset="1" stop-color="#BB7F44"/></linearGradient><linearGradient id="paint25_linear_603_1626" x1="-271.825" y1="-95.244" x2="2110.29" y2="1149.45" gradientUnits="userSpaceOnUse"><stop stop-color="#BE8143"/><stop offset=".556" stop-color="#8F664E"/><stop offset="1" stop-color="#BB7F44"/></linearGradient><linearGradient id="paint26_linear_603_1626" x1="-297.087" y1="-97.714" x2="2128.29" y2="1179.41" gradientUnits="userSpaceOnUse"><stop stop-color="#BE8143"/><stop offset=".556" stop-color="#8F664E"/><stop offset="1" stop-color="#BB7F44"/></linearGradient><linearGradient id="paint27_linear_603_1626" x1="-322.776" y1="-100.582" x2="2146.58" y2="1209.66" gradientUnits="userSpaceOnUse"><stop stop-color="#BE8143"/><stop offset=".556" stop-color="#8F664E"/><stop offset="1" stop-color="#BB7F44"/></linearGradient><linearGradient id="paint28_linear_603_1626" x1="-348.98" y1="-103.864" x2="2165.06" y2="1240.45" gradientUnits="userSpaceOnUse"><stop stop-color="#BE8143"/><stop offset=".556" stop-color="#8F664E"/><stop offset="1" stop-color="#BB7F44"/></linearGradient><linearGradient id="paint29_linear_603_1626" x1="-375.588" y1="-107.534" x2="2183.94" y2="1271.39" gradientUnits="userSpaceOnUse"><stop stop-color="#BE8143"/><stop offset=".556" stop-color="#8F664E"/><stop offset="1" stop-color="#BB7F44"/></linearGradient><linearGradient id="paint30_linear_603_1626" x1="-402.773" y1="-111.788" x2="2203.22" y2="1302.56" gradientUnits="userSpaceOnUse"><stop stop-color="#BE8143"/><stop offset=".556" stop-color="#8F664E"/><stop offset="1" stop-color="#BB7F44"/></linearGradient></defs></svg>