<svg width="1920" height="1011" fill="none" xmlns="http://www.w3.org/2000/svg"><mask id="a" style="mask-type:alpha" maskUnits="userSpaceOnUse" x="0" y="0" width="1920" height="1011"><path fill="#D9D9D9" d="M0 0h1920v1011H0z"/></mask><g mask="url(#a)"><mask id="b" style="mask-type:alpha" maskUnits="userSpaceOnUse" x="-25" y="-248" width="2098" height="553"><path d="M1551.77-101.477c-9.31-17.908-19.04-28.036-29.25-30.579-35.87-8.939-71.98 77.671-106.9 161.425-32.67 78.312-66.42 159.295-97 150.363-25.37-7.409-46.96-75.172-65.98-207.142-17.94-124.315-37.43-187.482-59.57-193.09-28.22-7.147-56.36 77.264-86.16 166.642-31.24 93.715-63.55 190.611-96.89 182.873-24.871-5.776-47.825-68.968-70.162-193.225-20.305-112.935-44.557-172.358-74.104-181.668-42.476-13.399-89.892 77.256-140.083 173.216-55.528 106.174-112.953 215.943-169.558 199.314-42.201-12.398-78.96-93.928-112.368-249.252l-1.18.123c33.531 155.965 70.632 237.882 113.395 250.451 57.454 16.882 115.055-93.288 170.786-199.814 49.992-95.569 97.214-185.855 138.832-172.726 28.986 9.139 52.897 68.176 73.091 180.462 22.464 124.94 45.79 188.543 71.281 194.461 34.29 7.959 66.75-89.403 98.14-183.569 29.64-88.904 57.63-172.866 84.9-165.945 21.52 5.449 40.64 68.203 58.47 191.806 19.14 132.659 41.07 200.825 67.04 208.407 31.49 9.197 63.92-68.607 98.26-150.964 34.75-83.353 70.69-169.546 105.68-160.822 23.23 5.798 43.96 52.48 63.37 142.739l1.18-.123c-11.17-51.908-22.83-89.535-35.22-113.363z" fill="#8E726C"/><path d="M1564.29-87.653c-9.73-18.74-19.92-29.348-30.65-32.069-36.62-9.287-73.67 75.648-109.5 157.783-33.51 76.851-68.16 156.293-99.42 146.978-25.8-7.695-47.65-74.228-66.86-203.42-18.09-121.791-37.84-183.835-60.37-189.662-28.81-7.452-57.69 75.343-88.27 163.002-32.06 91.902-65.21 186.946-99.3 178.884-25.332-5.983-48.623-68.073-71.214-189.82-20.494-110.431-45.022-168.801-74.997-178.438-43.414-13.967-92.051 74.989-143.558 169.138-56.973 104.186-115.89 211.911-173.818 194.576-42.862-12.838-80.103-92.915-113.846-244.859l-1.179.122c33.886 152.556 71.468 233.02 114.882 246.012C604.931 148.16 664.056 40.06 721.232-64.478c51.299-93.773 99.728-182.354 142.298-168.664 29.405 9.45 53.606 67.427 73.984 177.23 22.718 122.43 46.372 184.916 72.316 191.042 35.01 8.28 68.33-87.221 100.53-179.566 30.42-87.186 59.14-169.547 87.01-162.346 21.89 5.659 41.29 67.276 59.29 188.372 19.3 129.871 41.51 196.824 67.9 204.692 32.18 9.596 65.45-66.739 100.71-147.547 35.65-81.733 72.51-166.26 108.26-157.195 23.63 5.993 44.67 51.87 64.31 140.269l1.18-.123c-11-49.505-22.51-85.823-34.73-109.339z" fill="#DC146A"/><path d="M1577.1-73.932c-10.17-19.59-20.83-30.712-32.11-33.612-37.42-9.654-75.41 73.641-112.15 154.2-34.39 75.4-69.93 153.36-101.92 143.619-26.22-7.98-48.37-73.33-67.73-199.773-18.25-119.301-38.27-180.236-61.19-186.282-29.42-7.766-59.05 73.455-90.44 159.43-32.89 90.122-66.91 183.33-101.75 174.938-25.781-6.191-49.417-67.192-72.259-186.487-20.672-107.966-45.498-165.29-75.888-175.261-44.359-14.552-94.281 72.712-147.107 165.107C656.081 44.168 595.638 149.881 536.37 131.806c-43.513-13.26-81.233-91.944-115.336-240.549l-1.185.146c34.238 149.2 72.299 228.272 116.351 241.693 60.072 18.31 120.74-87.746 179.409-190.335 52.618-92.02 102.337-178.932 145.875-164.647 29.834 9.777 54.327 66.73 74.884 174.07 22.961 119.96 46.96 181.358 73.362 187.692 35.76 8.587 69.93-85.049 102.98-175.606 31.2-85.509 60.68-166.296 89.17-158.788 22.28 5.878 41.95 66.385 60.12 185.007 19.45 127.1 41.95 192.852 68.76 201.03 32.87 10.019 67.02-64.888 103.19-144.181 36.57-80.165 74.36-163.067 110.94-153.626 24.04 6.205 45.36 51.28 65.22 137.822l1.19-.145c-10.86-47.18-22.18-82.168-34.2-105.321z" fill="#C6024A"/><path d="M1590.18-60.316c-10.63-20.473-21.78-32.118-33.62-35.231-38.25-10.047-77.2 71.652-114.89 150.653-36.91 77.382-71.76 150.475-104.47 140.308-26.64-8.274-49.06-72.444-68.6-196.185-18.43-116.84-38.73-176.696-62.03-182.97-30.05-8.073-60.46 71.587-92.65 155.913-33.74 88.395-68.65 179.795-104.27 171.069-26.248-6.415-50.237-66.342-73.325-183.204-20.858-105.514-45.962-161.821-76.767-172.126-45.337-15.165-96.554 70.453-150.763 161.103-60 100.307-122.039 204.041-182.683 185.222-44.16-13.707-82.366-91.011-116.819-236.319l-1.176.162C442.712 44 481.252 121.675 525.942 135.528c61.457 19.069 123.698-85.017 183.909-185.66 54.001-90.274 105.008-175.556 149.537-160.666 30.248 10.111 55.034 66.04 75.763 170.934 23.22 117.522 47.573 177.846 74.419 184.411 36.54 8.944 71.59-82.9 105.51-171.72 32.02-83.885 62.27-163.11 91.41-155.279 22.68 6.091 42.62 65.527 60.93 181.7 19.62 124.382 42.4 188.956 69.63 197.427 33.59 10.446 68.64-63.039 105.73-140.847 37.51-78.615 76.29-159.92 113.69-150.103 24.44 6.419 46.08 50.717 66.16 135.44l1.18-.163c-10.68-44.912-21.82-78.56-33.63-101.318z" fill="#A40C6E"/><path d="M1603.56-46.821c-11.09-21.39-22.77-33.586-35.19-36.905-39.08-10.44-79.04 69.689-117.69 147.16-37.88 75.932-73.66 147.676-107.11 137.05-27.06-8.584-49.78-71.607-69.47-192.647-18.62-114.439-39.18-173.221-62.86-179.721-30.69-8.414-61.89 69.728-94.92 152.44-34.62 86.702-70.42 176.332-106.85 167.263-26.719-6.656-51.056-65.531-74.406-179.99-21.033-103.104-46.429-158.384-77.635-169.032-46.345-15.803-98.891 68.203-154.53 157.15-61.573 98.435-125.255 200.229-187.314 180.625-44.793-14.161-83.486-90.084-118.293-232.17l-1.177.163C431.062 47.224 470.088 123.517 515.42 137.84c62.859 19.862 126.751-82.269 188.535-181.04 55.409-88.58 107.758-172.257 153.295-156.729 30.664 10.447 55.728 65.356 76.64 167.857 23.482 115.118 48.182 174.39 75.5 181.196 37.32 9.302 73.3-80.77 108.08-167.89 32.86-82.271 63.89-159.995 93.68-151.822 23.06 6.333 43.28 64.688 61.77 178.46 19.79 121.698 42.85 185.131 70.49 193.897 34.32 10.888 70.3-61.225 108.39-137.557 38.46-77.102 78.23-156.845 116.48-146.626 24.84 6.638 46.78 50.166 67.1 133.082l1.17-.163c-10.49-42.67-21.41-75-32.99-97.327z" fill="#B4024E"/><path d="M1617.24-33.402c-11.57-22.325-23.8-35.103-36.83-38.631-39.93-10.843-80.93 67.727-120.56 143.714-38.88 74.517-75.59 144.912-109.83 133.831-27.47-8.895-50.48-70.775-70.33-189.175-18.78-112.059-39.63-169.8-63.7-176.52-31.35-8.771-63.38 67.873-97.27 149.024-35.51 85.031-72.24 172.949-109.51 163.494-27.19-6.897-51.87-64.743-75.485-176.834-21.224-100.726-46.902-155.026-78.486-166.007-47.384-16.468-101.306 65.969-158.394 153.242-63.193 96.605-128.55 196.496-192.092 176.077C459.322 124.22 420.158 49.61 384.996-89.25l-1.167.18c35.301 139.433 74.803 214.39 120.754 229.176 64.318 20.668 129.887-79.56 193.285-176.477 56.896-86.968 110.608-169.068 157.184-152.875 31.05 10.796 56.409 64.717 77.499 164.846 23.747 112.752 48.804 170.988 76.579 178.026 38.13 9.661 75.02-78.675 110.72-164.115 33.72-80.71 65.57-156.944 96.02-148.422 23.46 6.57 43.96 63.907 62.63 175.274 19.97 119.044 43.29 181.326 71.34 190.426 35.09 11.358 72.01-59.397 111.08-134.323 39.46-75.625 80.25-153.843 119.36-143.204 25.24 6.851 47.48 49.631 68.03 130.778l1.17-.18c-10.2-40.413-20.91-71.413-32.24-93.262z" fill="#D2101C"/><path d="M1631.28-20.413c-12.08-23.295-24.85-36.648-38.53-40.408-40.81-11.265-82.86 65.738-123.53 140.207-39.9 73.078-77.59 142.101-112.61 130.542-27.88-9.207-51.17-69.941-71.19-185.65-18.95-109.613-40.07-166.295-64.54-173.27-32.02-9.133-64.89 65.997-99.68 145.56-36.44 83.335-74.12 169.509-112.23 159.69-27.646-7.141-52.687-63.925-76.571-173.625-21.391-98.306-47.334-151.594-79.32-162.91-48.431-17.139-103.781 63.69-162.383 149.254-64.882 94.693-131.973 192.654-197.017 171.399-46.051-15.045-85.696-88.282-121.201-223.88l-1.159.196c35.659 136.164 75.628 209.755 122.19 224.977 65.821 21.504 133.123-76.794 198.229-171.83 58.369-85.237 113.513-165.753 161.16-148.88C884.35-167.91 909.974-115 931.239-17.275c24.007 110.345 49.412 167.526 77.651 174.824 38.96 10.048 76.83-76.534 113.45-160.272 34.6-79.113 67.28-153.858 98.43-144.965 23.87 6.802 44.63 63.087 63.48 172.026 20.12 116.359 43.74 177.488 72.19 186.883 35.87 11.853 73.76-57.539 113.87-131.018 40.48-74.123 82.33-150.773 122.33-139.719 25.65 7.083 48.21 49.094 68.97 128.42l1.17-.179c-10.01-38.22-20.46-67.834-31.5-89.138z" fill="#B24E9A"/><path d="M1645.63-7.763c-12.58-24.256-25.93-38.221-40.27-42.229-41.72-11.693-84.85 63.747-126.57 136.703-40.96 71.654-79.66 139.329-115.51 127.259-28.29-9.532-51.85-69.106-72.03-182.124-19.13-107.19-40.51-162.8-65.37-170.029-32.74-9.517-66.46 64.122-102.17 142.082-37.4 81.65-76.08 166.088-115.04 155.877-28.121-7.376-53.526-63.12-77.657-170.423-21.57-95.886-47.777-148.144-80.129-159.79-49.525-17.822-106.348 61.393-166.493 145.273-66.616 92.874-135.508 188.922-202.098 166.821-46.672-15.493-86.783-87.34-122.639-219.687l-1.173.203C394.482 55.07 434.925 127.288 482.1 142.94c67.345 22.341 136.451-74.004 203.295-167.18 59.926-83.562 116.534-162.481 165.275-144.923 31.832 11.453 57.728 63.35 79.173 158.655 24.282 107.933 50.041 164.057 78.737 171.597 39.82 10.442 78.69-74.388 116.26-156.434 35.51-77.528 69.05-150.764 100.91-141.527 24.26 7.055 45.29 62.262 64.32 168.8 20.29 113.646 44.18 173.615 73.03 183.342 36.68 12.353 75.58-55.674 116.76-127.711 41.52-72.627 84.46-147.698 125.39-136.223 26.03 7.297 48.89 48.538 69.9 126.085l1.17-.203c-9.77-36.02-19.95-64.261-30.69-84.981z" fill="#DE52C2"/><path d="M1660.33 4.818c-13.1-25.265-27.05-39.836-42.07-44.117-42.65-12.153-86.92 61.779-129.71 133.255-42.06 70.253-81.78 136.612-118.47 124.017-28.7-9.865-52.54-68.291-72.88-178.67-19.3-104.793-40.96-159.368-66.2-166.841-33.44-9.9-68.07 62.261-104.7 138.663-38.38 80.015-78.07 162.751-117.91 152.12-28.611-7.626-54.365-62.338-78.774-167.276-21.746-93.493-48.219-144.764-80.923-156.746-50.637-18.539-108.97 59.127-170.736 141.345C609.556 71.632 538.829 165.77 470.633 142.81c-47.285-15.924-87.859-86.447-124.048-215.58l-1.165.22c36.348 129.675 77.246 200.552 125.02 216.643 68.946 23.222 139.892-71.236 208.515-162.578 61.524-81.909 119.652-159.262 169.523-141.018 32.198 11.782 58.361 62.691 79.976 155.628C953 101.699 979.11 156.79 1008.28 164.565c40.7 10.861 80.59-72.267 119.14-152.66 36.44-75.994 70.87-147.763 103.47-138.116 24.65 7.292 45.96 61.48 65.16 165.622 20.44 110.99 44.6 169.818 73.87 179.87 37.51 12.863 77.44-53.832 119.73-124.452 42.61-71.154 86.66-144.727 128.52-132.815 26.44 7.527 49.61 48.01 70.84 123.77l1.16-.219c-9.54-33.83-19.43-60.676-29.84-80.747z" fill="#E6960C"/><path d="M1675.35 17.331c-13.65-26.308-28.22-41.533-43.95-46.072-43.6-12.6-89.02 59.81-132.93 129.855-43.18 68.885-83.98 133.96-121.52 120.829-29.11-10.173-53.22-67.508-73.72-175.27-19.49-102.44-41.41-156.006-67.05-163.732-34.18-10.31-69.71 60.41-107.31 135.285-39.39 78.398-80.1 159.465-120.87 148.414-29.072-7.884-55.194-61.601-79.871-164.224-21.911-91.152-48.637-141.444-81.713-153.732-51.784-19.258-111.664 56.86-175.083 137.457-70.24 89.284-142.868 181.591-212.718 157.715-47.883-16.362-88.921-85.564-125.455-211.545l-1.156.235C368.697 59.07 410.05 128.61 458.422 145.138c70.569 24.113 143.433-68.48 213.882-158.037 63.177-80.288 122.848-156.132 173.883-137.137 32.564 12.112 58.981 62.043 80.76 152.638 24.82 103.236 51.297 157.332 80.923 165.371 41.6 11.272 82.52-70.171 122.08-148.947 37.41-74.482 72.74-144.817 106.07-134.777 25.05 7.546 46.65 60.716 66.01 162.513 20.62 108.366 45.06 166.095 74.7 176.454 38.36 13.422 79.37-51.99 122.77-121.234 43.71-69.716 88.91-141.807 131.74-129.416 26.84 7.757 50.29 47.498 71.77 121.508l1.15-.235c-9.15-31.65-18.74-57.1-28.81-76.508z" fill="#EA0A24"/><path d="M1690.71 29.77c-14.21-27.383-29.42-43.256-45.9-48.096-44.59-13.072-91.18 57.873-136.22 126.496-44.36 67.548-86.24 131.365-124.67 117.673-29.49-10.513-53.89-66.752-74.55-171.94-19.67-100.132-41.87-152.69-67.89-160.676-34.94-10.728-71.4 58.59-109.98 131.964-40.4 76.83-82.19 156.277-123.9 144.795-29.545-8.142-56.034-60.864-80.983-161.216-22.085-88.831-49.073-138.163-82.487-150.794C791.173-162.05 729.687-87.427 664.573-8.426 592.444 79.087 517.86 169.594 446.32 144.799c-48.468-16.807-89.956-84.698-126.839-207.571l-1.156.235c37.033 123.4 78.837 191.627 127.779 208.608 72.245 25.039 147.061-65.73 219.412-153.523C730.38-86.16 791.657-160.51 843.879-140.754c32.916 12.448 59.594 61.419 81.534 149.7 25.097 100.942 51.919 154.034 82.027 162.324 42.54 11.726 84.51-68.107 125.12-145.288 38.39-73.005 74.65-141.956 108.75-131.48 25.43 7.822 47.31 59.985 66.85 159.473 20.79 105.793 45.5 162.409 75.53 173.107 39.22 13.974 81.32-50.163 125.91-118.053 44.84-68.311 91.22-138.944 135.04-126.088 27.22 7.977 50.99 47.004 72.69 119.296l1.15-.251c-8.84-29.5-18.07-53.538-27.77-72.216z" fill="#D40AB4"/><path d="M1706.44 42.118c-14.79-28.492-30.65-45.045-47.92-50.189-45.6-13.57-93.39 55.95-139.62 123.198-45.54 66.26-88.56 128.825-127.9 114.563-29.9-10.845-54.55-66.02-75.36-168.67-19.86-97.843-42.33-149.416-68.74-157.68-35.72-11.18-73.12 56.77-112.74 128.714-41.47 75.292-84.33 153.161-127.02 141.206-30.038-8.409-56.876-60.169-82.105-158.27-22.262-86.552-49.476-134.923-83.22-147.881-54.166-20.796-117.3 52.355-184.164 129.79-74.078 85.797-150.674 174.535-223.935 148.795-49.044-17.236-90.985-83.856-128.193-203.681l-1.147.252C341.761 62.6 383.996 129.55 433.515 146.958c73.965 25.983 150.801-63 225.088-149.07 66.605-77.158 129.53-150.037 182.975-129.518 33.26 12.768 60.172 60.794 82.298 146.815 25.377 98.69 52.569 150.829 83.134 159.384 43.49 12.172 86.58-66.04 128.22-141.693 39.4-71.56 76.62-139.15 111.51-128.23 25.84 8.076 47.99 59.272 67.72 156.496 20.95 103.246 45.92 158.798 76.34 169.835 40.12 14.551 83.35-48.334 129.13-114.92 46.02-66.935 93.59-136.136 138.46-122.796 27.6 8.214 51.69 46.527 73.62 117.121l1.15-.251c-8.55-27.496-17.43-50.114-26.72-68.014z" fill="#E48E4A"/><path d="M1722.52 54.423c-15.39-29.633-31.93-46.892-50-52.339-46.62-14.06-95.67 54.042-143.08 119.925-46.78 64.979-90.96 126.349-131.23 111.467-30.28-11.191-55.19-65.304-76.19-165.463-20.04-95.605-42.8-146.207-69.57-154.737-36.52-11.626-74.92 54.964-115.57 125.48-42.54 73.781-86.54 150.087-130.21 137.677-30.488-8.675-57.719-59.493-83.209-155.378-22.421-84.31-49.878-131.754-83.943-145.023-55.406-21.592-120.23 50.113-188.884 126.007C574.56 86.168 495.889 173.152 420.84 146.44c-49.611-17.649-91.987-83.034-129.537-199.848l-1.167.282C327.864 64.2 370.547 129.905 420.611 147.718 496.35 174.681 575.252 87.434 651.552 3.066c68.401-75.64 133.016-147.073 187.715-125.764 33.589 13.095 60.736 60.179 83.021 143.956 25.652 96.466 53.207 147.638 84.232 156.474 44.48 12.645 88.66-64.006 131.41-138.14 40.44-70.14 78.64-136.4 114.33-125.02 26.23 8.353 48.65 58.585 68.56 153.571 21.12 100.745 46.35 155.235 77.14 166.602 41.05 15.171 85.44-46.519 132.46-111.824 47.21-65.595 96.03-133.394 141.93-119.547 27.99 8.45 52.38 46.066 74.54 115.005l1.14-.268c-8.16-25.423-16.65-46.614-25.51-63.688z" fill="#EC3068"/><path d="M1738.97 66.682c-16-30.807-33.26-48.798-52.16-54.583-47.71-14.587-98.01 52.164-146.67 116.689-48.03 63.732-93.41 123.914-134.65 108.426-30.64-11.521-55.83-64.607-76.98-162.299-20.23-93.372-43.26-143.051-70.41-151.865-37.35-12.113-76.75 53.182-118.49 122.301-43.66 72.318-88.79 147.105-133.49 134.186-30.969-8.949-58.552-58.849-84.335-152.547-22.583-82.11-50.275-128.614-84.633-142.207-56.668-22.398-123.245 47.875-193.751 122.282-78.147 82.482-158.948 167.745-235.829 140.041-50.151-18.076-92.976-82.22-130.866-196.092l-1.145.292c38.06 114.366 81.17 178.822 131.773 197.061 77.55 27.946 158.595-57.586 236.963-140.284 70.252-74.154 136.626-144.178 192.586-122.064 33.888 13.397 61.287 59.573 83.734 141.15 25.931 94.286 53.852 144.533 85.343 153.627 45.49 13.144 90.83-61.978 134.69-134.624 41.51-68.777 80.72-133.727 117.25-121.882 26.62 8.63 49.31 57.922 69.4 150.698 21.28 98.271 46.77 151.725 77.92 163.439 42 15.79 87.61-44.695 135.88-108.737 48.44-64.269 98.54-130.708 145.53-116.357 28.37 8.67 53.05 45.605 75.45 112.909l1.15-.291c-7.77-23.313-15.84-43.069-24.26-59.269z" fill="#DE5E7E"/><path d="M1755.8 78.87c-16.63-32.015-34.61-50.754-54.39-56.88-48.81-15.106-100.42 50.284-150.34 113.523-49.34 62.514-95.96 121.547-138.18 105.398-31-11.852-56.43-63.934-77.77-159.203-20.42-91.197-43.71-139.946-71.24-149.044-38.18-12.6-78.63 51.407-121.46 119.178-44.8 70.887-91.12 144.183-136.86 130.757-31.443-9.223-59.377-58.206-85.443-149.767-22.754-79.928-50.657-125.547-85.305-139.425-57.961-23.229-126.337 45.658-198.744 118.584-80.27 80.843-163.267 164.461-242.047 135.737-50.696-18.48-93.928-81.406-132.163-192.378l-1.136.308c38.409 111.443 81.935 174.697 133.07 193.348 79.426 28.956 162.665-54.868 243.162-135.95 72.166-72.68 140.317-141.329 197.593-118.373 34.187 13.698 61.801 58.965 84.408 138.407 26.22 92.126 54.5 141.472 86.455 150.848 46.53 13.651 93.06-59.98 138.06-131.18 42.61-67.428 82.85-131.1 120.25-118.764 26.99 8.913 49.96 57.284 70.24 147.885 21.46 95.832 47.2 148.275 78.71 160.326 42.98 16.429 89.82-42.884 139.4-105.708 49.71-62.967 101.12-128.084 149.2-113.19 28.74 8.89 53.72 45.17 76.35 110.846l1.14-.308c-7.39-21.403-15.02-39.698-22.96-54.975z" fill="#DE3670"/><path d="M1773.01 91.027c-17.28-33.255-36.02-52.768-56.71-59.26-49.92-15.635-102.88 48.41-154.1 110.37-50.7 61.32-98.58 119.221-141.83 102.414-31.35-12.189-57.04-63.278-78.53-156.15-20.6-89.05-44.16-136.886-72.05-146.252-39.05-13.112-80.58 49.646-124.53 116.085-45.97 69.474-93.51 141.321-140.33 127.368-31.9-9.489-60.212-57.606-86.556-147.057-22.915-77.797-51.033-122.508-85.965-136.696C773.11-122.23 702.87-54.714 628.507 16.763c-82.453 79.258-167.72 161.19-248.423 131.436-51.218-18.874-94.861-80.624-133.435-188.725l-1.127.324c38.743 108.596 82.675 170.634 134.333 189.679 81.348 29.986 166.841-52.185 249.524-131.643 74.123-71.231 144.128-138.525 202.756-114.726 34.485 14 62.31 58.383 85.069 135.679 26.511 90.008 55.152 138.456 87.546 148.104 47.59 14.168 95.35-57.997 141.52-127.783C1190-6.989 1231.31-69.428 1269.57-56.58c27.36 9.18 50.61 56.655 71.07 145.133 21.62 93.428 47.62 144.878 79.46 157.257 43.97 17.1 92.1-41.087 143.03-102.694 51.01-61.688 103.75-125.477 152.98-110.07 29.11 9.12 54.39 44.737 77.26 108.83l1.13-.324c-6.91-19.403-14.07-36.236-21.49-50.525z" fill="#B426CA"/><path d="M1790.61 103.153c-17.94-34.529-37.46-54.865-59.08-61.71-51.07-16.189-105.41 46.574-157.98 107.255-52.07 60.141-101.27 116.956-145.56 99.458-31.68-12.517-57.63-62.614-79.28-153.149-20.79-86.944-44.62-133.885-72.88-143.542-39.94-13.65-82.56 47.884-127.69 113.022-47.17 68.099-95.96 138.512-143.9 124.03-32.357-9.77-61.038-57.007-87.662-144.39-23.07-75.69-51.399-119.52-86.586-133.99-60.659-24.94-132.803 41.228-209.185 111.27-84.701 77.687-172.291 158.003-254.974 127.208-51.719-19.259-95.786-79.828-134.692-185.147l-1.118.34c39.08 105.79 83.423 166.654 135.572 186.068 83.329 31.027 171.14-49.505 256.07-127.392C697.799-47.327 769.7-113.288 829.71-88.62c34.739 14.283 62.774 57.784 85.697 132.99 26.806 87.934 55.803 135.508 88.663 145.437 48.69 14.705 97.68-56.02 145.06-124.414C1194.04.58 1236.44-60.643 1275.6-47.257c27.72 9.473 51.25 56.052 71.9 142.425 21.79 91.083 48.02 141.532 80.19 154.239 45.02 17.79 94.45-39.287 146.76-99.715 52.34-60.442 106.46-122.949 156.86-106.977 29.48 9.347 55.05 44.294 78.16 106.861l1.12-.341c-6.43-17.488-13.09-32.828-19.98-46.081z" fill="#F01E02"/><path d="M1808.65 115.239c-18.65-35.867-38.96-56.996-61.57-64.251-52.26-16.747-108.02 44.74-161.94 104.19-53.51 58.992-104.06 114.719-149.43 96.506-32.01-12.846-58.18-61.989-80.01-150.198-20.99-84.858-45.08-130.935-73.69-140.866-40.86-14.2-84.63 46.125-130.94 110.003-48.41 66.747-98.48 135.766-147.55 120.722-32.821-10.053-61.866-56.432-88.78-141.766-23.229-73.627-51.741-116.588-87.172-131.326-62.042-25.809-136.154 39.024-214.612 107.66-87.011 76.13-176.988 154.844-261.732 122.986-52.21-19.629-96.683-79.048-135.916-181.612l-1.11.357c39.407 103.035 84.147 162.732 136.788 182.516 85.354 32.087 175.56-46.826 262.8-123.156 78.201-68.422 152.07-133.049 213.485-107.502 35.007 14.56 63.225 57.193 86.316 130.352 27.095 85.884 56.447 132.585 89.773 142.796 49.82 15.266 100.1-54.047 148.71-121.083 46.09-63.559 89.63-123.581 129.74-109.644 28.1 9.756 51.88 55.472 72.73 139.758 21.95 88.748 48.42 138.235 80.91 151.278 46.07 18.497 96.85-37.493 150.6-96.755 53.71-59.218 109.26-120.45 160.86-103.927 29.84 9.575 55.69 43.892 79.04 104.917l1.11-.356c-5.97-15.579-12.1-29.446-18.41-41.599z" fill="#C636A8"/><path d="M1827.05 127.306c-19.35-37.223-40.49-59.194-64.12-66.863-53.46-17.313-110.68 42.914-166.02 101.146-54.98 57.867-106.91 112.522-153.38 93.59-32.33-13.181-58.74-61.35-80.72-147.289-21.17-82.788-45.54-128.012-74.49-138.226-41.79-14.757-86.71 44.383-134.27 107.015-49.68 65.435-101.06 133.075-151.31 117.473-33.274-10.341-62.669-55.872-89.885-139.216C889.463-16.67 860.769-58.765 825.114-73.76 761.632-100.45 685.51-36.93 604.928 30.307c-89.4 74.594-181.826 151.721-268.655 118.79-52.693-19.982-97.558-78.26-137.115-178.136l-1.102.373c39.746 100.34 84.878 158.897 137.98 179.024 87.438 33.16 180.107-44.173 269.722-118.96C686.111-35.639 761.981-98.97 824.837-72.542c35.244 14.81 63.653 56.594 86.892 127.739 27.38 83.861 57.105 129.723 90.851 140.214 50.98 15.838 102.58-52.105 152.48-117.812 47.33-62.313 92.03-121.174 133.08-106.68 28.43 10.04 52.49 54.903 73.53 137.135 22.11 86.455 48.8 134.975 81.61 148.346 47.17 19.222 99.34-35.68 154.57-93.816 55.11-58.016 112.11-118.004 164.94-100.907 30.18 9.77 56.33 43.46 79.92 103.01l1.1-.373c-5.45-13.648-11.04-26.006-16.76-37.008z" fill="#BA0A2C"/><path d="M1845.91 139.334c-20.07-38.611-42.08-61.467-66.77-69.552-54.7-17.882-113.42 41.108-170.2 98.138-56.51 56.763-109.86 110.376-157.47 90.693-32.63-13.501-59.26-60.742-81.38-144.421-21.37-80.77-45.99-125.133-75.28-135.652-42.77-15.34-88.89 42.66-137.71 104.062-50.99 64.122-103.71 130.446-155.18 114.238-33.724-10.607-63.473-55.331-90.978-136.693-23.534-69.618-52.406-110.87-88.289-126.101C757.707-93.536 679.526-31.32 596.736 34.562c-91.843 73.088-186.811 148.654-275.773 114.656-53.167-20.319-98.396-77.473-138.291-174.718l-1.107.396c40.066 97.677 85.585 155.118 139.147 175.589 89.558 34.235 184.763-41.514 276.83-114.778C680.08-29.985 758.046-92.008 822.365-64.69c35.466 15.069 64.068 56.003 87.436 125.166 27.668 81.88 57.752 126.911 91.939 137.675 52.18 16.428 105.13-50.175 156.33-114.569 48.59-61.099 94.49-118.82 136.52-103.75 28.8 10.33 53.11 54.356 74.33 134.577 22.28 84.204 49.19 131.797 82.29 145.477 48.29 19.958 101.89-33.885 158.63-90.894 56.58-56.822 115.07-115.589 169.14-97.906 30.55 9.982 56.96 43.074 80.79 101.126l1.1-.396c-4.88-11.859-9.86-22.678-14.96-32.483z" fill="#C030B2"/><path d="M1865.21 151.371c-20.82-40.05-43.7-63.808-69.5-72.32-55.99-18.47-116.24 39.298-174.53 95.156-58.06 55.667-112.92 108.251-161.68 87.813-32.94-13.803-59.77-60.126-82.07-141.597-21.56-78.777-46.41-122.31-76.04-133.089-43.77-15.933-91.12 40.928-141.24 101.138-52.34 62.849-106.47 127.848-159.16 111.063-34.168-10.879-64.285-54.791-92.067-134.221C885.242-2.358 856.192-42.77 820.118-58.233 753.686-86.715 673.354-25.777 588.321 38.75c-94.35 71.597-191.909 145.61-283.085 110.521-53.62-20.648-99.236-76.687-139.443-171.36l-1.099.413C205.087 73.42 250.97 129.739 304.998 150.53c91.75 35.315 189.546-38.881 284.12-110.653C673.913-24.465 753.999-85.237 819.84-57.014 855.512-41.72 884.278-1.62 907.801 65.614c27.974 79.934 58.389 124.15 93.019 135.186 53.39 17.012 107.74-48.243 160.29-111.347 49.88-59.924 97.01-116.523 140.06-100.85 29.14 10.613 53.7 53.803 75.1 132.039 22.42 81.985 49.57 128.646 82.94 142.643 49.44 20.719 104.53-32.088 162.85-88.007 58.05-55.659 118.08-113.212 173.44-94.94 30.88 10.184 57.59 42.666 81.64 99.292l1.1-.413c-4.24-10.033-8.58-19.305-13.03-27.846z" fill="#FA560E"/><path d="M1884.95 163.386c-21.6-41.538-45.38-66.2-72.34-75.164-57.29-19.052-119.13 37.508-178.92 92.219-59.69 54.598-116.06 106.169-166 84.96-33.2-14.104-60.26-59.503-82.71-138.813-21.73-76.817-46.86-119.548-76.8-130.6-44.79-16.551-93.42 39.21-144.89 98.234-53.72 61.597-109.28 125.309-163.26 107.889-34.587-11.159-65.057-54.266-93.139-131.775C883.068 4.587 853.86-35.016 817.602-50.695c-67.976-29.395-150.487 30.28-237.841 93.47C482.832 112.877 382.6 185.38 289.172 149.2 235.103 128.264 189.12 73.307 148.588-18.85l-1.09.428c40.714 92.542 86.987 147.787 141.427 168.866 93.993 36.39 194.467-36.256 291.605-106.526C667.647-19.09 749.925-78.606 817.297-49.463c35.869 15.504 64.802 54.811 88.466 120.122 28.274 78.014 59.042 121.424 94.092 132.724 54.665 17.631 110.425-46.33 164.365-108.183 51.24-58.762 99.62-114.253 143.71-97.967 29.46 10.885 54.28 53.272 75.88 129.557 22.58 79.802 49.92 125.535 83.57 139.827 50.61 21.506 107.23-30.288 167.16-85.116 59.59-54.502 121.2-110.862 177.87-92.017 31.23 10.38 58.21 42.267 82.51 97.478l1.09-.429a391.872 391.872 0 00-11.06-23.147z" fill="#A8628A"/><path d="M1905.18 175.422c-22.4-43.059-47.12-68.691-75.28-78.121-58.64-19.651-122.09 35.731-183.45 89.291-61.36 53.552-119.3 104.131-170.49 82.107-33.47-14.398-60.71-58.893-83.31-136.069-21.93-74.89-47.29-116.794-77.55-128.142-45.84-17.173-95.77 37.478-148.62 95.356-55.14 60.384-112.17 122.809-167.465 104.775-35.031-11.433-65.85-53.758-94.221-129.396-23.962-63.89-53.312-102.653-89.768-118.541C745.492-73.62 660.74-15.194 570.993 46.658 471.415 115.3 368.442 186.267 272.699 149.006c-54.495-21.215-100.849-75.13-141.714-164.791l-1.081.445c41.042 90.069 87.668 144.239 142.535 165.597 96.294 37.479 199.5-33.648 299.295-102.442 89.501-61.686 174.022-119.952 242.987-89.901 36.045 15.704 65.15 54.196 88.954 117.65 28.555 76.124 59.685 118.747 95.161 130.326 55.954 18.259 113.204-44.421 168.574-105.044 52.62-57.616 102.31-112.028 147.46-95.121 29.78 11.174 54.85 52.75 76.63 127.116 22.75 77.66 50.27 122.507 84.19 137.076 51.83 22.296 110-28.483 171.6-82.265 61.16-53.367 124.39-108.557 182.42-89.12 31.56 10.568 58.83 41.892 83.36 95.696l1.08-.445c-2.97-6.41-5.96-12.559-8.97-18.361z" fill="#E84E8C"/><path d="M1925.84 187.428c-23.21-44.631-48.92-71.234-78.31-81.155-60.02-20.238-125.12 33.973-188.09 86.413-63.05 52.506-122.62 102.106-175.04 79.283-33.72-14.667-61.17-58.286-83.92-133.376-22.11-72.989-47.71-114.105-78.28-125.71-46.92-17.828-98.2 35.767-152.48 92.52-56.6 59.178-115.13 120.347-171.762 101.689-35.463-11.69-66.63-53.235-95.28-127.049-24.096-62.058-53.614-100.028-90.213-116.092-71.129-31.21-158.209 25.97-250.391 86.505-102.298 67.181-208.081 136.648-306.189 98.31-54.904-21.462-101.634-74.313-142.82-161.59l-1.064.478C153.36 75.3 200.349 128.412 255.625 150.017c98.645 38.563 204.647-31.057 307.171-98.374 91.95-60.376 178.79-117.412 249.35-86.453 36.21 15.888 65.46 53.58 89.393 115.224 28.853 74.27 60.319 116.12 96.212 127.963 57.279 18.89 116.049-42.525 172.869-101.935 54.04-56.49 105.07-109.855 151.31-92.285 30.1 11.431 55.41 52.22 77.38 124.701 22.9 75.551 50.61 119.489 84.75 134.357 53.08 23.095 112.86-26.698 176.18-79.4 62.75-52.248 127.63-106.284 187.06-86.25 31.88 10.754 59.42 41.484 84.19 93.961l1.07-.461a364.229 364.229 0 00-6.72-13.637z" fill="#BE0806"/><path d="M1947 199.483c-24.07-46.268-50.77-73.878-81.48-84.271-61.42-20.827-128.23 32.236-192.85 83.546-64.82 51.479-126.05 100.092-179.77 76.458-33.95-14.943-61.57-57.685-84.47-130.707-22.31-71.106-48.14-111.443-78.99-123.32-48.03-18.484-100.67 34.063-156.43 89.681-58.1 57.986-118.21 117.943-176.22 98.619-35.881-11.953-67.391-52.744-96.343-124.744-24.234-60.268-53.883-97.445-90.631-113.66-72.75-32.105-162.195 23.828-256.889 83.066-105.095 65.74-213.761 133.705-314.292 94.278-55.327-21.703-102.4-73.529-143.915-158.44l-1.056.495c41.711 85.288 89.035 137.36 144.711 159.195 101.06 39.636 209.944-28.482 315.252-94.35C648.089-3.75 737.298-59.564 809.489-27.693c36.368 16.057 65.749 52.955 89.819 112.808 29.133 72.448 60.95 113.559 97.266 125.643 58.666 19.533 118.966-40.649 177.296-98.858 55.52-55.389 107.93-107.697 155.31-89.476 30.4 11.689 55.94 51.715 78.08 122.327 23.04 73.467 50.94 116.543 85.32 131.664 54.34 23.92 115.81-24.9 180.89-76.568 64.39-51.135 130.99-104.029 191.84-83.389 32.21 10.917 59.99 41.067 85.02 92.229l1.06-.494c-1.44-2.96-2.92-5.875-4.39-8.71z" fill="#F01AA4"/><path d="M1968.63 211.53c-24.93-47.939-52.67-76.573-84.73-87.504-62.87-21.418-131.43 30.501-197.73 80.696-66.63 50.466-129.58 98.112-184.61 73.649-34.17-15.185-61.98-57.084-85.01-128.068-22.48-69.278-48.55-108.847-79.69-120.97-49.17-19.152-103.24 32.36-160.51 86.897-59.66 56.808-121.34 115.553-180.772 95.583-36.29-12.201-68.138-52.259-97.387-122.471-24.374-58.517-54.148-94.925-91.038-111.276-74.43-33.012-166.308 21.71-263.573 79.641-107.951 64.287-219.576 130.769-322.572 90.274-55.733-21.91-103.167-72.745-144.979-155.328l-1.047.51c42.024 82.994 89.697 134.018 145.766 156.068 103.515 40.688 215.362-25.907 323.518-90.34 97.038-57.795 188.689-112.38 262.56-79.602 36.517 16.208 66.038 52.33 90.244 110.456 29.429 70.659 61.589 111.015 98.301 123.354 60.059 20.192 121.969-38.776 181.839-95.792 57.01-54.308 110.86-105.597 159.38-86.7 30.7 11.952 56.47 51.2 78.8 119.994 23.18 71.446 51.26 113.646 85.84 129.016 55.65 24.748 118.83-23.097 185.71-73.753 66.09-50.042 134.43-101.793 196.73-80.562 32.52 11.088 60.57 40.668 85.84 90.546l1.05-.511c-.61-1.283-1.27-2.545-1.93-3.807z" fill="#F8143E"/><path d="M1990.17 222.397c-25.67-48.952-54.3-78.277-87.5-89.622-64.34-21.996-134.68 28.779-202.7 77.897-68.51 49.451-133.22 96.167-189.6 70.857-34.38-15.428-62.34-56.465-85.53-125.463-22.65-67.468-48.94-106.266-80.35-118.644-50.35-19.838-105.89 30.653-164.7 84.109-61.23 55.661-124.55 113.208-185.45 92.574-36.69-12.433-68.898-51.77-98.427-120.265-24.505-56.814-54.396-92.438-91.426-108.924-76.125-33.914-170.5 19.61-270.413 76.254-110.876 62.871-225.533 127.867-331.058 86.314C146.885 125.382 99.109 75.572 56.955-4.808l-1.04.527c42.334 80.724 90.361 130.781 146.833 153 106.03 41.751 220.9-23.374 331.998-86.357 99.687-56.509 193.82-109.89 269.413-76.224C840.809 2.465 870.464 37.836 894.8 94.26c29.715 68.919 62.204 108.528 99.325 121.115 61.505 20.847 125.045-36.915 186.505-92.775 58.57-53.234 113.89-103.51 163.57-83.936 30.97 12.208 56.98 50.694 79.48 117.701 23.32 69.45 51.58 110.791 86.35 126.395 56.99 25.579 121.93-21.313 190.69-70.954 67.82-48.956 137.95-99.579 201.74-77.761 32.84 11.219 61.19 40.312 86.66 88.888l1.05-.535z" fill="#EC4050"/><path d="M2010.15 229.433c-25.92-47.709-54.8-76.487-88.31-87.987-65.85-22.576-138.02 27.075-207.84 75.095-70.44 48.463-136.96 94.231-194.74 68.079-34.56-15.646-62.7-55.846-86.02-122.896-22.83-65.696-49.34-103.763-81-116.364-51.53-20.523-108.59 28.958-169.01 81.345-62.86 54.518-127.87 110.894-190.238 89.595-37.091-12.664-69.623-51.277-99.455-118.064-24.615-55.142-54.642-90.013-91.781-106.61C723.895-43.167 626.97 9.123 524.345 64.492c-83.864 45.248-170.589 92.031-254.182 95.879C175.48 164.75 99.361 111.487 37.48-2.444l-1.021.56C69.326 58.619 106.859 102.773 148 129.353c36.944 23.863 76.983 34.451 122.385 32.355 83.83-3.864 170.658-50.72 254.618-96.017C627.388 10.465 724.104-41.72 801.442-7.16c36.773 16.431 66.541 51.04 91.019 105.817 30.008 67.194 62.83 106.095 100.343 118.898 62.986 21.504 128.206-35.064 191.286-89.774 60.16-52.173 116.99-101.456 167.9-81.179 31.25 12.44 57.45 50.202 80.14 115.438 23.46 67.494 51.87 107.989 86.82 123.811 58.36 26.419 125.13-19.516 195.82-68.145 69.58-47.884 141.55-97.39 206.86-74.999 33.16 11.367 61.77 39.914 87.5 87.261l1.02-.536z" fill="#CC8812"/><path d="M2030.51 236.408c-26.16-46.487-55.31-74.737-89.13-86.351-67.39-23.142-141.43 25.39-213.05 72.336-72.41 47.473-140.81 92.312-200 65.301-34.74-15.848-63.05-55.218-86.49-120.359-23.01-63.949-49.72-101.269-81.65-114.109-52.77-21.22-111.38 27.267-173.43 78.597-64.54 53.381-131.27 108.6-195.178 86.633-37.506-12.89-70.37-50.795-100.486-115.905-24.752-53.518-54.899-87.645-92.131-104.318-79.611-35.666-179.163 15.41-284.546 69.484-85.653 43.96-174.231 89.404-259.57 92.791-96.643 3.842-174.257-48.725-237.256-160.7l-1.014.577c63.295 112.508 141.318 165.323 238.493 161.461 85.562-3.397 174.227-48.907 259.987-92.9C620.219 14.984 719.55-35.978 798.665-.559 835.562 15.974 865.45 49.84 890.051 103c30.292 65.517 63.452 103.687 101.343 116.712 64.496 22.164 131.466-33.215 196.206-86.78 61.81-51.125 120.18-99.428 172.34-78.46 31.51 12.677 57.93 49.693 80.79 113.18 23.6 65.579 52.16 105.235 87.29 121.275 59.76 27.261 128.38-17.73 201.05-65.353 71.41-46.8 145.24-95.203 212.12-72.237 33.47 11.497 62.35 39.515 88.31 85.665l1.01-.593z" fill="#F6243A"/><path d="M2051.27 243.33c-26.4-45.307-55.81-73.034-89.92-84.747-68.96-23.71-144.94 23.731-218.41 69.607-74.44 46.495-144.76 90.403-205.39 62.547-34.91-16.033-63.35-54.588-86.92-117.86-23.19-62.225-50.11-98.837-82.27-111.89-54.03-21.927-114.24 25.57-177.98 75.872-66.25 52.281-134.76 106.332-200.243 83.693-37.898-13.104-71.09-50.325-101.484-113.782-24.892-51.935-55.131-85.33-92.47-102.075-81.43-36.503-183.66 13.363-291.891 66.169-87.494 42.678-177.957 86.82-265.05 89.73-98.654 3.308-177.793-48.588-241.928-158.64l-1.005.593C60.753 113.126 140.279 165.26 239.45 161.938c87.316-2.92 177.875-47.111 265.466-89.838C612.926 19.406 714.941-30.37 795.878 5.927c37.017 16.596 67.02 49.74 91.733 101.33 30.598 63.85 64.072 101.343 102.347 114.567 66.062 22.842 134.772-31.394 201.262-83.834 63.49-50.097 123.48-97.417 176.9-75.743 31.77 12.9 58.4 49.185 81.44 110.989 23.74 63.702 52.43 102.527 87.73 118.751 61.19 28.107 131.74-15.954 206.44-62.582 73.27-45.754 149.02-93.059 217.5-69.515 33.77 11.612 62.93 39.116 89.13 84.07l.91-.63z" fill="#CE1C36"/><path d="M2072.46 250.234c-90.32-149.666-204.34-81.866-314.63-16.313-76.54 45.512-148.84 88.493-210.94 59.79-35.06-16.201-63.65-53.958-87.36-115.401-23.36-60.541-50.46-96.42-82.87-109.68-55.32-22.635-117.16 23.886-182.63 73.142-68.02 51.169-138.35 104.09-205.444 80.777-38.282-13.303-71.793-49.824-102.499-111.693-21.273-42.855-46.236-72.672-76.332-91.145-27-16.562-57.65-23.609-93.719-21.546-67.185 3.849-142.455 38.75-222.162 75.694-89.354 41.426-181.737 84.265-270.649 86.71C122.524 163.341 41.824 112.113-23.468 3.911l-.988.626c65.598 108.688 146.693 160.172 247.89 157.376 89.112-2.464 181.601-45.336 271.038-86.803C574.073 38.198 649.261 3.339 716.259-.498c75.13-4.297 128.729 31.186 168.758 111.856 30.871 62.22 64.694 99.038 103.339 112.468 67.644 23.507 138.214-29.574 206.444-80.911 65.23-49.074 126.84-95.435 181.57-73.036 32 13.09 58.84 48.691 82.03 108.802 23.87 61.857 52.7 99.883 88.13 116.267 62.67 28.953 135.19-14.164 211.98-59.819 109.79-65.276 223.32-132.767 312.94 15.722l1.01-.617z" fill="#B072A8"/></mask><g mask="url(#b)"><path transform="scale(1 -1) rotate(-59.056 -76.862 75.442)" fill="url(#paint0_linear_106_581)" fill-opacity=".4" d="M0 0h1311.66v1709.75H0z"/></g></g><defs><linearGradient id="paint0_linear_106_581" x1="-31.511" y1="0" x2="1431.09" y2="46.775" gradientUnits="userSpaceOnUse"><stop stop-color="#BE8143"/><stop offset=".556" stop-color="#8F664E"/><stop offset="1" stop-color="#BB7F44"/></linearGradient></defs></svg>