<svg width="40" height="40" fill="none" xmlns="http://www.w3.org/2000/svg"><rect width="40" height="40" rx="6" fill="#D5A429"/><g clip-path="url(#clip0_106_1003)"><path d="M32.775 6c-.7 0-1.4.525-1.4 1.4v4.55C28.75 8.275 24.55 6 20 6 12.825 6 6.875 11.425 6 18.6c0 .7.525 1.4 1.225 1.4H7.4c.7 0 1.225-.525 1.225-1.225.7-5.775 5.6-10.15 11.375-10.15 3.85 0 7.525 2.1 9.625 5.25H24.9c-.7 0-1.4.525-1.4 1.4 0 .875.525 1.225 1.4 1.225h7.875c.7 0 1.225-.525 1.225-1.225V7.4c0-.875-.525-1.4-1.225-1.4zm0 14c-.7 0-1.4.525-1.4 1.225C30.85 27 25.95 31.375 20 31.375c-3.85 0-7.525-2.1-9.625-5.25H15.1c.7 0 1.4-.525 1.4-1.4 0-.875-.525-1.225-1.225-1.225H7.4c-.875 0-1.4.525-1.4 1.4v7.875c0 .7.525 1.225 1.4 1.225.875 0 1.4-.525 1.4-1.4v-4.55C11.25 31.725 15.45 34 20 34c7.175 0 13.125-5.425 14-12.6 0-.7-.525-1.4-1.225-1.4z" fill="#EDEDED"/></g><defs><clipPath id="clip0_106_1003"><path fill="#fff" transform="translate(6 6)" d="M0 0h28v28H0z"/></clipPath></defs></svg>