<svg width="50" height="50" fill="none" xmlns="http://www.w3.org/2000/svg"><rect width="50" height="50" rx="7.5" fill="#D5A429"/><path d="M24.635 20.367a1.254 1.254 0 00-1.77-.002l-4.115 4.118-1.615-1.618a1.25 1.25 0 00-1.768 1.768l2.5 2.5a1.253 1.253 0 001.768.002l5-5a1.25 1.25 0 000-1.768zm0 10a1.254 1.254 0 00-1.77-.002l-4.115 4.118-1.615-1.615a1.25 1.25 0 00-1.768 1.767l2.5 2.5a1.256 1.256 0 001.768 0l5-5a1.25 1.25 0 000-1.767zM33.75 22.5h-5a1.25 1.25 0 000 2.5h5a1.25 1.25 0 000-2.5zm0 10h-5a1.25 1.25 0 000 2.5h5a1.25 1.25 0 000-2.5z" fill="#EDEDED"/><path d="M37.5 10h-5V8.75c0-.69-.56-1.25-1.25-1.25h-2.712A3.76 3.76 0 0025 5a3.76 3.76 0 00-3.538 2.5H18.75c-.69 0-1.25.56-1.25 1.25V10h-5a2.504 2.504 0 00-2.5 2.5v30c0 1.377 1.123 2.5 2.5 2.5h25c1.377 0 2.5-1.123 2.5-2.5v-30c0-1.377-1.123-2.5-2.5-2.5zM20 10h2.5c.69 0 1.25-.56 1.25-1.25a1.25 1.25 0 012.5 0c0 .69.56 1.25 1.25 1.25H30v2.5H20V10zm17.5 32.5h-25v-30h5v1.25c0 .69.56 1.25 1.25 1.25h12.5c.69 0 1.25-.56 1.25-1.25V12.5h5v30z" fill="#EDEDED"/></svg>