<svg width="50" height="50" fill="none" xmlns="http://www.w3.org/2000/svg"><rect width="50" height="50" rx="7.5" fill="#D5A429"/><path d="M14.565 8.478a4.354 4.354 0 00-4.348 4.348 4.354 4.354 0 004.348 4.348 4.354 4.354 0 004.348-4.348 4.354 4.354 0 00-4.348-4.348zm0 6.957a2.612 2.612 0 01-2.608-2.609 2.612 2.612 0 012.608-2.609 2.612 2.612 0 012.609 2.61 2.612 2.612 0 01-2.609 2.608zm-5.217 5.217A4.354 4.354 0 005 25a4.354 4.354 0 004.348 4.348A4.354 4.354 0 0013.696 25a4.354 4.354 0 00-4.348-4.348zm0 6.957a2.612 2.612 0 01-2.609-2.61 2.612 2.612 0 012.609-2.608A2.612 2.612 0 0111.956 25a2.612 2.612 0 01-2.608 2.609zm5.217 5.217a4.354 4.354 0 00-4.348 4.348 4.354 4.354 0 004.348 4.348 4.354 4.354 0 004.348-4.348 4.354 4.354 0 00-4.348-4.348zm0 6.957a2.612 2.612 0 01-2.608-2.61 2.612 2.612 0 012.608-2.608 2.612 2.612 0 012.609 2.609 2.612 2.612 0 01-2.609 2.609zm20.87-6.957a4.354 4.354 0 00-4.348 4.348 4.354 4.354 0 004.348 4.348 4.354 4.354 0 004.347-4.348 4.354 4.354 0 00-4.347-4.348zm0 6.957a2.612 2.612 0 01-2.609-2.61 2.612 2.612 0 012.609-2.608 2.612 2.612 0 012.608 2.609 2.612 2.612 0 01-2.608 2.609zm5.217-19.13A4.354 4.354 0 0036.304 25a4.354 4.354 0 004.348 4.348A4.354 4.354 0 0045 25a4.354 4.354 0 00-4.348-4.348zm0 6.956a2.612 2.612 0 01-2.609-2.61 2.612 2.612 0 012.61-2.608A2.612 2.612 0 0143.26 25a2.612 2.612 0 01-2.609 2.609zm-5.217-19.13a4.354 4.354 0 00-4.348 4.347 4.354 4.354 0 004.348 4.348 4.354 4.354 0 004.348-4.348 4.354 4.354 0 00-4.348-4.348zm0 6.956a2.612 2.612 0 01-2.609-2.609 2.612 2.612 0 012.609-2.609 2.612 2.612 0 012.608 2.61 2.612 2.612 0 01-2.608 2.608z" fill="#EDEDED"/><path d="M19.527 16.56l-1.74-1.739a.87.87 0 00-1.229 1.23l1.74 1.739a.874.874 0 001.229 0 .87.87 0 000-1.23zm-3.223 7.57h-3.478a.87.87 0 000 1.74h3.478a.87.87 0 000-1.74zm3.223 8.082a.87.87 0 00-1.23 0l-1.739 1.74a.87.87 0 001.23 1.229l1.739-1.74a.87.87 0 000-1.229zm13.913 1.74l-1.74-1.74a.87.87 0 00-1.229 1.23l1.74 1.739a.874.874 0 001.229 0 .87.87 0 000-1.23zm3.734-9.821h-3.478a.87.87 0 000 1.739h3.478a.87.87 0 000-1.74zm-3.734-9.31a.87.87 0 00-1.23 0l-1.739 1.739a.87.87 0 001.23 1.23l1.739-1.74a.87.87 0 000-1.23zm-8.26 9.329l-.19-.037c-1.77-.327-2.597-.873-2.597-1.722 0-.942 1.195-1.739 2.61-1.739 1.362 0 2.532.74 2.61 1.645a.87.87 0 101.732-.146c-.157-1.847-2.023-3.238-4.343-3.238-2.399 0-4.35 1.56-4.35 3.478 0 1.786 1.351 2.941 4.174 3.461l.188.035c1.768.327 2.593.873 2.593 1.722 0 .942-1.195 1.739-2.61 1.739-1.362 0-2.533-.738-2.61-1.645a.87.87 0 00-1.732.146c.155 1.845 2.023 3.238 4.343 3.238 2.398 0 4.35-1.56 4.351-3.477 0-1.787-1.35-2.94-4.168-3.46z" fill="#EDEDED"/><path d="M25 17.174a.87.87 0 00-.87.87v13.912a.87.87 0 001.74 0V18.043a.87.87 0 00-.87-.87z" fill="#EDEDED"/></svg>