<svg width="50" height="50" fill="none" xmlns="http://www.w3.org/2000/svg"><rect width="50" height="50" rx="7.5" fill="#D5A429"/><g clip-path="url(#clip0_614_3900)" fill="#EDEDED"><path d="M25 30.194c.698 0 1.266.568 1.266 1.266h2.343a3.613 3.613 0 00-2.438-3.412v-1.384H23.83v1.384a3.614 3.614 0 00-2.437 3.412A3.613 3.613 0 0025 35.07c.698 0 1.266.568 1.266 1.266 0 .698-.568 1.266-1.266 1.266a1.267 1.267 0 01-1.266-1.266h-2.342c0 1.58 1.02 2.925 2.437 3.412v1.395h2.342v-1.395a3.614 3.614 0 002.438-3.412A3.613 3.613 0 0025 32.726a1.268 1.268 0 01-1.266-1.266c0-.698.568-1.266 1.266-1.266z"/><path d="M44.989 28.022h-4.705V4.5h-9.399v4.704H23.83v4.705h-7.057v4.704H9.716v9.409H5.01v2.342h9.993a10.553 10.553 0 00-.607 3.534C14.397 39.743 19.154 44.5 25 44.5s10.602-4.756 10.602-10.602c0-1.239-.214-2.428-.606-3.534h9.993v-2.342zM26.17 11.547h4.714v13.536a10.537 10.537 0 00-4.714-1.723V11.547zm-7.056 4.704h4.714v7.109c-1.73.191-3.336.8-4.714 1.723V16.25zm-7.057 11.77v-7.065h4.714v6.262c-.21.259-.408.527-.593.804h-4.121zM25 42.159c-4.555 0-8.26-3.706-8.26-8.26 0-4.555 3.705-8.26 8.26-8.26s8.26 3.705 8.26 8.26c0 4.554-3.705 8.26-8.26 8.26zm12.942-14.136h-4.12a10.624 10.624 0 00-.594-.804V6.842h4.714v21.18z"/></g><defs><clipPath id="clip0_614_3900"><path fill="#fff" transform="translate(5 4.5)" d="M0 0h40v40H0z"/></clipPath></defs></svg>