<svg width="50" height="50" fill="none" xmlns="http://www.w3.org/2000/svg"><rect width="50" height="50" rx="7.5" fill="#D5A429"/><g clip-path="url(#clip0_612_7172)" fill="#EDEDED"><path d="M39.167 5.333H10.833A5.84 5.84 0 005 11.167v26.666a5.84 5.84 0 005.833 5.834h28.334A5.84 5.84 0 0045 37.833V11.167a5.84 5.84 0 00-5.833-5.834zm4.166 32.5A4.171 4.171 0 0139.167 42H10.833a4.171 4.171 0 01-4.166-4.167V11.167A4.171 4.171 0 0110.833 7h28.334a4.171 4.171 0 014.166 4.167v26.666z"/><path d="M13.333 11.167A3.337 3.337 0 0010 14.5a3.337 3.337 0 003.333 3.333 3.337 3.337 0 003.334-3.333 3.337 3.337 0 00-3.334-3.333zm0 5c-.92 0-1.666-.749-1.666-1.667s.746-1.667 1.666-1.667c.92 0 1.667.749 1.667 1.667s-.747 1.667-1.667 1.667zm8.334-5a3.337 3.337 0 00-3.334 3.333 3.337 3.337 0 003.334 3.333A3.337 3.337 0 0025 14.5a3.337 3.337 0 00-3.333-3.333zm0 5c-.92 0-1.667-.749-1.667-1.667s.747-1.667 1.667-1.667 1.666.749 1.666 1.667-.746 1.667-1.666 1.667zm15-5a3.337 3.337 0 00-3.334 3.333 3.337 3.337 0 003.334 3.333A3.337 3.337 0 0040 14.5a3.337 3.337 0 00-3.333-3.333zm0 5c-.92 0-1.667-.749-1.667-1.667s.747-1.667 1.667-1.667 1.666.749 1.666 1.667-.746 1.667-1.666 1.667zm-23.334 5A3.337 3.337 0 0010 24.5a3.337 3.337 0 003.333 3.333 3.337 3.337 0 003.334-3.333 3.337 3.337 0 00-3.334-3.333zm0 5c-.92 0-1.666-.749-1.666-1.667s.746-1.667 1.666-1.667c.92 0 1.667.749 1.667 1.667s-.747 1.667-1.667 1.667zm15-5A3.337 3.337 0 0025 24.5a3.337 3.337 0 003.333 3.333 3.337 3.337 0 003.334-3.333 3.337 3.337 0 00-3.334-3.333zm0 5c-.92 0-1.666-.749-1.666-1.667s.746-1.667 1.666-1.667c.92 0 1.667.749 1.667 1.667s-.747 1.667-1.667 1.667zm8.334-5a3.337 3.337 0 00-3.334 3.333 3.337 3.337 0 003.334 3.333A3.337 3.337 0 0040 24.5a3.337 3.337 0 00-3.333-3.333zm0 5c-.92 0-1.667-.749-1.667-1.667s.747-1.667 1.667-1.667 1.666.749 1.666 1.667-.746 1.667-1.666 1.667zm-23.334 5A3.337 3.337 0 0010 34.5a3.337 3.337 0 003.333 3.333 3.337 3.337 0 003.334-3.333 3.337 3.337 0 00-3.334-3.333zm0 5c-.92 0-1.666-.749-1.666-1.667s.746-1.667 1.666-1.667c.92 0 1.667.749 1.667 1.667s-.747 1.667-1.667 1.667zm8.334-5a3.337 3.337 0 00-3.334 3.333 3.337 3.337 0 003.334 3.333A3.337 3.337 0 0025 34.5a3.337 3.337 0 00-3.333-3.333zm0 5c-.92 0-1.667-.749-1.667-1.667s.747-1.667 1.667-1.667 1.666.749 1.666 1.667-.746 1.667-1.666 1.667zm8.333-5a3.337 3.337 0 00-3.333 3.333A3.337 3.337 0 0030 37.833a3.337 3.337 0 003.333-3.333A3.337 3.337 0 0030 31.167zm0 5c-.92 0-1.667-.749-1.667-1.667s.747-1.667 1.667-1.667 1.667.749 1.667 1.667-.747 1.667-1.667 1.667z"/><path d="M10 13.667H5.833a.834.834 0 000 1.666H10a.834.834 0 000-1.666zm9.167 0h-3.334a.834.834 0 000 1.666h3.334a.834.834 0 000-1.666zm15 0h-10a.834.834 0 000 1.666h10a.834.834 0 000-1.666zm10 0h-5a.834.834 0 000 1.666h5a.834.834 0 000-1.666zm-33.334 10h-5a.834.834 0 000 1.666h5a.834.834 0 000-1.666zm33.334 0h-5a.834.834 0 000 1.666h5a.834.834 0 000-1.666zm0 10H32.5a.834.834 0 000 1.666h11.667a.834.834 0 000-1.666zm-33.334 0h-5a.834.834 0 000 1.666h5a.834.834 0 000-1.666zm23.334-10h-3.334a.834.834 0 000 1.666h3.334a.834.834 0 000-1.666zm-8.334 0h-10a.834.834 0 000 1.666h10a.834.834 0 000-1.666zm-6.666 10h-3.334a.834.834 0 000 1.666h3.334a.834.834 0 000-1.666zm8.333 0h-3.333a.834.834 0 000 1.666H27.5a.834.834 0 000-1.666z"/></g><defs><clipPath id="clip0_612_7172"><path fill="#fff" transform="translate(5 4.5)" d="M0 0h40v40H0z"/></clipPath></defs></svg>