<svg width="50" height="50" fill="none" xmlns="http://www.w3.org/2000/svg"><rect width="50" height="50" rx="7.5" fill="#D5A429"/><g clip-path="url(#clip0_738_47099)" fill="#EDEDED"><path d="M14.74 26.921c-1.429-1.353-7.14-1.791-8.857-1.893A.832.832 0 005 25.86v15c0 .46.373.833.833.833h5c.36 0 .68-.232.792-.575.121-.374 2.993-9.187 3.371-13.52a.83.83 0 00-.256-.677zm-4.515 13.105H6.667V26.753c2.678.212 5.568.672 6.618 1.182-.442 3.65-2.44 10.134-3.06 12.091z"/><path d="M44.912 37.154a5.445 5.445 0 00-6.23-2.864l-6.384 1.596a.833.833 0 10.403 1.617l6.385-1.597a3.792 3.792 0 013.858 1.26l-8.261 3.757c-7.009 2.871-7.25 2.78-10.253 1.646l-12.5-4.166a.829.829 0 00-1.053.526.833.833 0 00.526 1.054l12.468 4.156c1.402.529 2.369.835 3.455.835 1.69-.002 3.67-.74 8.02-2.521l9.166-4.167a.832.832 0 00.4-1.132z"/><path d="M29.346 31.713l-15-3.333a.841.841 0 00-.995.633.835.835 0 00.634.995l14.978 3.328c1.846.462 2.588 1.189 2.69 2.71l-1.6.4a4.144 4.144 0 01-1.827.044l-7.23-1.447a.823.823 0 00-.98.653c-.09.452.202.89.654.98l7.231 1.447a5.844 5.844 0 002.557-.062l2.243-.56a.833.833 0 00.632-.808v-.263c0-2.574-1.222-4.027-3.987-4.717z"/><path d="M36.494 18.69a.836.836 0 00-.663-.328H22.498a.833.833 0 00-.665.331c-.17.225-4.172 5.57-5.945 10.175a.834.834 0 001.555.598c1.445-3.755 4.58-8.203 5.476-9.44h12.497c1.953 2.63 6.25 9.125 6.25 12.5 0 .808-.087 1.608-.257 2.373a.835.835 0 00.815 1.015.834.834 0 00.812-.653c.196-.883.296-1.803.296-2.735 0-4.805-6.558-13.471-6.838-13.836zm-.661-3.663H22.5a.834.834 0 000 1.666h13.333a.834.834 0 000-1.666zm3.923-9.757a.834.834 0 00-.962-.156l-6.13 3.065-2.908-2.909a.834.834 0 00-1.178 0l-2.909 2.91-6.13-3.065a.832.832 0 00-1.195.613.835.835 0 00.077.507l3.334 6.666a.835.835 0 00.745.46h13.333a.838.838 0 00.746-.462l3.334-6.666a.835.835 0 00-.157-.962zm-4.438 6.424H23.015l-1.986-3.97 4.432 2.215c.32.158.707.098.962-.157l2.743-2.743 2.745 2.743a.83.83 0 00.962.157l4.43-2.215-1.985 3.97z"/><path d="M29.34 28.378l-.184-.035c-1.697-.313-2.488-.837-2.488-1.65 0-.903 1.145-1.667 2.501-1.667 1.305 0 2.427.709 2.5 1.577.038.458.458.817.9.76a.833.833 0 00.76-.9c-.15-1.77-1.938-3.103-4.162-3.103-2.298 0-4.168 1.495-4.168 3.333 0 1.712 1.295 2.818 4 3.317l.182.033c1.695.313 2.485.837 2.485 1.65 0 .468-.3.817-.552 1.028A.833.833 0 1032.186 34c.74-.62 1.148-1.439 1.148-2.305 0-1.714-1.295-2.819-3.995-3.317z"/><path d="M29.166 21.693a.834.834 0 00-.834.834v9.166a.834.834 0 001.667 0v-9.166a.834.834 0 00-.833-.834z"/></g><defs><clipPath id="clip0_738_47099"><path fill="#fff" transform="translate(5 5)" d="M0 0h40v40H0z"/></clipPath></defs></svg>