<svg width="40" height="40" fill="none" xmlns="http://www.w3.org/2000/svg"><rect width="40" height="40" rx="6" fill="#D5A429"/><path d="M20 4L6 9.091v11.317c0 12.787 13.586 16.266 13.722 16.3l.278.067.278-.066C20.414 36.674 34 33.195 34 20.408V9.091L20 4zm11.667 16.408c0 10.125-9.812 13.425-11.662 13.957-1.785-.529-11.672-3.919-11.672-13.957v-9.683L20 6.483l11.667 4.242v9.683z" fill="#EDEDED"/><path d="M13.825 19.583l-1.65 1.65 5.492 5.491 10.158-10.158-1.65-1.65-8.508 8.509-3.842-3.842z" fill="#EDEDED"/></svg>