<svg width="50" height="50" fill="none" xmlns="http://www.w3.org/2000/svg"><rect width="50" height="50" rx="7.5" fill="#D5A429"/><path d="M31.517 37.812l-4.052-9.452a4.164 4.164 0 00-3.83-2.527H13.03A4.163 4.163 0 009.2 28.36l-4.134 9.647a.836.836 0 00.765 1.161h25.035a.834.834 0 00.65-1.355zm-24.422-.311l3.637-8.486a2.498 2.498 0 012.299-1.515h10.602a2.499 2.499 0 012.299 1.515l3.637 8.486H7.095z" fill="#EDEDED"/><path d="M22.5 29.167h-9.47a.834.834 0 00-.766.505l-2.144 5a.833.833 0 00.767 1.162.828.828 0 00.765-.505l1.927-4.495h8.92a.834.834 0 000-1.667zm6.667-15.001h-9.524a.83.83 0 00-.765.505l-2.144 5a.83.83 0 00.765 1.162.83.83 0 00.765-.505l1.927-4.495h8.976a.834.834 0 000-1.667z" fill="#EDEDED"/><path d="M38.184 22.811l-4.052-9.452a4.165 4.165 0 00-3.83-2.527H19.698a4.164 4.164 0 00-3.83 2.526l-4.134 9.647a.836.836 0 00.07.787.829.829 0 00.695.375h25.002c.01 0 .021-.002.033 0a.834.834 0 00.65-1.356zM13.763 22.5l3.636-8.486a2.499 2.499 0 012.299-1.515h10.604a2.499 2.499 0 012.298 1.515l3.636 8.486H13.763zm31.17 15.508l-4.134-9.648a4.164 4.164 0 00-3.83-2.527h-7.802a.834.834 0 000 1.667h7.802a2.5 2.5 0 012.298 1.515l3.637 8.486h-8.737a.834.834 0 000 1.667h10a.831.831 0 00.766-1.16z" fill="#EDEDED"/><path d="M35.834 29.167h-5a.834.834 0 000 1.667h5a.834.834 0 000-1.667z" fill="#EDEDED"/></svg>