<svg width="25" height="25" fill="none" xmlns="http://www.w3.org/2000/svg"><rect width="25" height="25" rx="5" fill="#D5A429"/><path d="M14.125 16.044c0-.515-.125-.92-.38-1.215-.255-.294-.7-.57-1.34-.83a25.618 25.618 0 01-1.772-.79 6.31 6.31 0 01-1.4-.93 3.59 3.59 0 01-.899-1.222c-.207-.463-.311-1.025-.311-1.682 0-1.102.372-2.009 1.115-2.722.743-.713 1.733-1.128 2.973-1.249v-2.07h1.556v2.105c1.193.177 2.13.665 2.813 1.473.683.808 1.02 1.828 1.02 3.068h-3.306c0-.678-.13-1.2-.393-1.564-.26-.363-.631-.549-1.115-.549-.432 0-.765.134-1.003.406-.237.273-.358.644-.358 1.12 0 .475.138.864.41 1.15.272.285.713.552 1.322.812.605.259 1.18.523 1.716.803a6.742 6.742 0 011.396.943c.393.35.696.764.92 1.231.22.471.333 1.033.333 1.694 0 1.115-.354 2.027-1.063 2.727-.709.705-1.672 1.115-2.891 1.232v1.966h-1.556v-1.975c-1.421-.151-2.51-.64-3.271-1.46-.76-.826-1.141-1.91-1.141-3.263h3.297c0 .743.164 1.31.493 1.698.328.39.795.584 1.405.584.445 0 .79-.134 1.045-.398.255-.268.385-.631.385-1.093z" fill="#EDEDED"/></svg>