<svg width="50" height="50" fill="none" xmlns="http://www.w3.org/2000/svg"><rect width="50" height="50" rx="7.5" fill="#D5A429"/><path d="M39.802 7.707l-12.328 3.466a3.577 3.577 0 00-2.412-.933 3.597 3.597 0 00-3.444 2.58l-11.484 3.229L5 26.949v1.846a5.866 5.866 0 005.86 5.86 5.867 5.867 0 005.859-5.86v-1.833L12.64 17.83l8.83-2.483v19.765h-4.29V39.9h-2.33v2.393h20.558V39.9h-2.465v-4.788h-4.29v-21.28c0-.168-.013-.333-.035-.494l8.356-2.35-3.693 8.047v1.84a5.867 5.867 0 005.86 5.86A5.867 5.867 0 0045 20.875v-1.84L39.802 7.707zM10.859 32.26a3.47 3.47 0 01-3.465-3.466v-.382h6.93v.382a3.47 3.47 0 01-3.465 3.466zm2.818-6.241H8.084l2.87-6.096 2.723 6.096zm16.872 11.486V39.9H19.575v-2.394h10.974zm-6.684-2.394v-21.28c0-.66.537-1.198 1.197-1.198s1.197.537 1.197 1.197v21.281h-2.394zm15.276-23.107l2.796 6.095h-5.593l2.797-6.095zm0 12.336a3.47 3.47 0 01-3.466-3.466v-.382h6.931v.382a3.47 3.47 0 01-3.465 3.466z" fill="#EDEDED"/></svg>