<svg width="50" height="50" fill="none" xmlns="http://www.w3.org/2000/svg"><rect width="50" height="50" rx="7.5" fill="#D5A429"/><path d="M11.193 26.255h1.506m-1.506 5.021h1.506m-1.506 5.02h1.506m24.602-15.062h1.506m-1.506 5.021h1.506m-1.506 5.021h1.506m-8.033-10.042h1.506m-1.506 5.021h1.506m-1.506 5.021h1.506m-8.033-10.042h1.506m-1.506 5.021h1.506m-1.506 5.021h1.506m-1.506 5.02h1.506m-8.033-10.04h1.506m-1.506 5.02h1.506m-1.506 5.02h1.506M6.172 11.194h37.656v5.02H6.172v-5.02z" stroke="#EDEDED" stroke-width="2.344" stroke-miterlimit="10" stroke-linecap="round" stroke-linejoin="round"/><path d="M11.193 11.193v-2.51m27.614 2.51v-2.51m-32.635 7.53h37.656v25.105H6.172V16.214z" stroke="#EDEDED" stroke-width="2.344" stroke-miterlimit="10" stroke-linecap="round" stroke-linejoin="round"/></svg>