<svg width="66" height="86" fill="none" xmlns="http://www.w3.org/2000/svg"><path d="M65.193 18.07l-1.13-1.143L49.257 1.96 48.126.816A2.759 2.759 0 0046.178 0H3.612C1.872 0 0 1.358 0 4.339v78.695c0 1.242 1.235 2.451 2.696 2.833.073.019.143.047.22.062.229.046.462.071.696.071h58.776c.234 0 .468-.025.696-.071.076-.015.147-.043.22-.062C64.765 85.485 66 84.276 66 83.034V20.727c0-1.137-.135-1.976-.807-2.656zm-4.422-.277H48.4V5.286l12.371 12.507zM3.612 83.035c-.104 0-.198-.04-.29-.073a.68.68 0 01-.389-.614V60.793h60.134v21.555c0 .273-.16.503-.389.614-.092.034-.186.072-.29.072H3.612zm-.679-25.207V4.338c0-.321.049-1.372.68-1.372h41.939c-.049.186-.085.38-.085.58v17.213h17.026c.198 0 .387-.037.572-.086l.002.053v37.102H2.933z" fill="#292A2B"/><path d="M22.795 66.345a5.024 5.024 0 00-1.655-.912 5.905 5.905 0 00-1.864-.304h-4.25v14.94h2.407v-5.393h1.785c.774 0 1.484-.114 2.125-.344a4.78 4.78 0 001.644-.972 4.32 4.32 0 001.063-1.551c.254-.616.382-1.3.382-2.058 0-.717-.151-1.362-.452-1.937a4.756 4.756 0 00-1.185-1.47zm-.912 4.936c-.148.412-.34.732-.581.962-.24.23-.505.396-.792.497-.288.1-.58.153-.873.153h-2.206v-5.92h1.804c.615 0 1.11.098 1.485.294.374.196.664.439.872.73.207.29.344.594.41.912.067.317.1.597.1.84 0 .61-.073 1.12-.22 1.532zm15.45-3.964c-.622-.66-1.404-1.193-2.347-1.59-.943-.398-2.036-.598-3.278-.598h-4.451v14.94h5.593c.187 0 .474-.023.863-.071a5.865 5.865 0 001.283-.325 6.696 6.696 0 001.453-.76c.502-.338.952-.801 1.354-1.39.402-.588.732-1.318.993-2.19.261-.872.392-1.923.392-3.152 0-.893-.154-1.762-.46-2.605a6.59 6.59 0 00-1.395-2.258zm-1.755 9.386c-.721 1.055-1.898 1.58-3.529 1.58h-2.386v-11.31h1.404c1.15 0 2.086.153 2.807.457.722.304 1.294.703 1.715 1.196a3.96 3.96 0 01.852 1.652 7.84 7.84 0 01.22 1.845c0 2-.361 3.529-1.083 4.581zm7.099 3.367h2.446v-6.731H51.3v-1.662h-6.176v-4.704h6.797V65.13h-9.243v14.94zm4.151-46.024c-1.348 0-3.003.178-4.925.53-2.684-2.879-5.486-7.084-7.463-11.212 1.961-8.346.98-9.528.547-10.086-.46-.593-1.11-1.555-1.85-1.555-.309 0-1.153.142-1.49.255-.844.285-1.299.943-1.662 1.802-1.037 2.45.385 6.629 1.849 9.85-1.251 5.03-3.35 11.052-5.556 15.94-5.558 2.573-8.51 5.101-8.778 7.514-.096.877.109 2.166 1.636 3.324.418.316.908.483 1.418.483 1.283 0 2.58-.993 4.08-3.124 1.094-1.554 2.27-3.673 3.495-6.303 3.928-1.736 8.787-3.305 12.948-4.184 2.317 2.25 4.393 3.388 6.176 3.388 1.314 0 2.44-.611 3.256-1.766.85-1.203 1.043-2.28.572-3.203-.565-1.11-1.956-1.653-4.253-1.653zM20.586 48.389c-.686-.533-.647-.892-.632-1.027.091-.824 1.368-2.287 4.503-4.068-2.376 4.436-3.652 5.025-3.87 5.095zM32.613 14.4c.063-.021 1.532 1.632.14 4.768-2.09-2.163-.284-4.72-.14-4.768zM29.58 38.163a106.487 106.487 0 003.922-11.215c1.647 2.992 3.626 5.895 5.606 8.22a72.47 72.47 0 00-9.528 2.995zm18.922-.71c-.452.64-1.432.654-1.775.654-.782 0-1.074-.47-2.269-1.4a20.99 20.99 0 012.656-.16c1.304 0 1.543.195 1.724.292-.033.106-.118.304-.336.614z" fill="#292A2B"/></svg>