<svg width="25" height="25" fill="none" xmlns="http://www.w3.org/2000/svg"><rect width="25" height="25" rx="5" fill="#D5A429"/><path fill-rule="evenodd" clip-rule="evenodd" d="M13.527 16.698a2.575 2.575 0 01-.009-3.602 2.619 2.619 0 012.57-2.57 2.565 2.565 0 013.594 0 .14.14 0 00.155.038.14.14 0 00.09-.133V8.48a2.32 2.32 0 00-2.623-2.623H6.813A2.319 2.319 0 004.19 8.48v6.994a2.319 2.319 0 002.623 2.623h6.707a.256.256 0 00.26-.234.257.257 0 00-.02-.125 2.46 2.46 0 01-.233-1.04zm-5.84-7.125h5.245a.656.656 0 010 1.311H7.687a.656.656 0 010-1.311zm2.623 4.808H7.687a.656.656 0 010-1.311h2.623a.656.656 0 110 1.311zM21.305 14a.89.89 0 01-.371-.894 1.311 1.311 0 00-1.523-1.262.875.875 0 01-.632-.37 1.262 1.262 0 00-1.786 0 .868.868 0 01-.632.37 1.33 1.33 0 00-1.524 1.523.875.875 0 01-.37.633 1.262 1.262 0 000 1.785.887.887 0 01.37.893 1.26 1.26 0 001.179 1.254l-1.044 3.663 1.615-.647a3.514 3.514 0 012.6 0l1.614.647-1.044-3.663a1.258 1.258 0 001.177-1.254.867.867 0 01.185-.707 1.31 1.31 0 00.186-1.97zm-3.418 2.35a1.458 1.458 0 11-.001-2.917 1.458 1.458 0 010 2.917z" fill="#EDEDED"/></svg>