<svg width="40" height="40" fill="none" xmlns="http://www.w3.org/2000/svg"><rect width="40" height="40" rx="6" fill="#D5A429"/><g clip-path="url(#clip0_106_1015)"><path d="M8.813 11.5c.419 0 .833-.094 1.211-.275l1.973 1.972a12.16 12.16 0 00-.372 2.99c0 2.343.665 4.534 1.816 6.394l-8.617 8.617a2.816 2.816 0 000 3.978 2.81 2.81 0 003.977 0l8.618-8.618a12.112 12.112 0 006.393 1.817c6.72 0 12.188-5.468 12.188-12.188C36 9.467 30.532 4 23.812 4c-4.955 0-9.229 2.973-11.132 7.23L11.35 9.9a2.815 2.815 0 00-2.538-4.024 2.817 2.817 0 00-2.65 1.874 3.91 3.91 0 000 1.875 2.817 2.817 0 002.65 1.875zM7.475 33.85a.937.937 0 11-1.325-1.326l8.411-8.412c.408.475.851.919 1.326 1.326L7.475 33.85zm16.337-7.35c-5.686 0-10.312-4.627-10.312-10.313 0-.472.033-.937.094-1.392l2.056 2.055a2.816 2.816 0 002.538 4.024 2.816 2.816 0 002.537-4.024l1.875-1.875a2.812 2.812 0 002.424 0l1.875 1.875a2.816 2.816 0 002.538 4.024A2.817 2.817 0 0032.088 19h1.647c-1.228 4.324-5.211 7.5-9.923 7.5zm-4.687-8.438a.939.939 0 01-1.875 0 .939.939 0 011.875 0zm4.687-4.687a.938.938 0 11.002-1.877.938.938 0 01-.002 1.877zm5.625 3.75a.939.939 0 010 1.875.939.939 0 010-1.875zm-5.625-11.25c5.686 0 10.313 4.626 10.313 10.312 0 .316-.016.629-.044.938h-1.993a2.817 2.817 0 00-2.65-1.875c-.42 0-.834.093-1.213.275l-1.875-1.876c.181-.378.275-.792.275-1.211a2.816 2.816 0 00-2.813-2.813 2.815 2.815 0 00-2.537 4.024l-1.876 1.876a2.796 2.796 0 00-2.423 0l-2.857-2.857c1.441-3.959 5.242-6.793 9.693-6.793zm-15 1.875a.939.939 0 010 1.875.939.939 0 010-1.875z" fill="#EDEDED"/></g><defs><clipPath id="clip0_106_1015"><path fill="#fff" transform="translate(4 4)" d="M0 0h32v32H0z"/></clipPath></defs></svg>