<svg width="40" height="40" fill="none" xmlns="http://www.w3.org/2000/svg"><rect width="40" height="40" rx="6" fill="#D5A429"/><mask id="a" style="mask-type:alpha" maskUnits="userSpaceOnUse" x="2" y="2" width="36" height="36"><g clip-path="url(#clip0_106_991)" stroke-width="2.5" stroke-linecap="round" stroke-linejoin="round"><path d="M6.5 12.5a3 3 0 106 0 3 3 0 00-6 0z" stroke="url(#paint0_linear_106_991)"/><path d="M23 24.5a3 3 0 106 0 3 3 0 00-6 0z" stroke="url(#paint1_linear_106_991)"/><path d="M24.5 11a4.5 4.5 0 109 0 4.5 4.5 0 00-9 0z" stroke="url(#paint2_linear_106_991)"/><path d="M6.5 29a4.5 4.5 0 109 0 4.5 4.5 0 00-9 0z" stroke="url(#paint3_linear_106_991)"/><path d="M15.5 27.5l7.5-2.25" stroke="url(#paint4_linear_106_991)"/><path d="M11.75 14.75l11.715 8.055" stroke="url(#paint5_linear_106_991)"/><path d="M12.5 12.5l12-1.5" stroke="url(#paint6_linear_106_991)"/></g></mask><g mask="url(#a)"><path fill="#EDEDED" d="M3 3h34v34H3z"/></g><defs><linearGradient id="paint0_linear_106_991" x1="6.356" y1="9.5" x2="13.042" y2="9.779" gradientUnits="userSpaceOnUse"><stop stop-color="#BE8143"/><stop offset=".556" stop-color="#8F664E"/><stop offset="1" stop-color="#BB7F44"/></linearGradient><linearGradient id="paint1_linear_106_991" x1="22.856" y1="21.5" x2="29.542" y2="21.779" gradientUnits="userSpaceOnUse"><stop stop-color="#BE8143"/><stop offset=".556" stop-color="#8F664E"/><stop offset="1" stop-color="#BB7F44"/></linearGradient><linearGradient id="paint2_linear_106_991" x1="24.284" y1="6.5" x2="34.312" y2="6.918" gradientUnits="userSpaceOnUse"><stop stop-color="#BE8143"/><stop offset=".556" stop-color="#8F664E"/><stop offset="1" stop-color="#BB7F44"/></linearGradient><linearGradient id="paint3_linear_106_991" x1="6.284" y1="24.5" x2="16.312" y2="24.918" gradientUnits="userSpaceOnUse"><stop stop-color="#BE8143"/><stop offset=".556" stop-color="#8F664E"/><stop offset="1" stop-color="#BB7F44"/></linearGradient><linearGradient id="paint4_linear_106_991" x1="15.32" y1="25.25" x2="23.533" y2="26.391" gradientUnits="userSpaceOnUse"><stop stop-color="#BE8143"/><stop offset=".556" stop-color="#8F664E"/><stop offset="1" stop-color="#BB7F44"/></linearGradient><linearGradient id="paint5_linear_106_991" x1="11.469" y1="14.75" x2="24.497" y2="15.54" gradientUnits="userSpaceOnUse"><stop stop-color="#BE8143"/><stop offset=".556" stop-color="#8F664E"/><stop offset="1" stop-color="#BB7F44"/></linearGradient><linearGradient id="paint6_linear_106_991" x1="12.212" y1="11" x2="24.266" y2="15.02" gradientUnits="userSpaceOnUse"><stop stop-color="#BE8143"/><stop offset=".556" stop-color="#8F664E"/><stop offset="1" stop-color="#BB7F44"/></linearGradient><clipPath id="clip0_106_991"><path fill="#fff" transform="translate(2 2)" d="M0 0h36v36H0z"/></clipPath></defs></svg>