<svg width="27" height="28" fill="none" xmlns="http://www.w3.org/2000/svg"><path d="M7.983 7.43c-.587 1.791-.822 3.822-.94 5.973h5.87V7.429h-4.93zM5.87 14.596H0a14.58 14.58 0 001.643 5.974h5.048c-.47-1.792-.704-3.823-.821-5.974zm2.465-8.362h4.578V.978c-1.878.358-3.522 2.39-4.578 5.257zM14.087.978v5.257h4.578c-1.056-2.868-2.7-4.899-4.578-5.257zm4.93 6.451h-4.93v5.974h5.87c-.118-2.15-.353-4.182-.94-5.974zm2.113 7.168c0 2.15-.352 4.182-.821 5.974h5.047A14.58 14.58 0 0027 14.597h-5.87zm-14.087 0c.118 2.15.353 4.182.94 5.974h4.93v-5.974h-5.87zm-5.4-7.168A14.58 14.58 0 000 13.403h5.87c.117-2.15.352-4.182.821-5.974H1.643zm6.692 14.336c1.056 2.868 2.7 4.899 4.578 5.257v-5.256H8.335zm-1.292 0H2.348c1.996 2.868 4.93 5.018 8.452 5.735-1.526-1.075-2.817-3.106-3.757-5.735zm12.796 0c-.822 2.629-2.113 4.66-3.756 5.735 3.521-.717 6.574-2.748 8.452-5.735h-4.696zM16.2.5c1.526 1.075 2.817 3.106 3.756 5.735h4.696C22.657 3.367 19.722 1.217 16.2.5zM2.465 6.235h4.696C7.983 3.606 9.274 1.575 10.917.5c-3.521.717-6.574 2.748-8.452 5.735zm11.622 15.53v5.257c1.878-.358 3.522-2.39 4.578-5.256h-4.578zm0-7.168v5.974h4.93c.587-1.792.822-3.823.94-5.974h-5.87zm11.27-7.168h-5.048c.47 1.792.704 3.823.821 5.974H27a14.58 14.58 0 00-1.643-5.974z" fill="#EDEDED"/></svg>