<svg width="50" height="50" fill="none" xmlns="http://www.w3.org/2000/svg"><rect width="50" height="50" rx="7.5" fill="#D5A429"/><g clip-path="url(#clip0_614_3861)" stroke="#EDEDED" stroke-width="2.344" stroke-miterlimit="10" stroke-linecap="round" stroke-linejoin="round"><path d="M10.133 36.052A18.74 18.74 0 016.172 24.5c0-10.398 8.43-18.828 18.828-18.828a18.74 18.74 0 0111.552 3.96m3.315 3.316A18.74 18.74 0 0143.828 24.5c0 10.398-8.43 18.828-18.828 18.828a18.74 18.74 0 01-11.552-3.96"/><path d="M32.663 10.382l3.89-.75-.796-3.88m-18.42 32.866l-3.89.75.796 3.88M25.541 29.88h3.851V17.702h4.688V29.88h3.85l-6.194 6.976-6.195-6.976zM24.46 19.12h-3.851v12.178H15.92V19.12h-3.85l6.194-6.975 6.195 6.975z"/></g><defs><clipPath id="clip0_614_3861"><path fill="#fff" transform="translate(5 4.5)" d="M0 0h40v40H0z"/></clipPath></defs></svg>