<svg width="25" height="26" fill="none" xmlns="http://www.w3.org/2000/svg"><rect y=".5" width="25" height="25" rx="5" fill="#D5A429"/><path d="M17.902 12.842a7.748 7.748 0 00-3.859-6.709c3.819-.186 7.04 2.874 7.04 6.709 0 3.838-3.225 6.894-7.04 6.709a7.748 7.748 0 003.86-6.71z" fill="#EDEDED"/><path d="M10.154 6.126a6.724 6.724 0 00-6.716 6.716 6.724 6.724 0 006.716 6.717 6.724 6.724 0 006.716-6.717 6.724 6.724 0 00-6.716-6.716zm.52 10.21v.764a.52.52 0 01-1.04 0v-.764c-.422 0-1.02.056-1.727-.434a.52.52 0 01.592-.853c.213.15.473.246.74.248h1.743a.967.967 0 100-1.935H9.326c-1.106 0-2.006-.9-2.006-2.006 0-.994.674-2.007 2.315-2.007v-.764a.52.52 0 011.038 0v.764c.277 0 .625-.021 1.096.167.355.142.68.381.87.598a.518.518 0 01-.764.702 1.33 1.33 0 00-.951-.428H9.326a.967.967 0 100 1.935h1.656a2.01 2.01 0 012.006 2.006c0 1.064-.744 2.007-2.315 2.007z" fill="#EDEDED"/></svg>