<svg width="171" height="60" fill="none" xmlns="http://www.w3.org/2000/svg"><path d="M74.2 13.78c0 .1 0 .1-.1.2v-.1c.1 0 .1-.1.1-.1z" fill="url(#paint0_linear_1510_2028)"/><path d="M33.3 47.08c-.1-.1-.1-.2-.2-.3.1.1.2.2.2.3z" fill="url(#paint1_linear_1510_2028)"/><path d="M33.3 47.08c-.1-.1-.1-.2-.2-.3.1.1.2.2.2.3z" fill="url(#paint2_linear_1510_2028)"/><path d="M9.5 20.68c-1.2-.1-2.4-.1-3.7-.2 1.2.1 2.4.2 3.7.2z" fill="url(#paint3_linear_1510_2028)"/><path d="M24.4 31.88c0 .1-.1.3-.1.4 0-.1-.1-.2-.1-.3.1-.1.2-.1.2-.1z" fill="url(#paint4_linear_1510_2028)"/><path d="M93.6 39.58c-1.8.2-2.8-.8-3.6-2-1-1.3-2.2-2.5-2.9-4-.6-1.3-.5-2.9-.8-4.3.1-.8.1-1.7.2-2.5v-1.1c-.7-2-1.1-4.3-3.9-4.6-.1 0-.2.1-.3.1-.1 0-.2.1-.3.1 0 .1-.1.1-.2.1 0 .8.1 1.7.1 2.5l-.3 2.1c-.2 1.1-.7 2.1-.6 3.2.1 1.4.3 3.1 1.1 4 2.2 2.4 1.8 4.6.1 7-.8 1.9-1.6 3.9-2.4 5.8.1 4.7-1 5.6-5.7 4.6-1.3-.3-1.5-.9-1-1.9.6-1.3 1.4-2.5 2.2-3.7.6-1.1 1.3-2.2 1.7-3.4.3-1 .3-2.1.5-3.1-1-.4-1.9-.8-2.9-1.2-1.8 1.9-3.7 3.9-5.5 5.8-.1.1-.1.2-.2.4s-.3.4-.4.6c-.7 1.9-1.3 3.8-2.1 5.6-.2.6-.8 1-1.2 1.5-1.5.4-2.5.6-4.6.4-1.2 0-1.6-.6-.9-1.7.5-.8 1.1-1.5 1.6-2.3l4.5-5.4.9-1.2c.1-.2.2-.3.3-.5-.6-1.2-1.3-2.5-2-3.7-.1-.1-.3-.2-.4-.3-2.9-.1-5.8-.3-8.7-.4-.6.1-1.1.3-1.7.4-.1 0-.3 0-.4.1-2.3.8-4.6 1.7-7.2.8-1.8-.6-1.7 1.5-2.7 2-.9 1.3-1.6 2.7-2.6 4-.8 1.1-.6 1.7.6 2.2 3.2 1.2 3.2 1.2 2.2 4.6-.1.3-.1.6-.2.9-.6 1.7-1 1.7-2.6-.2-.5-.6-.9-1.1-1.4-1.7-.2-.3-.5-.5-.7-.8-.2-.2-.4-.5-.6-.7-.4 0-.7.1-1.1.1-.2.2-.3.4-.5.6-.2.4-.3.8-.5 1.3-.7 1.3-4.7 2.6-6 1.9-.3-.1-.4-1-.2-1.3.8-1.2 1.7-2.3 2.5-3.5.4-.6.8-1.1 1.2-1.7-.1-.6.1-1.5-.3-1.9-2.1-2.4-2.1-2.9.4-4.9.4-.3.9-.7 1.3-1 1-1.4.6-2.4-.9-3.1-2.5-1.2-5-2.3-7.5-3.4-.7-.3-1.6-.1-2.4-.1-.1-.1-.2-.2-.3-.2.1.1.2.2.3.2-.2.4-.4.7-.6 1.1 0 0-.1 0-.1.1s0 .2.1.3l.3 2.4c.3 1.7-.8 2.6-2 3.3-1.2.7-2.2.3-3.1-.7-2.8-3.1-5.6-6.2-8.5-9.2-.3-.3-1.3-.2-1.9 0-3.8 1.2-6.2.7-8.3-2.1-.3-.3-.4-.8-.5-1.4 3.1 1.9 6 2.2 8.8-.2 0-.3 0-.6-.1-.8-.2-.1-.3-.1-.5-.2-.5-.1-1.1-.2-1.6-.3-2.2-.7-4.1-1.8-5.3-3.9-.1 0-.1-.1-.2-.1-.2-.2-.3-.3-.4-.5.4-.1.3-.4.3-.6.2.1.4.1.6.2.2.1.3.3.4.4.1 0 .2.1.2.2 1.2.6 2.4 1.2 3.5 1.8 1.2 0 2.4.1 3.7.2 3-1.3 6.1-2.6 9.1-3.8 1-.6 2.1-1.2 3.2-1.8.2-.1.3-.2.5-.3.7-.6 1.4-1.1 2.1-1.7 1.8-1.5 3.4-3.2 5.4-4.4 2.1-1.4 4.7-1.3 6.7 0 5.7 3.6 11.8 4.7 18.3 3.9.9-.1 1.9-.2 2.8-.3 1.3-.2 2.5-.4 3.8-.6 3.6-1 7-.2 10.5.8h.1c.8.4 1.5.9 2.3 1.3v.2c0-.1 0-.1.1-.2 3.8 2 7.8 3.8 11.4 6 1.9 1.2 2.2 3.5 2.1 5.8-.2 1.5-.3 3-.4 4.5.1 2.8.5 3.2 3.2 3.9.9.2 1.8 1.1 2.2 1.9.5 1.1.5 2.4.8 3.7z" fill="url(#paint5_linear_1510_2028)"/><path d="M74.2 13.78c0 .1 0 .1-.1.2v-.1c.1 0 .1-.1.1-.1z" fill="url(#paint6_linear_1510_2028)"/><path d="M115.009 21.461c-1.558 0-3.003-.253-4.335-.76a10.409 10.409 0 01-3.434-2.14 10.043 10.043 0 01-2.252-3.237c-.526-1.238-.789-2.59-.789-4.053 0-1.464.263-2.815.789-4.054a9.835 9.835 0 012.28-3.237 10.41 10.41 0 013.434-2.14c1.314-.506 2.74-.76 4.279-.76 1.558 0 2.984.254 4.279.76 1.314.507 2.449 1.22 3.406 2.14a9.835 9.835 0 012.28 3.237c.544 1.22.817 2.571.817 4.054 0 1.463-.273 2.824-.817 4.081a9.835 9.835 0 01-2.28 3.238c-.957.9-2.092 1.604-3.406 2.111-1.295.507-2.712.76-4.251.76zm-.028-3.885c.882 0 1.689-.15 2.421-.45a5.8 5.8 0 001.97-1.295 5.74 5.74 0 001.295-1.999c.319-.77.479-1.623.479-2.561 0-.939-.16-1.793-.479-2.562a5.74 5.74 0 00-1.295-1.999 5.509 5.509 0 00-1.942-1.295 6.535 6.535 0 00-2.449-.45 6.54 6.54 0 00-2.449.45c-.732.3-1.379.732-1.942 1.295a6.11 6.11 0 00-1.324 1.999c-.3.77-.45 1.623-.45 2.562 0 .92.15 1.773.45 2.561.32.77.751 1.436 1.295 1.999a5.8 5.8 0 001.971 1.295c.751.3 1.567.45 2.449.45zm14.209 3.547V1.418h3.772l11.626 14.188h-1.83V1.418h4.504v19.705h-3.744L131.864 6.936h1.83v14.187h-4.504zm26.929-11.767h9.487v3.547h-9.487V9.356zm.338 8.108h10.725v3.66h-15.258V1.417h14.892v3.66h-10.359v12.386zM118.879 59.43c-4.586 0-8.171-1.277-10.757-3.831-2.585-2.555-3.878-6.202-3.878-10.942V26.56h7.479v17.82c0 3.078.631 5.294 1.893 6.648 1.262 1.355 3.032 2.032 5.309 2.032 2.278 0 4.048-.677 5.309-2.032 1.262-1.354 1.893-3.57 1.893-6.648V26.56h7.387v18.097c0 4.74-1.293 8.387-3.878 10.942-2.585 2.554-6.171 3.832-10.757 3.832zm22.026-.553V26.56h13.988c2.893 0 5.386.477 7.479 1.431 2.093.924 3.709 2.262 4.847 4.017 1.139 1.754 1.709 3.847 1.709 6.278 0 2.401-.57 4.479-1.709 6.233-1.138 1.754-2.754 3.108-4.847 4.063-2.093.923-4.586 1.385-7.479 1.385h-9.833l3.323-3.37v12.28h-7.478zm7.478-11.45l-3.323-3.554h9.417c2.309 0 4.032-.493 5.171-1.478 1.139-.985 1.708-2.354 1.708-4.109 0-1.785-.569-3.17-1.708-4.154-1.139-.985-2.862-1.478-5.171-1.478h-9.417l3.323-3.555v18.328z" fill="#EDEDED"/><defs><linearGradient id="paint0_linear_1510_2028" x1="74.134" y1="13.981" x2="74.243" y2="13.927" gradientUnits="userSpaceOnUse"><stop stop-color="#986621"/><stop offset=".159" stop-color="#F0E193"/><stop offset=".782" stop-color="#916026"/><stop offset="1" stop-color="#EBDA8D"/></linearGradient><linearGradient id="paint1_linear_1510_2028" x1="33.168" y1="47.081" x2="33.356" y2="46.956" gradientUnits="userSpaceOnUse"><stop stop-color="#986621"/><stop offset=".159" stop-color="#F0E193"/><stop offset=".782" stop-color="#916026"/><stop offset="1" stop-color="#EBDA8D"/></linearGradient><linearGradient id="paint2_linear_1510_2028" x1="33.168" y1="47.081" x2="33.356" y2="46.956" gradientUnits="userSpaceOnUse"><stop stop-color="#986621"/><stop offset=".159" stop-color="#F0E193"/><stop offset=".782" stop-color="#916026"/><stop offset="1" stop-color="#EBDA8D"/></linearGradient><linearGradient id="paint3_linear_1510_2028" x1="7.055" y1="20.681" x2="7.07" y2="20.41" gradientUnits="userSpaceOnUse"><stop stop-color="#986621"/><stop offset=".159" stop-color="#F0E193"/><stop offset=".782" stop-color="#916026"/><stop offset="1" stop-color="#EBDA8D"/></linearGradient><linearGradient id="paint4_linear_1510_2028" x1="24.268" y1="32.281" x2="24.485" y2="32.172" gradientUnits="userSpaceOnUse"><stop stop-color="#986621"/><stop offset=".159" stop-color="#F0E193"/><stop offset=".782" stop-color="#916026"/><stop offset="1" stop-color="#EBDA8D"/></linearGradient><linearGradient id="paint5_linear_1510_2028" x1="31.757" y1="52.332" x2="55.37" y2="2.936" gradientUnits="userSpaceOnUse"><stop stop-color="#986621"/><stop offset=".159" stop-color="#F0E193"/><stop offset=".782" stop-color="#916026"/><stop offset="1" stop-color="#EBDA8D"/></linearGradient><linearGradient id="paint6_linear_1510_2028" x1="74.134" y1="13.981" x2="74.243" y2="13.927" gradientUnits="userSpaceOnUse"><stop stop-color="#986621"/><stop offset=".159" stop-color="#F0E193"/><stop offset=".782" stop-color="#916026"/><stop offset="1" stop-color="#EBDA8D"/></linearGradient></defs></svg>