<svg width="304" height="304" fill="none" xmlns="http://www.w3.org/2000/svg"><circle cx="152" cy="152" r="151.141" stroke="url(#paint0_linear_738_47248)" stroke-width="1.718"/><circle cx="152" cy="152" r="114.215" fill="#292A2B"/><path d="M180.641 77.278c0 .103 0 .103-.103.206v-.103c.103 0 .103-.103.103-.103z" fill="url(#paint1_linear_738_47248)"/><path d="M138.635 111.479c-.103-.103-.103-.206-.206-.308.103.102.206.205.206.308z" fill="url(#paint2_linear_738_47248)"/><path d="M138.635 111.479c-.103-.103-.103-.206-.206-.308.103.102.206.205.206.308z" fill="url(#paint3_linear_738_47248)"/><path d="M114.191 84.365c-1.232-.103-2.465-.103-3.8-.206 1.233.103 2.465.206 3.8.206z" fill="url(#paint4_linear_738_47248)"/><path d="M129.494 95.868c0 .102-.102.308-.102.41 0-.102-.103-.205-.103-.308.103-.102.205-.102.205-.102z" fill="url(#paint5_linear_738_47248)"/><path d="M200.566 103.776c-1.849.205-2.876-.822-3.698-2.054-1.027-1.335-2.259-2.568-2.978-4.108-.616-1.336-.514-2.979-.822-4.417.103-.821.103-1.746.206-2.567V89.5c-.719-2.054-1.13-4.416-4.006-4.724-.103 0-.205.102-.308.102-.103 0-.205.103-.308.103 0 .103-.103.103-.205.103 0 .821.102 1.746.102 2.567l-.308 2.157c-.205 1.13-.719 2.157-.616 3.287.103 1.438.308 3.183 1.13 4.108 2.259 2.465 1.848 4.724.102 7.189-.821 1.952-1.643 4.006-2.465 5.957.103 4.827-1.027 5.751-5.854 4.724-1.335-.308-1.54-.924-1.027-1.951.616-1.335 1.438-2.568 2.26-3.8.616-1.13 1.335-2.26 1.746-3.492.308-1.027.308-2.157.513-3.184-1.027-.411-1.951-.821-2.978-1.232-1.849 1.951-3.8 4.005-5.649 5.957-.103.102-.103.205-.205.41-.103.206-.308.411-.411.617-.719 1.951-1.335 3.902-2.157 5.751-.205.616-.822 1.027-1.232 1.541-1.541.41-2.568.616-4.725.41-1.232 0-1.643-.616-.924-1.746.513-.821 1.13-1.54 1.643-2.362l4.622-5.546.924-1.232c.103-.206.206-.308.308-.514a69.015 69.015 0 00-2.054-3.8c-.103-.103-.308-.205-.411-.308-2.978-.103-5.956-.308-8.935-.411-.616.103-1.13.308-1.746.411-.103 0-.308 0-.411.103-2.362.821-4.724 1.746-7.394.821-1.849-.616-1.746 1.541-2.773 2.054-.925 1.336-1.644 2.774-2.671 4.109-.821 1.129-.616 1.746.616 2.259 3.287 1.233 3.287 1.233 2.26 4.725-.103.308-.103.616-.205.924-.617 1.746-1.027 1.746-2.671-.205-.513-.617-.924-1.13-1.438-1.746-.205-.309-.513-.514-.719-.822-.205-.206-.41-.514-.616-.719-.411 0-.719.103-1.13.103-.205.205-.308.41-.513.616-.205.411-.308.822-.514 1.335-.718 1.335-4.827 2.67-6.162 1.951-.308-.102-.411-1.027-.205-1.335.821-1.232 1.746-2.362 2.567-3.594.411-.617.822-1.13 1.233-1.746-.103-.617.103-1.541-.308-1.952-2.157-2.465-2.157-2.978.411-5.032.41-.308.924-.719 1.335-1.027 1.027-1.438.616-2.465-.925-3.184-2.567-1.233-5.135-2.362-7.702-3.492-.719-.308-1.644-.103-2.465-.103-.103-.103-.206-.205-.309-.205.103.102.206.205.309.205-.206.411-.411.72-.617 1.13 0 0-.102 0-.102.103 0 .102 0 .205.102.308l.308 2.465c.309 1.746-.821 2.67-2.054 3.389-1.232.719-2.259.308-3.183-.719-2.876-3.184-5.752-6.368-8.73-9.449-.308-.308-1.335-.205-1.952 0-3.902 1.233-6.367.72-8.524-2.157-.308-.308-.411-.821-.514-1.438 3.184 1.952 6.163 2.26 9.038-.205 0-.308 0-.616-.102-.822-.206-.102-.309-.102-.514-.205-.513-.103-1.13-.205-1.643-.308-2.26-.719-4.211-1.849-5.444-4.005-.102 0-.102-.103-.205-.103-.205-.206-.308-.308-.411-.514.411-.102.308-.41.308-.616.206.103.411.103.617.206.205.102.308.308.41.41.103 0 .206.103.206.206 1.232.616 2.465 1.232 3.594 1.848 1.233 0 2.465.103 3.801.206a360.82 360.82 0 019.346-3.903c1.027-.616 2.156-1.233 3.286-1.849.206-.102.308-.205.514-.308.719-.616 1.438-1.13 2.156-1.746 1.849-1.54 3.492-3.286 5.547-4.519 2.156-1.438 4.827-1.335 6.881 0 5.854 3.698 12.119 4.827 18.795 4.006.924-.103 1.951-.206 2.875-.308 1.336-.206 2.568-.411 3.903-.617 3.697-1.027 7.189-.205 10.784.822h.103c.821.41 1.54.924 2.362 1.335v.206c0-.103 0-.103.103-.206 3.902 2.054 8.011 3.903 11.708 6.162 1.951 1.233 2.26 3.595 2.157 5.957-.206 1.54-.308 3.081-.411 4.622.103 2.876.513 3.286 3.287 4.005.924.206 1.848 1.13 2.259 1.952.514 1.13.514 2.465.822 3.8z" fill="url(#paint6_linear_738_47248)"/><path d="M180.641 77.278c0 .103 0 .103-.103.206v-.103c.103 0 .103-.103.103-.103z" fill="url(#paint7_linear_738_47248)"/><path d="M115.018 162.108c-2.81 0-5.416-.457-7.82-1.371-2.37-.914-4.435-2.201-6.195-3.859a18.126 18.126 0 01-4.062-5.84c-.948-2.234-1.422-4.672-1.422-7.312 0-2.641.474-5.078 1.422-7.313a17.75 17.75 0 014.113-5.839c1.76-1.659 3.825-2.945 6.195-3.859 2.37-.914 4.942-1.371 7.718-1.371 2.81 0 5.383.457 7.719 1.371 2.369.914 4.418 2.2 6.144 3.859a17.762 17.762 0 014.113 5.839c.982 2.201 1.473 4.638 1.473 7.313 0 2.64-.491 5.095-1.473 7.363a17.752 17.752 0 01-4.113 5.839c-1.726 1.625-3.775 2.895-6.144 3.809-2.336.914-4.892 1.371-7.668 1.371zm-.051-7.008c1.591 0 3.047-.271 4.367-.812a10.376 10.376 0 005.891-5.941c.575-1.388.863-2.929.863-4.621 0-1.693-.288-3.233-.863-4.621a10.38 10.38 0 00-2.336-3.606 9.95 9.95 0 00-3.504-2.335c-1.354-.542-2.827-.813-4.418-.813-1.591 0-3.063.271-4.418.813a10.588 10.588 0 00-3.503 2.335 11 11 0 00-2.387 3.606c-.542 1.388-.812 2.928-.812 4.621 0 1.658.27 3.199.812 4.621.576 1.388 1.354 2.589 2.336 3.605a10.473 10.473 0 003.554 2.336c1.355.541 2.827.812 4.418.812zm25.631 6.398v-35.545h6.805l20.972 25.593h-3.301v-25.593h8.125v35.545h-6.754l-21.023-25.592h3.301v25.592h-8.125zm48.577-21.225h17.112v6.398h-17.112v-6.398zm.609 14.624h19.347v6.601h-27.522v-35.545h26.862v6.601h-18.687v22.343zm-67.785 76.371c-8.272 0-14.74-2.304-19.404-6.912-4.663-4.608-6.995-11.187-6.995-19.737v-32.645h13.491v32.146c0 5.552 1.138 9.549 3.414 11.992 2.277 2.443 5.469 3.664 9.577 3.664 4.109 0 7.301-1.221 9.577-3.664 2.277-2.443 3.415-6.44 3.415-11.992v-32.146h13.324v32.645c0 8.55-2.332 15.129-6.995 19.737-4.664 4.608-11.132 6.912-19.404 6.912zm39.731-.999v-58.295h25.233c5.219 0 9.716.861 13.491 2.582 3.776 1.665 6.69 4.081 8.745 7.245 2.054 3.165 3.081 6.94 3.081 11.326 0 4.33-1.027 8.078-3.081 11.243-2.055 3.164-4.969 5.607-8.745 7.328-3.775 1.666-8.272 2.498-13.491 2.498h-17.738l5.996-6.079v22.152H161.73zm13.491-20.653l-5.996-6.412h16.989c4.164 0 7.273-.889 9.327-2.665 2.054-1.777 3.081-4.247 3.081-7.412 0-3.22-1.027-5.718-3.081-7.495-2.054-1.777-5.163-2.665-9.327-2.665h-16.989l5.996-6.412v33.061z" fill="#EDEDED"/><defs><linearGradient id="paint0_linear_738_47248" x1="1.664" y1="456" x2="304.009" y2="455.994" gradientUnits="userSpaceOnUse"><stop stop-color="#8F664E"/><stop offset=".337" stop-color="#C8992F"/><stop offset=".586" stop-color="#8F664E"/><stop offset="1" stop-color="#D4A429"/></linearGradient><linearGradient id="paint1_linear_738_47248" x1="180.573" y1="77.484" x2="180.685" y2="77.428" gradientUnits="userSpaceOnUse"><stop stop-color="#986621"/><stop offset=".159" stop-color="#F0E193"/><stop offset=".782" stop-color="#916026"/><stop offset="1" stop-color="#EBDA8D"/></linearGradient><linearGradient id="paint2_linear_738_47248" x1="138.499" y1="111.479" x2="138.692" y2="111.35" gradientUnits="userSpaceOnUse"><stop stop-color="#986621"/><stop offset=".159" stop-color="#F0E193"/><stop offset=".782" stop-color="#916026"/><stop offset="1" stop-color="#EBDA8D"/></linearGradient><linearGradient id="paint3_linear_738_47248" x1="138.499" y1="111.479" x2="138.692" y2="111.35" gradientUnits="userSpaceOnUse"><stop stop-color="#986621"/><stop offset=".159" stop-color="#F0E193"/><stop offset=".782" stop-color="#916026"/><stop offset="1" stop-color="#EBDA8D"/></linearGradient><linearGradient id="paint4_linear_738_47248" x1="111.681" y1="84.365" x2="111.696" y2="84.087" gradientUnits="userSpaceOnUse"><stop stop-color="#986621"/><stop offset=".159" stop-color="#F0E193"/><stop offset=".782" stop-color="#916026"/><stop offset="1" stop-color="#EBDA8D"/></linearGradient><linearGradient id="paint5_linear_738_47248" x1="129.359" y1="96.278" x2="129.582" y2="96.167" gradientUnits="userSpaceOnUse"><stop stop-color="#986621"/><stop offset=".159" stop-color="#F0E193"/><stop offset=".782" stop-color="#916026"/><stop offset="1" stop-color="#EBDA8D"/></linearGradient><linearGradient id="paint6_linear_738_47248" x1="137.05" y1="116.872" x2="161.302" y2="66.14" gradientUnits="userSpaceOnUse"><stop stop-color="#986621"/><stop offset=".159" stop-color="#F0E193"/><stop offset=".782" stop-color="#916026"/><stop offset="1" stop-color="#EBDA8D"/></linearGradient><linearGradient id="paint7_linear_738_47248" x1="180.573" y1="77.484" x2="180.685" y2="77.428" gradientUnits="userSpaceOnUse"><stop stop-color="#986621"/><stop offset=".159" stop-color="#F0E193"/><stop offset=".782" stop-color="#916026"/><stop offset="1" stop-color="#EBDA8D"/></linearGradient></defs></svg>