<svg width="320" height="935" fill="none" xmlns="http://www.w3.org/2000/svg"><mask id="a" style="mask-type:alpha" maskUnits="userSpaceOnUse" x="0" y="0" width="320" height="935"><path fill="#D9D9D9" d="M0 0h320v935H0z"/></mask><g mask="url(#a)" fill-opacity=".2"><path d="M479.192 713.935c10.806-6.974 15.597-14.037 14.507-21.242-3.826-25.308-80.038-48.305-153.744-70.552-68.919-20.808-140.183-42.307-142.45-63.911-1.881-17.932 43.033-34.774 137.305-51.489 88.799-15.756 130.854-31.02 128.562-46.642-2.917-19.908-75.118-37.395-151.567-55.909-80.159-19.414-163.041-39.496-167.022-63-2.973-17.535 38.081-35.216 125.534-54.048 79.485-17.12 117.302-35.61 115.625-56.506-2.398-30.038-85.015-60.838-172.466-93.439-96.757-36.068-196.796-73.37-200.92-113.369C9.476-5.995 60.336-33.8 168.039-61.176l-.443-.823C59.447-34.52 8.395-6.465 11.506 23.755c4.19 40.598 104.581 78.013 201.668 114.213 87.096 32.472 169.375 63.147 171.726 92.578 1.641 20.5-35.988 38.746-115.012 55.766-87.938 18.94-129.191 36.892-126.147 54.862 4.101 24.175 87.378 44.35 167.921 63.853 76.044 18.418 147.86 35.815 150.674 55.055 2.229 15.186-39.627 30.174-127.92 45.839-94.757 16.813-139.878 33.907-137.948 52.258 2.334 22.247 70.801 42.906 143.277 64.783 73.348 22.135 149.199 45.025 152.927 69.708 2.469 16.393-26.74 32.091-89.327 47.996l.438.824c35.991-9.155 61.028-18.283 75.409-27.555z" fill="url(#paint0_linear_1132_14625)"/><path d="M472.205 723.799c11.306-7.288 16.327-14.68 15.221-22.244-3.771-25.831-78.941-49.504-151.635-72.4-68.015-21.411-138.326-43.555-140.492-65.639-1.784-18.222 42.104-35.216 134.173-52 86.798-15.809 127.911-31.217 125.681-47.11-2.857-20.318-74.001-38.345-149.327-57.424-78.972-20.012-160.643-40.702-164.595-64.73-2.938-17.851 37.167-35.734 122.604-54.682 77.495-17.19 114.422-35.846 112.877-57.037-2.233-30.69-83.86-62.358-170.265-95.894C110.837 97.543 11.979 59.183 8.017 18.265 5.093-12.015 54.695-40.113 159.69-67.64l-.442-.819C53.833-40.822 4.04-12.47 7.012 18.195c4.01 41.495 103.213 79.994 199.149 117.218 86.059 33.401 167.345 64.934 169.533 95.027 1.523 20.788-35.205 39.203-112.259 56.296-85.922 19.056-126.217 37.208-123.202 55.494 4.059 24.677 86.12 45.464 165.47 65.561 74.922 18.983 145.69 36.91 148.458 56.567 2.171 15.436-38.721 30.595-125.021 46.315-92.557 16.862-136.656 34.118-134.827 52.765 2.223 22.729 69.776 43.987 141.3 66.519 72.336 22.778 147.142 46.335 150.827 71.549 2.434 16.666-26.071 32.551-87.157 48.575l.443.818c34.211-8.967 58.288-17.954 72.479-27.1z" fill="url(#paint1_linear_1132_14625)"/><path d="M465.382 733.842c11.819-7.613 17.09-15.342 15.964-23.295-3.716-26.377-77.874-50.734-149.59-74.278-67.13-22.045-136.537-44.828-138.586-67.413-1.682-18.519 41.206-35.688 131.107-52.506 84.83-15.867 125.006-31.43 122.83-47.597-2.783-20.744-72.914-39.311-147.156-58.979-77.815-20.612-158.303-41.933-162.21-66.478-2.909-18.167 36.256-36.264 119.726-55.329 75.547-17.25 111.583-36.082 110.175-57.565-2.054-31.349-82.722-63.93-168.126-98.404C105.017 93.843 7.303 54.397 3.524 12.542.742-18.185 49.134-46.576 151.451-74.273l-.458-.821C48.26-47.294-.319-18.653 2.498 12.46c3.839 42.42 101.881 82.013 196.71 120.3 85.058 34.334 165.405 66.782 167.421 97.553 1.387 21.085-34.465 39.678-109.57 56.831-83.942 19.166-123.296 37.528-120.316 56.125 4.033 25.195 84.881 46.609 163.076 67.321 73.834 19.552 143.59 38.023 146.302 58.119 2.111 15.707-37.848 31.021-122.185 46.804-90.37 16.899-133.464 34.325-131.753 53.261 2.099 23.211 68.786 45.102 139.382 68.284 71.371 23.445 145.174 47.669 148.801 73.455 2.384 16.945-25.422 33.008-85.009 49.136l.464.826c32.47-8.815 55.597-17.633 69.561-26.633z" fill="url(#paint2_linear_1132_14625)"/><path d="M458.725 744.049c12.35-7.955 17.872-16.042 16.745-24.385-3.65-26.962-76.835-51.995-147.604-76.223-69.323-23.729-134.801-46.137-136.73-69.229-1.573-18.802 40.327-36.138 128.091-53.015 82.876-15.927 122.143-31.658 120.034-48.087-2.727-21.183-71.859-40.312-145.045-60.565-76.709-21.228-156.037-43.195-159.911-68.283-2.865-18.48 35.368-36.797 116.893-55.972 73.601-17.321 108.773-36.318 107.511-58.089-1.863-32.034-81.616-65.531-166.046-100.98C99.233 89.98 2.612 49.408-.987 6.593c-2.622-31.175 44.57-59.867 144.247-87.72l-.468-.82C42.692-53.974-4.678-25.044-2.012 6.51 1.637 49.898 98.58 90.602 192.33 129.976c84.084 35.319 163.521 68.678 165.353 100.143 1.249 21.372-33.732 40.138-106.903 57.354-81.984 19.285-120.413 37.862-117.482 56.773 3.976 25.737 83.681 47.784 160.768 69.127 72.795 20.145 141.556 39.173 144.197 59.714 2.066 15.986-36.99 31.459-119.394 47.29-88.229 16.952-130.331 34.539-128.733 53.763 1.982 23.713 67.81 46.245 137.511 70.094 70.426 24.108 143.26 49.043 146.833 75.397 2.336 17.229-24.784 33.491-82.9 49.728l.467.815c30.799-8.632 52.953-17.288 66.678-26.125z" fill="url(#paint3_linear_1132_14625)"/><path d="M452.251 754.424c12.9-8.301 18.684-16.771 17.544-25.518-3.582-27.535-75.825-53.291-145.678-78.213-68.465-24.42-133.146-47.485-134.94-71.096-1.452-19.096 39.478-36.607 125.118-53.529 80.971-15.994 119.334-31.884 117.293-48.571-2.652-21.628-70.825-41.329-142.984-62.192-75.646-21.864-153.842-44.471-157.682-70.118-2.812-18.81 34.515-37.334 114.107-56.637 71.702-17.384 106.002-36.554 104.885-58.598-1.661-32.741-80.528-67.175-164.032-103.64C93.469 85.961-2.101 44.226-5.502.422-7.95-31.193 38.037-60.179 135.137-88.197l-.467-.815C37.18-60.879-8.995-31.654-6.508.342c3.441 44.367 99.326 86.236 192.052 126.73 83.161 36.311 161.723 70.62 163.353 102.792 1.107 21.659-33.005 40.585-104.285 57.874-80.057 19.408-117.574 38.197-114.697 57.433 3.923 26.274 82.506 48.989 158.514 70.961 71.776 20.749 139.589 40.347 142.155 61.334 1.985 16.255-36.157 31.89-116.661 47.789-86.109 17.003-127.252 34.756-125.761 54.268 1.847 24.227 66.867 47.418 135.698 71.974 69.518 24.796 141.413 50.433 144.917 77.38 2.275 17.5-24.161 33.948-80.825 50.301l.472.814c29.148-8.438 50.359-16.906 63.827-25.568z" fill="url(#paint4_linear_1132_14625)"/><path d="M445.92 764.971c13.463-8.657 19.523-17.518 18.372-26.699-3.517-28.123-74.84-54.618-143.812-80.238-67.641-25.131-131.534-48.857-133.204-73.02-1.335-19.39 38.637-37.062 122.201-54.032 79.087-16.054 116.565-32.11 114.585-49.068-2.564-22.087-69.803-42.389-140.995-63.87-74.588-22.503-151.716-45.781-155.5-72.011-2.759-19.138 33.677-37.873 111.37-57.298 69.821-17.459 103.287-36.793 102.32-59.101-1.453-33.468-79.477-68.878-162.081-106.361C87.733 81.775-6.821 38.857-10.022-5.98c-2.296-32.053 42.55-61.328 137.073-89.51l-.48-.808C31.662-68.007-13.348-38.486-11.049-6.063-7.803 39.322 87.067 82.374 178.8 124.01c82.32 37.36 160.032 72.631 161.453 105.525.948 21.929-32.328 41.033-101.733 58.384-78.153 19.534-114.773 38.543-111.951 58.089 3.879 26.839 81.373 50.218 156.326 72.844 70.806 21.376 137.68 41.553 140.169 63.006 1.92 16.531-35.361 32.337-113.956 48.296-84.011 17.068-124.197 34.973-122.844 54.771 1.704 24.757 65.934 48.624 133.938 73.877 68.649 25.502 139.642 51.871 143.072 79.412 2.22 17.78-23.555 34.417-78.787 50.889l.476.808c27.518-8.177 47.779-16.466 60.957-24.939z" fill="url(#paint5_linear_1132_14625)"/><path d="M440.187 776.32c14.043-9.036 20.384-18.288 19.213-27.926-3.453-28.751-73.907-56.028-142.041-82.41-66.862-25.885-130.012-50.34-131.547-75.056-1.217-19.679 37.804-37.523 119.29-54.53 77.193-16.113 113.796-32.337 111.895-49.573-2.494-22.572-68.841-43.496-139.098-65.643-73.588-23.2-149.684-47.193-153.438-74.016-2.712-19.467 32.821-38.425 108.636-57.975 67.943-17.51 100.57-37.002 99.74-59.601-1.256-34.214-78.493-70.666-160.258-109.253C82.085 77.606-11.529 33.427-14.541-12.482c-2.137-32.5 41.534-62.074 133.492-90.408l-.485-.802C26.12-75.234-17.721-45.429-15.567-12.564c3.054 46.451 96.98 90.775 187.801 133.647 81.452 38.439 158.392 74.75 159.615 108.414.816 22.22-31.621 41.483-99.162 58.891-76.266 19.653-111.989 38.876-109.224 58.752 3.834 27.429 80.293 51.539 154.234 74.852 69.864 22.03 135.863 42.835 138.279 64.789 1.861 16.816-34.547 32.776-111.263 48.796-81.947 17.102-121.172 35.183-119.927 55.268 1.566 25.316 65.05 49.897 132.277 75.918 67.816 26.259 137.944 53.404 141.321 81.591 2.167 18.06-22.936 34.903-76.738 51.474l.48.808c25.917-7.985 45.215-16.053 58.061-24.316z" fill="url(#paint6_linear_1132_14625)"/><path d="M434.887 788.171c14.624-9.41 21.256-19.089 20.078-29.187-3.406-29.406-73.025-57.494-140.356-84.668-66.126-26.671-128.58-51.873-129.983-77.193-1.097-19.983 36.982-37.98 116.407-55.032 75.334-16.171 111.059-32.548 109.226-50.076-2.417-23.077-67.916-44.651-137.262-67.496-72.628-23.935-147.737-48.677-151.454-76.118-2.676-19.804 31.964-38.992 105.923-58.651 66.078-17.567 97.855-37.221 97.161-60.092-1.067-35.008-77.551-72.541-158.539-112.273C76.418 73.375-16.32 27.868-19.162-19.152c-1.99-32.958 40.502-62.825 129.928-91.318l-.496-.813C20.469-82.675-22.206-52.564-20.186-19.255-17.308 28.3 75.717 73.949 165.686 118.11c80.68 39.587 156.882 76.982 157.915 111.436.692 22.5-30.905 41.926-96.587 59.392-74.387 19.779-109.213 39.226-106.489 59.439 3.797 28.039 79.255 52.909 152.235 76.947 68.962 22.722 134.103 44.178 136.472 66.638 1.789 17.109-33.735 33.23-108.607 49.306-79.867 17.149-118.151 35.383-117.032 55.764 1.431 25.899 64.21 51.234 130.69 78.053 67.02 27.045 136.304 55.007 139.646 83.852 2.123 18.348-22.315 35.375-74.714 52.069l.496.811c24.34-7.762 42.679-15.606 55.176-23.646z" fill="url(#paint7_linear_1132_14625)"/><path d="M429.737 800.249c15.236-9.809 22.148-19.924 20.975-30.513-3.343-30.073-72.185-59.008-138.738-86.98-65.417-27.494-127.207-53.459-128.462-79.378-.971-20.283 36.163-38.454 113.569-55.541 73.494-16.227 108.36-32.77 106.596-50.57-2.341-23.593-67.016-45.852-135.481-69.397-71.713-24.668-145.86-50.174-149.529-78.251-2.636-20.156 31.131-39.562 103.235-59.348 64.244-17.63 95.2-37.45 94.648-60.578-.859-35.81-76.655-74.46-156.891-115.387C70.789 68.99-21.088 22.124-23.762-26.054c-1.854-33.402 39.506-63.564 126.427-92.204l-.506-.807C14.876-90.297-26.66-59.902-24.791-26.151c2.7 48.704 94.883 95.71 184.028 141.18 79.936 40.766 155.43 79.281 156.292 114.551.551 22.767-30.225 42.359-94.083 59.884-72.543 19.898-106.497 39.564-103.804 60.117 3.744 28.68 78.246 54.314 150.292 79.094 68.106 23.421 132.427 45.553 134.707 68.546 1.73 17.389-32.948 33.682-105.981 49.814-77.838 17.179-115.182 35.582-114.184 56.262 1.293 26.503 63.4 52.605 129.159 80.25 66.259 27.85 134.766 56.649 138.058 86.16 2.076 18.642-21.705 35.872-72.698 52.674l.505.805c22.756-7.548 40.131-15.151 52.237-22.937z" fill="url(#paint8_linear_1132_14625)"/><path d="M424.731 812.494c15.87-10.215 23.095-20.78 21.9-31.875-3.291-30.759-71.344-60.548-137.174-89.355-64.737-28.323-125.898-55.084-127.008-81.623-.865-20.58 35.375-38.911 110.781-56.042 71.679-16.287 105.71-32.994 104.015-51.081-2.253-24.125-66.129-47.062-133.752-71.339-70.81-25.424-144.028-51.705-147.657-80.441-2.585-20.495 30.327-40.136 100.622-60.048 62.44-17.681 92.589-37.649 92.155-61.051-.665-36.644-75.775-76.431-155.306-118.566C65.204 64.401-25.884 16.141-28.366-33.227-30.069-67.066 10.161-97.52 94.619-126.32l-.519-.8C9.28-98.195-31.112-67.512-29.39-33.324c2.514 49.873 93.887 98.29 182.256 145.098 79.227 41.98 154.071 81.627 154.71 117.739.417 23.039-29.551 42.784-91.605 60.36-70.714 20.025-103.813 39.921-101.183 60.805 3.707 29.324 77.271 55.744 148.419 81.279 67.269 24.149 130.795 46.963 133.002 70.48 1.656 17.677-32.17 34.147-103.399 50.33-75.827 17.231-112.266 35.798-111.382 56.756 1.127 27.115 62.599 54.016 127.674 82.484 65.524 28.672 133.274 58.321 136.493 88.531 2.027 18.93-21.11 36.341-70.723 53.27l.513.798c21.225-7.217 37.644-14.575 49.346-22.112z" fill="url(#paint9_linear_1132_14625)"/><path d="M419.888 824.96c16.514-10.639 24.043-21.672 22.852-33.303-3.228-31.465-70.548-62.125-135.66-91.766-64.099-29.196-124.65-56.756-125.599-83.941-.727-20.862 34.604-39.361 108.033-56.539 69.898-16.351 103.093-33.227 101.478-51.592-2.168-24.677-65.28-48.306-132.082-73.318-69.948-26.184-142.281-53.274-145.872-82.688-2.529-20.835 29.529-40.707 98.039-60.746 60.649-17.744 89.998-37.876 89.717-61.528-.433-37.488-74.914-78.453-153.775-121.831C59.666 59.652-30.67 9.96-32.968-40.627c-1.546-34.267 37.565-65.006 119.59-93.969l-.52-.8C3.73-106.315-35.547-75.351-33.992-40.739-31.675 10.34 58.93 60.187 146.562 108.39c78.56 43.213 152.773 84.038 153.197 121.007.271 23.302-28.897 43.206-89.167 60.832-68.913 20.161-101.156 40.272-98.569 61.509 3.648 29.995 76.33 57.203 146.603 83.52 66.468 24.886 129.24 48.39 131.353 72.466 1.563 17.962-31.428 34.596-100.876 50.844-73.845 17.281-109.371 36.011-108.63 57.252.974 27.745 61.828 55.456 126.254 84.793 64.811 29.511 131.839 60.034 135.006 90.963 1.977 19.205-20.531 36.824-68.794 53.858l.529.797c19.7-6.937 35.154-14.015 46.42-21.272z" fill="url(#paint10_linear_1132_14625)"/><path d="M415.203 837.659c17.189-11.075 25.033-22.579 23.841-34.773-3.158-32.193-69.782-63.743-134.221-94.257-63.495-30.068-123.456-58.464-124.251-86.304-.595-21.158 33.862-39.816 105.341-57.029 68.126-16.422 100.507-33.46 98.984-52.11-2.059-25.237-64.44-49.573-130.484-75.351-69.126-26.984-140.607-54.877-144.135-84.998-2.481-21.188 28.755-41.28 95.498-61.455 58.884-17.806 87.441-38.073 87.309-61.969-.215-38.361-74.099-80.528-152.315-125.191C54.106 54.742-35.517 3.584-37.619-48.238c-1.398-34.694 36.623-65.716 116.267-94.825l-.529-.795C-1.856-114.611-40.04-83.376-38.634-48.348c2.123 52.325 92.007 103.645 178.937 153.26 77.929 44.485 151.546 86.518 151.759 124.369.133 23.554-28.253 43.599-86.776 61.294-67.142 20.296-98.559 40.647-96.035 62.209 3.597 30.681 75.401 58.721 144.855 85.822 65.693 25.635 127.745 49.854 129.756 74.504 1.495 18.248-30.691 35.05-98.387 51.367-71.894 17.322-106.541 36.209-105.938 57.737.809 28.393 61.073 56.934 124.881 87.155 64.147 30.377 130.464 61.783 133.578 93.457 1.914 19.491-19.962 37.313-66.877 54.463l.528.796c18.271-6.685 32.757-13.472 43.556-20.426z" fill="url(#paint11_linear_1132_14625)"/><path d="M410.654 850.552c17.874-11.519 26.058-23.521 24.855-36.278-3.094-32.93-69.037-65.403-132.818-96.797-62.911-30.977-122.325-60.223-122.933-88.738-.451-21.435 33.134-40.241 102.687-57.524 66.395-16.489 97.958-33.702 96.527-52.618-1.962-25.81-63.626-50.886-128.919-77.438-68.318-27.782-138.974-56.519-142.447-87.341-2.419-21.518 27.989-41.859 92.993-62.16 57.154-17.857 84.944-38.268 84.946-62.406.014-39.254-73.297-82.656-150.901-128.622C48.626 49.698-40.316-2.973-42.219-56.08c-1.258-35.106 35.705-66.405 112.984-95.675l-.56-.807C-7.406-123.155-44.52-91.633-43.25-56.207-41.339-2.61 47.873 50.215 134.135 101.301c77.342 45.795 150.386 89.057 150.375 127.811-.011 23.797-27.619 43.984-84.413 61.732-65.391 20.429-95.973 41.008-93.52 62.907 3.533 31.387 74.508 60.243 143.152 88.162 64.951 26.412 126.306 51.364 128.21 76.588 1.401 18.529-29.978 35.504-95.943 51.882-69.966 17.375-103.741 36.416-103.273 58.211.617 29.068 60.339 58.463 123.568 89.593 63.505 31.26 129.15 63.582 132.192 96.004 1.854 19.767-19.412 37.774-65.017 55.051l.536.785c16.823-6.361 30.353-12.835 40.652-19.475z" fill="url(#paint12_linear_1132_14625)"/><path d="M406.248 863.683c18.59-11.981 27.111-24.507 25.918-37.859-3.026-33.706-68.333-67.106-131.472-99.412-62.357-31.892-121.247-62.023-121.682-91.236-.316-21.697 32.418-40.68 100.071-57.995 64.668-16.556 95.455-33.942 94.123-53.135-1.844-26.41-62.841-52.229-127.416-79.58-67.56-28.617-137.424-58.194-140.824-89.754-2.354-21.863 27.261-42.429 90.535-62.88 55.449-17.914 82.461-38.467 82.621-62.82.246-40.167-72.522-84.839-149.575-132.15C43.137 44.421-45.157-9.8-46.856-64.224c-1.102-35.5 34.797-67.084 109.757-96.515l-.558-.792c-75.288 29.563-111.335 61.353-110.222 97.174 1.71 54.897 90.286 109.283 175.92 161.868 76.785 47.142 149.307 91.68 149.069 131.347-.147 24.019-27.002 44.357-82.089 62.165-63.674 20.567-93.452 41.378-91.051 63.612 3.459 32.115 73.639 61.831 141.505 90.577 64.252 27.204 124.93 52.9 126.731 78.728 1.318 18.813-29.277 35.949-93.534 52.397-68.054 17.422-100.975 36.619-100.656 58.687.43 29.743 59.615 60.025 122.277 92.082 62.88 32.16 127.896 65.423 130.884 98.619 1.799 20.042-18.86 38.246-63.166 55.645l.557.792c15.346-6.028 27.906-12.181 37.68-18.48z" fill="url(#paint13_linear_1132_14625)"/><path d="M402 877.063c19.316-12.45 28.193-25.501 26.995-39.481-2.958-34.493-67.644-68.852-130.201-102.082-61.84-32.851-120.24-63.888-120.467-93.803-.176-21.97 31.727-41.087 97.509-58.474 62.974-16.633 92.981-34.176 91.754-53.645-1.731-27.005-62.07-53.596-125.968-81.761-66.833-29.457-135.935-59.914-139.263-92.221-2.293-22.204 26.527-42.993 88.109-63.586 53.757-17.976 80.044-38.654 80.327-63.222.485-41.098-71.786-87.082-148.3-135.772C37.673 39.034-50.051-16.778-51.545-72.562c-.966-35.901 33.891-67.741 106.571-97.338l-.567-.786c-72.982 29.731-108.002 61.785-107.037 97.993 1.51 56.247 89.46 112.225 174.53 166.355 76.255 48.529 148.282 94.359 147.801 134.971-.284 24.242-26.388 44.711-79.824 62.572-61.961 20.711-90.959 41.753-88.628 64.328 3.391 32.858 72.809 63.448 139.939 93.046 63.57 28.014 123.598 54.47 125.295 80.921 1.212 19.085-28.605 36.398-91.169 52.923-66.17 17.482-98.258 36.828-98.086 59.154.244 30.453 58.923 61.639 121.067 94.65 62.29 33.089 126.704 67.313 129.61 101.289 1.748 20.316-18.334 38.71-61.347 56.228l.572.786c14.013-5.716 25.603-11.525 34.818-17.467z" fill="url(#paint14_linear_1132_14625)"/><path d="M397.887 890.657c20.064-12.937 29.303-26.539 28.113-41.164-2.893-35.289-66.972-70.634-128.961-104.82-61.35-33.832-119.282-65.791-119.322-96.446-.024-22.228 31.054-41.506 94.99-58.929 61.301-16.707 90.542-34.414 89.406-54.148-1.601-27.628-61.331-55.017-124.569-84.008-66.123-30.32-134.506-61.67-137.755-94.751-2.23-22.535 25.827-43.567 85.737-64.3 52.105-18.034 77.641-38.843 78.072-63.62.73-42.063-71.073-89.39-147.085-139.497C32.225 33.412-54.92-24.042-56.21-81.211c-.826-36.279 33.024-68.38 103.439-98.14l-.576-.78c-70.737 29.892-104.721 62.202-103.895 98.794 1.304 57.622 88.693 115.23 173.201 170.944 75.757 49.949 147.32 97.118 146.607 138.703-.421 24.464-25.795 45.058-77.566 62.97-60.287 20.86-88.495 42.132-86.238 65.024 3.315 33.615 72.001 65.116 138.421 95.572 62.91 28.839 122.337 56.084 123.904 83.157 1.122 19.355-27.944 36.834-88.849 53.431-64.317 17.531-95.577 37.032-95.553 59.602.034 31.175 58.251 63.293 119.885 97.282 61.722 34.046 125.542 69.245 128.406 104.043 1.686 20.577-17.809 39.17-59.556 56.816l.576.78c12.642-5.334 23.27-10.773 31.891-16.33z" fill="url(#paint15_linear_1132_14625)"/><path d="M393.91 904.509c20.834-13.437 30.463-27.604 29.263-42.896-2.817-36.111-66.35-72.464-127.78-107.626-60.878-34.838-118.391-67.748-118.22-99.155.124-22.472 30.378-41.905 92.506-59.378 59.661-16.788 88.147-34.659 87.117-54.657-1.455-28.271-60.595-56.457-123.208-86.313-65.452-31.202-133.133-63.474-136.317-97.355-2.16-22.867 25.128-44.137 83.398-65.013 50.47-18.084 75.28-39.019 75.848-63.989.973-43.037-70.387-91.744-145.929-143.313C26.803 27.632-59.822-31.504-60.916-90.087c-.685-36.645 32.147-69.014 100.366-98.936l-.59-.773c-68.52 30.055-101.497 62.626-100.8 99.575 1.11 59.043 87.964 118.325 171.964 175.665 75.295 51.401 146.429 99.941 145.47 142.521-.558 24.647-25.206 45.37-75.356 63.34-58.631 21.017-86.08 42.513-83.894 65.737 3.239 34.408 71.212 66.816 136.956 98.16 62.294 29.699 121.138 57.753 122.562 85.464 1.012 19.624-27.292 37.272-86.564 53.945-62.497 17.59-92.935 37.232-93.055 60.045-.181 31.924 57.601 64.993 118.764 99.984 61.185 35.013 124.455 71.221 127.24 106.856 1.625 20.844-17.275 39.62-57.806 57.395l.589.773c11.336-4.946 20.98-9.998 28.98-15.155z" fill="url(#paint16_linear_1132_14625)"/><path d="M390.086 918.64c21.646-13.958 31.639-28.706 30.457-44.703-2.753-36.957-65.75-74.346-126.666-110.496-60.442-35.88-117.544-69.768-117.152-101.949.274-22.711 29.742-42.28 90.058-59.819 58.031-16.873 85.792-34.904 84.863-55.163-1.315-28.93-59.891-57.958-121.909-88.676-64.808-32.109-131.826-65.321-134.927-100.011-2.083-23.204 24.449-44.709 81.09-65.731 48.868-18.144 72.965-39.19 73.66-64.337 1.218-44.037-69.729-94.163-144.839-147.228C21.417 21.677-64.719-39.18-65.627-99.241c-.553-37.004 31.288-69.63 97.332-99.71l-.594-.767C-35.24-169.503-67.217-136.683-66.65-99.374c.914 60.496 87.266 121.507 170.794 180.512 74.867 52.887 145.589 102.852 144.382 146.442-.684 24.848-24.623 45.679-73.175 63.709-57.007 21.168-83.685 42.896-81.577 66.453 3.152 35.222 70.457 68.572 135.541 100.815 61.715 30.573 119.993 59.45 121.287 87.848.911 19.895-26.668 37.703-84.309 54.461-60.688 17.641-90.328 37.428-90.609 60.472-.4 32.686 56.966 66.73 117.688 102.769 60.674 36.011 123.417 73.253 126.145 109.748 1.558 21.105-16.781 40.069-56.076 57.971l.598.767c10.027-4.582 18.714-9.222 26.047-13.953z" fill="url(#paint17_linear_1132_14625)"/><path d="M386.381 932.989c22.462-14.49 32.849-29.838 31.675-46.558-2.678-37.819-65.167-76.27-125.59-113.445-60.039-36.947-116.742-71.832-116.136-104.81.428-22.946 29.095-42.649 87.653-60.241 56.417-16.941 83.455-35.147 82.635-55.65-1.172-29.603-59.205-59.475-120.653-91.1-64.208-33.04-130.578-67.205-133.606-102.742-2-23.527 23.786-45.258 78.836-66.441 47.295-18.204 70.685-39.352 71.505-64.67 1.457-45.071-69.101-96.643-143.794-151.237C16.042 15.525-69.637-47.095-70.349-108.647c-.435-37.355 30.43-70.228 94.349-100.466l-.608-.761c-64.214 30.383-95.21 63.45-94.765 101.093.72 61.984 86.624 124.77 169.697 185.483 74.473 54.442 144.819 105.842 143.373 150.47-.802 25.023-24.043 45.963-71.033 64.049-55.392 21.316-81.329 43.28-79.306 67.146 3.065 36.046 69.736 70.367 134.205 103.544 61.145 31.479 118.899 61.202 120.052 90.279.798 20.139-26.06 38.116-82.091 54.949-58.914 17.696-87.759 37.613-88.188 60.901-.626 33.47 56.338 68.517 116.658 105.627 60.189 37.03 122.428 75.323 125.087 112.694 1.519 21.358-16.263 40.511-54.373 58.537l.607.76c8.721-4.159 16.427-8.383 23.066-12.669z" fill="url(#paint18_linear_1132_14625)"/><path d="M382.834 947.641c23.3-15.034 34.104-31.011 32.931-48.483-2.62-38.708-64.629-78.242-124.572-116.469-59.664-38.035-116.014-73.96-115.172-107.749.575-23.169 28.476-43.007 85.29-60.638 54.832-17.024 81.145-35.39 80.459-56.134-1.024-30.302-58.557-61.046-119.458-93.595-63.61-33.996-129.393-69.145-132.325-105.547-1.933-23.853 23.139-45.81 76.608-67.145 45.749-18.252 68.451-39.506 69.381-64.988 1.695-46.119-68.499-99.177-142.828-155.358C10.688 9.211-74.57-55.235-75.113-118.314c-.325-37.699 29.583-70.8 91.418-101.207l-.627-.763c-62.11 30.537-92.15 63.848-91.826 101.827C-75.609-54.955 9.86 9.65 92.519 72.129c74.112 56.008 144.097 108.918 142.414 154.595-.927 25.189-23.469 46.243-68.925 64.369-53.812 21.463-79.018 43.661-77.068 67.844 2.979 36.905 69.04 72.202 132.912 106.335 60.607 32.397 117.867 62.997 118.872 92.777.686 20.403-25.462 38.532-79.923 55.444-57.164 17.751-85.247 37.802-85.826 61.294-.843 34.278 55.754 70.367 115.673 108.563 59.726 38.09 121.494 77.465 124.081 115.727 1.468 21.618-15.786 40.943-52.694 59.101l.627.762c7.535-3.724 14.254-7.482 20.172-11.299z" fill="url(#paint19_linear_1132_14625)"/><path d="M379.403 962.563c24.171-15.598 35.4-32.208 34.219-50.472-2.562-39.627-64.099-80.266-123.612-119.574-59.298-39.165-115.321-76.166-114.256-110.793.718-23.383 27.863-43.346 82.957-61.036 53.271-17.11 78.885-35.619 78.293-56.614-.868-31.012-57.909-62.657-118.305-96.149-63.046-34.972-128.25-71.143-131.114-108.42-1.854-24.172 22.491-46.367 74.42-67.845 44.238-18.305 66.252-39.66 67.3-65.287 1.935-47.188-67.938-101.782-141.916-159.575C5.304 2.673-79.555-63.632-79.93-128.291c-.208-38.027 28.74-71.371 88.54-101.931l-.638-.757c-60.066 30.701-89.145 64.238-88.926 102.554C-80.58-63.358 4.49 3.11 86.77 67.385c73.771 57.63 143.443 112.06 141.528 158.829-1.04 25.338-22.9 46.488-66.853 64.669-52.25 21.628-76.743 44.036-74.867 68.537 2.899 37.772 68.361 74.085 131.665 109.203 60.107 33.335 116.884 64.824 117.734 95.334.579 20.651-24.864 38.938-77.776 55.923-55.446 17.793-82.752 37.982-83.49 61.68-1.078 35.099 55.181 72.259 114.746 111.594 59.293 39.156 120.606 79.645 123.13 118.826 1.412 21.854-15.29 41.373-51.053 59.651l.637.756c6.344-3.219 12.081-6.501 17.232-9.824z" fill="url(#paint20_linear_1132_14625)"/><path d="M376.123 977.771c25.069-16.175 36.708-33.448 35.531-52.529-2.506-40.555-63.606-82.34-122.699-122.737-58.983-40.328-114.691-78.423-113.394-113.894.869-23.578 27.249-43.67 80.666-61.419 51.736-17.18 76.669-35.855 76.182-57.083-.699-31.749-57.292-64.314-117.193-98.786-62.52-35.977-127.179-73.185-129.94-111.378-1.773-24.48 21.857-46.9 72.249-68.537 42.74-18.36 64.093-39.805 65.251-65.566 2.164-48.294-67.401-104.456-141.065-163.912C-.012-4.042-84.534-72.26-84.747-138.532c-.13-38.35 27.895-71.926 85.691-102.649l-.645-.752c-58.035 30.861-86.193 64.647-86.06 103.261C-85.537-72.005-.838-3.619 81.074 62.5c73.453 59.293 142.832 115.294 140.677 163.161-1.138 25.481-22.351 46.732-64.807 64.963-50.713 21.786-74.49 44.425-72.685 69.228 2.805 38.681 67.715 76.027 130.488 112.147 59.637 34.316 115.949 66.718 116.647 97.967.468 20.884-24.293 39.337-75.668 56.411-53.75 17.85-80.298 38.15-81.176 62.045-1.323 35.955 54.624 74.204 113.85 114.706 58.875 40.259 119.76 81.887 122.239 122.006 1.368 22.107-14.799 41.798-49.424 60.217l.651.749a193.557 193.557 0 0014.257-8.329z" fill="url(#paint21_linear_1132_14625)"/><path d="M372.959 993.279c25.989-16.77 38.086-34.727 36.901-54.662-2.448-41.514-63.138-84.456-121.837-125.993-58.683-41.524-114.109-80.742-112.562-117.105 1.008-23.78 26.65-43.976 78.407-61.777 50.225-17.263 74.46-36.082 74.109-57.536-.55-32.508-56.686-66.009-116.135-101.48-62.021-37.003-126.149-75.281-128.839-114.41-1.7-24.797 21.24-47.441 70.131-69.236 41.293-18.404 61.971-39.931 63.223-65.834 2.392-49.41-66.9-107.174-140.262-168.342C-5.313-10.963-89.489-81.148-89.574-149.066c-.045-38.658 27.08-72.467 82.893-103.359l-.66-.745c-56.066 31.026-83.306 65.033-83.259 103.954.086 68.31 84.447 138.649 166.04 206.668 73.16 60.998 142.267 118.606 139.896 167.612-1.238 25.614-21.778 46.959-62.792 65.243-49.202 21.933-72.274 44.804-70.559 69.916 2.717 39.6 67.102 78.02 129.369 115.176 59.184 35.316 115.071 68.669 115.614 100.672.343 21.12-23.728 39.727-73.604 56.871-52.077 17.916-77.903 38.321-78.906 62.412-1.561 36.83 54.08 76.201 113.014 117.893 58.486 41.388 118.967 84.187 121.405 125.276 1.322 22.337-14.333 42.217-47.827 60.758l.66.749c3.974-2.241 7.748-4.488 11.249-6.751z" fill="url(#paint22_linear_1132_14625)"/><path d="M369.941 1009.08c26.936-17.381 39.482-36.049 38.302-56.861-2.414-42.494-62.714-86.63-121.036-129.313-58.4-42.742-113.571-83.125-111.783-120.379 1.135-23.961 26.052-44.282 76.19-62.126 48.733-17.348 72.298-36.315 72.05-57.992-.372-33.275-56.112-67.757-115.137-104.254-61.543-38.06-125.165-77.415-127.778-117.504-1.634-25.104 20.61-47.976 68.035-69.915 39.871-18.454 59.897-40.077 61.242-66.088 2.607-50.549-66.435-109.977-139.524-172.885C-10.613-18.052-94.488-90.242-94.461-159.845c.018-38.952 26.228-72.998 80.142-104.054l-.678-.732c-54.142 31.187-80.47 65.42-80.49 104.636-.038 69.985 84.018 142.327 165.302 212.29 72.903 62.752 141.764 122.013 139.18 172.163-1.325 25.735-21.221 47.161-60.827 65.489-47.71 22.098-70.097 45.184-68.455 70.588 2.629 40.548 66.507 80.069 128.292 118.273 58.755 36.337 114.249 70.651 114.617 103.447.241 21.341-23.167 40.092-71.559 57.328-50.437 17.966-75.515 38.483-76.683 62.741-1.801 37.715 53.584 78.246 112.207 121.169 58.114 42.54 118.214 86.521 120.614 128.606 1.281 22.57-13.85 42.624-46.266 61.301l.669.73c2.931-1.67 5.706-3.35 8.337-5.05z" fill="url(#paint23_linear_1132_14625)"/><path d="M367.029 1025.19c27.926-18.02 40.939-37.412 39.73-59.161-2.387-43.492-62.325-88.847-120.282-132.72-58.149-44.015-113.066-85.577-111.049-123.764 1.275-24.13 25.48-44.548 74.007-62.446 47.251-17.435 70.162-36.542 70.033-58.423-.202-34.072-55.561-69.533-114.164-107.099-61.087-39.14-124.26-79.627-126.775-120.701-1.558-25.406 20.013-48.495 65.979-70.598 38.473-18.504 57.86-40.2 59.274-66.319 2.804-51.71-65.993-112.826-138.85-177.524C-15.92-25.372-99.514-99.622-99.378-170.95c.073-39.255 25.402-73.514 77.431-104.739l-.687-.726c-52.255 31.372-77.697 65.813-77.771 105.316-.136 71.702 83.637 146.1 164.653 218.051 72.668 64.547 141.307 125.497 138.516 176.81-1.407 25.851-20.664 47.35-58.873 65.727-46.248 22.243-67.975 45.556-66.388 71.27 2.55 41.529 65.956 82.157 127.277 121.451 58.356 37.398 113.467 72.712 113.672 106.313.138 21.563-22.62 40.46-69.548 57.761-48.822 18.014-73.192 38.638-74.479 63.066-2.048 38.627 53.096 80.36 111.462 124.542 57.761 43.718 117.506 88.932 119.866 132.022 1.254 22.807-13.365 43.016-44.71 61.846l.687.72c1.817-1.07 3.59-2.19 5.299-3.29z" fill="url(#paint24_linear_1132_14625)"/><path d="M364.27 1041.63c28.931-18.68 42.411-38.82 41.211-61.522-2.37-44.524-61.957-91.137-119.573-136.212-57.917-45.304-112.613-88.106-110.358-127.227 1.397-24.285 24.903-44.822 71.85-62.759 45.815-17.509 68.072-36.765 68.047-58.855-.036-34.886-55.031-71.38-113.267-110.027-60.657-40.26-123.377-81.885-125.828-123.972-1.49-25.693 19.426-49.001 63.948-71.272 37.109-18.558 55.874-40.319 57.352-66.541 2.991-52.909-65.611-115.761-138.244-182.297C-21.193-32.901-104.54-109.26-104.328-182.34c.112-39.546 24.587-74.034 74.759-105.408l-.696-.719c-50.421 31.533-74.966 66.192-75.089 105.977-.205 73.451 83.297 149.959 164.067 223.945 72.463 66.383 140.898 129.074 137.916 181.587-1.476 25.959-20.103 47.542-56.963 65.971-44.81 22.405-65.862 45.94-64.35 71.932 2.465 42.531 65.425 84.31 126.305 124.712 57.984 38.48 112.744 74.813 112.78 109.245.025 21.777-22.075 40.813-67.57 58.208-47.247 18.054-70.904 38.78-72.323 63.361-2.288 39.561 52.629 82.519 110.762 127.991 57.438 44.932 116.835 91.398 119.173 135.52 1.223 23.038-12.888 43.408-43.184 62.368l.696.73c.791-.47 1.553-.96 2.315-1.45z" fill="url(#paint25_linear_1132_14625)"/><path d="M362.356 1057.93c29.479-19.22 43.225-40 41.998-63.513-2.369-45.568-61.616-93.456-118.922-139.763-57.705-46.641-112.218-90.701-109.718-130.787 1.518-24.441 24.324-45.057 69.723-63.057 44.389-17.584 65.999-36.971 66.085-59.26.137-35.728-54.517-73.269-112.39-113.022-60.252-41.391-122.556-84.194-124.936-127.325-1.432-25.979 18.832-49.521 61.972-71.942 35.781-18.603 53.918-40.428 55.456-66.758 3.17-54.118-65.262-118.745-137.701-187.165-80.392-75.93-163.516-154.446-163.25-229.324.141-39.829 23.735-74.53 72.143-106.087l-.704-.713c-48.618 31.691-72.324 66.573-72.451 106.644-.269 75.237 83.014 153.899 163.56 229.98 72.264 68.267 140.52 132.731 137.38 186.468-1.527 26.056-19.544 47.712-55.082 66.186-43.401 22.562-63.79 46.305-62.35 72.594 2.401 43.554 64.928 86.504 125.402 128.056 57.632 39.594 112.063 76.989 111.927 112.241-.085 21.977-21.541 41.159-65.629 58.627-45.702 18.102-68.651 38.931-70.189 63.652-2.518 40.519 52.19 84.729 110.112 131.543 57.129 46.173 116.197 93.913 118.536 139.095 1.215 23.26-12.436 43.84-41.688 62.91l.716.72z" fill="url(#paint26_linear_1132_14625)"/><path d="M362.884 1073.01c28.468-19.36 41.721-40.3 40.518-64.04-2.373-46.633-61.311-95.832-118.318-143.423-57.529-48.018-111.858-93.365-109.134-134.453 1.628-24.576 23.752-45.293 67.636-63.331 42.997-17.664 63.988-37.186 64.167-59.656.306-36.569-54.033-75.204-111.569-116.108-59.873-42.558-121.79-86.579-124.1-130.75-1.374-26.269 18.248-50.017 60.003-72.603 34.48-18.636 52.012-40.539 53.599-66.94 3.326-55.358-64.933-121.801-137.205-192.15C-10.582-27.934-71.649-87.386-99.28-145.753c-31.311-66.11-13.482-120.723 54.499-166.941l-.728-.7c-36.097 24.548-58.44 51.938-66.404 81.398-7.147 26.455-3.326 54.732 11.685 86.433C-72.515-87.031-11.362-27.508 47.769 30.047c72.095 70.187 140.211 136.487 136.9 191.471-1.569 26.141-18.975 47.853-53.222 66.387-42.013 22.722-61.763 46.681-60.366 73.249 2.336 44.602 64.456 88.768 124.539 131.474 57.298 40.73 111.422 79.208 111.119 115.34-.181 22.173-21.031 41.478-63.722 59.025-44.18 18.149-66.445 39.064-68.092 63.919-2.751 41.498 51.775 87.01 109.501 135.198 56.837 47.437 115.607 96.496 117.961 142.75 1.197 23.49-11.96 44.24-40.212 63.45l.709.7z" fill="url(#paint27_linear_1132_14625)"/><path d="M363.582 1088.36c27.47-19.49 40.242-40.61 39.038-64.56-2.399-47.734-61.046-98.27-117.776-147.153-57.361-49.422-111.539-96.107-108.587-138.207 1.729-24.704 23.177-45.513 65.575-63.593 41.625-17.743 61.985-37.388 62.27-60.052.468-37.452-53.583-77.197-110.8-119.275-59.509-43.762-121.056-89.013-123.318-134.28-1.327-26.568 17.66-50.528 58.062-73.274 33.21-18.689 50.139-40.655 51.755-67.129 3.473-56.601-64.641-124.916-136.75-197.228C-15.57-35.167-76.173-95.95-103.974-155.55c-31.482-67.497-14.625-123.138 51.55-170.09l-.738-.694c-66.489 47.172-83.414 103.106-51.755 170.973C-77.045-95.603-16.364-34.762 42.308 24.09c71.959 72.16 139.92 140.318 136.492 196.571-1.611 26.232-18.418 48.007-51.402 66.585-40.66 22.877-59.76 47.056-58.42 73.894 2.288 45.683 64.025 91.096 123.733 134.998 56.99 41.913 110.83 81.494 110.375 118.514-.282 22.371-20.505 41.799-61.824 59.424-42.684 18.199-64.273 39.197-66.031 64.182-2.974 42.504 51.388 89.342 108.937 138.935 56.556 48.739 115.045 99.135 117.427 146.507 1.19 23.71-11.488 44.63-38.76 63.97l.746.69z" fill="url(#paint28_linear_1132_14625)"/><path d="M364.425 1103.96c26.504-19.63 38.808-40.92 37.589-65.08-2.432-48.841-60.825-100.76-117.292-150.962-57.22-50.872-111.264-98.923-108.095-142.048 1.82-24.825 22.608-45.71 63.556-63.832 40.267-17.822 60.031-37.591 60.406-60.426.632-38.351-53.14-79.239-110.083-122.524-59.178-44.988-120.37-91.516-122.589-137.903-1.281-26.841 17.092-51.016 56.161-73.91 31.969-18.751 48.322-40.764 49.958-67.31 3.567-57.891-64.42-128.11-136.416-202.447-58.19-60.1-118.365-122.232-146.321-183.072-31.674-68.916-15.772-125.606 48.604-173.301l-.745-.688c-64.685 47.925-80.652 104.892-48.814 174.169C-81.628-104.377-21.384-42.179 36.87 17.986c71.84 74.185 139.702 144.253 136.145 201.796-1.623 26.322-17.852 48.16-49.613 66.777-39.305 23.046-57.803 47.422-56.497 74.537 2.23 46.791 63.621 93.455 122.995 138.602 56.711 43.12 110.284 83.858 109.665 121.782-.375 22.552-19.981 42.111-59.972 59.815-41.222 18.25-62.143 39.317-63.993 64.423-3.19 43.53 51.034 91.733 108.438 142.782 56.313 50.065 114.536 101.83 116.949 150.33 1.195 23.93-11.011 45.02-37.309 64.51l.747.62z" fill="url(#paint29_linear_1132_14625)"/><path d="M365.411 1119.84c86.636-67.04 1.576-145.037-80.673-220.486-57.1-52.365-111.026-101.822-107.65-145.997 1.903-24.941 22.046-45.907 61.567-64.074 38.939-17.902 58.098-37.784 58.557-60.793.783-39.279-52.733-81.331-109.391-125.854-58.862-46.255-119.734-94.081-121.916-141.611-1.242-27.119 16.504-51.497 54.28-74.57 26.165-15.983 41.361-34.215 46.455-55.738 4.56-19.314.831-40.933-11.395-66.106-22.779-46.895-71.462-98.64-123.007-153.438C-25.556-50.254-85.313-113.766-113.45-175.891c-31.874-70.362-16.94-128.127 45.695-176.585l-.764-.674c-62.915 48.683-77.927 106.732-45.886 177.44 28.212 62.264 88.024 125.85 145.87 187.334 51.49 54.722 100.121 106.415 122.837 153.175 25.465 52.439 14.442 90.841-34.815 120.919-37.992 23.197-55.873 47.802-54.614 75.181 2.197 47.919 63.26 95.906 122.311 142.302 56.452 44.364 109.777 86.26 108.994 125.114-.45 22.726-19.478 42.411-58.145 60.18-39.784 18.293-60.056 39.436-61.986 64.643-3.397 44.584 50.7 94.196 107.976 146.723 81.893 75.104 166.575 152.769 80.622 219.289l.766.69z" fill="url(#paint30_linear_1132_14625)"/></g><defs><linearGradient id="paint0_linear_1132_14625" x1="382.292" y1="-112.507" x2="429.686" y2="807.571" gradientUnits="userSpaceOnUse"><stop stop-color="#BE8143"/><stop offset=".556" stop-color="#8F664E"/><stop offset="1" stop-color="#BB7F44"/></linearGradient><linearGradient id="paint1_linear_1132_14625" x1="372.52" y1="-119.16" x2="418.069" y2="818.917" gradientUnits="userSpaceOnUse"><stop stop-color="#BE8143"/><stop offset=".556" stop-color="#8F664E"/><stop offset="1" stop-color="#BB7F44"/></linearGradient><linearGradient id="paint2_linear_1132_14625" x1="362.89" y1="-126.005" x2="406.434" y2="830.433" gradientUnits="userSpaceOnUse"><stop stop-color="#BE8143"/><stop offset=".556" stop-color="#8F664E"/><stop offset="1" stop-color="#BB7F44"/></linearGradient><linearGradient id="paint3_linear_1132_14625" x1="354.695" y1="-133.271" x2="396.395" y2="841.906" gradientUnits="userSpaceOnUse"><stop stop-color="#BE8143"/><stop offset=".556" stop-color="#8F664E"/><stop offset="1" stop-color="#BB7F44"/></linearGradient><linearGradient id="paint4_linear_1132_14625" x1="346.651" y1="-140.768" x2="386.369" y2="853.498" gradientUnits="userSpaceOnUse"><stop stop-color="#BE8143"/><stop offset=".556" stop-color="#8F664E"/><stop offset="1" stop-color="#BB7F44"/></linearGradient><linearGradient id="paint5_linear_1132_14625" x1="338.726" y1="-148.508" x2="376.327" y2="865.198" gradientUnits="userSpaceOnUse"><stop stop-color="#BE8143"/><stop offset=".556" stop-color="#8F664E"/><stop offset="1" stop-color="#BB7F44"/></linearGradient><linearGradient id="paint6_linear_1132_14625" x1="331.279" y1="-156.449" x2="366.664" y2="877.775" gradientUnits="userSpaceOnUse"><stop stop-color="#BE8143"/><stop offset=".556" stop-color="#8F664E"/><stop offset="1" stop-color="#BB7F44"/></linearGradient><linearGradient id="paint7_linear_1132_14625" x1="324.183" y1="-164.666" x2="357.277" y2="890.845" gradientUnits="userSpaceOnUse"><stop stop-color="#BE8143"/><stop offset=".556" stop-color="#8F664E"/><stop offset="1" stop-color="#BB7F44"/></linearGradient><linearGradient id="paint8_linear_1132_14625" x1="317.218" y1="-173.091" x2="347.863" y2="904.113" gradientUnits="userSpaceOnUse"><stop stop-color="#BE8143"/><stop offset=".556" stop-color="#8F664E"/><stop offset="1" stop-color="#BB7F44"/></linearGradient><linearGradient id="paint9_linear_1132_14625" x1="310.365" y1="-181.804" x2="338.409" y2="917.422" gradientUnits="userSpaceOnUse"><stop stop-color="#BE8143"/><stop offset=".556" stop-color="#8F664E"/><stop offset="1" stop-color="#BB7F44"/></linearGradient><linearGradient id="paint10_linear_1132_14625" x1="303.647" y1="-190.761" x2="328.93" y2="930.943" gradientUnits="userSpaceOnUse"><stop stop-color="#BE8143"/><stop offset=".556" stop-color="#8F664E"/><stop offset="1" stop-color="#BB7F44"/></linearGradient><linearGradient id="paint11_linear_1132_14625" x1="297.069" y1="-199.93" x2="319.448" y2="944.682" gradientUnits="userSpaceOnUse"><stop stop-color="#BE8143"/><stop offset=".556" stop-color="#8F664E"/><stop offset="1" stop-color="#BB7F44"/></linearGradient><linearGradient id="paint12_linear_1132_14625" x1="290.593" y1="-209.356" x2="309.894" y2="958.505" gradientUnits="userSpaceOnUse"><stop stop-color="#BE8143"/><stop offset=".556" stop-color="#8F664E"/><stop offset="1" stop-color="#BB7F44"/></linearGradient><linearGradient id="paint13_linear_1132_14625" x1="284.247" y1="-219.067" x2="300.301" y2="972.528" gradientUnits="userSpaceOnUse"><stop stop-color="#BE8143"/><stop offset=".556" stop-color="#8F664E"/><stop offset="1" stop-color="#BB7F44"/></linearGradient><linearGradient id="paint14_linear_1132_14625" x1="278.014" y1="-228.996" x2="290.677" y2="986.763" gradientUnits="userSpaceOnUse"><stop stop-color="#BE8143"/><stop offset=".556" stop-color="#8F664E"/><stop offset="1" stop-color="#BB7F44"/></linearGradient><linearGradient id="paint15_linear_1132_14625" x1="271.892" y1="-239.228" x2="280.977" y2="1001.08" gradientUnits="userSpaceOnUse"><stop stop-color="#BE8143"/><stop offset=".556" stop-color="#8F664E"/><stop offset="1" stop-color="#BB7F44"/></linearGradient><linearGradient id="paint16_linear_1132_14625" x1="265.877" y1="-249.704" x2="271.211" y2="1015.61" gradientUnits="userSpaceOnUse"><stop stop-color="#BE8143"/><stop offset=".556" stop-color="#8F664E"/><stop offset="1" stop-color="#BB7F44"/></linearGradient><linearGradient id="paint17_linear_1132_14625" x1="259.99" y1="-260.463" x2="261.395" y2="1030.39" gradientUnits="userSpaceOnUse"><stop stop-color="#BE8143"/><stop offset=".556" stop-color="#8F664E"/><stop offset="1" stop-color="#BB7F44"/></linearGradient><linearGradient id="paint18_linear_1132_14625" x1="254.188" y1="-271.471" x2="251.478" y2="1045.29" gradientUnits="userSpaceOnUse"><stop stop-color="#BE8143"/><stop offset=".556" stop-color="#8F664E"/><stop offset="1" stop-color="#BB7F44"/></linearGradient><linearGradient id="paint19_linear_1132_14625" x1="248.51" y1="-282.764" x2="241.529" y2="1060.38" gradientUnits="userSpaceOnUse"><stop stop-color="#BE8143"/><stop offset=".556" stop-color="#8F664E"/><stop offset="1" stop-color="#BB7F44"/></linearGradient><linearGradient id="paint20_linear_1132_14625" x1="242.908" y1="-294.361" x2="231.465" y2="1075.62" gradientUnits="userSpaceOnUse"><stop stop-color="#BE8143"/><stop offset=".556" stop-color="#8F664E"/><stop offset="1" stop-color="#BB7F44"/></linearGradient><linearGradient id="paint21_linear_1132_14625" x1="237.412" y1="-306.24" x2="221.296" y2="1091.12" gradientUnits="userSpaceOnUse"><stop stop-color="#BE8143"/><stop offset=".556" stop-color="#8F664E"/><stop offset="1" stop-color="#BB7F44"/></linearGradient><linearGradient id="paint22_linear_1132_14625" x1="232.017" y1="-318.425" x2="211.041" y2="1106.82" gradientUnits="userSpaceOnUse"><stop stop-color="#BE8143"/><stop offset=".556" stop-color="#8F664E"/><stop offset="1" stop-color="#BB7F44"/></linearGradient><linearGradient id="paint23_linear_1132_14625" x1="226.73" y1="-330.861" x2="200.74" y2="1122.66" gradientUnits="userSpaceOnUse"><stop stop-color="#BE8143"/><stop offset=".556" stop-color="#8F664E"/><stop offset="1" stop-color="#BB7F44"/></linearGradient><linearGradient id="paint24_linear_1132_14625" x1="221.498" y1="-343.641" x2="190.262" y2="1138.75" gradientUnits="userSpaceOnUse"><stop stop-color="#BE8143"/><stop offset=".556" stop-color="#8F664E"/><stop offset="1" stop-color="#BB7F44"/></linearGradient><linearGradient id="paint25_linear_1132_14625" x1="216.393" y1="-356.717" x2="179.736" y2="1155.04" gradientUnits="userSpaceOnUse"><stop stop-color="#BE8143"/><stop offset=".556" stop-color="#8F664E"/><stop offset="1" stop-color="#BB7F44"/></linearGradient><linearGradient id="paint26_linear_1132_14625" x1="211.366" y1="-370.084" x2="169.084" y2="1171.57" gradientUnits="userSpaceOnUse"><stop stop-color="#BE8143"/><stop offset=".556" stop-color="#8F664E"/><stop offset="1" stop-color="#BB7F44"/></linearGradient><linearGradient id="paint27_linear_1132_14625" x1="206.433" y1="-383.765" x2="158.353" y2="1188.32" gradientUnits="userSpaceOnUse"><stop stop-color="#BE8143"/><stop offset=".556" stop-color="#8F664E"/><stop offset="1" stop-color="#BB7F44"/></linearGradient><linearGradient id="paint28_linear_1132_14625" x1="201.58" y1="-397.809" x2="147.401" y2="1205.29" gradientUnits="userSpaceOnUse"><stop stop-color="#BE8143"/><stop offset=".556" stop-color="#8F664E"/><stop offset="1" stop-color="#BB7F44"/></linearGradient><linearGradient id="paint29_linear_1132_14625" x1="196.824" y1="-412.153" x2="136.473" y2="1222.51" gradientUnits="userSpaceOnUse"><stop stop-color="#BE8143"/><stop offset=".556" stop-color="#8F664E"/><stop offset="1" stop-color="#BB7F44"/></linearGradient><linearGradient id="paint30_linear_1132_14625" x1="192.218" y1="-426.934" x2="125.525" y2="1239.99" gradientUnits="userSpaceOnUse"><stop stop-color="#BE8143"/><stop offset=".556" stop-color="#8F664E"/><stop offset="1" stop-color="#BB7F44"/></linearGradient></defs></svg>