<svg width="20" height="20" fill="none" xmlns="http://www.w3.org/2000/svg"><g clip-path="url(#clip0_215_82)" fill="#EDEDED"><path d="M17.558 2.39H2.446A2.448 2.448 0 000 4.835v10.33a2.448 2.448 0 002.446 2.445h15.108A2.448 2.448 0 0020 15.164V4.84a2.445 2.445 0 00-2.442-2.45zm1.329 12.774a1.33 1.33 0 01-1.329 1.329H2.446a1.33 1.33 0 01-1.329-1.329V4.84a1.33 1.33 0 011.329-1.328h15.108a1.33 1.33 0 011.329 1.328v10.325h.004z"/><path d="M12.613 9.871l4.892-4.386a.561.561 0 00.041-.79.561.561 0 00-.79-.042l-6.746 6.054-1.316-1.175c-.004-.004-.008-.008-.008-.012a.827.827 0 00-.09-.079L3.24 4.65a.558.558 0 00-.79.046.558.558 0 00.045.79l4.95 4.424-4.929 4.614a.56.56 0 00.766.82l5.003-4.681 1.357 1.212a.558.558 0 00.745-.004l1.394-1.25 4.975 4.726a.558.558 0 10.77-.811l-4.913-4.664z"/></g><defs><clipPath id="clip0_215_82"><path fill="#fff" d="M0 0h20v20H0z"/></clipPath></defs></svg>