<svg width="39" height="61" fill="none" xmlns="http://www.w3.org/2000/svg"><circle cx="19.75" cy="30.5" r="16.25" fill="#D5A429"/><path d="M19.893 4.425c2.65 0 4.95.35 6.9 1.05 1.95.7 3.575 1.625 4.875 2.775 1.3 1.15 2.25 2.45 2.85 3.9.65 1.45.975 2.95.975 4.5 0 2.5-.775 4.675-2.325 6.525-1.5 1.8-3.525 3.225-6.075 4.275 1.35.45 2.6 1.025 3.75 1.725 1.15.7 2.15 1.525 3 2.475.9.95 1.6 2.05 2.1 3.3.5 1.2.75 2.55.75 4.05 0 2.2-.425 4.175-1.275 5.925-.85 1.75-2.05 3.25-3.6 4.5-1.5 1.25-3.325 2.225-5.475 2.925-2.1.65-4.45.975-7.05.975-2.55 0-4.875-.325-6.975-.975-2.1-.65-3.9-1.575-5.4-2.775-1.5-1.2-2.65-2.625-3.45-4.275-.8-1.65-1.2-3.475-1.2-5.475 0-1.55.225-2.925.675-4.125a9.945 9.945 0 011.875-3.15c.85-.95 1.825-1.775 2.925-2.475 1.15-.7 2.4-1.325 3.75-1.875-2.2-1-4.025-2.4-5.475-4.2-1.45-1.85-2.175-3.975-2.175-6.375 0-1.65.325-3.25.975-4.8.7-1.6 1.725-3.025 3.075-4.275 1.35-1.25 3.025-2.25 5.025-3 2-.75 4.325-1.125 6.975-1.125zm-6.45 12.6c0 1.85.65 3.375 1.95 4.575 1.3 1.15 2.85 2 4.65 2.55 1.6-.6 2.95-1.5 4.05-2.7 1.15-1.2 1.725-2.575 1.725-4.125 0-1.85-.575-3.25-1.725-4.2-1.1-1-2.6-1.5-4.5-1.5s-3.4.55-4.5 1.65c-1.1 1.05-1.65 2.3-1.65 3.75zm5.55 15.075c-1.95.65-3.55 1.6-4.8 2.85-1.25 1.2-1.875 2.75-1.875 4.65 0 1.9.625 3.45 1.875 4.65 1.3 1.15 3.125 1.725 5.475 1.725 2.05 0 3.725-.625 5.025-1.875 1.35-1.3 2.025-2.825 2.025-4.575 0-1.9-.725-3.475-2.175-4.725-1.45-1.25-3.3-2.15-5.55-2.7z" fill="#292A2B"/></svg>