<svg width="38" height="61" fill="none" xmlns="http://www.w3.org/2000/svg"><circle cx="18.75" cy="30.5" r="16.25" fill="#D5A429"/><path d="M3.925 7.8c1.8-1.15 3.725-2 5.775-2.55 2.05-.55 4.4-.825 7.05-.825 2.3 0 4.375.325 6.225.975 1.85.65 3.425 1.55 4.725 2.7 1.35 1.1 2.375 2.4 3.075 3.9.75 1.5 1.125 3.125 1.125 4.875 0 2.95-.775 5.35-2.325 7.2-1.55 1.85-3.4 3.2-5.55 4.05 2.85.6 5.15 1.925 6.9 3.975 1.75 2 2.625 4.425 2.625 7.275 0 2.4-.45 4.475-1.35 6.225-.9 1.75-2.15 3.2-3.75 4.35-1.55 1.15-3.4 2-5.55 2.55-2.15.55-4.45.825-6.9.825-2.55 0-4.975-.25-7.275-.75-2.25-.5-4.225-1.2-5.925-2.1l2.175-7.05c1.55.7 3.05 1.275 4.5 1.725 1.45.4 3.125.6 5.025.6 2.6 0 4.7-.55 6.3-1.65 1.65-1.15 2.475-2.8 2.475-4.95 0-2.1-.75-3.725-2.25-4.875-1.5-1.2-3.7-1.8-6.6-1.8h-5.4v-7.35h3.9c2.8 0 4.975-.6 6.525-1.8 1.55-1.25 2.325-3 2.325-5.25 0-1.95-.675-3.45-2.025-4.5-1.3-1.1-2.9-1.65-4.8-1.65-1.35 0-2.675.2-3.975.6-1.25.4-2.55 1.05-3.9 1.95L3.925 7.8z" fill="#292A2B"/></svg>