<svg width="74" height="120" fill="none" xmlns="http://www.w3.org/2000/svg"><circle cx="36.5" cy="60" r="32.5" fill="#D5A429"/><path d="M33.533 24.15c-3.2 0-6.25.6-9.15 1.8-2.8 1.1-5.8 2.95-9 5.55l-8.25-12.6c3.9-3.2 8.1-5.65 12.6-7.35 4.6-1.8 10-2.7 16.2-2.7 4.8 0 9.05.7 12.75 2.1 3.8 1.4 7 3.35 9.6 5.85 2.6 2.5 4.55 5.45 5.85 8.85 1.4 3.3 2.1 6.95 2.1 10.95 0 6.6-2.35 13.55-7.05 20.85-4.7 7.2-11.45 14.95-20.25 23.25l-9.45 8.85h37.8V105h-57.9l-3.6-13.2 13.5-13.5c5-5 9.2-9.4 12.6-13.2 3.4-3.9 6.15-7.4 8.25-10.5 2.1-3.1 3.6-5.95 4.5-8.55.9-2.6 1.35-5.2 1.35-7.8 0-4.6-1.2-8.1-3.6-10.5-2.3-2.4-5.25-3.6-8.85-3.6z" fill="#EDEDED"/></svg>