<svg width="37" height="60" fill="none" xmlns="http://www.w3.org/2000/svg"><circle cx="18.25" cy="30" r="16.25" fill="#D5A429"/><path d="M16.766 11.575c-1.6 0-3.125.3-4.575.9-1.4.55-2.9 1.475-4.5 2.775l-4.125-6.3c1.95-1.6 4.05-2.825 6.3-3.675 2.3-.9 5-1.35 8.1-1.35 2.4 0 4.525.35 6.375 1.05 1.9.7 3.5 1.675 4.8 2.925a12.014 12.014 0 012.925 4.425c.7 1.65 1.05 3.475 1.05 5.475 0 3.3-1.175 6.775-3.525 10.425-2.35 3.6-5.725 7.475-10.125 11.625l-4.725 4.425h18.9V52H4.691l-1.8-6.6 6.75-6.75c2.5-2.5 4.6-4.7 6.3-6.6 1.7-1.95 3.075-3.7 4.125-5.25 1.05-1.55 1.8-2.975 2.25-4.275.45-1.3.675-2.6.675-3.9 0-2.3-.6-4.05-1.8-5.25-1.15-1.2-2.625-1.8-4.425-1.8z" fill="#292A2B"/></svg>