<svg width="41" height="61" fill="none" xmlns="http://www.w3.org/2000/svg"><circle cx="19.75" cy="30.5" r="16.25" fill="#D5A429"/><path d="M24.629 4.425c1.75 0 3.4.15 4.95.45 1.6.25 3.125.725 4.575 1.425l-2.25 7.5c-1-.55-2.075-.975-3.225-1.275-1.15-.35-2.425-.525-3.825-.525-1.85 0-3.475.325-4.875.975-1.4.6-2.6 1.475-3.6 2.625-.95 1.1-1.7 2.425-2.25 3.975-.55 1.5-.9 3.15-1.05 4.95 1.3-1.2 2.825-2.1 4.575-2.7 1.8-.6 3.65-.9 5.55-.9 2.2 0 4.225.35 6.075 1.05 1.85.7 3.45 1.725 4.8 3.075 1.35 1.35 2.4 3 3.15 4.95.75 1.9 1.125 4.05 1.125 6.45 0 2.5-.4 4.775-1.2 6.825-.8 2.05-1.95 3.825-3.45 5.325-1.5 1.5-3.3 2.675-5.4 3.525-2.1.8-4.425 1.2-6.975 1.2-2.2 0-4.4-.375-6.6-1.125-2.2-.8-4.175-2.1-5.925-3.9-1.75-1.8-3.2-4.15-4.35-7.05-1.1-2.9-1.65-6.475-1.65-10.725 0-4.65.625-8.625 1.875-11.925 1.25-3.3 2.9-6 4.95-8.1 2.05-2.1 4.375-3.625 6.975-4.575 2.65-1 5.325-1.5 8.025-1.5zM13.079 35.55c0 1.45.175 2.825.525 4.125.4 1.25.95 2.35 1.65 3.3.7.95 1.55 1.7 2.55 2.25 1 .5 2.15.75 3.45.75 1.1 0 2.075-.25 2.925-.75.9-.5 1.65-1.175 2.25-2.025a8.397 8.397 0 001.425-2.925c.35-1.1.525-2.275.525-3.525 0-2.85-.675-4.95-2.025-6.3-1.3-1.35-3.1-2.025-5.4-2.025-1.6 0-2.975.325-4.125.975-1.1.6-1.95 1.325-2.55 2.175-.4.5-.7 1.05-.9 1.65-.2.6-.3 1.375-.3 2.325z" fill="#292A2B"/></svg>