<svg width="40" height="61" fill="none" xmlns="http://www.w3.org/2000/svg"><circle cx="19.75" cy="30.5" r="16.25" fill="#D5A429"/><path d="M33.34 5.1v7.725l-16.5.15-1.05 9.45c.7-.1 1.25-.15 1.65-.15h1.725c2.1 0 4.125.3 6.075.9 1.95.55 3.675 1.425 5.175 2.625 1.5 1.15 2.7 2.65 3.6 4.5.9 1.85 1.35 4.05 1.35 6.6 0 2.25-.4 4.375-1.2 6.375-.75 1.95-1.925 3.675-3.525 5.175-1.55 1.5-3.55 2.7-6 3.6-2.45.85-5.325 1.275-8.625 1.275-2.4 0-4.6-.25-6.6-.75s-3.725-1.1-5.175-1.8l2.1-7.275c1.3.6 2.65 1.1 4.05 1.5 1.4.4 2.975.6 4.725.6 3.25 0 5.725-.75 7.425-2.25 1.7-1.5 2.55-3.45 2.55-5.85 0-2.75-.975-4.8-2.925-6.15-1.9-1.35-4.35-2.025-7.35-2.025-1.3 0-2.625.1-3.975.3-1.35.15-2.625.35-3.825.6L9.34 5.25l24-.15z" fill="#292A2B"/></svg>