<svg width="29" height="32" fill="none" xmlns="http://www.w3.org/2000/svg"><path d="M5.067 1.231a2.777 2.777 0 00-2.596-.124l14.006 13.64 4.581-4.47L5.067 1.23zM1.18 2.375A2.69 2.69 0 00.91 3.56v24.943c0 .406.094.806.277 1.171l14-13.674L1.18 2.375zm15.296 14.893L2.493 30.914a2.81 2.81 0 001.163.241c.499.005.99-.124 1.418-.372l15.984-9.058-4.58-4.457zm10.638-3.54l-4.425-2.55L17.767 16l4.929 4.822 4.453-2.52c.402-.239.734-.573.965-.972a2.606 2.606 0 000-2.611 2.703 2.703 0 00-.965-.971l-.035-.02z" fill="#EDEDED"/></svg>