<svg width="1066" height="548" fill="none" xmlns="http://www.w3.org/2000/svg"><path d="M556.216 408.383c7.902-21.45 7.163-36.6-2.081-45.672-32.468-31.864-165.296 16.875-293.764 64-120.129 44.058-244.328 89.638-270.625 61.37-21.826-23.464 23.987-95.366 140.051-219.805 109.315-117.235 152.751-183.84 132.81-203.584-25.41-25.164-146.654 27.116-275.03 82.476-134.607 58.044-273.796 118.047-304.558 88.911-22.953-21.734 16.48-90.704 120.597-210.87C-101.758-84.012-67.788-150.672-92.49-178.564c-35.491-40.11-185.754 4.385-344.805 51.486C-613.27-74.966-795.224-21.097-843.809-73.512c-36.231-39.076 6.318-132.902 130.075-286.835l-1.509-.696C-839.523-206.488-882.079-112.102-845.38-72.496c49.318 53.198 231.895-.887 408.479-53.167 158.411-46.903 308.057-91.214 342.835-51.917 24.228 27.369-9.737 93.481-103.815 202.07-104.689 120.836-144.116 190.403-120.597 212.679 31.649 29.961 171.497-30.331 306.746-88.659 127.697-55.063 248.3-107.06 272.848-82.734 19.388 19.19-24.061 85.191-132.754 201.754C11.713 392.629-34.125 465.109-11.782 489.116c27.08 29.111 146.408-14.676 272.732-61.013 127.84-46.904 260.039-95.409 291.7-64.327 21.02 20.65-3.707 74.15-75.627 163.596l1.503.703c41.349-51.449 67.165-91.16 77.69-119.692z" fill="#EDEDED" fill-opacity=".2"/><path d="M556.826 429.858c8.277-22.429 7.513-38.294-2.137-47.858-32.949-32.665-165.019 13.998-292.741 59.122-119.489 42.236-243.023 85.881-269.69 56.825-21.998-23.981 22.196-95.002 135.057-217.188C233.729 165.588 275.675 99.784 255.531 79.59c-25.762-25.81-146.081 24.573-273.465 77.931-133.561 55.925-271.679 113.773-302.958 83.861-23.243-22.22 14.626-90.464 115.756-208.64C-113.41-74.454-80.881-140.4-105.712-168.852c-35.954-41.214-185.736.991-344.301 45.647-175.445 49.428-356.851 100.532-406.188 46.639-36.495-39.896 3.954-132.791 123.701-284.046l-1.502-.689C-854.23-209.443-894.679-115.981-857.703-75.593c50.02 54.663 232.067 3.387 408.109-46.208 157.93-44.477 307.084-86.509 342.336-46.097 24.37 27.905-8.135 93.296-99.338 199.882-101.702 118.848-139.553 187.676-115.737 210.432 32.123 30.719 170.9-27.405 305.089-83.615C109.461 105.739 229.14 55.615 254.07 80.581c19.572 19.609-22.325 84.822-128.129 199.335C12.471 402.736-31.742 474.354-9.226 498.89c27.436 29.912 146.106-12.047 271.777-56.438 127.088-44.908 258.518-91.349 290.684-59.467 21.26 21.075-2.266 74.088-71.926 162.1l1.503.69c39.021-49.281 63.624-87.766 74.014-115.917z" fill="#EDEDED" fill-opacity=".2"/><path d="M557.861 451.413c8.659-23.439 7.889-40.049-2.204-50.142-33.454-33.503-164.816 11.11-291.842 54.269-118.91 40.388-241.84 82.161-268.877 52.267-22.17-24.511 20.416-94.712 130.161-214.632C228.656 180.024 269.105 115.002 248.745 94.359c-26.113-26.494-145.57 22.041-272.042 73.404-132.557 53.838-269.671 109.523-301.437 78.829-23.538-22.7 12.767-90.241 110.977-206.484 88.893-105.2 119.969-170.444 95.02-199.457-36.403-42.341-185.797-2.458-343.943 39.796-174.995 46.738-355.94 95.076-406.015 39.655-36.773-40.677 1.644-132.698 117.407-281.335l-1.528-.678c-116.243 149.228-154.66 241.804-117.425 282.992 50.765 56.16 232.332 7.68 407.937-39.224 157.505-42.081 306.302-81.81 342.034-40.252 24.493 28.471-6.577 93.18-94.947 197.77-98.771 116.889-135.063 185.009-110.964 208.245 32.64 31.483 170.364-24.455 303.567-78.558C103.156 117.971 221.98 69.7 247.297 95.35c19.776 20.059-20.631 84.496-123.577 197C13.395 412.886-29.21 483.672-6.552 508.743c27.775 30.732 145.89-9.404 270.94-51.879 126.429-42.931 257.144-87.353 289.84-54.596 21.487 21.524-.856 74.045-68.274 160.603l1.54.678c36.711-47.206 60.144-84.434 70.367-112.136z" fill="#EDEDED" fill-opacity=".2"/><path d="M559.307 473.023c9.047-24.492 8.253-41.878-2.26-52.526-33.983-34.402-164.686 8.209-291.097 49.385C142.126 510.221 25.175 548.33-2.23 517.587c-22.32-25.029 18.685-94.411 125.333-212.132 100.717-111.15 139.694-175.439 119.149-196.526-26.5-27.177-145.139 19.492-270.736 68.896-131.646 51.781-267.799 105.311-300.101 73.81-23.809-23.193 10.938-90.05 106.266-204.372 86.054-103.223 115.726-167.777 90.679-197.357-36.865-43.516-185.939-5.912-343.74 33.915-174.639 44.053-355.232 89.626-406.077 32.647-37.026-41.484-.635-132.649 111.211-278.687l-1.54-.665c-112.319 146.66-148.71 238.354-111.217 280.331 51.529 57.737 232.72 12.01 407.955-32.197 157.173-39.642 305.65-77.105 341.862-34.364 24.604 29.025-5.044 93.05-90.599 195.663-95.864 114.968-130.61 182.404-106.247 206.14 33.139 32.313 169.915-21.506 302.219-73.527 124.926-49.14 242.931-95.557 268.624-69.198 20.009 20.502-18.944 84.2-119.094 194.709C14.49 422.997-26.532 492.952-3.727 518.554c28.145 31.568 145.724-6.738 270.213-47.31 125.795-40.98 255.895-83.357 289.12-49.737 21.721 21.98.567 74.051-64.646 159.193l1.533.659c34.531-45.161 56.757-81.121 66.814-108.336z" fill="#EDEDED" fill-opacity=".2"/><path d="M561.193 494.677c9.459-25.57 8.628-43.781-2.335-54.99-34.5-35.288-164.636 5.29-290.486 44.502C145.028 522.631 28.508 558.954.739 527.33c-22.46-25.577 16.979-94.171 120.56-209.687 97.94-109.21 135.464-172.76 114.74-194.284-26.87-27.892-144.757 16.942-269.548 64.381-130.814 49.743-266.043 101.155-298.893 68.822-24.086-23.716 9.151-89.902 101.598-202.339 83.288-101.284 111.537-165.154 86.404-195.276-37.333-44.735-186.149-9.41-343.722 27.985-174.379 41.391-354.72 84.187-406.341 25.595-37.247-42.297-2.883-132.594 105.126-276.113l-1.533-.659C-899.31-220.147-933.687-129.308-895.978-86.512c52.28 59.35 233.212 16.406 408.189-25.115 156.92-37.247 305.169-72.425 341.849-28.465 24.709 29.586-3.535 92.908-86.324 193.607-92.994 113.083-126.22 179.848-101.586 204.101 33.639 33.133 169.533-18.538 300.976-68.514 124.125-47.193 241.39-91.788 267.453-64.715 20.182 20.97-17.299 83.923-114.678 192.499C15.741 433.018-23.741 502.184-.782 528.309c28.502 32.443 145.637-4.065 269.646-42.703 125.241-39.033 254.755-79.409 288.517-44.872 21.924 22.43 1.939 74.032-61.087 157.789l1.539.653c32.394-43.123 53.481-77.808 63.36-104.499z" fill="#EDEDED" fill-opacity=".2"/><path d="M563.465 516.423c9.879-26.679 9.023-45.74-2.42-57.552-35.036-36.194-164.655 2.353-290.001 39.631-122.931 36.551-239.038 71.094-267.22 38.552-22.608-26.118 15.298-93.918 115.88-207.285 95.199-107.282 131.288-170.124 110.361-192.097-27.233-28.638-144.436 14.343-268.513 59.873-129.995 47.704-264.424 97.022-297.816 63.803-24.363-24.24 7.385-89.774 97.004-200.357 80.535-99.38 107.424-162.592 82.223-193.249-37.814-45.992-186.475-12.952-343.857 22.035-174.226 38.725-354.388 78.756-406.829 18.482-37.499-43.079-5.062-132.569 99.11-273.57l-1.546-.634c-104.603 141.567-137.009 231.581-99.109 275.183 53.086 61.007 233.84 20.828 408.626-18.014 156.847-34.857 304.917-67.762 342.071-22.552 24.77 30.14-2.093 92.822-82.155 191.605-90.155 111.23-121.872 177.348-96.985 202.099 34.18 33.983 169.237-15.581 299.879-63.501 123.418-45.265 239.968-88.036 266.419-60.218 20.385 21.432-15.692 83.707-110.293 190.33C17.182 442.97-20.779 511.33 2.291 538.009c28.865 33.348 145.601-1.355 269.178-38.122 124.761-37.099 253.776-75.473 288.067-40.012 22.146 22.885 3.301 74.051-57.564 156.446l1.54.64c30.355-41.009 50.284-74.426 59.953-100.538z" fill="#EDEDED" fill-opacity=".2"/><path d="M567.445 538.668c10.297-27.836 9.422-47.753-2.538-60.193-35.615-37.155-164.834-.647-289.803 34.654-122.629 34.648-238.46 67.362-267.042 33.89-22.75-26.654 13.623-93.684 111.212-204.883 92.446-105.342 127.112-167.488 106.001-189.942-27.652-29.401-144.252 11.744-267.713 55.329-129.317 45.647-263.044 92.846-297.027 58.752-24.647-24.757 5.58-89.644 92.397-198.398 77.813-97.447 103.34-159.987 78.023-191.205-38.331-47.26-186.987-16.542-344.356 15.982-174.195 35.96-354.37 73.194-407.685 11.196-37.752-43.886-7.304-132.545 93.062-271.02l-1.546-.622c-100.784 139.067-131.226 228.237-93.062 272.621 53.956 62.725 234.728 25.361 409.539-10.746 156.766-32.401 304.848-63.003 342.545-16.487 24.893 30.694-.61 92.705-77.961 189.58-87.347 109.381-117.561 174.847-92.403 200.128 34.746 34.869 169.114-12.551 299.053-58.414 122.777-43.332 238.755-84.274 265.637-55.667 20.607 21.899-14.066 83.46-105.933 188.162C19.702 453.212-16.707 520.796 6.517 547.998c29.265 34.291 145.705 1.399 268.999-33.447 124.385-35.134 253-71.482 287.907-35.048 22.368 23.341 4.699 74.081-54.029 155.091l1.546.635c28.286-39.027 47.082-71.101 56.505-96.561z" fill="#EDEDED" fill-opacity=".2"/><path d="M572.574 561.165c10.722-28.988 9.804-49.822-2.655-62.909-36.249-38.134-165.148-3.671-289.822 29.647-122.426 32.745-238.065 63.655-267.103 29.185-22.903-27.214 11.966-93.456 106.58-202.518 89.743-103.439 122.999-164.864 101.672-187.805-28.083-30.202-144.172 9.115-267.084 50.734-128.739 43.578-261.862 88.659-296.455 53.648-24.955-25.275 3.757-89.534 87.821-196.459 75.104-95.537 99.251-157.4 73.835-189.147-38.91-48.592-187.651-20.213-345.138 9.853-174.392 33.262-354.739 67.677-409.002 3.917-38.03-44.693-9.571-132.508 87.028-268.505l-1.573-.625c-97.009 136.561-125.468 224.918-87.02 270.078 54.885 64.48 235.793 29.962 410.77-3.405 156.896-29.943 305.089-58.217 343.358-10.377 25.017 31.224.881 92.569-73.767 187.54-84.544 107.553-113.243 172.378-87.784 198.183 35.344 35.775 169.102-9.497 298.45-53.303 122.235-41.385 237.69-80.486 265.046-51.11 20.816 22.393-12.428 83.239-101.616 186.05C22.978 463.509-11.929 530.305 11.43 558.062c29.697 35.264 145.939 4.194 269.024-28.718 124.095-33.17 252.385-67.454 287.944-30.047 22.614 23.796 6.085 74.087-50.519 153.773l1.571.622c26.285-37.026 43.96-67.757 53.124-92.527z" fill="#EDEDED" fill-opacity=".2"/><path d="M578.159 583.821c11.165-30.208 10.18-51.959-2.796-65.748-36.871-39.15-165.573-6.719-289.994 24.634-122.297 30.817-237.807 59.935-267.276 24.455-23.045-27.775 10.297-93.253 102.005-200.208 87.069-101.555 118.928-162.297 97.41-185.699-28.527-31.015-144.179 6.448-266.586 46.133-128.221 41.558-260.797 84.527-295.999 48.561-25.275-25.817 1.965-89.453 83.258-194.58 72.431-93.666 95.236-154.888 69.745-187.153-39.47-49.952-188.427-23.895-346.123 3.671-174.651 30.553-355.226 62.115-410.487-3.467-38.312-45.469-11.775-132.496 81.109-266.026l-1.58-.606c-93.262 134.099-119.8 221.643-81.093 267.592 55.858 66.304 237.018 34.612 412.223 3.985 157.099-27.473 305.483-53.401 344.381-4.219 25.102 31.754 2.309 92.459-69.684 185.564-81.798 105.755-109.025 169.958-83.246 196.28 35.954 36.742 169.17-6.424 297.983-48.179 121.767-39.476 236.778-76.742 264.577-46.515 21.032 22.854-10.826 83.041-97.342 183.968C26.42 473.811-6.972 539.843 16.535 568.154c30.146 36.268 146.254 7.008 269.197-23.963 123.873-31.211 251.953-63.476 288.153-25.072 22.861 24.265 7.483 74.143-47.008 152.48l1.576.604c24.265-35.03 40.825-64.388 49.706-88.382z" fill="#EDEDED" fill-opacity=".2"/><path d="M584.127 606.566c11.633-31.465 10.611-54.19-2.938-68.675-37.53-40.178-166.023-9.804-290.308 19.591-122.217 28.914-237.684 56.228-267.608 19.713-23.212-28.31 8.69-93.062 97.508-197.942 84.428-99.701 114.925-159.784 93.198-183.667-28.97-31.864-144.21 3.782-266.204 41.528-127.747 39.519-259.83 80.393-295.679 43.448-25.564-26.352.209-89.41 78.799-192.781 69.813-91.812 91.313-152.382 65.699-185.164-40.086-51.343-189.283-27.633-347.269-2.537-175.007 27.806-355.952 56.548-412.211-10.931-38.564-46.251-13.944-132.485 75.27-263.611l-1.592-.582c-89.597 131.691-114.202 218.422-75.236 265.147 56.844 68.163 238.361 39.341 413.893 11.443 157.388-24.992 306.055-48.616 345.538 2.001 25.201 32.284 3.72 92.342-65.656 183.593-79.064 103.981-104.832 167.599-78.787 194.457 36.588 37.696 169.311-3.35 297.656-43.073 121.354-37.549 235.965-72.998 264.22-41.946 21.235 23.341-9.225 82.869-93.123 181.942C29.985 483.992-1.947 549.291 21.696 578.119c30.565 37.315 146.623 9.866 269.474-19.202 123.707-29.26 251.62-59.51 288.461-20.034 23.101 24.727 8.831 74.174-43.566 151.217l1.583.585c22.442-32.923 37.906-60.914 46.479-84.119z" fill="#EDEDED" fill-opacity=".2"/><path d="M590.563 629.445c12.096-32.751 11.006-56.468-3.11-71.716-38.195-41.25-166.577-12.896-290.733 14.546-122.241 26.993-237.696 52.52-268.082 14.916-23.317-28.859 7.113-92.877 93.074-195.713 81.829-97.89 110.959-157.32 89.047-181.683-29.438-32.739-144.332 1.108-265.945 36.932-127.335 37.518-259.023 76.299-295.544 38.35-25.847-26.895-1.533-89.367 74.384-191.014 67.202-89.989 87.389-149.937 61.727-183.236-40.659-52.791-190.22-31.427-348.581-8.813-175.42 25.041-356.827 50.944-414.126-18.463-38.804-47.027-16.073-132.47 69.51-261.229l-1.592-.583c-85.954 129.301-108.672 215.241-69.495 262.748 57.854 70.084 239.808 44.114 415.783 18.987 157.758-22.528 306.789-43.806 346.881 8.259 25.275 32.812 5.099 92.242-61.69 181.659-76.36 102.25-100.68 165.258-74.322 192.664 37.223 38.713 169.533-.271 297.471-37.949 121.004-35.646 235.282-69.309 263.999-37.364 21.407 23.846-7.692 82.716-88.991 179.978C33.786 494.148 3.326 558.702 27.068 588.084c31.02 38.374 147.066 12.736 269.923-14.405 123.59-27.307 251.411-55.544 288.947-14.99 23.323 25.17 10.168 74.242-40.197 149.992l1.602.567c20.575-30.898 34.968-57.46 43.22-79.803z" fill="#EDEDED" fill-opacity=".2"/><path d="M597.474 652.491c12.588-34.094 11.442-58.814-3.277-74.864-38.872-42.358-167.217-16.012-291.349 9.472-122.315 25.109-237.825 48.819-268.692 10.119-23.445-29.42 5.574-92.73 88.727-193.533 79.236-96.098 107.035-154.888 84.951-179.756-29.881-33.651-144.492-1.589-265.847 32.338-127.02 35.504-258.358 72.234-295.543 33.214-26.155-27.449-3.246-89.355 70.017-189.308 64.628-88.191 83.547-147.486 57.835-181.29-41.281-54.263-191.279-35.245-350.096-15.144-175.962 22.282-357.923 45.34-416.263-26.032-39.047-47.791-18.167-132.472 63.875-258.895l-1.599-.565c-82.373 126.973-103.253 212.131-63.834 260.39 58.906 72.061 241.409 48.954 417.895 26.58 158.219-20.046 307.694-38.971 348.427 14.571 25.348 33.318 6.435 92.114-57.798 179.762-73.7 100.551-96.591 163.017-69.974 190.953 37.881 39.741 169.835 2.876 297.446-32.813 120.702-33.755 234.721-65.632 263.907-32.764 21.616 24.327-6.159 82.574-84.896 178.063C37.759 504.39 8.716 568.229 32.567 598.166c31.477 39.47 147.572 15.643 270.497-9.583 123.571-25.367 251.324-51.59 289.581-9.921 23.538 25.644 11.498 74.328-36.828 148.803l1.601.567c18.815-29.013 32.142-54.128 40.056-75.541z" fill="#EDEDED" fill-opacity=".2"/><path d="M604.783 675.664c13.087-35.455 11.892-61.247-3.443-78.085-39.569-43.473-167.932-19.165-292.07 4.367-122.456 23.193-238.096 45.111-269.418 5.253-23.538-29.967 4.083-92.557 84.427-191.402 76.705-94.343 103.156-152.51 80.918-177.853-30.356-34.568-144.739-4.323-265.853 27.701-126.725 33.509-257.791 68.157-295.648 28.083-26.42-27.984-4.951-89.36 65.706-187.632 62.115-86.417 79.79-145.096 54.01-179.387-41.909-55.778-192.411-39.125-351.752-21.53-176.597 19.528-359.204 39.71-418.63-33.7-39.29-48.525-20.21-132.469 58.3-256.595l-1.657-.549c-78.843 124.676-97.893 209.099-58.253 258.068 59.97 74.093 243.126 53.844 420.234 34.272 158.786-17.558 308.759-34.124 350.139 20.94 25.404 33.816 7.747 91.984-53.974 177.859-71.07 98.869-92.532 160.769-65.656 189.258 38.546 40.813 170.192 5.993 297.526-27.67 120.48-31.858 234.29-61.949 263.937-28.151 21.783 24.825-4.662 82.457-80.874 176.184-80.831 99.418-108.47 162.543-84.526 193.003 31.926 40.634 148.163 18.599 271.235-4.717 123.603-23.427 251.38-47.631 290.333-4.822 23.748 26.1 12.773 74.395-33.558 147.651l1.601.542c17.103-27.005 29.408-50.654 36.946-71.088z" fill="#EDEDED" fill-opacity=".2"/><path d="M612.549 699.025c13.61-36.878 12.335-63.772-3.622-81.466-40.301-44.649-168.75-22.337-292.95-.788-122.648 21.302-238.49 41.404-270.312.369-23.624-30.485 2.6-92.415 80.209-189.277 74.18-92.594 99.344-150.177 76.952-176.018-30.83-35.547-145.06-7.07-266.007 23.052-126.54 31.513-257.379 64.123-295.919 22.922-26.697-28.545-6.596-89.392 61.444-186.032 59.633-84.674 76.052-142.724 50.266-177.49-42.556-57.323-193.643-43.054-353.637-27.96-177.342 16.74-360.688 34.027-421.233-41.471-39.49-49.253-22.23-132.464 52.823-254.342l-1.639-.529c-75.374 122.415-92.624 206.079-52.784 255.776 61.073 76.157 244.993 58.802 422.809 42.032 159.433-15.051 310.028-29.247 352.06 27.357 25.447 34.278 9.022 91.855-50.211 175.993-68.483 97.231-88.554 158.601-61.395 187.621 39.218 41.927 170.654 9.176 297.767-22.479 120.332-29.986 233.976-58.297 264.122-23.532 21.968 25.318-3.19 82.34-76.902 174.343-78.066 97.44-104.326 159.876-80.301 190.884 32.381 41.792 148.803 21.592 272.06.197 123.677-21.481 251.565-43.676 291.269.29 23.963 26.549 14.06 74.475-30.294 146.518l1.639.53c15.359-24.955 26.629-47.113 33.786-66.5z" fill="#EDEDED" fill-opacity=".2"/><path d="M620.807 722.568c14.14-38.318 12.81-66.339-3.824-84.92-41.047-45.838-169.638-25.552-293.998-5.937-122.937 19.387-239.05 37.678-271.327-4.576-23.717-31.02 1.182-92.255 76.058-187.22 71.692-90.894 95.581-147.867 73.04-174.213-31.304-36.514-145.422-9.836-266.277 18.408-126.405 29.542-257.102 60.089-296.338 17.749-26.974-29.093-8.24-89.41 57.244-184.443 57.164-82.956 72.418-140.409 46.577-175.611-43.208-58.901-194.992-47.027-355.694-34.464C-791.887-78.74-976.12-64.323-1037.83-141.97c-39.72-49.968-24.21-132.431 47.419-252.11l-1.644-.511c-71.915 120.192-87.425 203.133-47.385 253.538 62.23 78.288 246.962 63.865 425.628 49.89 160.16-12.513 311.433-24.344 354.13 33.86 25.49 34.741 10.272 91.702-46.559 174.152-65.897 95.606-84.612 156.471-57.188 186.051 39.913 43.054 171.201 12.36 298.178-17.3 120.228-28.108 233.761-54.645 264.425-18.882 22.109 25.817-1.755 82.26-72.979 172.563-75.326 95.513-100.243 157.271-76.151 188.803 32.874 42.999 149.542 24.622 273.083 5.136 123.83-19.529 251.891-39.717 292.31 5.444 24.185 26.993 15.304 74.574-27.085 145.404l1.65.505c13.801-23.089 24.061-43.72 30.805-62.005z" fill="#EDEDED" fill-opacity=".2"/><path d="M629.485 746.273c14.682-39.809 13.278-69-4.034-88.504-41.804-47.04-170.586-28.804-295.161-11.154-123.289 17.472-239.722 33.953-272.523-9.552-23.778-31.55-.222-92.132 71.994-185.175 69.234-89.213 91.861-145.601 69.167-172.421-31.785-37.537-145.89-12.644-266.69 13.721-126.319 27.559-256.948 56.067-296.899 12.545-27.239-29.629-9.847-89.478 53.112-182.922 54.755-81.274 68.803-138.112 42.949-173.77-43.892-60.532-196.445-51.066-357.947-41.053-179.085 11.104-364.249 22.572-427.143-57.262-39.93-50.655-26.13-132.413 42.11-249.903l-1.65-.493c-68.56 118.022-82.32 200.221-42.06 251.32 63.398 80.462 249.073 68.951 428.632 57.829 160.972-9.965 313.015-19.4 356.42 40.437 25.534 35.202 11.486 91.56-42.925 172.304-63.359 94.029-80.708 154.377-53.05 184.486 40.616 44.212 171.836 15.593 298.721-12.089 120.172-26.23 233.693-51.006 264.837-14.22 22.269 26.297-.351 82.173-69.142 170.807-72.64 93.604-96.216 154.697-72.074 186.734 33.349 44.249 150.355 27.689 274.216 10.137 124.046-17.564 252.304-35.732 293.542 10.642 24.375 27.43 16.542 74.666-23.914 144.326l1.651.492c12.261-21.08 21.548-40.16 27.861-57.262z" fill="#EDEDED" fill-opacity=".2"/><path d="M638.631 770.199c15.242-41.342 13.789-71.753-4.25-92.193-42.574-48.29-171.657-32.068-296.479-16.4-123.695 15.537-240.547 30.22-273.853-14.578-23.827-32.055-1.607-91.978 67.985-183.162 66.82-87.574 88.197-143.389 65.373-170.696-32.265-38.608-146.383-15.477-267.22 8.991-126.306 25.589-256.923 52.04-297.637 7.31-27.492-30.177-11.449-89.539 49.028-181.437 52.379-79.6 65.262-135.84 39.397-171.916-44.588-62.177-197.986-55.144-360.381-47.71-180.101 8.264-366.324 16.788-430.454-65.264-40.12-51.325-28.05-132.377 36.9-247.751l-1.67-.469c-65.23 115.888-77.29 197.38-36.83 249.123 64.65 82.688 251.349 74.128 431.925 65.857 161.865-7.409 314.764-14.436 358.884 47.076 25.533 35.609 12.655 91.375-39.391 170.469-60.84 92.483-76.871 152.338-48.96 182.995 41.355 45.42 172.532 18.852 299.404-6.848 120.216-24.351 233.773-47.353 265.398-9.509 22.398 26.796 1.04 82.1-65.349 169.096-69.992 91.744-92.25 152.159-68.052 184.695 33.841 45.543 151.248 30.799 275.509 15.175 124.317-15.618 252.871-31.766 294.891 15.883 24.572 27.873 17.779 74.734-20.81 143.278l1.663.469c10.82-19.135 19.122-36.613 24.979-52.484z" fill="#EDEDED" fill-opacity=".2"/><path d="M648.292 794.358c15.84-42.95 14.282-74.574-4.483-96.037-43.387-49.558-172.816-35.381-297.964-21.666-124.187 13.592-241.501 26.445-275.318-19.689-23.87-32.554-2.913-91.83 64.037-181.172 64.412-85.955 84.588-141.222 61.628-169.009-32.769-39.692-146.986-18.359-267.897 4.249-126.361 23.612-257.04 48.018-298.499 2.051-27.745-30.738-13.026-89.626 44.982-179.99 50.038-77.974 61.789-133.61 35.917-170.075-45.309-63.858-199.636-59.283-363.017-54.436-181.197 5.383-368.568 10.938-434.008-73.412-40.31-51.976-29.93-132.334 31.76-245.609l-1.66-.457c-61.99 113.797-72.35 194.575-31.7 246.97 65.92 84.96 253.758 79.394 435.442 73.993 162.845-4.841 316.679-9.405 361.526 53.807 25.57 36.027 13.814 91.19-35.898 168.664-58.371 90.962-73.059 150.325-44.903 181.536 42.1 46.67 173.333 22.153 300.23-1.564 120.326-22.491 233.958-43.72 266.13-4.76 22.547 27.288 2.39 82.044-61.591 167.42-67.369 89.884-88.339 149.653-64.123 182.687 34.346 46.861 152.202 33.947 276.956 20.281 124.656-13.654 253.567-27.769 296.424 21.16 24.757 28.317 18.962 74.845-17.737 142.251l1.669.449c9.349-17.219 16.733-33.089 22.097-47.642z" fill="#EDEDED" fill-opacity=".2"/><path d="M658.357 818.698c16.431-44.576 14.793-77.475-4.736-99.972-44.2-50.864-174.041-38.738-299.583-27.005-124.754 11.645-242.567 22.657-276.932-24.838-23.902-33.053-4.225-91.664 60.169-179.202 62.047-84.329 81.01-139.072 57.946-167.322-33.287-40.8-147.633-21.247-268.704-.535-126.503 21.647-257.28 44.009-299.54-3.24-27.972-31.285-14.553-89.699 41.022-178.592 47.741-76.378 58.377-131.405 32.499-168.246C-345.575-95.836-500.893-93.73-665.315-91.5c-182.41 2.47-371.015 5.032-437.775-81.645-40.51-52.601-31.78-132.268 26.72-243.498l-1.68-.432c-58.76 111.752-67.47 191.834-26.63 244.834 67.23 87.282 256.327 84.714 439.187 82.226 163.947-2.211 318.779-4.336 364.395 60.606 25.589 36.403 14.941 90.974-32.492 166.86-55.92 89.447-69.302 148.354-40.936 180.095 42.857 47.932 174.226 25.472 301.246 3.738 120.486-20.594 234.278-40.061 266.974.013 22.645 27.756 3.695 81.982-57.922 165.745-64.788 88.067-84.49 147.171-60.224 180.711 34.863 48.215 153.219 37.154 278.545 25.44 125.056-11.688 254.374-23.772 298.069 26.476 24.972 28.717 20.169 74.919-14.713 141.234l1.675.431c7.945-15.223 14.38-29.456 19.233-42.635z" fill="#EDEDED" fill-opacity=".2"/><path d="M668.967 843.301c17.041-46.244 15.323-80.48-5.007-104.049-45.068-52.187-175.383-42.112-301.369-32.387-125.382 9.699-243.805 18.857-278.7-30.042-23.931-33.527-5.487-91.51 56.389-177.243 59.707-82.753 77.468-136.948 54.337-165.684-33.823-41.952-148.391-24.172-269.672-5.358-126.675 19.652-257.668 39.988-300.716-8.591-28.225-31.821-16.061-89.792 37.105-177.213 45.494-74.795 55.039-129.237 29.143-166.429-46.855-67.325-203.245-67.72-368.843-68.132-183.71-.456-373.664-.936-441.814-89.963-40.73-53.206-33.6-132.174 21.76-241.419l-1.71-.414c-55.61 109.723-62.7 189.131-21.67 242.735 68.59 89.634 259.016 90.114 443.176 90.576 165.105.4 321.039.807 367.438 67.492 25.589 36.773 16.055 90.759-29.155 165.062-53.518 87.969-65.613 146.425-37.013 178.696 43.652 49.244 175.199 28.823 302.392 9.084 120.701-18.716 234.727-36.409 267.965 4.822 22.768 28.25 4.988 81.934-54.313 164.132-62.244 86.275-80.72 144.757-56.449 178.746 35.418 49.595 154.364 40.407 280.282 30.664 125.53-9.688 255.334-19.732 299.879 31.858 25.176 29.142 21.309 75.024-11.726 140.243l1.706.412c6.725-13.339 12.256-25.853 16.585-37.598z" fill="#EDEDED" fill-opacity=".2"/><path d="M680.034 868.163c17.675-47.975 15.883-83.566-5.303-108.249-45.967-53.555-176.793-45.555-303.321-37.826-126.072 7.704-245.178 14.984-280.652-35.344-23.957-33.983-6.719-91.338 52.65-175.316 57.397-81.207 74.013-134.86 50.746-164.052-34.358-43.128-149.19-27.153-270.76-10.217-126.916 17.663-258.18 35.929-302.066-13.967-28.453-32.357-17.576-89.891 33.25-175.87 43.289-73.256 51.751-127.107 25.866-164.631-47.655-69.1-205.228-72.018-372.051-75.097-185.102-3.412-376.473-6.96-446.073-98.411-40.91-53.798-35.41-132.085 16.9-239.372l-1.72-.396c-52.53 107.773-58.02 186.475-16.78 240.671 70.04 92.033 261.882 95.586 447.421 99.004 166.355 3.067 323.466 5.968 370.702 74.45 25.589 37.106 17.127 90.501-25.891 163.277-51.122 86.534-61.98 144.529-33.145 177.329 44.465 50.562 176.246 32.222 303.685 14.491 120.99-16.849 235.281-32.763 269.08 9.669 22.879 28.718 6.269 81.872-50.753 162.519-59.757 84.501-76.982 142.349-52.717 176.8 35.959 51.011 155.571 43.707 282.203 35.959 126.054-7.71 256.4-15.686 301.837 37.278 25.349 29.536 22.473 75.104-8.806 139.27l1.712.394c5.574-11.35 10.217-22.14 13.986-32.363z" fill="#EDEDED" fill-opacity=".2"/><path d="M691.618 893.271c18.335-49.755 16.419-86.725-5.635-112.573-46.879-54.934-178.309-49.028-305.403-43.295-126.866 5.716-246.693 11.105-282.74-40.67-23.95-34.421-7.938-91.141 48.986-173.413 55.144-79.667 70.614-132.828 47.248-162.463-34.906-44.354-150.084-30.165-271.999-15.15-127.242 15.673-258.838 31.883-303.555-19.424-28.668-32.881-19.048-89.971 29.426-174.534 41.102-71.735 48.529-125.006 22.657-162.838-48.511-70.916-207.322-76.391-375.475-82.168-186.561-6.423-379.498-13.05-450.588-106.964-41.15-54.34-37.2-131.971 12.08-237.351l-1.72-.377c-49.47 105.829-53.38 183.901-11.95 238.613 71.53 94.464 264.896 101.14 451.882 107.57 167.679 5.77 326.053 11.214 374.121 81.514 25.601 37.413 18.167 90.26-22.67 161.508-48.77 85.118-58.365 142.676-29.309 175.981 45.303 51.954 177.404 35.671 305.157 19.929 121.373-14.953 235.978-29.074 270.348 14.571 22.972 29.167 7.508 81.829-47.236 160.961-57.287 82.771-73.317 139.965-49.04 174.847 36.526 52.49 156.858 47.064 284.254 41.337 126.639-5.697 257.594-11.597 303.968 42.746 25.558 29.943 23.624 75.184-5.887 138.334l1.724.369c4.404-9.391 8.173-18.42 11.356-27.06z" fill="#EDEDED" fill-opacity=".2"/><path d="M703.689 918.681c19.006-51.584 17.011-90.013-5.967-117.068-47.821-56.357-179.904-52.533-307.657-48.837-127.716 3.695-248.344 7.186-284.988-46.122-23.969-34.857-9.114-90.937 45.395-171.51 52.908-78.17 67.233-130.789 43.818-160.892-35.504-45.592-151.032-33.219-273.372-20.108-127.63 13.684-259.614 27.806-305.231-24.905-28.902-33.41-20.502-90.081 25.669-173.265 39.002-70.25 45.383-122.919 19.492-161.053-49.379-72.745-209.514-80.788-379.066-89.317-188.138-9.454-382.682-19.241-455.352-115.633-41.36-54.868-38.94-131.869 7.35-235.37l-1.73-.353c-46.5 103.962-48.88 181.367-7.24 236.607C-1102.1-112.2-907.125-102.39-718.562-92.918c169.083 8.505 328.787 16.523 377.766 88.67 25.601 37.71 19.22 89.971-19.511 159.754-46.466 83.713-54.811 140.846-25.552 174.688 46.159 53.351 178.66 39.156 306.801 25.428 121.798-13.05 236.816-25.367 271.772 19.517 23.045 29.635 8.726 81.779-43.812 159.408-54.842 81.077-69.734 137.65-45.426 172.944 37.124 53.986 158.22 50.482 286.472 46.756 127.291-3.676 258.924-7.482 306.277 48.283 25.737 30.319 24.733 75.283-3.042 137.398l1.737.357c3.252-7.427 6.214-14.651 8.769-21.604z" fill="#EDEDED" fill-opacity=".2"/><path d="M716.284 944.356c19.695-53.469 17.576-93.389-6.331-121.693-48.819-57.786-181.623-56.074-310.066-54.411-128.615 1.662-250.123 3.227-287.376-51.603-23.982-35.251-10.291-90.734 41.872-169.637 50.697-76.699 63.913-128.813 40.406-159.341-36.071-46.873-152.086-36.317-274.918-25.114-128.08 11.67-260.495 23.722-307.029-30.436-29.136-33.915-21.968-90.167 21.968-171.99C-328.264 91.327-322.912 39.22-348.784.834c-50.291-74.593-211.848-85.266-382.872-96.56-189.8-12.533-386.064-25.491-460.364-124.395-41.59-55.353-40.72-131.714 2.7-233.419l-1.75-.315c-43.6 102.135-44.43 178.887-2.57 234.617 74.7 99.457 271.377 112.438 461.578 125.002 170.592 11.27 331.712 21.9 381.609 95.9 25.607 37.974 20.231 89.663-16.456 158.005-44.169 82.352-51.313 139.06-21.844 173.394 47.045 54.793 180.002 42.704 308.58 30.978 122.279-11.141 237.764-21.672 273.318 24.523 23.137 30.06 9.915 81.7-40.419 157.875-52.459 79.396-66.168 135.328-41.915 171.035 37.727 55.501 159.697 53.919 288.824 52.274 127.993-1.644 260.347-3.362 308.71 53.857 25.928 30.694 25.854 75.344-.246 136.498l1.737.333a323.922 323.922 0 006.448-16.08z" fill="#EDEDED" fill-opacity=".2"/><path d="M729.346 970.34c20.422-55.427 18.199-96.868-6.75-126.472-49.847-59.233-183.439-59.64-312.633-60.059-129.619-.412-252.027-.794-289.951-57.194-23.963-35.64-11.387-90.5 38.429-167.759 48.499-75.239 60.637-126.854 37.081-157.801-36.681-48.185-153.2-39.427-276.575-30.196-128.584 9.651-261.572 19.616-309.018-36.046-29.352-34.426-23.372-90.266 18.316-170.764 34.888-67.381 39.254-118.91 13.364-157.524-51.252-76.452-214.263-89.785-386.869-103.87-191.556-15.643-389.62-31.828-465.61-133.297-41.83-55.843-42.44-131.566-1.88-231.498l-1.76-.297c-40.72 100.382-40.07 176.483 2.02 232.678 76.4 102.003 274.867 118.206 466.811 133.88C-573.504-81.807-410.893-68.541-360.048 7.332c25.613 38.226 21.222 89.336-13.426 156.255-41.939 80.997-47.901 137.324-18.18 172.156 47.982 56.271 181.45 46.257 310.533 36.576 122.845-9.207 238.854-17.909 275.035 29.604 23.231 30.485 11.086 81.638-37.099 156.341-50.112 77.74-62.7 133.068-38.435 169.145 38.349 57.059 161.262 57.441 291.367 57.86 128.751.406 261.918.819 311.297 59.51 26.143 31.058 26.962 75.381 2.544 135.605l1.755.302a281.292 281.292 0 004.003-10.346z" fill="#EDEDED" fill-opacity=".2"/><path d="M742.994 996.649c21.148-57.435 18.784-100.446-7.175-131.417-50.925-60.718-185.36-63.286-315.355-65.774-130.666-2.494-254.084-4.871-292.667-62.854-23.957-35.991-12.502-90.272 35.03-165.9 46.38-73.81 57.428-124.938 33.798-156.291-37.315-49.521-154.42-42.618-278.429-35.314-129.169 7.6-262.73 15.464-311.167-41.706-29.561-34.906-24.745-90.358 14.713-169.551 32.893-66.001 36.304-116.957 10.395-155.787C-420.131-66.3-584.718-82.306-758.968-99.242c-193.379-18.809-393.342-38.251-471.102-142.296-42.08-56.296-44.15-131.432-6.39-229.591l-1.76-.279c-37.94 98.653-35.79 174.106 6.53 230.753 78.17 104.561 278.511 124.052 472.278 142.878 173.844 16.9 338.025 32.856 389.88 110.639 25.632 38.454 22.227 89.01-10.451 154.561-39.722 79.692-44.489 135.612-14.577 170.919 48.93 57.786 182.995 49.884 312.633 42.248 123.473-7.274 240.073-14.153 276.901 34.722 23.298 30.909 12.237 81.558-33.81 154.863-47.834 76.114-59.301 130.826-35.061 167.26 39.009 58.642 162.906 61.007 294.059 63.507 129.589 2.476 263.599 5.038 314.05 65.219 26.34 31.415 28.058 75.43 5.278 134.729l1.761.29c.628-1.507 1.183-3.022 1.743-4.531z" fill="#EDEDED" fill-opacity=".2"/><path d="M757.681 1021.84c21.352-58.78 18.686-102.98-8.178-135.079-52.04-62.201-187.356-66.943-318.225-71.513-131.794-4.619-256.295-8.979-295.562-68.594-23.951-36.342-13.573-89.989 31.692-164.052 44.274-72.393 54.263-123.017 30.577-154.77-37.967-50.901-155.707-45.851-280.38-40.505-129.804 5.561-264.03 11.307-313.483-47.421-29.783-35.375-26.144-90.463 11.189-168.394 30.96-64.646 33.411-115.023 7.471-154.069C-430.52-62.82-596.765-81.53-772.752-101.349c-195.306-21.992-397.258-44.739-476.858-151.391-42.34-56.731-45.89-131.227-10.84-227.764l-1.76-.26c-35.21 96.95-31.63 171.825 10.99 228.882 79.99 107.167 282.318 129.951 478.006 151.993C-597.639-80.102-431.82-61.435-378.881 18.256c25.663 38.645 23.199 88.653-7.55 152.856-37.555 78.411-41.158 133.918-11.03 169.724 49.933 59.307 184.633 53.53 314.924 47.962 124.163-5.314 241.428-10.334 278.89 39.89 23.354 31.31 13.364 81.477-30.608 153.385-45.586 74.531-55.938 128.634-31.716 165.394 39.704 60.249 164.643 64.616 296.929 69.247 130.475 4.57 265.378 9.293 316.962 70.977 26.568 31.742 29.161 75.56 7.976 133.889l1.785.26z" fill="#EDEDED" fill-opacity=".2"/><path d="M774.544 1042.71c19.762-57.91 16.215-101.821-10.846-134.252-53.185-63.716-189.462-70.651-321.28-77.364-133.012-6.762-258.628-13.148-298.647-74.426-23.938-36.649-14.639-89.712 28.435-162.21 42.21-71.021 51.177-121.176 27.43-153.287-38.627-52.274-157.087-49.114-282.512-45.764-130.512 3.498-265.489 7.101-315.952-53.179-30.011-35.849-27.505-90.543 7.685-167.23 29.075-63.304 30.584-113.145 4.638-152.344-54.405-82.192-222.343-103.667-400.153-126.405-145.311-18.58-295.562-37.803-397.162-91.203-115.09-60.469-148.1-157.094-100.9-295.363l-1.78-.217c-25.06 73.43-27.54 136.204-7.38 186.561 18.1 45.214 53.73 81.302 108.92 110.301 101.89 53.547 252.338 72.782 397.816 91.381 177.385 22.694 344.965 44.12 398.995 125.764 25.693 38.811 24.16 88.246-4.693 151.156-35.412 77.154-37.876 132.285-7.514 168.535 50.962 60.865 186.383 57.25 317.35 53.739 124.903-3.344 242.888-6.497 281.053 45.155 23.427 31.692 14.429 81.385-27.473 151.913-43.375 72.973-52.662 126.466-28.453 163.535 40.419 61.887 166.49 68.298 299.965 75.091 131.411 6.676 267.3 13.592 320.054 76.791 26.79 32.086 30.257 75.609 10.648 133.082l1.756.24z" fill="#EDEDED" fill-opacity=".2"/><path d="M791.935 1063.77c18.199-57.03 13.783-100.678-13.512-133.417-54.392-65.244-191.685-74.39-324.488-83.233-134.275-8.936-261.105-17.386-301.88-80.345-23.933-36.939-15.692-89.41 25.225-160.381 40.179-69.666 48.117-119.322 24.314-151.821-39.341-53.702-158.576-52.428-284.802-51.085-131.282 1.398-267.048 2.858-318.613-59.03-30.264-36.323-28.884-90.642 4.212-166.109 27.215-62.022 27.8-111.31 1.817-150.644-55.526-84.114-225.256-108.403-404.932-134.103-146.056-20.877-297.066-42.488-400.226-97.46-116.82-62.255-152.31-159.302-108.45-296.684l-1.79-.199c-44.07 138.031-8.36 235.566 109.1 298.16 103.43 55.117 254.614 76.728 400.824 97.661C-621.965-79.275-452.617-55.048-397.4 28.524c25.731 38.984 25.115 87.87-1.897 149.493-33.324 75.929-34.629 130.678-4.058 167.371 52.046 62.454 188.255 61.019 319.968 59.609C42.34 403.66 161.102 402.379 200 455.454c23.495 32.08 15.52 81.281-24.351 150.454-41.195 71.445-49.435 124.335-25.244 161.705 41.176 63.556 168.431 72.024 303.155 81.003 132.403 8.825 269.32 17.94 323.3 82.685 27.018 32.413 31.353 75.669 13.278 132.289l1.798.18z" fill="#EDEDED" fill-opacity=".2"/><path d="M809.795 1085.03c16.677-56.2 11.418-99.584-16.117-132.6-55.63-66.79-194.038-78.171-327.876-89.17-135.624-11.147-263.722-21.678-305.286-86.325-23.932-37.21-16.708-89.083 22.103-158.564 38.165-68.329 45.124-117.524 21.266-150.361-40.068-55.156-160.129-55.803-287.254-56.468-132.12-.696-268.747-1.429-321.446-64.954-30.491-36.761-30.214-90.728.831-164.982 25.386-60.785 25.103-109.524-.93-148.982-56.769-86.047-228.353-113.176-410.03-141.875-146.857-23.217-298.706-47.203-403.406-103.768-118.61-64.067-156.57-161.584-116.07-298.102l-1.79-.18c-40.7 137.174-2.53 235.153 116.7 299.557 104.96 56.711 256.982 80.717 403.999 103.959 181.296 28.65 352.541 55.698 408.953 141.24 25.811 39.126 26.082 87.483.85 147.855-31.218 74.722-31.458 129.108-.641 166.232 53.149 64.086 190.201 64.8 322.77 65.515 126.62.677 246.238 1.324 285.869 55.858 23.556 32.437 16.597 81.164-21.303 149.031-39.064 69.955-46.281 122.229-22.091 159.87 41.965 65.244 170.482 75.8 306.555 87.002 133.475 10.968 271.476 22.312 326.712 88.634 27.251 32.708 32.449 75.718 15.901 131.488l1.731.09z" fill="#EDEDED" fill-opacity=".2"/><path d="M828.154 1106.53c51.467-187.768-152.683-207.716-350.114-227.042-137.047-13.395-266.481-26.05-308.871-92.409-23.938-37.462-17.718-88.763 19.018-156.785 36.194-67.023 42.174-115.731 18.248-148.907-40.844-56.635-161.786-59.209-289.828-61.937-133.025-2.833-270.583-5.752-324.452-70.941-30.731-37.197-31.563-90.783-2.543-163.91 20.095-50.654 22.207-92.785 6.454-128.8-14.153-32.308-42.543-59.036-86.799-81.736-82.451-42.285-206.878-63.79-338.635-86.577-147.713-25.527-300.442-51.92-406.772-110.115-120.44-65.908-160.92-163.918-123.71-299.659l-1.8-.142c-37.38 136.361 3.3 234.857 124.35 301.077 106.58 58.314 259.468 84.753 407.317 110.304 131.596 22.738 255.894 44.225 338.111 86.387 92.187 47.291 117.548 113.619 79.704 208.96-29.192 73.533-28.311 127.586 2.722 165.135 54.306 65.724 192.307 68.668 325.751 71.501 127.58 2.722 248.085 5.278 288.473 61.309 23.637 32.763 17.632 81.052-18.315 147.596-36.976 68.483-43.19 120.172-19.006 158.041 42.796 66.962 172.637 79.655 310.108 93.093 196.557 19.214 399.814 39.094 348.76 225.387l1.829.17z" fill="#EDEDED" fill-opacity=".2"/></svg>