<svg width="768" height="522" fill="none" xmlns="http://www.w3.org/2000/svg"><path d="M466.483 13.675c-9.042-7.66-16.551-9.992-22.612-7.102-21.287 10.15-21.152 83.498-21.029 154.435.111 66.331.24 134.915-18.199 142.699-15.305 6.46-42.181-28.627-82.16-107.261-37.67-74.067-62.388-107.055-75.547-100.852-16.77 7.903-12.852 76.238-8.703 148.594 4.35 75.867 8.84 154.314-10.815 164.118-14.663 7.316-41.245-24.143-81.265-96.199-36.378-65.49-62.805-93.878-80.778-86.804-25.84 10.157-30.87 91.241-36.193 177.068-5.889 94.96-11.985 193.143-46.144 207.49-25.468 10.702-63.6-26.691-116.576-114.312l-.607.611c53.186 87.986 91.59 125.482 117.399 114.647 34.67-14.565 40.772-113.09 46.688-208.376 5.305-85.48 10.315-166.231 35.633-176.185 17.633-6.936 43.795 21.352 79.961 86.462 40.246 72.455 67.119 104.016 82.147 96.52 20.214-10.089 15.701-88.908 11.327-165.138-4.126-71.973-8.02-139.945 8.189-147.578 12.79-6.031 37.213 26.855 74.666 100.5 40.197 79.036 67.35 114.238 83.011 107.622 18.988-8.014 18.867-73.908 18.747-143.661-.127-70.592-.259-143.591 20.503-153.488 13.791-6.567 35.452 14.981 66.234 65.9l.609-.608C493.26 43.5 478.508 23.87 466.483 13.675z" fill="#EDEDED" fill-opacity=".2"/><path d="M477.051 17.192c-9.452-8.016-17.314-10.463-23.687-7.462-21.762 10.241-22.504 82.85-23.223 153.069-.662 65.696-1.357 133.612-20.246 141.436-15.587 6.452-42.322-27.689-81.772-104.364-37.181-72.287-61.774-104.407-75.188-98.185-17.147 7.96-13.989 75.508-10.638 147.024 3.504 74.981 7.134 152.523-12.991 162.442-14.951 7.37-41.456-23.197-81.039-93.446-35.906-63.717-62.242-91.276-80.51-84.239-26.46 10.186-32.52 90.629-38.947 175.785-7.102 94.224-14.448 191.649-49.46 206.1-25.914 10.685-63.967-25.52-116.351-110.713l-.602.61c52.592 85.533 90.92 121.839 117.16 111.008 35.508-14.647 42.884-112.415 50.011-206.96 6.401-84.815 12.434-164.921 38.379-174.908 17.92-6.91 43.989 20.539 79.691 83.894 39.808 70.646 66.602 101.309 81.916 93.754 20.668-10.185 17.02-88.098 13.489-163.435-3.327-71.134-6.473-138.324 10.116-146.029 13.027-6.047 37.341 25.944 74.309 97.817 39.651 77.084 66.673 111.341 82.623 104.735 19.442-8.046 20.094-73.294 20.805-142.383.712-69.871 1.448-142.13 22.69-152.13 14.041-6.608 35.678 14.268 66.162 63.83l.603-.608c-17.066-27.76-31.437-46.58-43.3-56.642z" fill="#EDEDED" fill-opacity=".2"/><path d="M487.732 20.52c-9.877-8.383-18.102-10.959-24.811-7.837-22.26 10.34-23.875 82.24-25.427 151.77-1.46 65.085-2.959 132.375-22.321 140.23-15.876 6.442-42.497-26.771-81.398-101.525-36.704-70.537-61.183-101.79-74.854-95.542-17.542 8.009-15.131 74.809-12.59 145.527 2.666 74.121 5.422 150.79-15.17 160.806-15.238 7.43-41.68-22.252-80.839-90.735-35.438-61.983-61.69-88.71-80.252-81.715-27.088 10.205-34.21 90.047-41.733 174.572-8.333 93.527-16.943 190.236-52.83 204.775-26.344 10.681-64.332-24.379-116.149-107.166l-.602.623c52.02 83.126 90.278 118.285 116.953 107.47 36.37-14.744 45.022-111.781 53.382-205.635 7.492-84.182 14.583-163.705 41.171-173.723 18.217-6.869 44.21 19.76 79.443 81.38 39.375 68.871 66.101 98.649 81.699 91.042 21.132-10.302 18.361-87.313 15.681-161.796-2.534-70.328-4.929-136.772 12.062-144.544 13.282-6.067 37.483 25.061 73.981 95.186 39.098 75.145 66 108.471 82.236 101.892 19.901-8.066 21.343-72.719 22.877-141.166 1.556-69.199 3.149-140.75 24.912-150.853 14.3-6.64 35.907 13.574 66.082 61.786l.603-.63c-16.466-26.265-30.432-44.292-42.106-54.193z" fill="#EDEDED" fill-opacity=".2"/><path d="M498.513 23.654c-10.32-8.757-18.928-11.46-25.982-8.232-22.792 10.437-25.264 81.66-27.672 150.539-2.357 67.47-4.578 131.196-24.42 139.08-16.155 6.422-42.658-25.875-81.038-98.729-36.234-68.799-60.617-99.204-74.537-92.946-17.944 8.077-16.297 74.146-14.554 144.091 1.826 73.312 3.703 149.13-17.377 159.263-15.526 7.474-41.911-21.327-80.647-88.065-34.98-60.249-61.145-86.17-80.001-79.228-27.743 10.222-35.918 89.502-44.56 173.428-9.578 92.876-19.472 188.923-56.255 203.56-26.782 10.66-64.713-23.261-115.961-103.678l-.597.631c51.466 80.759 89.655 114.774 116.76 103.974C8.945 612.506 18.87 516.141 28.479 422.947 37.1 339.36 45.24 260.395 72.487 250.354c18.507-6.824 44.419 18.99 79.19 78.888 38.956 67.114 65.624 96.018 81.511 88.37 21.626-10.397 19.718-86.569 17.892-160.245-1.733-69.57-3.37-135.286 14.032-143.115 13.539-6.102 37.639 24.187 73.662 92.596 38.571 73.243 65.35 105.651 81.87 99.094 20.375-8.097 22.612-72.165 24.973-140 2.395-68.543 4.874-139.431 27.15-149.639 14.564-6.672 36.163 12.882 66.04 59.77l.594-.63c-15.858-24.841-29.421-42.055-40.888-51.789z" fill="#EDEDED" fill-opacity=".2"/><path d="M509.393 26.583c-10.772-9.15-19.789-11.98-27.195-8.634-23.316 10.531-26.677 81.118-29.943 149.374-3.195 66.899-6.209 130.099-26.544 138.003-16.447 6.393-42.845-25.002-80.696-95.971-35.783-67.101-60.064-96.667-74.229-90.4-18.358 8.13-17.47 73.507-16.541 142.71.981 72.545 1.991 147.536-19.592 157.789-15.83 7.516-42.157-20.431-80.487-85.43-34.526-58.558-60.611-83.664-79.746-76.777C46 267.48 36.76 346.23 26.974 429.612 16.147 521.889 4.945 617.32-32.762 632.048c-27.217 10.624-65.085-22.156-115.787-100.257l-.594.629c50.908 78.414 89.038 111.297 116.58 100.537 38.193-14.915 49.428-110.66 60.298-203.251 9.743-83.038 18.953-161.486 46.879-171.538 18.798-6.776 44.618 18.23 78.948 76.441 38.548 65.381 65.159 93.425 81.347 85.737 22.112-10.494 21.095-85.856 20.112-158.748-.928-68.835-1.809-133.867 16.007-141.749 13.798-6.102 37.796 23.337 73.369 90.052 38.049 71.361 64.718 102.879 81.52 96.34 20.864-8.116 23.898-71.648 27.115-138.906 3.245-67.927 6.595-138.175 29.413-148.48 14.819-6.692 36.398 12.21 65.989 57.786l.591-.634c-15.244-23.438-28.389-39.87-39.632-49.424z" fill="#EDEDED" fill-opacity=".2"/><path d="M520.387 29.341c-11.238-9.551-20.672-12.521-28.458-9.047-23.852 10.631-28.111 80.605-32.228 148.271-4.043 66.362-7.851 129.044-28.706 136.987-16.737 6.369-43.02-24.138-80.358-93.265-35.331-65.424-59.522-94.166-73.942-87.879-18.785 8.175-18.679 72.89-18.552 141.405.134 71.784.266 146.014-21.845 156.373-16.134 7.558-42.408-19.548-80.338-82.841-34.088-56.879-60.095-81.206-79.503-74.38-29.117 10.243-39.44 88.512-50.366 171.373-12.099 91.729-24.616 186.581-63.287 201.41-27.642 10.607-65.461-21.09-115.618-96.876l-.583.64c50.356 76.096 88.435 107.872 116.403 97.163C2.15 623.661 14.7 528.495 26.84 436.473c10.894-82.578 21.179-160.535 49.798-170.596 19.08-6.707 44.832 17.513 78.714 74.055 38.149 63.669 64.713 90.863 81.189 83.141 22.623-10.607 22.483-85.187 22.359-157.324-.115-68.147-.235-132.507 18.012-140.446 14.06-6.119 37.977 22.516 73.094 87.532 37.543 69.494 64.089 100.128 81.181 93.633 21.37-8.132 25.211-71.148 29.264-137.863 4.101-67.35 8.336-137 31.699-147.398 15.08-6.719 36.649 11.55 65.961 55.832l.585-.636c-14.578-22.07-27.31-37.714-38.309-47.062z" fill="#EDEDED" fill-opacity=".2"/><path d="M531.928 31.356c-11.727-9.961-21.582-13.074-29.765-9.46-24.423 10.743-29.604 80.159-34.617 147.292-4.916 65.876-9.566 128.099-30.945 136.071-17.023 6.343-43.203-23.281-80.017-90.565-34.876-63.739-58.981-91.664-73.667-85.372-19.232 8.242-19.912 72.337-20.624 140.207-.747 71.088-1.522 144.6-24.164 155.091-16.437 7.604-42.666-18.645-80.203-80.249-33.63-55.21-59.551-78.754-79.253-71.971-29.827 10.269-41.28 88.123-53.404 170.541C11.83 534.163-2.05 628.524-41.717 643.472c-28.08 10.588-65.847-19.994-115.451-93.477l-.578.642c49.818 73.792 87.834 104.462 116.231 93.762 40.134-15.131 54.058-109.806 67.535-201.354 12.076-82.102 23.485-159.656 52.836-169.749 19.371-6.669 45.039 16.769 78.472 71.652 37.749 61.973 64.262 88.32 81.044 80.56 23.156-10.726 23.937-84.589 24.69-156.018.713-67.492 1.382-131.248 20.09-139.257 14.326-6.144 38.146 21.68 72.812 85.023 37.021 67.666 63.465 97.406 80.839 90.929 21.9-8.159 26.571-70.71 31.509-136.945 4.99-66.819 10.142-135.913 34.088-146.439 15.341-6.745 36.912 10.875 65.929 53.87l.583-.64c-13.98-20.71-26.26-35.563-36.984-44.675z" fill="#EDEDED" fill-opacity=".2"/><path d="M543.794 32.855c-12.212-10.372-22.522-13.628-31.109-9.886-25.012 10.878-31.132 79.775-37.058 146.411-5.807 65.44-11.301 127.249-33.247 135.265-17.323 6.319-43.387-22.433-79.689-87.888-34.429-62.085-58.434-89.195-73.395-82.885-19.698 8.31-21.179 71.832-22.75 139.085-1.652 70.439-3.352 143.28-26.549 153.906-16.743 7.662-42.935-17.738-80.07-77.677-33.182-53.551-59.019-76.303-78.996-69.566-30.577 10.315-43.186 87.795-56.527 169.833-14.788 90.839-30.073 184.783-70.766 199.88-28.522 10.579-66.231-18.884-115.298-90.092l-.584.655c49.268 71.508 87.241 101.067 116.066 90.367 41.154-15.272 56.488-109.507 71.33-200.65 13.295-81.728 25.857-158.922 55.955-169.059 19.651-6.635 45.237 16.019 78.225 69.248 37.356 60.284 63.826 85.778 80.917 77.965 23.702-10.856 25.422-84.04 27.071-154.816 1.565-66.882 3.037-130.056 22.204-138.159 14.604-6.159 38.329 20.843 72.551 82.545 36.506 65.819 62.833 94.687 80.501 88.243 22.45-8.196 27.973-70.327 33.816-136.117 5.896-66.328 11.994-134.897 36.53-145.568 15.607-6.785 37.162 10.201 65.911 51.926l.582-.654c-13.361-19.38-25.187-33.448-35.621-42.312z" fill="#EDEDED" fill-opacity=".2"/><path d="M555.821 34.16c-12.727-10.804-23.496-14.19-32.517-10.32-25.617 11-32.691 79.44-39.53 145.604-6.722 65.034-13.066 126.461-35.581 134.508-17.621 6.288-43.585-21.584-79.377-85.25-33.986-60.447-57.907-86.755-73.127-80.434-20.173 8.381-22.478 71.36-24.901 138.024-2.544 69.828-5.175 142.027-28.946 152.78-17.063 7.722-43.214-16.851-79.966-75.12-32.746-51.917-58.509-73.901-78.75-67.22-31.34 10.346-45.118 87.518-59.714 169.214C7.258 546.429-9.456 639.978-51.214 655.237c-28.95 10.579-66.617-17.808-115.142-86.769l-.576.662c48.735 69.246 86.654 97.725 115.908 87.039 42.215-15.422 58.97-109.278 75.186-200.045C38.697 374.736 52.436 297.866 83.3 287.662c19.924-6.583 45.438 15.303 77.988 66.908 36.968 58.626 63.397 83.294 80.796 75.416 24.282-10.981 26.931-83.527 29.484-153.678 2.411-66.315 4.699-128.947 24.359-137.114 14.867-6.182 38.517 20.028 72.296 80.094 35.988 64.022 62.213 92.017 80.177 85.599 23.019-8.237 29.4-69.98 36.162-135.356 6.811-65.872 13.855-133.98 38.991-144.786 15.879-6.821 37.437 9.53 65.905 49.987l.574-.66c-12.748-18.042-24.103-31.323-34.21-39.912z" fill="#EDEDED" fill-opacity=".2"/><path d="M567.958 35.295C554.702 24.04 543.453 20.5 533.992 24.524c-26.236 11.138-34.275 79.11-42.043 144.861-7.635 64.657-14.85 125.742-37.949 133.827-17.912 6.274-43.777-20.767-79.072-82.657-33.553-58.832-57.395-84.36-72.886-78.022-20.666 8.446-23.782 70.901-27.077 137.02-3.452 69.234-7.016 140.821-31.378 151.715-17.376 7.767-43.505-15.989-79.883-72.629-32.308-50.313-57.985-71.545-78.5-64.896-32.128 10.398-47.09 87.27-62.94 168.669-17.555 90.169-35.709 183.396-78.568 198.804-29.376 10.563-66.997-16.75-115.004-83.496l-.566.672c48.213 67.033 86.08 94.426 115.758 83.752C-12.82 646.573 5.396 553.053 23 462.612c15.795-81.088 30.706-157.687 62.372-167.921 20.199-6.537 45.631 14.596 77.743 64.596 36.591 56.98 62.994 80.832 80.701 72.921 24.86-11.12 28.453-83.05 31.913-152.612 3.276-65.771 6.377-127.885 26.52-136.128 15.14-6.194 38.718 19.217 72.059 77.679 35.495 62.235 61.622 89.389 79.863 82.997 23.603-8.255 30.857-69.652 38.529-134.645 7.732-65.445 15.728-133.113 41.499-144.04 16.146-6.857 37.692 8.878 65.902 48.085l.566-.667c-12.046-16.779-22.93-29.283-32.708-37.582z" fill="#EDEDED" fill-opacity=".2"/><path d="M580.244 36.226c-13.8-11.71-25.544-15.393-35.478-11.228-26.875 11.271-35.878 78.831-44.575 144.172-8.574 64.327-16.657 125.089-40.37 133.206-18.197 6.227-43.967-19.967-78.774-80.102-33.133-57.245-56.899-81.991-72.658-75.648-21.174 8.519-25.105 70.486-29.268 136.077-4.354 68.678-8.867 139.701-33.837 150.744-17.69 7.809-43.794-15.133-79.807-70.165-31.884-48.717-57.491-69.2-78.267-62.619-32.934 10.42-49.104 87.052-66.23 168.192-18.974 89.879-38.593 182.827-82.575 198.399-29.796 10.539-67.369-15.71-114.868-80.268l-.566.672c47.696 64.834 85.512 91.17 115.61 80.53 44.41-15.722 64.093-108.948 83.124-199.112 17.06-80.831 33.178-157.19 65.658-167.464 20.47-6.478 45.828 13.907 77.506 62.321 36.228 55.356 62.592 78.396 80.622 70.428 25.467-11.248 29.991-82.61 34.375-151.611 4.14-65.262 8.052-126.897 28.712-135.206 15.417-6.188 38.916 18.443 71.837 75.318 35.009 60.474 61.035 86.779 79.562 80.437 24.2-8.288 32.334-69.358 40.946-134.012 8.662-65.04 17.622-132.306 44.042-143.38 16.402-6.886 37.962 8.24 65.903 46.227l.561-.68c-11.391-15.51-21.77-27.239-31.185-35.228z" fill="#EDEDED" fill-opacity=".2"/><path d="M592.693 36.956c-14.367-12.188-26.609-16.023-37.04-11.706-27.536 11.404-37.51 78.589-47.156 143.57-9.505 64.029-18.483 124.495-42.814 132.65-18.494 6.191-44.169-19.19-78.485-77.597-32.721-55.663-56.412-79.648-72.447-73.311-21.697 8.573-26.448 70.085-31.488 135.213-5.279 68.168-10.728 138.655-36.339 149.831-18.015 7.861-44.092-14.296-79.752-67.735-31.465-47.144-56.98-66.893-78.011-60.378-33.761 10.462-51.152 86.89-69.582 167.806-20.414 89.652-41.517 182.364-86.641 198.094-30.212 10.524-67.742-14.69-114.732-77.109l-.559.679c47.2 62.675 84.962 87.974 115.467 77.354 45.56-15.883 66.735-108.868 87.198-198.792 18.35-80.615 35.693-156.771 69.006-167.094 20.73-6.425 46.003 13.233 77.275 60.088 35.873 53.758 62.226 76.005 80.56 68.007 26.085-11.387 31.578-82.199 36.872-150.687 5.008-64.779 9.743-125.971 30.936-134.344 15.688-6.205 39.119 17.671 71.632 72.983 34.523 58.744 60.452 84.231 79.269 77.935 24.815-8.316 33.839-69.088 43.396-133.434 9.603-64.687 19.532-131.562 46.623-142.79 16.671-6.906 38.24 7.608 65.923 44.376l.561-.68c-10.787-14.317-20.65-25.27-29.672-32.929z" fill="#EDEDED" fill-opacity=".2"/><path d="M605.279 37.515c-14.942-12.673-27.715-16.674-38.639-12.198-28.202 11.545-39.173 78.377-49.77 143.014-10.464 63.757-20.337 123.968-45.313 132.14-18.777 6.138-44.35-18.435-78.211-75.126-32.316-54.118-55.944-77.335-72.237-71.008-22.228 8.641-27.823 69.719-33.747 134.392-6.199 67.669-12.613 137.655-38.856 148.971-18.323 7.894-44.398-13.467-79.702-65.338-31.048-45.606-56.484-64.64-77.764-58.178-34.61 10.499-53.243 86.753-72.987 167.478-21.868 89.472-44.486 181.988-90.796 197.887-30.612 10.51-68.103-13.695-114.602-73.987l-.562.709c46.709 60.548 84.437 84.828 115.33 74.222C-25.84 664.455-3.158 571.66 18.78 481.931c19.663-80.449 38.243-156.429 72.412-166.797 20.982-6.363 46.173 12.571 77.027 57.888 35.521 52.178 61.853 73.629 80.503 65.603 26.724-11.521 33.158-81.819 39.39-149.812 5.892-64.334 11.46-125.107 33.188-133.539 15.96-6.198 39.328 16.921 71.431 70.691 34.054 57.029 59.885 81.706 78.974 75.457 25.461-8.328 35.384-68.85 45.897-132.929 10.553-64.357 21.47-130.885 49.239-142.25 16.93-6.927 38.5 7 65.943 42.579l.549-.684c-10.113-13.127-19.443-23.321-28.055-30.623z" fill="#EDEDED" fill-opacity=".2"/><path d="M618.035 37.882c-15.541-13.18-28.865-17.338-40.317-12.711-28.906 11.693-40.863 78.212-52.437 142.526-11.418 63.515-22.212 123.502-47.85 131.708-19.044 6.088-44.545-17.687-77.926-72.694-31.913-52.578-55.484-75.064-72.048-68.751-22.789 8.698-29.218 69.388-36.039 133.641-7.137 67.225-14.504 136.737-41.417 148.186-18.645 7.929-44.706-12.672-79.68-62.978-30.64-44.087-55.993-62.398-77.506-56.017-35.478 10.539-55.375 86.654-76.452 167.253-23.359 89.34-47.518 181.701-95.043 197.771-31.002 10.478-68.459-12.713-114.479-70.917l-.549.704c46.224 58.458 83.903 81.725 115.185 71.151 47.94-16.208 72.167-108.861 95.596-198.437 20.998-80.318 40.843-156.18 75.878-166.592 21.215-6.302 46.336 11.927 76.787 55.724 35.183 50.627 61.504 71.306 80.462 63.236 27.387-11.649 34.791-81.478 41.961-149.006 6.778-63.93 13.184-124.305 35.471-132.809 16.233-6.199 39.532 16.184 71.24 68.429 33.583 55.332 59.323 79.215 78.693 73.024 26.106-8.344 36.955-68.63 48.437-132.458 11.514-64.047 23.428-130.273 51.895-141.797 17.187-6.952 38.767 6.386 65.971 40.788l.549-.704c-9.424-11.914-18.212-21.34-26.382-28.27z" fill="#EDEDED" fill-opacity=".2"/><path d="M630.969 38.044c-16.149-13.695-30.032-18.026-42.036-13.227-29.616 11.845-42.586 78.073-55.13 142.122-12.402 63.315-24.126 123.112-50.439 131.323-19.321 6.038-44.718-16.968-77.662-70.306-31.527-51.064-55.028-72.822-71.864-66.526-23.344 8.757-30.628 69.073-38.348 132.948-8.073 66.808-16.42 135.885-44.011 147.47-18.961 7.967-45.007-11.874-79.652-60.65-30.243-42.579-55.512-60.216-77.247-53.887-36.362 10.577-57.549 86.606-79.985 167.1-24.877 89.234-50.591 181.517-99.37 197.773-31.391 10.465-68.796-11.74-114.352-67.889l-.541.71c45.755 56.381 83.391 78.671 115.055 68.124 49.182-16.393 74.982-108.92 99.923-198.413 22.363-80.222 43.48-155.994 79.413-166.445 21.448-6.241 46.483 11.291 76.539 53.618 34.851 49.079 61.167 69.009 80.445 60.909 28.059-11.788 36.439-81.179 44.557-148.287 7.674-63.545 14.923-123.551 37.788-132.129 16.501-6.18 39.749 15.471 71.071 66.202 33.131 53.655 58.779 76.763 78.416 70.633 26.782-8.37 38.562-68.452 51.024-132.079 12.492-63.775 25.415-129.728 54.59-141.387 17.443-6.982 39.037 5.797 65.999 39.026l.539-.714c-8.791-10.824-17.016-19.486-24.722-26.02z" fill="#EDEDED" fill-opacity=".2"/><path d="M644.055 38.031c-16.779-14.224-31.244-18.727-43.819-13.761-30.336 12-44.338 77.957-57.877 141.761-13.398 63.146-26.06 122.778-53.075 131.021-19.59 5.974-44.907-16.262-77.388-67.963-31.145-49.569-54.585-70.608-71.679-64.321-23.928 8.809-32.08 68.802-40.705 132.316-9.023 66.414-18.35 135.096-46.644 146.818-19.27 8.001-45.326-11.103-79.646-58.367-29.852-41.107-55.035-58.048-76.995-51.793-37.278 10.62-59.774 86.595-83.594 167.026-26.413 89.187-53.73 181.399-103.784 197.845-31.763 10.444-69.127-10.803-114.22-64.912l-.533.716c45.295 54.359 82.88 75.667 114.919 65.14 50.45-16.58 77.836-109.049 104.324-198.47 23.75-80.164 46.17-155.885 83.023-166.392 21.681-6.18 46.63 10.675 76.285 51.521 34.534 47.563 60.841 66.735 80.419 58.615 28.748-11.924 38.126-80.913 47.19-147.625 8.579-63.184 16.684-122.871 40.132-131.502 16.764-6.173 39.957 14.772 70.898 64.022 32.678 52.008 58.242 74.344 78.133 68.28 27.475-8.379 40.2-68.303 53.661-131.742 13.487-63.532 27.429-129.221 57.34-141.064 17.69-6.997 39.302 5.211 66.038 37.29l.533-.716c-8.088-9.717-15.729-17.63-22.936-23.743z" fill="#EDEDED" fill-opacity=".2"/><path d="M657.331 37.827c-17.426-14.77-32.494-19.465-45.654-14.312-31.081 12.153-46.117 77.899-60.666 141.471-14.412 63-28.025 122.516-55.759 130.776-19.844 5.908-45.079-15.56-77.12-65.653-30.776-48.103-54.159-68.43-71.513-62.167-24.535 8.853-33.547 68.538-43.102 131.733-9.981 66.058-20.308 134.368-49.326 146.248-19.581 8.027-45.639-10.334-79.648-56.115-29.458-39.652-54.558-55.919-76.723-49.733-38.203 10.667-62.034 86.621-87.269 167.028-27.976 89.178-56.914 181.382-108.268 198.035-32.123 10.417-69.452-9.861-114.099-61.991l-.523.727c44.845 52.361 82.39 72.712 114.778 62.202 51.755-16.789 80.76-109.234 108.818-198.644C36.41 427.287 60.155 351.577 97.95 341.02c21.878-6.107 46.748 10.073 76.019 49.473 34.229 46.062 60.53 64.504 80.419 56.359 29.468-12.069 39.837-80.673 49.865-147.027 9.501-62.871 18.477-122.261 42.526-130.937 17.029-6.147 40.167 14.081 70.738 61.87 32.243 50.387 57.71 71.962 77.855 65.959 28.192-8.389 41.873-68.186 56.343-131.477 14.484-63.317 29.462-128.792 60.133-140.79 17.941-7.014 39.555 4.621 66.079 35.594l.524-.727c-7.396-8.67-14.433-15.818-21.121-21.49z" fill="#EDEDED" fill-opacity=".2"/><path d="M670.814 37.415c-18.102-15.346-33.78-20.206-47.566-14.88-31.844 12.323-47.937 77.874-63.495 141.258-15.447 62.894-30.032 122.31-58.508 130.581-20.096 5.841-45.239-14.898-76.853-63.377-30.415-46.642-53.745-66.287-71.357-60.044-25.152 8.906-35.058 68.321-45.532 131.221-10.953 65.734-22.287 133.711-52.04 145.734-19.898 8.05-45.961-9.582-79.662-53.888-29.082-38.223-54.089-53.832-76.445-47.711-39.15 10.719-64.342 86.689-91.012 167.116-29.575 89.2-60.162 181.435-112.868 198.318-32.475 10.397-69.765-8.938-113.969-59.108l-.517.729c44.405 50.405 81.902 69.807 114.642 59.317C-51.279 695.675-20.615 603.21 9.037 513.77c26.578-80.165 51.69-155.894 90.442-166.502 22.089-6.051 46.864 9.476 75.761 47.451 33.927 44.589 60.226 62.29 80.43 54.124 30.208-12.21 41.586-80.477 52.584-146.49 10.427-62.595 20.279-121.706 44.969-130.451 17.295-6.131 40.38 13.414 70.589 59.743 31.804 48.78 57.185 69.612 77.576 63.689 28.923-8.401 43.575-68.091 59.087-131.275 15.5-63.133 31.531-128.42 62.975-140.598 18.189-7.025 39.819 4.064 66.124 33.913l.516-.733c-6.725-7.612-13.142-14.028-19.276-19.226z" fill="#EDEDED" fill-opacity=".2"/><path d="M684.456 36.839c-18.789-15.923-35.102-20.97-49.528-15.457-32.624 12.487-49.789 77.874-66.383 141.098-16.495 62.824-32.066 122.156-61.302 130.453-20.344 5.767-45.391-14.23-76.58-61.144-30.044-45.201-53.334-64.163-71.19-57.95-25.784 8.961-36.579 68.122-48.005 130.763-11.936 65.454-24.283 133.115-54.802 145.301-20.206 8.063-46.269-8.851-79.685-51.711-28.713-36.821-53.621-51.778-76.161-45.722-40.125 10.785-66.697 86.799-94.826 167.268-31.209 89.273-63.473 181.576-117.546 198.687-32.816 10.386-70.063-8.023-113.837-56.276l-.508.739c43.981 48.476 81.433 66.948 114.501 56.475 54.452-17.232 86.801-109.779 118.08-199.274 28.055-80.235 54.532-156.016 94.264-166.692 22.275-5.993 46.959 8.889 75.487 45.472 33.625 43.127 59.934 60.111 80.432 51.936 30.958-12.355 43.362-80.322 55.348-146.042 11.379-62.336 22.117-121.212 47.443-130.014 17.541-6.096 40.582 12.767 70.426 57.658 31.377 47.2 56.66 67.296 77.305 61.439 29.676-8.412 45.319-68.016 61.883-131.131C585.8 99.735 602.893 34.611 635.128 22.26c18.422-7.06 40.069 3.49 66.166 32.26l.508-.74c-6.002-6.573-11.79-12.236-17.346-16.941z" fill="#EDEDED" fill-opacity=".2"/><path d="M698.323 36.043c-19.493-16.516-36.471-21.762-51.562-16.05-33.423 12.676-51.671 77.93-69.321 141.012-17.555 62.785-34.137 122.084-64.151 130.389-20.58 5.698-45.54-13.588-76.298-58.954-29.692-43.782-52.929-62.061-71.033-55.902-26.441 9.018-38.139 67.971-50.526 130.378-12.938 65.183-26.309 132.589-57.616 144.922-20.512 8.091-46.583-8.133-79.71-49.558-28.342-35.445-53.159-49.768-75.872-43.764-41.113 10.855-69.093 86.947-98.718 167.52-32.865 89.386-66.85 181.808-122.316 199.178-33.148 10.381-70.339-7.122-113.704-53.494l-.505.758c43.554 46.578 80.965 64.143 114.36 53.687 55.84-17.48 89.91-110.13 122.856-199.734 29.532-80.335 57.437-156.203 98.157-166.95 22.455-5.928 47.052 8.307 75.205 43.527 33.331 41.694 59.651 57.971 80.448 49.777 31.738-12.509 45.167-80.2 58.154-145.65 12.333-62.108 23.976-120.782 49.962-129.643 17.803-6.068 40.788 12.129 70.282 55.614 30.956 45.643 56.154 65.032 77.019 59.251 30.446-8.436 47.106-67.995 64.735-131.048 17.587-62.855 35.759-127.854 68.798-140.38 18.666-7.083 40.323 2.953 66.215 30.629l.504-.758c-5.301-5.645-10.413-10.562-15.363-14.757z" fill="#EDEDED" fill-opacity=".2"/><path d="M712.397 35.07c-20.224-17.132-37.874-22.583-53.66-16.651-34.248 12.87-53.598 78.004-72.316 140.996-18.649 62.766-36.268 122.064-67.08 130.397-20.807 5.629-45.675-12.957-76.024-56.791-29.349-42.382-52.526-60.007-70.876-53.863-27.109 9.069-39.733 67.831-53.086 130.045-13.949 64.946-28.377 132.117-60.474 144.624-20.814 8.107-46.9-7.412-79.741-47.442-27.984-34.098-52.706-47.787-75.579-41.849-42.119 10.93-71.539 87.149-102.68 167.845-34.551 89.538-70.283 182.105-127.187 199.752-33.469 10.366-70.616-6.226-113.571-50.762l-.498.764c43.151 44.734 80.505 61.389 114.226 50.936C-68.886 715.317-33.067 622.52 1.565 532.77c31.052-80.47 60.38-156.468 102.125-167.303 22.617-5.869 47.117 7.739 74.915 41.62 33.059 40.272 59.373 55.865 80.47 47.65 32.525-12.67 47.008-80.106 61.017-145.319 13.293-61.917 25.85-120.404 52.521-129.324 18.05-6.039 40.985 11.494 70.128 53.594 30.534 44.116 55.645 62.783 76.734 57.087 31.232-8.448 48.928-67.997 67.656-131.043 18.643-62.758 37.919-127.654 71.786-140.371 18.888-7.097 40.568 2.4 66.259 29.035l.497-.764c-4.538-4.731-8.967-8.91-13.276-12.562z" fill="#EDEDED" fill-opacity=".2"/><path d="M726.683 33.89c-20.973-17.769-39.317-23.405-55.824-17.258-35.082 13.07-55.559 78.125-75.35 141.039-19.759 62.799-38.425 122.112-70.045 130.467-21.018 5.548-45.796-12.328-75.748-54.668-28.999-41.011-52.14-57.991-70.724-51.877-27.803 9.118-41.358 67.731-55.708 129.771-14.976 64.752-30.464 131.719-63.396 144.38-21.107 8.119-47.201-6.71-79.77-45.342-27.631-32.763-52.255-45.846-75.276-39.968C61.686 381.458 30.802 457.826-1.89 538.69c-36.277 89.714-73.786 182.496-132.153 200.43-33.776 10.384-70.881-5.331-113.443-48.058l-.49.771c42.748 42.899 80.074 58.676 114.081 48.219 58.714-18.05 96.323-111.033 132.679-200.953 32.604-80.634 63.395-156.795 106.172-167.712 22.77-5.82 47.185 7.19 74.627 39.737 32.786 38.875 59.112 53.775 80.495 45.543 33.351-12.831 48.893-80.058 63.927-145.07 14.284-61.766 27.77-120.088 55.133-129.071 18.286-6.005 41.184 10.884 69.994 51.604 30.131 42.606 55.136 60.575 76.437 54.951 32.053-8.462 50.791-68.028 70.638-131.087 19.728-62.686 40.123-127.51 74.828-140.438 19.124-7.126 40.812 1.855 66.323 27.448l.486-.775a178.36 178.36 0 00-11.161-10.338z" fill="#EDEDED" fill-opacity=".2"/><path d="M741.202 32.528C719.458 14.107 700.388 8.25 683.13 14.633c-35.943 13.275-57.55 78.279-78.45 141.151-20.894 62.855-40.627 122.221-73.099 130.594-21.235 5.479-45.906-11.719-75.459-52.582-28.668-39.656-51.748-55.982-70.569-49.927-28.512 9.189-43.014 67.65-58.366 129.559-16.014 64.587-32.588 131.373-66.364 144.222-21.406 8.139-47.512-6.022-79.819-43.287-27.282-31.477-51.798-43.942-74.969-38.109-44.2 11.122-76.571 87.678-110.852 168.734-38.033 89.944-77.367 182.948-137.222 201.21-34.069 10.391-71.139-4.469-113.319-45.402l-.479.781c42.366 41.121 79.641 56.03 113.941 45.566 60.2-18.368 99.62-111.577 137.738-201.724 34.185-80.832 66.467-157.183 110.306-168.217 22.913-5.767 47.23 6.626 74.333 37.887 32.512 37.504 58.853 51.72 80.532 43.483 34.184-12.999 50.814-80.049 66.898-144.893 15.286-61.635 29.724-119.837 57.794-128.885 18.527-5.957 41.377 10.281 69.847 49.661 29.74 41.114 54.645 58.418 76.152 52.852 32.888-8.487 52.698-68.083 73.672-131.204 20.827-62.644 42.363-127.426 77.935-140.578 19.338-7.147 41.057 1.332 66.372 25.895l.482-.782c-3.039-2.904-6.031-5.63-8.963-8.11z" fill="#EDEDED" fill-opacity=".2"/><path d="M755.944 30.955c-22.54-19.092-42.357-25.153-60.39-18.54-36.816 13.508-59.579 78.487-81.591 141.334-22.044 62.931-42.872 122.384-76.193 130.784-21.429 5.415-46.016-11.111-75.174-50.534-28.344-38.318-51.375-54.014-70.419-47.99-29.236 9.238-44.709 67.613-61.079 129.422-17.074 64.449-34.733 131.077-69.377 144.116-21.693 8.163-47.814-5.324-79.855-41.259-26.946-30.208-51.372-42.073-74.663-36.294-45.262 11.238-79.166 88.02-115.055 169.301-39.828 90.206-81.01 183.483-142.381 202.097-34.345 10.415-71.378-3.576-113.194-42.791l-.464.794c41.993 39.381 79.222 53.425 113.801 42.941C-88.381 735.629-47.113 642.153-7.198 551.758c35.8-81.076 69.605-157.653 114.509-168.804 23.043-5.723 47.261 6.08 74.024 36.089 32.258 36.143 58.605 49.698 80.562 41.448 35.043-13.175 52.78-80.074 69.916-144.775 16.301-61.529 31.693-119.641 60.507-128.748 18.75-5.926 41.549 9.688 69.703 47.736 29.345 39.655 54.148 56.269 75.847 50.803 33.732-8.511 54.634-68.192 76.777-131.369 21.941-62.625 44.622-127.386 81.081-140.772 19.555-7.173 41.286.797 66.431 24.373l.47-.786a167.519 167.519 0 00-6.685-5.998z" fill="#EDEDED" fill-opacity=".2"/><path d="M770.918 29.21c-23.365-19.793-43.941-26.074-62.791-19.185-37.704 13.751-61.639 78.738-84.799 141.581-23.232 63.052-45.168 122.596-79.373 131.044-21.615 5.337-46.097-10.535-74.871-48.523-28.024-36.988-51.003-52.071-70.26-46.097-29.983 9.301-46.422 67.602-63.848 129.326-18.148 64.335-36.925 130.871-72.462 144.087-21.981 8.177-48.112-4.657-79.908-39.262-26.615-28.963-50.934-40.245-74.339-34.498-46.34 11.375-81.797 88.393-119.326 169.949-41.654 90.508-84.728 184.087-147.647 203.069-34.628 10.446-71.613-2.71-113.074-40.217l-.456.799c41.65 37.669 78.827 50.876 113.672 40.362 63.25-19.08 106.406-112.857 148.145-203.549 37.446-81.348 72.8-158.183 118.784-169.463 23.167-5.681 47.278 5.539 73.711 34.303 31.993 34.816 58.365 47.728 80.61 39.443 35.929-13.368 54.767-80.147 72.989-144.731 17.343-61.461 33.719-119.503 63.286-128.681 18.974-5.897 41.728 9.107 69.547 45.846 28.955 38.218 53.663 54.179 75.544 48.773 34.601-8.538 56.627-68.328 79.949-131.615 23.075-62.63 46.937-127.409 84.294-141.028 19.77-7.213 41.501.264 66.491 22.857l.459-.802a145.82 145.82 0 00-4.327-3.787z" fill="#EDEDED" fill-opacity=".2"/><path d="M786.156 27.24C761.943 6.734 740.577.243 720.881 7.382c-38.618 14.012-63.755 79.025-88.065 141.891-24.432 63.191-47.519 122.873-82.613 131.36-21.784 5.272-46.184-9.951-74.568-46.537-27.705-35.702-50.641-50.167-70.109-44.23-30.747 9.373-48.193 67.63-66.67 129.32-19.25 64.256-39.152 130.697-75.6 144.128-22.252 8.193-48.402-4.005-79.957-37.292-26.298-27.746-50.508-38.462-74.021-32.744C61.831 404.81 24.792 482.12-14.418 563.971c-43.52 90.833-88.518 184.76-153.005 204.142-34.894 10.491-71.852-1.851-112.946-37.682l-.449.807c41.302 36.007 78.431 48.365 113.538 37.82 64.81-19.488 109.9-113.592 153.497-204.611 39.12-81.659 76.063-158.78 123.157-170.213 23.281-5.65 47.297 4.992 73.414 32.553 31.752 33.505 58.138 45.763 80.647 37.469 36.836-13.561 56.809-80.255 76.125-144.746 18.397-61.423 35.765-119.43 66.111-128.681 19.192-5.854 41.893 8.532 69.41 43.983 28.568 36.819 53.176 52.125 75.226 46.794 35.49-8.578 58.656-68.496 83.178-131.923 24.231-62.67 49.291-127.477 87.563-141.353 19.98-7.246 41.72-.262 66.552 21.369l.451-.808c-.62-.572-1.259-1.112-1.895-1.653z" fill="#EDEDED" fill-opacity=".2"/><path d="M801.036 24.563C776.202 3.72 754.203-2.835 733.798 4.543c-39.539 14.292-65.892 79.348-91.371 142.27-25.667 63.362-49.912 123.22-85.922 131.75-21.954 5.207-46.236-9.379-74.262-44.583-27.389-34.425-50.267-48.285-69.94-42.392-31.534 9.446-49.996 67.682-69.545 129.348-20.356 64.203-41.407 130.592-78.795 144.24-22.519 8.219-48.701-3.342-80.019-35.37-25.982-26.564-50.08-36.709-73.704-31.014-48.56 11.697-87.21 89.333-128.132 171.518-45.413 91.206-92.374 185.513-158.458 205.33-35.152 10.541-72.062-.967-112.846-35.194l-.44.813c40.958 34.375 78.059 45.934 113.419 35.315 66.402-19.91 113.449-114.397 158.954-205.78C23.57 488.805 62.124 411.368 110.34 399.747c23.38-5.632 47.296 4.454 73.099 30.837 31.513 32.221 57.905 43.839 80.696 35.529 37.755-13.78 58.875-80.405 79.315-144.846 19.473-61.412 37.865-119.412 68.98-128.732 19.398-5.81 42.054 7.969 69.26 42.16 28.197 35.443 52.705 50.098 74.912 44.834 36.396-8.63 60.722-68.7 86.482-132.3 25.409-62.73 51.68-127.588 90.886-141.75 20.178-7.298 41.979-.775 66.623 19.908l.443-.824z" fill="#EDEDED" fill-opacity=".2"/><path d="M814.194 20.059C789.503.145 767.489-5.93 746.887 1.486c-40.48 14.58-68.072 79.715-94.763 142.717-26.927 63.576-52.358 123.616-89.31 132.217-22.102 5.145-46.291-8.812-73.945-42.67-27.086-33.176-49.919-46.455-69.776-40.595-32.321 9.523-51.831 67.774-72.485 129.451-21.487 64.181-43.715 130.555-82.038 144.42-22.791 8.245-48.982-2.694-80.075-33.457-25.663-25.408-49.668-34.998-73.368-29.328-49.694 11.891-89.993 89.861-132.66 172.414C-56.4 644.12-92.46 713.878-136.518 753.867c-49.899 45.307-102.821 44.213-161.77-3.343l-.422.829c31.307 25.25 61.437 37.613 89.542 36.745 25.237-.783 49.143-11.723 73.071-33.446 44.182-40.106 80.282-109.958 115.189-177.5 42.57-82.354 82.781-160.159 132.142-171.964 23.466-5.617 47.268 3.914 72.779 29.143 31.282 30.955 57.693 41.95 80.741 33.605 38.697-14.004 60.998-80.596 82.56-145.001 20.564-61.421 39.993-119.44 71.928-128.849 19.597-5.778 42.199 7.434 69.101 40.372 27.83 34.09 52.231 48.118 74.585 42.914 37.321-8.687 62.844-68.945 89.869-132.74 26.601-62.811 54.114-127.76 94.266-142.222 20.386-7.345 42.197-1.3 66.702 18.46l.429-.811z" fill="#EDEDED" fill-opacity=".2"/><path d="M827.541 15.33c-24.543-18.996-46.583-24.6-67.376-17.125-41.439 14.896-70.287 80.132-98.191 143.236-28.211 63.804-54.861 124.069-92.767 132.74-22.242 5.091-46.331-8.245-73.624-40.782-26.788-31.946-49.56-44.635-69.616-38.817-33.144 9.616-53.709 67.911-75.484 129.621-22.646 64.183-46.058 130.56-85.36 144.676-23.067 8.284-49.275-2.039-80.146-31.566-25.37-24.274-49.268-33.317-73.041-27.652-50.83 12.095-92.817 90.438-137.258 173.373-36.12 67.42-73.477 137.124-118.577 177.594-51.075 45.829-104.643 45.867-163.756.101l-.414.835c59.391 45.986 113.234 45.929 164.589-.156 45.22-40.574 82.608-110.362 118.781-177.847 44.348-82.763 86.237-160.93 136.748-172.972 23.557-5.604 47.255 3.383 72.466 27.486 31.056 29.721 57.487 40.085 80.789 31.716 39.662-14.249 63.166-80.838 85.882-145.233 21.689-61.466 42.167-119.531 74.926-129.043 19.798-5.742 42.341 6.884 68.944 38.592 27.475 32.757 51.768 46.167 74.265 41.026 38.268-8.759 65.003-69.228 93.315-133.243C690.46 78.978 719.227 13.919 760.349-.865c20.585-7.398 42.422-1.824 66.782 17.039l.41-.843z" fill="#EDEDED" fill-opacity=".2"/><path d="M841.067 10.412C816.66-7.697 794.599-12.843 773.628-5.3c-42.412 15.224-72.547 80.606-101.685 143.83-29.526 64.068-57.416 124.581-96.284 133.336-22.374 5.043-46.353-7.692-73.294-38.939-26.495-30.727-49.216-42.857-69.447-37.073-33.98 9.712-55.628 68.067-78.54 129.859-23.815 64.218-48.448 130.626-88.749 145.003-23.32 8.317-49.553-1.407-80.198-29.72-25.092-23.163-48.878-31.685-72.72-26.019-51.992 12.358-95.691 91.099-141.949 174.476-37.401 67.394-76.063 137.083-122.214 178.021-52.275 46.378-106.512 47.539-165.799 3.557l-.406.841c59.572 44.194 114.069 43.016 166.619-3.605 46.27-41.043 84.972-110.81 122.414-178.277C17.54 506.79 61.14 428.2 112.824 415.927c23.64-5.618 47.238 2.842 72.156 25.857 30.843 28.48 57.286 38.261 80.841 29.849 40.654-14.496 65.354-81.114 89.257-145.548 22.829-61.543 44.398-119.682 77.997-129.292 19.983-5.709 42.476 6.338 68.793 36.854 27.127 31.454 51.302 44.258 73.932 39.165 39.23-8.844 67.206-69.556 96.84-133.833 29.058-63.053 59.103-128.244 101.216-143.36 20.771-7.46 42.641-2.348 66.859 15.62l.352-.827z" fill="#EDEDED" fill-opacity=".2"/><path d="M854.798 5.29C772.5-53.136 726.511 42.74 682.019 135.455c-30.874 64.362-60.036 125.148-99.884 134-22.498 5.002-46.376-7.143-72.975-37.119-26.21-29.536-48.868-41.103-69.276-35.346-34.838 9.828-57.581 68.269-81.661 130.141-25.016 64.28-50.88 130.752-92.198 145.403-23.576 8.357-49.82-.76-80.276-27.886-21.098-18.786-41.24-27.301-61.579-26.029-18.248 1.152-36.31 10.229-55.228 27.748-35.243 32.64-67.825 89.415-102.333 149.532-38.678 67.4-78.669 137.09-125.903 178.532-53.497 46.942-108.422 49.245-167.915 7.001l-.39.855c59.767 42.429 114.963 40.119 168.719-7.063 47.338-41.545 87.379-111.303 126.093-178.765C1.67 536.411 34.22 479.696 69.36 447.148c39.411-36.493 76.219-37.058 115.926-1.687 30.624 27.282 57.104 36.457 80.904 28.016 41.657-14.769 67.612-81.452 92.702-145.936 23.995-61.648 46.651-119.88 81.115-129.593 20.155-5.689 42.605 5.815 68.624 35.145 26.782 30.176 50.85 42.387 73.589 37.337 40.215-8.943 69.467-69.92 100.438-134.481C726.941 43.64 772.738-51.814 854.392 6.152l.406-.861z" fill="#EDEDED" fill-opacity=".2"/></svg>