<svg width="1920" height="938" fill="none" xmlns="http://www.w3.org/2000/svg"><mask id="a" style="mask-type:alpha" maskUnits="userSpaceOnUse" x="0" y="0" width="1920" height="938"><path fill="#D9D9D9" d="M0 0h1920v938H0z"/></mask><g mask="url(#a)" fill-opacity=".2"><path d="M482.468 30.269C475.302 15 466.489 6.634 456.223 5.08c-36.124-5.434-85.71 74.096-133.746 151.038-44.84 71.939-91.229 146.293-121.833 140.514-25.374-4.83-38.448-63.572-39.998-179.589-1.453-109.289-12.977-164.149-35.252-167.599-28.376-4.399-69.44 72.63-112.827 154.229-45.518 85.568-92.585 173.982-126.288 169.411-25.083-3.364-40.288-57.966-46.293-166.909C-165.534 7.151-182.579-44-212.02-50.211c-42.419-8.97-104.304 75.044-169.87 163.89-72.635 98.334-147.691 199.946-204.347 189.164-42.225-8.109-69.245-77.978-82.513-213.834l-1.259.173c13.268 136.374 40.579 206.674 83.385 214.782 57.527 11.041 132.874-91.002 205.606-189.595 65.371-88.5 127.063-172.17 168.61-163.372 28.957 6.124 45.615 56.93 51.135 155.35 6.102 109.548 21.597 164.494 47.262 167.944 34.574 4.658 81.932-84.187 127.644-170.1 43.193-81.169 83.966-157.766 111.47-153.54 21.694 3.365 32.832 57.794 34.284 166.478 1.55 116.621 14.915 175.708 40.966 180.711 31.476 5.951 76.122-65.47 123.286-141.118C371.385 80.126 420.777.941 456.029 6.289c23.437 3.537 38.545 43.56 46.196 122.486l1.259-.172c-4.552-45.372-11.428-78.064-21.016-98.334z" fill="url(#paint0_linear_307_2794)"/><path d="M493.606 41.655c-7.554-15.958-16.658-24.67-27.505-26.395-36.898-5.693-87.259 72.456-135.876 148.018-45.518 70.732-92.682 143.792-123.964 137.668-25.761-5.003-39.32-62.71-41.45-176.225-1.937-107.046-13.946-160.87-36.608-164.494-28.958-4.571-70.505 71.077-114.57 151.124-46.1 84.015-93.845 170.877-128.225 166.046-25.568-3.536-41.16-57.102-47.843-163.803-6.004-96.781-23.534-146.984-53.362-153.453-43.291-9.402-106.241 73.147-172.969 160.44-73.797 96.608-150.112 196.581-208.027 185.195-42.903-8.453-70.601-77.028-84.644-209.779l-1.259.173c14.14 133.354 42.128 202.274 85.516 210.728 58.786 11.558 135.295-88.76 209.383-185.714C-321.36 34.15-258.604-47.967-216.185-38.824c29.345 6.383 46.487 56.24 52.491 152.418 6.683 107.304 22.662 161.216 48.811 164.838 35.35 4.917 83.288-82.376 129.581-166.736C58.473 31.994 99.827-43.223 127.815-38.824c21.984 3.537 33.703 56.93 35.64 163.373 2.13 114.119 15.98 172.17 42.322 177.259 32.153 6.297 77.381-63.917 125.32-138.271 48.423-75.217 98.59-152.935 134.52-147.415 23.824 3.71 39.32 43.043 47.552 120.244l1.259-.173c-4.455-42.956-11.428-74.44-20.822-94.538z" fill="url(#paint1_linear_307_2794)"/><path d="M505.034 52.955c-7.845-16.734-17.433-25.878-28.764-27.69-37.673-5.95-88.712 70.732-138.2 145-46.293 69.438-94.135 141.291-126.095 134.908-26.245-5.262-40.191-61.847-42.806-172.947-2.518-104.804-14.915-157.594-37.964-161.389-29.538-4.83-71.667 69.438-116.313 148.105-46.777 82.462-95.104 167.771-130.259 162.682-25.955-3.709-42.129-56.326-49.392-160.784-6.586-94.539-24.502-143.792-54.719-150.607-44.162-9.747-108.274 71.336-176.067 157.248-75.056 94.97-152.728 193.218-211.901 181.314-43.484-8.712-71.86-76.079-86.775-205.897l-1.259.172c15.011 130.336 43.678 197.962 87.647 206.847 60.045 12.076 137.909-86.517 213.256-181.832C-326.978 42.517-263.156-38.22-219.865-28.559c29.732 6.642 47.358 55.55 53.847 149.571 7.263 105.062 23.727 158.024 50.36 161.82 36.027 5.175 84.644-80.565 131.615-163.373 44.356-78.235 86.291-152.158 114.86-147.5 22.372 3.709 34.478 56.067 36.996 160.353 2.615 111.704 16.948 168.548 43.775 173.982 32.831 6.642 78.833-62.365 127.45-135.425C388.236 97.032 439.081 20.608 475.883 26.474c24.211 3.881 40.094 42.438 48.81 118l1.26-.172c-4.746-41.232-11.622-71.594-20.919-91.347z" fill="url(#paint2_linear_307_2794)"/><path d="M516.752 64.168c-8.232-17.51-18.207-27.085-30.119-28.982-38.448-6.297-90.358 69.092-140.525 142.066-49.198 71.422-95.588 138.875-128.225 132.061-26.633-5.521-41.063-60.984-44.259-169.669-3.003-102.647-15.883-154.488-39.223-158.37-30.217-5.089-72.926 67.885-118.153 145.172-47.359 80.996-96.46 164.753-132.293 159.491-26.439-3.882-43.097-55.464-50.942-157.852-7.069-92.382-25.47-140.686-56.074-147.76-45.131-10.35-110.309 69.438-179.36 153.798-76.413 93.418-155.44 190.026-215.969 177.519-44.065-9.143-73.216-75.217-88.905-202.016l-1.259.259c15.786 127.403 45.227 193.735 89.777 202.965 61.401 12.679 140.621-84.274 217.324-178.037 68.761-84.101 133.746-163.458 178.005-153.366 30.119 6.9 48.133 54.86 55.202 146.725 7.942 102.905 24.89 154.832 51.91 158.8 36.802 5.434 86.097-78.753 133.649-160.094 44.937-76.856 87.453-149.399 116.7-144.482 22.759 3.795 35.349 55.291 38.255 157.334 3.196 109.289 18.013 165.098 45.13 170.704 33.51 6.901 80.19-60.898 129.678-132.664 49.973-72.543 101.593-147.587 139.169-141.463 24.599 3.968 40.967 41.921 50.167 115.844l1.259-.259c-4.842-39.161-11.815-68.316-20.919-87.724z" fill="url(#paint3_linear_307_2794)"/><path d="M528.761 75.209c-8.619-18.287-19.079-28.293-31.572-30.363-39.223-6.555-92.005 67.54-142.946 139.134-49.973 70.214-97.234 136.46-130.549 129.387-27.021-5.779-41.935-60.208-45.615-166.478C174.592 46.399 161.324-4.407 137.5-8.547c-30.797-5.348-74.185 66.332-119.993 142.239-48.036 79.53-97.816 161.733-134.424 156.213-26.923-4.054-44.065-54.688-52.588-154.919-7.651-90.226-26.439-137.582-57.43-144.913-46.099-10.783-112.439 67.54-182.75 150.606-77.768 91.864-158.248 186.92-220.133 173.809-44.646-9.488-74.475-74.268-91.036-198.22l-1.259.259c16.658 124.47 46.68 189.594 91.908 199.169 62.757 13.284 143.43-82.031 221.489-174.241C-338.696 58.82-272.647-19.33-227.322-8.634c30.507 7.16 49.004 54.257 56.558 143.965 8.523 100.749 26.052 151.727 53.557 155.868 37.576 5.693 87.55-76.942 135.876-156.903C64.284 58.82 107.38-12.515 137.306-7.254c23.147 4.055 36.124 54.515 39.611 154.402 3.777 106.874 18.981 161.647 46.583 167.513 34.284 7.245 81.739-59.346 132.002-129.905 50.748-71.248 103.239-144.999 141.687-138.53 24.987 4.14 41.741 41.318 51.426 113.688l1.259-.259c-5.23-37.349-12.106-65.383-21.113-84.446z" fill="url(#paint4_linear_307_2794)"/><path d="M541.158 86.25c-8.91-19.063-19.951-29.586-33.025-31.743-40.095-6.814-93.651 65.901-145.464 136.288-50.845 69.006-98.784 134.13-132.971 126.712-27.408-5.951-42.806-59.431-47.067-163.372-4.068-98.334-17.723-148.277-41.838-152.504-31.476-5.607-75.444 64.78-121.93 139.307-48.811 78.149-99.172 158.886-136.748 153.107-27.408-4.226-45.034-53.911-54.138-151.986-8.135-88.07-27.407-134.562-58.786-142.153-47.067-11.3-114.666 65.728-186.236 147.415-79.124 90.225-160.96 183.643-224.394 169.928-45.325-9.834-75.735-73.406-93.167-194.426l-1.259.259c17.432 121.537 48.23 185.454 94.038 195.374 64.113 13.888 146.336-79.875 225.75-170.445C-344.701 66.583-277.295-10.186-231.099.941c30.797 7.418 49.779 53.652 57.817 141.204 9.104 98.593 27.118 148.622 55.106 152.935 38.352 5.952 89.002-75.217 138.104-153.711C66.22 67.187 109.995-2.768 140.502 2.666c23.534 4.227 36.899 53.739 40.966 151.469 4.262 104.458 19.951 158.283 47.94 164.407 34.961 7.677 83.191-57.879 134.326-127.23C415.354 121.271 468.619 48.9 507.939 55.628c25.374 4.313 42.613 40.8 52.782 111.532l1.259-.259c-5.133-35.193-12.009-62.019-20.822-80.651z" fill="url(#paint5_linear_307_2794)"/><path d="M554.038 96.774c-9.297-19.84-20.822-30.88-34.477-33.21-40.966-7.16-95.394 64.262-148.079 133.355-51.716 67.799-100.527 131.802-135.392 123.952-27.795-6.21-43.581-58.655-48.423-160.094-4.552-96.177-18.692-145.086-43.194-149.571C112.417 5.34 67.77 74.433 20.509 147.666-28.98 224.349-80.211 303.62-118.563 297.582c-27.795-4.399-46.002-53.135-55.687-149.054-8.619-85.912-28.279-131.543-60.045-139.306-48.036-11.817-116.894 63.917-189.82 144.137-80.77 88.587-164.252 180.365-229.043 166.046-45.905-10.178-76.993-72.543-95.2-190.63l-1.259.259c18.304 118.605 49.682 181.228 96.072 191.579 65.565 14.491 149.338-77.632 230.302-166.737 72.635-79.874 141.202-155.35 188.464-143.705 31.184 7.677 50.554 52.962 59.173 138.357 9.685 96.437 28.279 145.517 56.655 150.089 39.223 6.211 90.65-73.405 140.428-150.52C68.448 75.295 112.901 6.547 144.086 12.241c23.921 4.4 37.77 52.962 42.225 148.536 4.842 102.043 20.919 154.833 49.295 161.13 35.736 8.022 84.838-56.327 136.748-124.47 52.394-68.748 106.628-139.824 146.819-132.838 25.762 4.486 43.388 40.283 54.041 109.375l1.259-.258c-5.133-33.123-11.912-58.742-20.435-76.942z" fill="url(#paint6_linear_307_2794)"/><path d="M567.209 107.038c-9.781-20.702-21.693-32.174-36.123-34.762-41.838-7.504-97.235 62.623-150.791 130.422-52.588 66.591-102.27 129.473-137.91 121.278-28.182-6.469-44.453-57.879-49.779-156.903-5.036-94.02-19.66-141.98-44.55-146.638-32.734-6.21-78.058 61.674-126.094 133.527-50.264 75.217-102.27 153.022-141.397 146.725-28.279-4.572-46.97-52.359-57.236-146.121-9.201-83.756-29.248-128.438-61.304-136.546-49.102-12.421-119.316 62.02-193.5 140.859-82.223 87.293-167.352 177.519-233.595 162.51-46.486-10.524-78.252-71.594-97.331-186.835l-1.259.259c19.079 115.672 51.232 177.087 98.203 187.697 67.018 15.181 152.34-75.389 234.95-162.941C-356.516 81.074-286.592 6.893-238.266 19.141c31.572 7.936 51.329 52.273 60.433 135.598 10.362 94.279 29.344 142.411 58.205 147.069 39.997 6.47 92.295-71.68 142.752-147.242C70.869 83.145 115.903 15.605 147.863 21.643c24.308 4.571 38.545 52.186 43.581 145.603 5.423 99.628 21.984 151.296 50.651 157.938 36.511 8.453 86.484-54.774 139.265-121.796 53.363-67.54 108.469-137.236 149.532-129.904 26.149 4.658 44.162 39.765 55.3 107.218l1.259-.259c-5.23-31.311-11.913-55.722-20.242-73.405z" fill="url(#paint7_linear_307_2794)"/><path d="M580.768 117.217c-10.169-21.565-22.662-33.555-37.673-36.315-42.71-7.85-99.075 60.984-153.6 127.575-53.556 65.47-104.11 127.231-140.621 118.605-28.57-6.728-45.228-57.103-51.135-153.798-5.617-91.864-20.532-138.875-45.809-143.792-33.509-6.469-79.511 60.122-128.322 130.681-51.038 73.837-103.82 150.175-143.914 143.533-28.764-4.744-47.939-51.668-58.883-143.274-9.685-81.6-30.12-125.42-62.563-133.786-50.167-12.939-121.737 60.208-197.374 137.667-83.87 85.741-170.547 174.414-238.437 158.801-47.068-10.868-79.511-70.731-99.365-183.039l-1.259.259c19.854 112.825 52.685 172.947 100.14 183.901 68.761 15.872 155.729-73.06 239.889-159.145 75.444-77.115 146.723-150.003 196.115-137.323 31.863 8.195 52.104 51.669 61.692 132.837 10.943 92.21 30.506 139.393 59.754 144.223 40.87 6.815 93.942-69.955 145.27-144.136 48.52-70.128 94.329-136.374 126.87-130.077 24.696 4.744 39.32 51.496 44.937 142.756 5.907 97.299 22.953 147.933 52.007 154.833 37.286 8.798 88.13-53.307 141.977-119.036 54.234-66.246 110.308-134.82 152.243-127.144 26.536 4.83 45.034 39.248 56.656 105.149l1.259-.259c-5.23-29.414-11.816-52.617-19.854-69.696z" fill="url(#paint8_linear_307_2794)"/><path d="M594.714 127.309c-10.556-22.427-23.631-34.935-39.417-37.867-43.678-8.195-101.011 59.431-156.407 124.815-54.525 64.262-106.048 124.987-143.334 115.93-28.86-6.987-46.099-56.326-52.491-150.692-6.101-89.708-21.5-135.856-47.164-140.946-34.187-6.814-80.964 58.57-130.55 127.835-51.91 72.456-105.563 147.414-146.432 140.427-29.151-5.003-48.908-50.892-60.433-140.514-10.168-79.53-31.087-122.4-63.822-131.025-51.232-13.543-124.157 58.396-201.441 134.476-85.516 84.36-173.937 171.48-243.376 155.177-47.649-11.213-80.77-69.868-101.302-179.33l-1.259.259c20.725 109.979 54.137 168.893 102.173 180.279 70.118 16.475 158.926-70.904 244.636-155.523 76.896-75.82 149.628-147.5 200.085-134.13 32.25 8.453 52.879 51.064 62.951 130.076 11.524 90.053 31.572 136.374 61.4 141.463 41.741 7.073 95.685-68.144 147.789-141.032C75.615 98.154 122.198 33.115 155.513 39.671c25.084 4.916 40.192 50.72 46.196 139.91 6.489 94.97 23.921 144.568 53.363 151.728 38.061 9.229 89.874-51.755 144.689-116.449C454.964 149.822 512.007 82.54 554.91 90.563c26.923 5.003 45.808 38.73 57.914 103.078l1.259-.259c-5.133-27.602-11.621-49.598-19.369-66.073z" fill="url(#paint9_linear_307_2794)"/><path d="M608.951 137.228c-11.041-23.375-24.696-36.4-41.16-39.592-44.647-8.54-102.949 57.879-159.41 122.055-55.59 63.141-108.081 122.831-146.142 113.343-29.248-7.246-46.874-55.637-53.847-147.674-6.586-87.638-22.469-132.837-48.423-138.185-34.962-7.073-82.514 57.103-132.874 125.074C-25.59 243.412-80.212 316.99-122.05 309.744c-29.636-5.175-49.877-50.202-61.982-137.754-10.654-77.46-31.96-119.467-64.985-128.351-52.394-14.06-126.772 56.585-205.509 131.457-87.259 82.893-177.52 168.634-248.606 151.555-48.133-11.559-81.932-69.007-103.335-175.708l-1.259.259c21.5 107.132 55.59 164.925 104.207 176.57 71.764 17.252 162.315-68.748 249.768-151.9 78.446-74.527 152.631-145 204.25-131.026 32.541 8.799 53.556 50.461 64.209 127.403 12.106 87.983 32.735 133.355 62.951 138.616 42.71 7.419 97.428-66.504 150.5-138.012 50.07-67.626 97.428-131.457 131.518-124.556 25.374 5.175 40.966 50.03 47.552 137.15 6.973 92.64 24.889 141.29 54.621 148.708 38.933 9.661 91.618-50.288 147.498-113.774C465.52 156.464 523.628 90.391 567.5 98.757c27.214 5.176 46.583 38.213 59.174 101.008l1.258-.345c-5.133-25.532-11.427-46.234-18.981-62.192z" fill="url(#paint10_linear_307_2794)"/><path d="M623.671 147.148c-11.428-24.325-25.664-37.954-43-41.318-45.615-8.884-104.982 56.327-162.509 119.381-56.656 62.106-110.115 120.761-149.047 110.842-29.636-7.591-47.649-54.86-55.106-144.741-7.167-85.654-23.34-129.904-49.683-135.425-35.639-7.418-84.063 55.636-135.295 122.4-53.653 69.869-109.05 142.153-151.856 134.476-30.119-5.348-50.941-49.512-63.531-134.994-11.234-75.389-32.831-116.534-66.147-125.677-53.556-14.75-129.387 54.774-209.77 128.351-89.002 81.514-181.103 165.788-253.835 148.019-48.714-11.904-83.192-68.23-105.273-172.171l-1.259.345c22.275 104.372 56.946 161.044 106.144 173.033 73.41 17.942 165.802-66.591 255.095-148.363 80.092-73.319 155.73-142.498 208.511-128.007 32.831 9.057 54.234 49.857 65.372 124.815 12.784 86 33.896 130.509 64.5 135.943 43.58 7.763 99.365-64.78 153.211-134.994 50.942-66.418 99.075-129.128 133.94-121.882 25.761 5.348 41.741 49.34 48.81 134.476 7.554 90.398 25.859 138.013 55.978 145.689 39.804 10.093 93.554-48.821 150.403-111.272 57.237-62.71 116.313-127.662 161.25-118.863 27.601 5.348 47.358 37.781 60.432 99.024l1.26-.345c-5.327-23.98-11.428-43.474-18.595-58.742z" fill="url(#paint11_linear_307_2794)"/><path d="M638.682 156.981c-11.912-25.273-26.729-39.506-44.84-43.042-46.583-9.23-107.112 54.773-165.705 116.707-57.72 61.07-112.245 118.777-152.146 108.339-30.022-7.849-48.423-54.256-56.462-141.807-7.651-83.671-24.308-127.058-51.038-132.751-36.414-7.763-85.613 54.083-137.716 119.726C-23.75 252.728-80.212 323.718-123.89 315.696c-30.603-5.607-51.909-48.908-65.178-132.406-11.621-73.405-33.702-113.688-67.308-123.09-54.719-15.354-132.196 52.962-214.225 125.246-90.939 80.134-184.881 163.028-259.356 144.482-49.198-12.248-84.257-67.453-107.21-168.72l-1.259.345c23.147 101.698 58.496 157.162 108.178 169.497 75.153 18.718 169.385-64.435 260.615-144.827 81.739-72.025 158.926-140.083 212.966-124.988 33.122 9.316 54.913 49.253 66.534 122.228 13.365 84.015 34.962 127.575 66.05 133.268 44.55 8.108 101.205-63.141 156.02-132.061C83.75 119.459 132.755 57.871 168.394 65.462c26.149 5.607 42.516 48.736 50.167 131.802 8.038 88.155 26.73 134.821 57.236 142.757 40.676 10.609 95.491-47.356 153.503-108.685 58.301-61.675 118.54-125.333 164.446-116.276 27.988 5.521 48.132 37.264 61.691 97.04l1.259-.345c-5.23-21.996-11.137-40.196-18.014-54.774z" fill="url(#paint12_linear_307_2794)"/><path d="M654.081 166.729c-12.396-26.309-27.892-41.059-46.777-44.855-47.648-9.66-109.34 53.222-168.901 114.033-58.883 60.036-114.473 116.707-155.245 105.839-30.313-8.109-49.198-53.566-57.721-138.962-8.135-81.6-25.18-124.211-52.297-130.163-37.189-8.194-87.356 52.704-140.331 117.052C-22.685 257.04-80.018 326.737-124.858 318.37c-30.991-5.779-52.782-48.218-66.728-129.818-12.105-71.422-34.574-110.842-68.47-120.589-55.881-15.871-134.908 51.237-218.68 122.4-92.877 78.84-188.852 160.353-265.07 141.032-49.683-12.594-85.419-66.591-109.147-165.27l-1.259.345c23.825 99.024 59.755 153.366 109.922 166.046 76.896 19.408 173.162-62.278 266.232-141.376 83.578-70.818 162.412-137.754 217.614-121.97 33.413 9.576 55.59 48.737 67.599 119.727 13.946 82.031 36.027 124.815 67.6 130.68 45.518 8.54 103.141-61.501 158.925-129.128C86.462 126.36 136.241 65.893 172.656 73.829c26.536 5.78 43.29 48.045 51.425 129.214 8.523 85.913 27.698 131.63 58.496 139.91 41.547 11.128 97.428-45.889 156.601-106.183 59.367-60.553 120.768-123.176 167.739-113.688 28.376 5.693 48.907 36.832 62.95 95.142l1.259-.345c-4.842-20.356-10.459-37.349-17.045-51.15z" fill="url(#paint13_linear_307_2794)"/><path d="M669.964 176.39c-12.881-27.344-29.054-42.698-48.811-46.752-48.714-10.006-111.567 51.754-172.29 111.445-60.045 59.087-116.798 114.809-158.539 103.423-30.603-8.367-49.876-52.876-58.98-136.115-8.619-79.702-26.148-121.45-53.556-127.575-38.06-8.54-89.002 51.237-143.043 114.464-56.461 66.16-114.86 134.648-160.668 125.85-31.476-6.038-53.75-47.614-68.277-127.23-12.591-69.524-35.35-108.081-69.536-118-57.14-16.562-137.91 49.425-223.426 119.38-94.716 77.46-192.725 157.679-270.784 137.581-50.263-12.852-86.581-65.814-110.986-161.819l-1.259.345c24.599 96.436 61.11 149.657 111.761 162.682 78.736 20.184 177.036-60.208 272.14-137.926 85.225-69.697 165.704-135.512 222.166-119.123 33.703 9.748 56.171 48.132 68.761 117.225 14.527 80.133 37.19 122.055 69.149 128.093 46.583 8.884 105.273-59.863 162.025-126.368 53.75-62.968 104.498-122.4 141.687-114.033 26.923 6.038 44.065 47.442 52.684 126.627 9.104 83.756 28.57 128.61 59.755 137.063 42.516 11.645 99.462-44.422 159.894-103.768 60.529-59.518 123.092-121.02 171.128-111.1 28.667 5.866 49.683 36.401 64.21 93.245l1.259-.345c-4.939-18.546-10.363-34.245-16.464-47.269z" fill="url(#paint14_linear_307_2794)"/><path d="M686.137 185.964c-13.365-28.379-30.216-44.423-50.844-48.736-49.78-10.437-113.892 50.289-175.777 108.944-61.304 58.052-119.219 112.912-161.928 101.008-30.991-8.626-50.651-52.272-60.142-133.355-9.104-77.718-27.021-118.69-54.816-125.073-38.835-8.971-90.842 49.77-145.85 111.962-57.528 65.039-116.992 132.233-163.866 123.09-31.862-6.21-54.718-47.01-69.73-124.729-13.074-67.626-36.123-105.407-70.601-115.585-58.398-17.252-140.912 47.7-228.268 116.448-96.847 76.252-196.986 155.091-276.982 134.303-50.748-13.197-87.646-65.038-112.826-158.542l-1.259.345c25.277 93.849 62.466 145.949 113.601 159.319 80.576 20.96 181.007-58.052 278.144-134.563 87.065-68.575 169.288-133.268 227.106-116.189 33.993 10.006 56.752 47.528 69.826 114.723 15.109 78.236 38.255 119.295 70.699 125.591 47.552 9.23 107.306-58.224 165.124-123.521C92.466 139.557 144.182 81.161 182.243 89.873c27.214 6.21 44.84 46.838 53.944 124.125 9.588 81.6 29.538 125.505 60.916 134.303 43.388 12.163 101.593-42.956 163.187-101.353 61.692-58.396 125.417-118.863 174.615-108.598 29.054 6.038 50.457 35.969 65.372 91.347l1.259-.345c-4.455-16.734-9.588-31.139-15.399-43.388z" fill="url(#paint15_linear_307_2794)"/><path d="M702.892 195.539c-13.946-29.414-31.378-46.148-52.975-50.72-50.942-10.868-116.217 48.822-179.361 106.442-62.563 57.103-121.736 111.101-165.414 98.679-31.282-8.884-51.329-51.668-61.304-130.68-9.588-75.907-27.892-115.931-55.978-122.573-39.707-9.315-92.585 48.391-148.66 109.462-58.592 63.83-119.121 129.904-167.06 120.416-32.347-6.47-55.687-46.407-71.28-122.314-13.558-65.729-36.995-102.733-71.57-113.084-59.754-17.942-144.011 45.975-233.304 113.601-98.977 75.045-201.344 152.591-283.18 130.94-51.232-13.543-88.712-64.262-114.666-155.264l-1.26.345c26.052 91.347 63.823 142.411 115.442 156.04 82.513 21.737 185.074-55.981 284.342-131.198 89.003-67.454 172.969-131.112 232.142-113.343 34.187 10.265 57.334 47.011 70.795 112.308 15.689 76.338 39.32 116.621 72.151 123.176 48.714 9.661 109.534-56.671 168.32-120.761 55.784-60.812 108.372-118.173 147.304-109.03 27.601 6.47 45.615 46.234 55.106 121.624 10.072 79.443 30.41 122.486 62.176 131.543 44.452 12.68 103.819-41.576 166.673-98.938 62.854-57.447 127.935-116.793 178.198-106.097 29.442 6.211 51.232 35.538 66.631 89.536l1.259-.345c-4.455-15.268-9.201-28.465-14.527-39.765z" fill="url(#paint16_linear_307_2794)"/><path d="M719.937 205.027c-14.431-30.621-32.638-47.959-55.203-52.876C612.63 140.938 546 199.507 481.597 256.178c-63.919 56.24-124.255 109.289-168.998 96.264-31.572-9.144-52.007-51.065-62.563-128.007-10.072-74.009-28.764-113.343-57.237-120.157-40.578-9.747-94.522 46.924-151.662 106.96-59.657 62.709-121.349 127.661-170.45 117.655-32.831-6.642-56.656-45.889-72.829-119.898-13.946-63.831-37.77-100.059-72.635-110.669-61.014-18.632-147.207 44.25-238.437 110.755-101.205 73.837-205.8 150.089-289.669 127.662-51.619-13.801-89.777-63.572-116.41-151.987l-1.162.432c26.73 88.845 65.081 138.875 117.185 152.762 84.45 22.6 189.335-53.911 290.831-127.92C-421.5 143.698-335.597 81.075-275.164 99.448c34.477 10.523 57.914 46.406 71.86 109.892 16.27 74.527 40.385 113.947 73.7 120.761 49.78 10.092 111.762-55.033 171.71-118.087 56.849-59.777 110.502-116.19 150.306-106.615 27.892 6.728 46.293 45.717 56.365 119.209 10.556 77.373 31.281 119.553 63.338 128.869 45.421 13.197 106.047-40.11 170.256-96.609 64.113-56.413 130.453-114.809 181.976-103.682 29.732 6.469 51.91 35.107 67.793 87.811l1.162-.432c-3.971-13.283-8.426-25.187-13.365-35.538z" fill="url(#paint17_linear_307_2794)"/><path d="M737.466 214.429c-15.011-31.743-33.993-49.857-57.527-54.946-53.266-11.645-121.252 45.889-186.914 101.612-65.275 55.291-126.966 107.563-172.775 93.934-31.863-9.488-52.685-50.46-63.628-125.332-10.557-72.112-29.636-110.669-58.399-117.742-41.451-10.179-96.459 45.544-154.665 104.544-60.82 61.675-123.673 125.419-173.84 115.068-33.218-6.9-57.527-45.285-74.281-117.569-14.624-62.019-38.642-97.385-73.701-108.254-62.466-19.321-150.5 42.525-243.763 107.995-103.433 72.543-210.448 147.587-296.255 124.384-52.103-14.06-90.745-62.796-118.153-148.881l-1.162.431c27.505 86.431 66.34 135.425 118.928 149.571 86.387 23.462 193.694-51.841 297.32-124.642 92.973-65.211 180.813-126.886 242.601-107.736 34.671 10.696 58.496 45.889 72.829 107.563 16.851 72.629 41.45 111.359 75.153 118.346 50.942 10.523 114.086-53.48 175.1-115.413 57.914-58.742 112.632-114.205 153.405-104.2 28.182 6.901 47.067 45.113 57.624 116.794 11.04 75.303 32.153 116.62 64.403 126.195 46.486 13.801 108.371-38.644 174.034-94.28 65.468-55.464 133.164-112.825 185.752-101.267 30.119 6.556 52.684 34.676 68.955 85.999l1.162-.431c-3.68-11.731-7.748-22.341-12.203-31.743z" fill="url(#paint18_linear_307_2794)"/><path d="M755.383 223.831c-15.593-32.95-35.35-51.754-59.949-57.188-54.524-12.077-123.867 44.509-190.885 99.196-66.727 54.429-129.678 105.838-176.552 91.692-32.153-9.747-53.265-49.857-64.79-122.745-11.041-70.3-30.604-108.081-59.561-115.413-42.419-10.609-98.493 44.164-157.86 102.216-61.982 60.639-126.095 123.262-177.424 112.48-33.702-7.073-58.398-44.768-75.831-115.241-14.817-60.294-39.223-94.969-74.475-106.01-63.822-20.012-153.889 40.8-249.284 105.234-105.756 71.422-215.193 145.258-303.13 121.279-52.588-14.319-91.714-62.02-119.8-145.69l-1.162.431c28.182 84.102 67.599 131.975 120.574 146.466 88.518 24.152 198.149-49.857 304.196-121.451 95.201-64.262 184.978-124.901 248.122-105.062 34.865 10.955 58.98 45.286 73.7 105.235 17.433 70.904 42.516 108.857 76.703 116.017 52.104 10.954 116.41-52.014 178.682-112.826 59.077-57.706 114.861-112.307 156.602-101.784 28.569 7.159 47.745 44.595 58.786 114.464 11.525 73.319 32.928 113.774 65.565 123.608 47.552 14.405 110.793-37.264 177.811-91.951 66.824-54.515 135.876-110.841 189.723-98.938 30.41 6.728 53.362 34.331 70.117 84.274l1.162-.431c-3.39-10.179-7.07-19.495-11.04-27.862z" fill="url(#paint19_linear_307_2794)"/><path d="M773.88 233.233c-16.173-34.158-36.704-53.652-62.369-59.431-55.784-12.508-126.482 43.042-194.953 96.867-68.18 53.566-132.583 104.2-180.619 89.45-32.347-10.006-53.944-49.254-65.856-120.158-11.525-68.574-31.378-105.579-60.723-113.084-43.387-11.127-100.624 42.784-161.153 99.801-63.241 59.518-128.613 121.192-181.2 109.892-34.091-7.245-59.368-44.25-77.284-112.911-15.302-58.569-39.901-92.469-75.347-103.682C-350.899 99.275-443 159.138-540.525 222.451c-108.178 70.214-220.036 142.843-310.104 118.001-52.975-14.578-92.682-61.243-121.446-142.671l-1.162.432c28.861 81.772 68.858 128.61 122.221 143.36 90.649 25.015 202.797-47.873 311.266-118.259 97.234-63.141 189.045-122.831 253.739-102.302 34.961 11.127 59.367 44.768 74.572 102.906 18.013 69.178 43.581 106.355 78.155 113.687 53.266 11.386 118.928-50.46 182.363-110.237 60.238-56.758 117.184-110.41 159.894-99.455 28.86 7.418 48.52 44.077 59.948 112.221 12.009 71.335 33.8 110.928 66.631 121.106 48.617 15.009 113.31-35.883 181.781-89.708 68.18-53.566 138.685-108.944 193.791-96.609 30.797 6.901 54.04 33.899 71.279 82.635l1.162-.431a243.28 243.28 0 00-9.685-23.894z" fill="url(#paint20_linear_307_2794)"/><path d="M792.766 242.549c-16.755-35.452-38.061-55.722-64.888-61.761-57.043-12.938-129.29 41.663-199.117 94.539-69.73 52.704-135.586 102.561-184.687 87.207-32.637-10.265-54.525-48.736-66.921-117.656-12.009-66.763-32.25-103.078-61.885-110.755-44.356-11.559-102.755 41.404-164.543 97.471-64.5 58.569-131.228 119.122-184.978 107.391-34.477-7.504-60.238-43.732-78.736-110.668-15.689-56.844-40.676-89.967-76.218-101.44-66.728-21.392-160.96 37.436-260.712 99.801-110.696 69.092-225.169 140.6-317.464 114.981-53.46-14.836-93.651-60.466-123.092-139.651l-1.163.431c29.539 79.444 70.118 125.333 123.868 140.255 92.876 25.792 207.542-45.889 318.529-115.154 99.462-62.105 193.403-120.847 259.549-99.628 35.253 11.3 59.949 44.251 75.541 100.663 18.595 67.368 44.646 103.855 79.608 111.445 54.525 11.818 121.446-48.908 186.236-107.736 61.498-55.808 119.606-108.598 163.284-97.212 29.151 7.591 49.198 43.56 61.111 109.892 12.493 69.438 34.574 108.168 67.696 118.519 49.779 15.612 115.925-34.417 185.945-87.38 69.633-52.617 141.591-107.046 198.052-94.279 31.088 7.073 54.719 33.554 72.442 80.909l1.162-.431c-2.906-7.073-5.714-13.629-8.619-19.753z" fill="url(#paint21_linear_307_2794)"/><path d="M812.135 251.779c-17.336-36.746-39.61-57.793-67.599-64.176-58.399-13.37-132.099 40.282-203.475 92.296-71.28 51.927-138.685 100.922-188.948 84.964-32.832-10.437-55.106-48.132-67.89-115.154-12.493-65.039-33.025-100.577-63.047-108.513-45.325-12.076-104.982 40.024-168.03 95.229-65.759 57.534-133.842 117.052-188.948 104.89-34.865-7.677-61.11-43.216-80.189-108.513-16.077-55.119-41.257-87.552-77.09-99.11-68.18-22.082-164.64 35.797-266.62 97.126-113.117 67.799-230.301 138.185-324.824 111.704-53.847-15.095-94.619-59.777-124.735-136.632l-1.17.431c30.22 77.201 71.284 122.141 125.518 137.323 95.103 26.567 212.482-43.906 325.889-112.049 101.786-61.157 197.858-118.864 265.554-96.954 35.35 11.472 60.336 43.646 76.316 98.42 19.175 65.728 45.712 101.439 81.061 109.289 55.783 12.335 124.06-47.442 190.11-105.235 62.757-54.946 122.124-106.787 166.77-94.884 29.442 7.85 49.78 43.043 62.176 107.736 12.88 67.454 35.349 105.408 68.664 116.017 50.845 16.217 118.541-33.036 190.111-85.136 71.085-51.755 144.592-105.235 202.313-92.037 31.378 7.159 55.493 33.123 73.506 79.271l1.163-.518c-1.937-5.52-4.262-10.782-6.586-15.785z" fill="url(#paint22_linear_307_2794)"/><path d="M831.988 261.009c-18.013-38.04-41.063-59.95-70.31-66.678-59.658-13.801-135.005 38.989-207.834 90.053-72.925 51.151-141.88 99.369-193.306 82.722-33.122-10.696-55.59-47.528-68.955-112.739-12.88-63.4-33.896-98.162-64.113-106.356-46.389-12.594-107.209 38.643-171.612 92.986-67.115 56.585-136.554 115.068-193.016 102.474-35.349-7.936-61.982-42.698-81.642-106.356-16.464-53.48-41.934-85.223-77.865-96.954-69.729-22.772-168.416 34.158-272.817 94.453-115.829 66.936-235.629 136.115-332.475 108.857-54.235-15.268-95.588-59-126.383-133.7l-1.16.518c30.89 75.044 72.534 119.036 127.058 134.39 97.428 27.343 217.422-42.008 333.541-109.03 104.207-60.122 202.507-116.966 271.752-94.366 35.543 11.558 60.723 43.042 77.187 96.263 19.757 64.004 46.68 99.024 82.514 107.046 57.043 12.767 126.772-45.975 194.178-102.733 64.112-53.997 124.641-105.062 170.45-92.641 29.732 8.022 50.457 42.526 63.338 105.494 13.365 65.556 36.124 102.733 69.633 113.601 52.103 16.821 121.252-31.656 194.468-82.98 72.635-50.892 147.692-103.423 206.768-89.794 31.669 7.332 56.171 32.778 74.669 77.718l1.162-.517a310.86 310.86 0 00-5.23-11.731z" fill="url(#paint23_linear_307_2794)"/><path d="M852.326 270.238c-18.691-39.506-42.612-62.192-73.216-69.265-61.11-14.233-138.006 37.608-212.482 87.81-74.669 50.289-145.173 97.817-197.858 80.565-33.315-10.955-56.171-47.01-69.826-110.324-13.365-61.674-34.672-95.746-65.178-104.113-47.455-13.111-109.534 37.35-175.39 90.743-68.567 55.637-139.46 113.171-197.18 100.06-35.737-8.109-62.854-42.181-83.095-104.2-16.851-51.927-42.612-82.894-78.639-94.711-71.28-23.462-172.194 32.519-279.113 91.865-118.54 65.814-241.149 133.872-340.417 105.838-54.621-15.44-96.462-58.224-127.932-130.853l-1.16.517c31.66 72.974 73.696 115.931 128.608 131.457 99.946 28.034 222.845-40.11 341.579-106.097 106.532-59.173 207.252-115.068 278.047-91.778 35.64 11.731 61.111 42.525 77.962 94.021 20.338 62.364 47.745 96.695 83.869 104.976C-80.696 360.032-9.514 302.24 59.248 246.431c65.468-53.135 127.353-103.337 174.13-90.485 30.023 8.281 51.136 42.094 64.403 103.337 13.85 63.745 36.899 100.059 70.602 111.1 53.266 17.511 124.061-30.276 199.02-80.737 74.185-49.943 150.887-101.698 211.417-87.552 32.056 7.505 56.752 32.347 75.734 76.08l1.162-.518a177.576 177.576 0 00-3.39-7.418z" fill="url(#paint24_linear_307_2794)"/><path d="M873.245 279.468c-19.272-40.887-44.259-64.435-76.121-71.853-62.466-14.664-141.106 36.314-217.131 85.568-76.412 49.512-148.563 96.35-202.507 78.408-33.509-11.127-56.655-46.407-70.795-107.995-13.849-60.035-35.446-93.417-66.243-102.043-48.52-13.629-112.052 35.97-179.263 88.501-70.02 54.687-142.365 111.272-201.539 97.644-36.124-8.281-63.725-41.749-84.45-102.13-17.239-50.374-43.194-80.651-79.415-92.641-72.925-24.152-176.261 30.967-285.601 89.277-121.349 64.694-246.863 131.63-348.455 102.82-54.912-15.354-97.335-57.276-129.385-127.835l-1.16.518c32.25 70.904 74.858 112.998 130.158 128.61 102.173 28.983 227.88-38.039 349.52-102.905 109.05-58.224 212.095-113.17 284.536-89.191 35.833 11.904 61.498 41.922 78.64 91.951 20.822 60.812 48.714 94.452 85.322 102.819 59.754 13.715 132.39-43.042 202.7-97.902 66.921-52.272 130.065-101.698 178.005-88.242 30.313 8.453 51.716 41.576 65.468 101.181 14.237 61.933 37.674 97.471 71.57 108.771 54.525 18.114 126.966-28.897 203.669-78.581 75.734-49.167 154.083-99.973 216.065-85.395 32.347 7.59 57.43 31.915 76.897 74.526l1.162-.517a34.607 34.607 0 01-1.647-3.364z" fill="url(#paint25_linear_307_2794)"/><path d="M894.164 287.662c-19.95-41.749-45.711-65.815-78.736-73.578-63.919-15.095-144.302 35.021-221.876 83.498-78.253 48.735-152.05 94.883-207.253 76.252-33.702-11.3-57.139-45.89-71.666-105.58-14.237-58.397-36.221-91.088-67.212-99.887-49.682-14.146-114.57 34.676-183.234 86.344-71.473 53.825-145.464 109.375-205.993 95.315-36.512-8.453-64.597-41.231-85.807-100.059-17.626-48.822-43.871-78.408-80.092-90.484-74.572-24.842-180.329 29.327-292.187 86.775-124.448 63.486-252.867 129.387-356.977 99.801-55.401-15.786-98.301-56.672-131.031-125.247l-1.17.518c32.93 68.833 76.03 109.978 131.716 125.764 104.692 29.672 233.304-36.229 357.753-100.059 111.664-57.276 217.13-111.273 291.218-86.603 35.93 11.99 61.885 41.317 79.414 89.794 21.404 59.259 49.78 92.21 86.678 100.749 61.208 14.233 135.392-41.576 207.156-95.573 68.374-51.41 132.97-100.06 181.975-86.086 30.603 8.712 52.297 41.145 66.437 99.11 14.624 60.122 38.351 94.97 72.441 106.356 55.784 18.718 129.969-27.516 208.415-76.424 77.38-48.304 157.472-98.248 220.907-83.239 32.638 7.677 58.108 31.571 77.962 72.974l1.162-.431z" fill="url(#paint26_linear_307_2794)"/><path d="M914.018 292.493c-20.338-40.628-46.487-64.176-79.802-72.112-65.468-15.44-147.498 33.727-226.912 81.341-80.092 48.046-155.73 93.417-212.288 74.182-33.8-11.472-57.527-45.285-72.539-103.251-14.72-56.844-36.995-88.845-68.277-97.816-50.844-14.664-117.087 33.382-187.301 84.188-73.023 52.876-148.564 107.563-210.546 92.986-36.898-8.712-65.371-40.714-87.259-98.076-18.013-47.355-44.452-76.252-80.867-88.414-76.315-25.532-184.493 27.775-299.063 84.188-93.651 46.148-190.401 93.762-278.047 103.078-99.074 10.523-170.937-31.484-219.647-128.524l-1.16.603c25.85 51.496 58.78 88.156 98.01 108.944 35.151 18.632 75.439 25.274 122.991 20.184 87.84-9.315 184.783-57.016 278.531-103.25 114.279-56.24 222.264-109.461 297.998-84.102 36.027 12.077 62.272 40.714 80.092 87.725 21.985 57.706 50.748 89.967 88.034 98.765 62.66 14.75 138.394-40.196 211.707-93.245 69.924-50.633 135.876-98.42 186.14-83.929 30.797 8.885 52.878 40.628 67.502 97.04 15.108 58.397 39.029 92.383 73.313 104.027 57.14 19.408 133.068-26.136 213.354-74.354 79.124-47.442 160.959-96.522 225.847-81.169 32.928 7.764 58.786 31.226 79.027 71.508l1.162-.517z" fill="url(#paint27_linear_307_2794)"/><path d="M934.259 297.237c-20.822-39.507-47.262-62.624-80.867-70.559-67.018-15.872-150.791 32.519-231.949 79.271-82.029 47.269-159.506 91.95-217.324 72.111-33.993-11.645-58.011-44.681-73.41-101.008-15.108-55.291-37.77-86.603-69.245-95.746-52.007-15.181-119.8 32.002-191.563 82.031C-4.77 315.351-81.86 369.089-145.39 354.08c-37.286-8.798-66.243-40.282-88.615-96.091-18.4-45.889-45.033-74.095-81.545-86.344-77.961-26.136-188.754 26.223-306.036 81.686-95.297 45.113-193.887 91.692-283.18 100.663-101.104 10.179-174.714-31.139-224.784-126.281l-1.16.604c50.36 95.659 124.26 137.149 226.041 126.885 89.583-8.971 188.27-55.723 283.664-100.836 116.991-55.377 227.494-107.649 305.068-81.686 36.124 12.163 62.563 40.11 80.867 85.741 22.469 56.153 51.716 87.81 89.39 96.695 64.112 15.181 141.493-38.73 216.356-90.916 71.473-49.771 138.975-96.868 190.4-81.859 31.088 9.057 53.46 40.11 68.471 94.97 15.496 56.671 39.707 89.967 74.088 101.784 58.495 20.098 136.167-24.756 218.486-72.198 80.867-46.665 164.446-94.797 230.98-79.098 33.315 7.849 59.464 30.794 80.092 70.041l1.066-.603z" fill="url(#paint28_linear_307_2794)"/><path d="M954.887 301.981c-21.209-38.471-48.036-61.071-81.932-69.093-68.568-16.302-154.277 31.226-237.178 77.201-83.966 46.579-163.284 90.571-222.554 70.042-34.09-11.818-58.399-44.078-74.185-98.766-15.495-53.738-38.448-84.36-70.214-93.762-53.265-15.699-122.511 30.708-195.92 79.961-76.22 51.151-155.15 104.027-220.134 88.414-37.673-8.97-67.115-39.764-89.971-94.107-18.691-44.423-45.614-72.025-82.126-84.274-79.802-26.74-193.112 24.756-313.202 79.271-97.041 44.078-197.374 89.708-288.507 98.334-103.144 9.833-178.394-30.794-229.914-124.211l-1.16.604c51.81 93.848 127.35 134.648 231.171 124.728 91.326-8.712 191.756-54.342 288.991-98.506 119.799-54.429 232.916-105.838 312.234-79.185 36.221 12.163 62.95 39.506 81.545 83.67 23.05 54.688 52.685 85.654 90.745 94.711 65.663 15.699 144.69-37.349 221.199-88.673 73.119-48.994 142.074-95.315 194.759-79.702 31.281 9.23 54.04 39.679 69.439 92.986 15.883 55.033 40.385 87.552 74.959 99.455 59.852 20.702 139.46-23.376 223.717-70.127 82.61-45.803 168.126-93.159 236.209-77.029 33.606 7.936 60.142 30.363 81.158 68.575l.871-.517z" fill="url(#paint29_linear_307_2794)"/><path d="M976 306.639c-73.313-126.799-201.538-58.483-325.405 7.504-86 45.803-167.255 89.105-227.978 67.971-34.284-11.989-58.786-43.56-74.959-96.522-15.98-52.186-39.223-82.204-71.086-91.778-54.525-16.217-125.32 29.414-200.376 77.804-77.962 50.288-158.538 102.216-225.169 86.258-38.061-9.143-67.89-39.247-91.326-92.21-16.174-36.659-38.061-61.415-66.825-75.734-25.858-12.852-56.752-16.993-94.619-12.594-70.505 8.109-153.793 44.423-241.924 82.894-98.783 43.129-200.957 87.638-293.93 96.091-105.273 9.489-182.263-30.449-235.243-122.141l-1.16.604c53.27 92.037 130.55 132.233 236.403 122.659 93.167-8.454 195.437-53.049 294.318-96.178 88.034-38.385 171.128-74.699 241.439-82.721 78.833-9.057 129.775 18.718 160.282 87.638 23.533 53.221 53.653 83.584 92.004 92.813 67.212 16.217 148.079-35.969 226.234-86.43 74.766-48.218 145.367-93.762 199.214-77.632 31.475 9.402 54.525 39.161 70.311 91.002 16.27 53.307 41.063 85.136 75.637 97.213 61.304 21.391 142.753-22.082 229.043-68.058 123.383-65.728 251.027-133.7 323.759-7.936l1.356-.517z" fill="url(#paint30_linear_307_2794)"/></g><defs><linearGradient id="paint0_linear_307_2794" x1="-698.201" y1="-50.869" x2="587.355" y2="125.954" gradientUnits="userSpaceOnUse"><stop stop-color="#BE8143"/><stop offset=".556" stop-color="#8F664E"/><stop offset="1" stop-color="#BB7F44"/></linearGradient><linearGradient id="paint1_linear_307_2794" x1="-711.456" y1="-40.592" x2="597.934" y2="146.962" gradientUnits="userSpaceOnUse"><stop stop-color="#BE8143"/><stop offset=".556" stop-color="#8F664E"/><stop offset="1" stop-color="#BB7F44"/></linearGradient><linearGradient id="paint2_linear_307_2794" x1="-724.824" y1="-30.565" x2="608.912" y2="168.301" gradientUnits="userSpaceOnUse"><stop stop-color="#BE8143"/><stop offset=".556" stop-color="#8F664E"/><stop offset="1" stop-color="#BB7F44"/></linearGradient><linearGradient id="paint3_linear_307_2794" x1="-738.494" y1="-20.583" x2="619.815" y2="190.341" gradientUnits="userSpaceOnUse"><stop stop-color="#BE8143"/><stop offset=".556" stop-color="#8F664E"/><stop offset="1" stop-color="#BB7F44"/></linearGradient><linearGradient id="paint4_linear_307_2794" x1="-752.671" y1="-10.925" x2="630.957" y2="212.845" gradientUnits="userSpaceOnUse"><stop stop-color="#BE8143"/><stop offset=".556" stop-color="#8F664E"/><stop offset="1" stop-color="#BB7F44"/></linearGradient><linearGradient id="paint5_linear_307_2794" x1="-767.044" y1="-1.201" x2="641.628" y2="236.2" gradientUnits="userSpaceOnUse"><stop stop-color="#BE8143"/><stop offset=".556" stop-color="#8F664E"/><stop offset="1" stop-color="#BB7F44"/></linearGradient><linearGradient id="paint6_linear_307_2794" x1="-781.427" y1="7.999" x2="652.408" y2="259.578" gradientUnits="userSpaceOnUse"><stop stop-color="#BE8143"/><stop offset=".556" stop-color="#8F664E"/><stop offset="1" stop-color="#BB7F44"/></linearGradient><linearGradient id="paint7_linear_307_2794" x1="-796.119" y1="16.656" x2="663.61" y2="282.48" gradientUnits="userSpaceOnUse"><stop stop-color="#BE8143"/><stop offset=".556" stop-color="#8F664E"/><stop offset="1" stop-color="#BB7F44"/></linearGradient><linearGradient id="paint8_linear_307_2794" x1="-811.312" y1="25.151" x2="674.585" y2="306.196" gradientUnits="userSpaceOnUse"><stop stop-color="#BE8143"/><stop offset=".556" stop-color="#8F664E"/><stop offset="1" stop-color="#BB7F44"/></linearGradient><linearGradient id="paint9_linear_307_2794" x1="-826.511" y1="33.62" x2="685.471" y2="330.553" gradientUnits="userSpaceOnUse"><stop stop-color="#BE8143"/><stop offset=".556" stop-color="#8F664E"/><stop offset="1" stop-color="#BB7F44"/></linearGradient><linearGradient id="paint10_linear_307_2794" x1="-842.215" y1="41.839" x2="696.258" y2="355.717" gradientUnits="userSpaceOnUse"><stop stop-color="#BE8143"/><stop offset=".556" stop-color="#8F664E"/><stop offset="1" stop-color="#BB7F44"/></linearGradient><linearGradient id="paint11_linear_307_2794" x1="-857.833" y1="50.098" x2="707.149" y2="381.495" gradientUnits="userSpaceOnUse"><stop stop-color="#BE8143"/><stop offset=".556" stop-color="#8F664E"/><stop offset="1" stop-color="#BB7F44"/></linearGradient><linearGradient id="paint12_linear_307_2794" x1="-874.344" y1="58.021" x2="717.475" y2="408.272" gradientUnits="userSpaceOnUse"><stop stop-color="#BE8143"/><stop offset=".556" stop-color="#8F664E"/><stop offset="1" stop-color="#BB7F44"/></linearGradient><linearGradient id="paint13_linear_307_2794" x1="-890.856" y1="65.612" x2="727.538" y2="434.8" gradientUnits="userSpaceOnUse"><stop stop-color="#BE8143"/><stop offset=".556" stop-color="#8F664E"/><stop offset="1" stop-color="#BB7F44"/></linearGradient><linearGradient id="paint14_linear_307_2794" x1="-907.588" y1="73.322" x2="737.571" y2="463.15" gradientUnits="userSpaceOnUse"><stop stop-color="#BE8143"/><stop offset=".556" stop-color="#8F664E"/><stop offset="1" stop-color="#BB7F44"/></linearGradient><linearGradient id="paint15_linear_307_2794" x1="-924.91" y1="80.676" x2="746.929" y2="491.68" gradientUnits="userSpaceOnUse"><stop stop-color="#BE8143"/><stop offset=".556" stop-color="#8F664E"/><stop offset="1" stop-color="#BB7F44"/></linearGradient><linearGradient id="paint16_linear_307_2794" x1="-942.051" y1="88.106" x2="756.371" y2="521.235" gradientUnits="userSpaceOnUse"><stop stop-color="#BE8143"/><stop offset=".556" stop-color="#8F664E"/><stop offset="1" stop-color="#BB7F44"/></linearGradient><linearGradient id="paint17_linear_307_2794" x1="-960.185" y1="95.005" x2="764.952" y2="551.548" gradientUnits="userSpaceOnUse"><stop stop-color="#BE8143"/><stop offset=".556" stop-color="#8F664E"/><stop offset="1" stop-color="#BB7F44"/></linearGradient><linearGradient id="paint18_linear_307_2794" x1="-978.132" y1="102.151" x2="773.259" y2="582.913" gradientUnits="userSpaceOnUse"><stop stop-color="#BE8143"/><stop offset=".556" stop-color="#8F664E"/><stop offset="1" stop-color="#BB7F44"/></linearGradient><linearGradient id="paint19_linear_307_2794" x1="-996.683" y1="108.94" x2="781.215" y2="614.828" gradientUnits="userSpaceOnUse"><stop stop-color="#BE8143"/><stop offset=".556" stop-color="#8F664E"/><stop offset="1" stop-color="#BB7F44"/></linearGradient><linearGradient id="paint20_linear_307_2794" x1="-1015.44" y1="115.806" x2="788.362" y2="648.265" gradientUnits="userSpaceOnUse"><stop stop-color="#BE8143"/><stop offset=".556" stop-color="#8F664E"/><stop offset="1" stop-color="#BB7F44"/></linearGradient><linearGradient id="paint21_linear_307_2794" x1="-1034.71" y1="122.397" x2="794.977" y2="682.924" gradientUnits="userSpaceOnUse"><stop stop-color="#BE8143"/><stop offset=".556" stop-color="#8F664E"/><stop offset="1" stop-color="#BB7F44"/></linearGradient><linearGradient id="paint22_linear_307_2794" x1="-1054.37" y1="128.894" x2="800.493" y2="717.634" gradientUnits="userSpaceOnUse"><stop stop-color="#BE8143"/><stop offset=".556" stop-color="#8F664E"/><stop offset="1" stop-color="#BB7F44"/></linearGradient><linearGradient id="paint23_linear_307_2794" x1="-1074.35" y1="135.032" x2="806.046" y2="753.29" gradientUnits="userSpaceOnUse"><stop stop-color="#BE8143"/><stop offset=".556" stop-color="#8F664E"/><stop offset="1" stop-color="#BB7F44"/></linearGradient><linearGradient id="paint24_linear_307_2794" x1="-1094.93" y1="141.331" x2="809.633" y2="791.14" gradientUnits="userSpaceOnUse"><stop stop-color="#BE8143"/><stop offset=".556" stop-color="#8F664E"/><stop offset="1" stop-color="#BB7F44"/></linearGradient><linearGradient id="paint25_linear_307_2794" x1="-1115.52" y1="147.105" x2="813.923" y2="827.839" gradientUnits="userSpaceOnUse"><stop stop-color="#BE8143"/><stop offset=".556" stop-color="#8F664E"/><stop offset="1" stop-color="#BB7F44"/></linearGradient><linearGradient id="paint26_linear_307_2794" x1="-1136.71" y1="153.291" x2="815.213" y2="868.141" gradientUnits="userSpaceOnUse"><stop stop-color="#BE8143"/><stop offset=".556" stop-color="#8F664E"/><stop offset="1" stop-color="#BB7F44"/></linearGradient><linearGradient id="paint27_linear_307_2794" x1="-1158.31" y1="158.953" x2="817.022" y2="907.389" gradientUnits="userSpaceOnUse"><stop stop-color="#BE8143"/><stop offset=".556" stop-color="#8F664E"/><stop offset="1" stop-color="#BB7F44"/></linearGradient><linearGradient id="paint28_linear_307_2794" x1="-1180.32" y1="164.72" x2="816.91" y2="948.691" gradientUnits="userSpaceOnUse"><stop stop-color="#BE8143"/><stop offset=".556" stop-color="#8F664E"/><stop offset="1" stop-color="#BB7F44"/></linearGradient><linearGradient id="paint29_linear_307_2794" x1="-1202.73" y1="170.312" x2="815.478" y2="990.927" gradientUnits="userSpaceOnUse"><stop stop-color="#BE8143"/><stop offset=".556" stop-color="#8F664E"/><stop offset="1" stop-color="#BB7F44"/></linearGradient><linearGradient id="paint30_linear_307_2794" x1="-1225.65" y1="175.642" x2="813.565" y2="1033.23" gradientUnits="userSpaceOnUse"><stop stop-color="#BE8143"/><stop offset=".556" stop-color="#8F664E"/><stop offset="1" stop-color="#BB7F44"/></linearGradient></defs></svg>