<svg width="1920" height="734" fill="none" xmlns="http://www.w3.org/2000/svg"><mask id="a" style="mask-type:alpha" maskUnits="userSpaceOnUse" x="0" y="0" width="1920" height="734"><path fill="#D9D9D9" d="M0 0h1920v734H0z"/></mask><g mask="url(#a)"><mask id="b" style="mask-type:alpha" maskUnits="userSpaceOnUse" x="-505" y="-195" width="1446" height="772"><path d="M508.46 568.924c-10.552 7.124-19.469 9.311-26.843 6.655-25.888-9.319-28.437-77.227-30.911-142.901-2.315-61.408-4.699-124.904-27.09-132.045-18.579-5.928-49.498 26.653-94.517 99.593-42.416 68.703-70.823 99.333-86.826 93.635-20.392-7.259-18.222-70.537-15.925-137.539 2.412-70.25 4.894-142.892-19.026-151.902-17.848-6.721-48.548 22.496-93.857 89.349-41.182 60.761-71.812 87.136-93.616 80.65-31.35-9.314-40.375-84.362-49.928-163.802-10.567-87.894-21.502-178.77-62.978-191.934-30.921-9.813-75.249 24.938-135.509 106.243l-.749-.562C-168.816 42.717-124.168 7.871-92.833 17.811c42.099 13.359 53.052 104.553 63.666 192.746 9.518 79.119 18.506 153.861 49.222 162.987 21.392 6.358 51.702-19.921 92.652-80.33 45.56-67.218 76.606-96.534 94.897-89.646 24.605 9.269 22.103 82.256 19.679 152.844C225 423.059 222.841 486 242.555 493.009c15.551 5.537 43.611-24.993 85.781-93.305 45.263-73.314 76.511-105.998 95.528-99.93 23.056 7.353 25.347 68.357 27.777 132.934 2.456 65.356 4.996 132.939 30.249 142.026 16.774 6.033 41.944-13.995 76.958-61.244l.749.562c-20.143 27.169-37.098 45.394-51.137 54.872z" fill="#8E726C"/><path d="M520.172 565.07c-11.035 7.448-20.37 9.737-28.125 6.977-26.473-9.419-30.078-76.643-33.562-141.65-3.253-60.82-6.622-123.696-29.561-130.888-18.931-5.93-49.713 25.753-94.145 96.849-41.879 67.029-70.168 96.835-86.484 91.108-20.858-7.319-19.593-69.866-18.251-136.087 1.4-69.429 2.858-141.227-21.644-150.354-18.201-6.783-48.842 21.589-93.679 86.738-40.67 59.092-71.215 84.679-93.383 78.214C-10.77 356.62-21.04 282.16-31.93 203.34-43.965 116.127-56.414 25.948-98.937 12.667c-31.467-9.82-75.742 23.802-135.365 102.821l-.749-.561C-175.184 35.592-130.588 1.874-98.718 11.828c43.122 13.463 55.616 103.957 67.698 191.469 10.845 78.504 21.07 152.65 52.553 161.828 21.745 6.344 51.977-19.137 92.418-77.894 45.088-65.513 76.066-93.978 94.709-87.028 25.163 9.373 23.702 81.518 22.284 151.275-1.329 65.867-2.594 128.083 17.585 135.169 15.847 5.563 43.804-24.124 85.446-90.768 44.659-71.474 75.781-103.266 95.149-97.196 23.613 7.398 26.834 67.804 30.267 131.763 3.466 64.689 7.045 131.585 32.89 140.782 17.084 6.079 42.249-13.308 76.944-59.277l.749.562c-19.425 25.746-35.954 43.212-49.802 52.557z" fill="#DC146A"/><path d="M532.044 561.415c-11.529 7.779-21.302 10.181-29.463 7.305-27.091-9.527-31.74-76.091-36.23-140.464-4.205-60.254-8.546-122.549-32.068-129.783-19.283-5.932-49.958 24.873-93.79 94.164-41.353 65.379-69.534 94.367-86.163 88.612-21.342-7.382-20.976-69.233-20.602-134.71.399-68.633.81-139.617-24.267-148.851-18.553-6.846-49.144 20.689-93.523 84.175-40.164 57.457-70.639 82.254-93.163 75.819-32.878-9.393-44.432-83.301-56.645-161.541-13.532-86.573-27.508-176.092-71.1-189.478-32.001-9.835-76.238 22.7-135.253 99.456l-.747-.578C-181.72 28.477-137.163-4.154-104.766 5.804c44.18 13.575 58.22 103.396 71.79 190.274C-20.807 274.003-9.3 347.612 22.97 356.83c22.11 6.324 52.274-18.384 92.208-75.505 44.621-63.844 75.549-91.471 94.545-84.459 25.735 9.496 25.316 80.801 24.916 149.765-.379 65.12-.744 126.64 19.926 133.799 16.16 5.591 44.008-23.277 85.134-88.278 44.057-69.653 75.062-100.561 94.785-94.505 24.172 7.426 28.343 67.282 32.767 130.648 4.479 64.065 9.092 130.308 35.573 139.616 17.405 6.118 42.556-12.639 76.924-57.338l.747.578c-18.755 24.356-34.824 41.071-48.45 50.264z" fill="#C6024A"/><path d="M544.068 557.968c-12.042 8.122-22.269 10.635-30.856 7.655-27.737-9.631-33.425-75.569-38.943-139.339-5.404-62.465-10.498-121.46-34.604-128.735-19.627-5.925-50.187 24.014-93.449 91.519-40.846 63.744-68.938 91.928-85.872 86.154-21.834-7.455-22.383-68.63-22.964-133.387-.604-67.88-1.246-138.078-26.922-147.432-18.915-6.901-49.467 19.802-93.39 81.642-39.667 55.83-70.067 79.864-92.948 73.46-33.673-9.427-46.507-82.815-60.083-160.509C-50.996 103.019-66.535 14.109-111.218.604c-32.539-9.832-76.747 21.623-135.158 96.148l-.738-.584c58.656-74.84 103.175-106.384 136.1-96.423C-65.732 13.432-50.146 102.64-35.056 188.91c13.53 77.378 26.308 150.475 59.38 159.736 22.466 6.294 52.563-17.641 91.992-73.145 44.173-62.188 75.062-88.985 94.412-81.927 26.337 9.6 26.96 80.126 27.581 148.34.574 64.417 1.124 125.26 22.296 132.486 16.479 5.63 44.232-22.444 84.836-85.83 43.476-67.861 74.367-97.902 94.433-91.853 24.756 7.467 29.886 66.784 35.306 129.583 5.49 63.459 11.167 129.089 38.283 138.508 17.726 6.157 42.891-11.973 76.944-55.426l.738.584c-18.076 23.02-33.692 38.974-47.077 48.002z" fill="#A40C6E"/><path d="M556.258 554.749c-12.574 8.478-23.283 11.104-32.302 8.012-28.382-9.736-35.14-75.088-41.691-138.283-6.414-61.935-12.467-120.451-37.176-127.754-19.98-5.911-50.445 23.174-93.129 88.906-40.352 62.148-68.348 89.539-85.588 83.746-22.345-7.516-23.804-68.047-25.353-132.122-1.621-67.164-3.303-136.6-29.596-146.078-19.286-6.95-49.8 18.94-93.288 79.149-39.174 54.236-69.506 77.496-92.736 71.133-34.496-9.457-48.623-82.363-63.581-159.558C-54.736 96.472-71.86 8.124-117.671-5.49c-33.069-9.819-77.248 20.556-135.079 92.898l-.738-.584C-195.424 14.19-150.934-16.274-117.469-6.332-71.066 7.454-53.886 96.093-37.275 181.814c14.896 76.876 28.973 149.5 62.869 158.792 22.821 6.263 52.844-16.908 91.789-70.826 43.737-60.556 74.589-86.539 94.311-79.432 26.938 9.704 28.626 79.48 30.256 146.969 1.543 63.734 2.993 123.941 24.675 131.228 16.795 5.642 44.459-21.629 84.57-83.42 42.908-66.093 73.695-95.291 94.106-89.249 25.349 7.502 31.44 66.322 37.897 128.589 6.513 62.89 13.243 127.93 41.021 137.458 18.038 6.185 43.21-11.328 76.958-53.543l.738.584c-17.391 21.711-32.532 36.935-45.657 45.785z" fill="#B4024E"/><path d="M568.619 551.723c-13.116 8.841-24.325 11.594-33.802 8.374-29.045-9.843-36.888-74.63-44.467-137.282-7.436-61.443-14.448-119.479-39.792-126.834-20.334-5.897-50.696 22.345-92.815 86.343-39.863 60.571-67.781 87.181-85.334 81.359-22.865-7.569-25.257-67.489-27.778-130.924-2.635-66.465-5.368-135.191-32.314-144.784-19.658-6.999-50.137 18.095-93.2 76.695-38.7 52.657-68.97 75.177-92.531 68.858C-8.76 324.043-24.2 251.573-40.546 174.85-58.641 89.924-77.361 2.102-124.353-11.631c-33.596-9.823-77.754 19.522-135.005 89.682l-.727-.59c57.484-70.453 101.949-99.87 135.937-89.95 47.566 13.9 66.343 102.015 84.497 187.217 16.294 76.457 31.677 148.635 66.422 157.955 23.163 6.212 53.13-16.209 91.595-68.557 43.312-58.949 74.136-84.124 94.212-76.972 27.564 9.821 30.306 78.872 32.967 145.665 2.514 63.094 4.881 122.685 27.09 130.036 17.118 5.665 44.707-20.843 84.325-81.039 42.358-64.34 73.026-92.698 93.793-86.687 25.97 7.534 33.036 65.878 40.498 127.649 7.549 62.358 15.344 126.846 43.795 136.474 18.359 6.224 43.538-10.688 76.994-51.689l.727.59c-16.639 20.434-31.312 34.918-44.148 43.57z" fill="#D2101C"/><path d="M581.133 548.831c-13.686 9.226-25.395 12.106-35.355 8.762-29.733-9.95-38.656-74.22-47.286-136.376-8.464-60.992-16.464-118.602-42.437-125.984-20.68-5.875-50.949 21.555-92.52 83.849-39.378 59.015-67.22 84.869-85.097 79.041-23.401-7.629-26.715-66.974-30.212-129.812-3.663-65.818-7.453-133.879-35.04-143.595-20.021-7.039-50.48 17.261-93.137 74.298-38.219 51.117-68.417 72.915-92.326 66.634-36.203-9.507-52.977-81.589-70.74-157.899C-62.696 83.287-83.032-4.077-131.22-17.92c-34.118-9.802-78.257 18.511-134.938 86.548l-.718-.597c56.921-68.319 101.362-96.715 135.86-86.81C-82.253-4.766-61.859 82.89-42.118 167.654c17.69 76.014 34.405 147.821 70.024 157.166 23.511 6.174 53.406-15.524 91.399-66.34 42.896-57.378 73.693-81.771 94.142-74.584 28.208 9.927 32.023 78.316 35.705 144.453 3.483 62.487 6.769 121.52 29.532 128.933 17.439 5.688 44.944-20.073 84.088-78.72 41.803-62.646 72.385-90.182 93.488-84.186 26.607 7.553 34.645 65.469 43.152 126.793 8.59 61.866 17.465 125.838 46.612 135.584 18.68 6.247 43.883-10.067 77.036-49.873l.727.59c-15.977 19.177-30.137 32.925-42.654 41.362z" fill="#B24E9A"/><path d="M593.781 546.123c-14.256 9.612-26.502 12.628-36.955 9.166-30.437-10.062-40.445-73.849-50.131-135.541-9.504-60.585-18.488-117.811-45.132-125.22-21.035-5.846-51.202 20.784-92.236 81.405-38.915 57.496-66.672 82.607-84.872 76.771-23.964-7.685-28.194-66.495-32.683-128.764-4.704-65.216-9.562-132.656-37.81-142.482-20.391-7.091-50.841 16.441-93.086 71.949-37.754 49.597-67.88 70.674-92.11 64.445-37.095-9.537-55.226-81.27-74.41-157.218C-66.898 76.534-88.878-10.44-138.296-24.4c-34.637-9.782-78.751 17.513-134.882 83.463l-.725-.607c56.361-66.226 100.785-93.61 135.794-83.718 49.975 14.125 72.025 101.368 93.356 185.747 19.117 75.662 37.18 147.126 73.69 156.502 23.84 6.131 53.671-14.852 91.201-64.148 42.499-55.829 73.276-79.447 94.088-72.219 28.869 10.038 33.763 77.799 38.477 143.324 4.466 61.924 8.678 120.416 31.991 127.909 17.763 5.695 45.19-19.313 83.873-76.458 41.263-60.956 71.744-87.692 93.194-81.736 27.262 7.579 36.294 65.103 45.849 126.012 9.637 61.411 19.608 124.893 49.466 134.76 18.991 6.278 44.203-9.459 77.09-48.103l.725.607c-15.282 17.946-28.931 30.977-41.109 39.188z" fill="#DE52C2"/><path d="M606.65 543.614c-14.855 10.017-27.644 13.161-38.617 9.584-31.16-10.16-42.281-73.521-53.029-134.776-10.565-60.207-20.539-117.073-47.864-124.504-21.382-5.808-51.465 20.02-91.966 79-38.454 55.993-66.146 80.372-84.652 74.533-24.526-7.742-29.712-66.05-35.181-127.771-5.74-64.648-11.672-131.492-40.607-141.426-20.772-7.136-51.204 15.639-93.064 69.619-37.293 48.093-67.357 68.471-91.904 62.305-38.003-9.555-57.501-80.991-78.152-156.62C-71.25 69.798-94.9-16.799-145.589-30.893c-35.147-9.77-79.249 16.547-134.824 80.437l-.716-.614c55.814-64.155 100.216-90.554 135.727-80.685 51.25 14.242 74.964 101.124 97.908 185.147 20.567 75.341 40.006 146.501 77.43 155.921 24.164 6.079 53.934-14.207 91.005-62.014 42.106-54.312 72.866-77.172 94.049-69.893 29.555 10.146 35.523 77.312 41.283 142.26 5.444 61.394 10.594 119.38 34.497 126.927 18.076 5.709 45.448-18.575 83.669-74.216 40.721-59.309 71.11-85.252 92.915-79.324 27.933 7.606 37.964 64.765 48.592 125.29 10.705 60.982 21.771 124.035 52.35 134.017 19.313 6.302 44.55-8.855 77.155-46.338l.716.613c-14.605 16.711-27.716 29.021-39.517 36.979z" fill="#E6960C"/><path d="M619.706 541.305c-15.473 10.436-28.835 13.726-40.342 10.013-31.899-10.278-44.142-73.205-55.971-134.068-11.633-59.855-22.625-116.401-50.649-123.857-21.727-5.785-51.723 19.281-91.701 76.626-38.004 54.511-65.633 78.177-84.463 72.329-25.115-7.795-31.238-65.614-37.716-126.827-6.79-64.097-13.802-130.371-43.449-140.427-21.143-7.17-51.579 14.86-93.057 67.344-36.837 46.621-66.833 66.311-91.7 60.18-38.937-9.585-59.828-80.737-81.957-156.083-24.505-83.461-49.847-169.752-101.854-183.964-35.649-9.746-79.739 15.59-134.781 77.448l-.706-.62c55.28-62.123 99.661-87.536 135.675-77.69 52.539 14.363 77.967 100.926 102.543 184.64 22.046 75.057 42.865 145.956 81.243 155.394 24.486 6.027 54.188-13.57 90.802-59.905 41.723-52.8 72.486-74.915 94.033-67.612 30.25 10.264 37.308 76.854 44.118 141.252 6.443 60.892 12.538 118.399 37.02 126.005 18.4 5.717 45.716-17.842 83.481-72.012 40.205-57.663 70.514-82.836 92.639-76.944 28.634 7.615 39.684 64.453 51.371 124.616 11.78 60.582 23.956 123.223 55.293 133.31 19.634 6.326 44.881-8.269 77.223-44.605l.706.62c-13.814 15.549-26.388 27.139-37.801 34.837z" fill="#EA0A24"/><path d="M632.966 539.194c-16.11 10.867-30.052 14.294-42.13 10.456-32.664-10.393-46.032-72.929-58.95-133.41-12.729-59.543-24.738-115.785-53.487-123.263-22.066-5.736-51.983 18.56-91.45 74.291-37.567 53.052-65.133 76.002-84.279 70.158-25.721-7.852-32.793-65.217-40.279-125.938-7.836-63.58-15.947-129.331-46.322-139.511-21.516-7.204-51.955 14.08-93.064 65.091-36.39 45.154-66.327 64.162-91.502 58.104-39.901-9.597-62.21-80.52-85.841-155.614-26.177-83.183-53.241-169.207-106.59-183.551-36.145-9.712-80.215 14.654-134.736 74.502l-.706-.62c54.749-60.107 99.111-84.55 135.612-74.748 53.874 14.485 81.027 100.765 107.282 184.211 23.538 74.811 45.775 145.482 85.125 154.94 24.8 5.965 54.444-12.95 90.604-57.828 41.351-51.31 72.101-72.683 94.028-65.336 30.981 10.372 39.12 76.435 47.003 140.313 7.448 60.416 14.483 117.476 39.581 125.133 18.725 5.707 45.978-17.137 83.306-69.848 39.694-56.049 69.914-80.445 92.379-74.601 29.342 7.632 41.418 64.161 54.212 124.005 12.858 60.206 26.167 122.466 58.276 132.678 19.938 6.346 45.223-7.691 77.297-42.905l.696.627c-13.074 14.377-25.076 25.252-36.065 32.664z" fill="#D40AB4"/><path d="M646.454 537.289c-16.767 11.312-31.309 14.889-43.982 10.911-33.456-10.505-47.961-72.686-61.988-132.831-13.822-59.262-26.879-115.224-56.37-122.727-22.414-5.698-52.246 17.854-91.197 71.997-37.14 51.6-64.644 73.851-84.116 68.016-26.347-7.896-34.373-64.834-42.884-125.126-8.911-63.101-18.11-128.351-49.25-138.646-21.906-7.242-52.342 13.322-93.092 62.866-35.956 43.71-65.81 62.049-91.282 56.057-40.89-9.622-64.64-80.346-89.801-155.225-27.876-82.963-56.693-168.76-111.41-183.232-36.631-9.685-80.694 13.733-134.691 71.613l-.696-.626c54.24-58.12 98.577-81.618 135.564-71.843 55.243 14.613 84.157 100.66 112.104 183.875 25.06 74.603 48.738 145.075 89.083 154.568 25.107 5.909 54.676-12.343 90.411-55.784 40.992-49.843 71.756-70.493 94.048-63.121 31.72 10.49 40.983 76.042 49.924 139.438 8.459 59.967 16.455 116.61 42.186 124.32 19.049 5.715 46.251-16.437 83.153-67.711 39.186-54.452 69.321-78.103 92.126-72.308 30.077 7.648 43.201 63.895 57.097 123.453 13.967 59.87 28.406 121.765 61.322 132.109 20.252 6.36 45.574-7.119 77.39-41.217l.696.627c-12.398 13.276-23.812 23.44-34.345 30.547z" fill="#E48E4A"/><path d="M660.157 535.58c-17.443 11.77-32.611 15.499-45.88 11.382-34.255-10.627-49.93-72.475-65.072-132.294-14.946-59.005-29.055-114.729-59.317-122.237-22.746-5.639-52.494 17.168-90.965 69.732-36.717 50.178-64.178 71.727-83.958 65.905-26.981-7.95-35.993-64.484-45.529-124.345-9.984-62.638-20.31-127.42-52.206-137.836-22.27-7.267-52.739 12.57-93.125 60.673-35.515 42.292-65.305 59.974-91.067 54.041-41.903-9.643-67.117-80.198-93.832-154.892-29.595-82.787-60.203-168.39-116.34-183-37.107-9.665-81.158 12.832-134.65 68.756l-.702-.653c53.735-56.163 98.068-78.73 135.515-68.98C-120.317-43.425-89.62 42.434-59.935 125.46c26.61 74.435 51.753 144.737 93.12 154.262 25.404 5.842 54.9-11.747 90.195-53.77 40.636-48.391 71.405-68.311 94.072-60.921 32.484 10.605 42.85 75.675 52.882 138.612 9.49 59.547 18.453 115.798 44.827 123.556 19.375 5.705 46.525-15.754 83.005-65.607 38.69-52.877 68.74-75.782 91.867-70.04 30.849 7.653 45.024 63.663 60.044 122.963 15.081 59.56 30.68 121.129 64.405 131.588 20.565 6.374 45.91-6.566 77.48-39.57l.687.633c-11.634 12.176-22.442 21.632-32.492 28.414z" fill="#EC3068"/><path d="M674.097 534.078c-18.138 12.24-33.958 16.125-47.866 11.869-35.099-10.75-51.929-72.304-68.219-131.819-16.076-58.774-31.268-114.283-62.316-121.816-23.069-5.586-52.751 16.487-90.721 67.502-36.295 48.756-63.716 69.635-83.815 63.832-27.65-7.994-37.634-64.162-48.224-123.632-11.078-62.222-22.518-126.557-55.223-137.089-22.653-7.295-53.131 11.846-93.18 58.508-35.088 40.897-64.804 57.915-90.84 52.062-42.935-9.668-69.65-80.086-97.947-154.651-31.36-82.654-63.79-168.102-121.381-182.859-37.569-9.623-81.615 11.942-134.617 65.949l-.684-.65c53.235-54.24 97.546-75.878 135.454-66.168C-127.39-50-94.865 35.714-63.412 118.59c28.19 74.306 54.834 144.488 97.232 154.037 25.676 5.78 55.119-11.158 89.986-51.785 40.291-46.962 71.078-66.175 94.117-58.751 33.276 10.717 44.774 75.345 55.901 137.848 10.525 59.169 20.47 115.048 47.512 122.867 19.7 5.696 46.801-15.087 82.861-63.535 38.195-51.317 68.163-73.493 91.623-67.81 31.62 7.659 46.888 63.446 63.047 122.509 16.21 59.269 32.981 120.548 67.546 131.146 20.87 6.395 46.248-6.013 77.581-37.93l.684.65c-10.857 11.053-21.043 19.804-30.581 26.241z" fill="#DE5E7E"/><path d="M688.267 532.764c-18.853 12.724-35.335 16.771-49.907 12.362-35.949-10.883-53.976-72.16-71.408-131.42-17.234-58.583-33.522-113.912-65.378-121.442-23.392-5.533-52.986 15.838-90.491 65.311-35.894 47.364-63.26 67.576-83.676 61.793-28.32-8.038-39.308-63.864-50.948-122.976-12.176-61.831-24.761-125.76-58.275-136.408-23.035-7.322-53.523 11.121-93.239 56.377-34.67 39.506-64.31 55.905-90.607 50.108-43.994-9.69-72.233-80.017-102.141-154.477-33.158-82.544-67.434-167.91-126.531-182.822-38.028-9.6-82.047 11.064-134.57 63.176l-.675-.657c52.755-52.328 97.048-73.071 135.408-63.395 59.58 15.037 93.966 100.629 127.214 183.412 29.81 74.21 57.96 144.298 101.433 153.873 25.948 5.717 55.312-10.585 89.766-49.855 39.956-45.538 70.762-64.061 94.176-56.619 34.085 10.833 46.727 75.054 58.962 137.161 11.576 58.81 22.507 114.344 50.243 122.22 20.019 5.676 47.081-14.437 82.739-61.492 37.721-49.769 67.609-71.233 91.384-65.612 32.425 7.671 48.792 63.263 66.109 122.134 17.361 59.008 35.317 120.033 70.736 130.748 21.174 6.414 46.586-5.478 77.675-36.317l.675.657c-10.141 10.044-19.677 18.088-28.674 24.16z" fill="#DE3670"/><path d="M702.678 531.662c-19.587 13.22-36.759 17.433-52.021 12.874-36.817-11.019-56.056-72.038-74.661-131.067-18.415-58.421-35.813-113.59-68.509-121.139-23.707-5.471-53.231 15.194-90.249 63.155-35.495 45.988-62.814 65.539-83.54 59.769-29.016-8.079-41.021-63.599-53.726-122.372-13.288-61.46-27.03-125.018-61.387-135.788-23.4-7.347-53.927 10.418-93.313 54.283-34.257 38.149-63.818 53.91-90.38 48.187-45.086-9.719-74.887-79.989-106.438-154.382-34.983-82.49-71.167-167.775-131.786-182.848-38.47-9.571-82.474 10.213-134.522 60.446l-.665-.663c52.282-50.466 96.548-70.307 135.35-60.659 61.103 15.197 97.377 100.722 132.462 183.429C-39.254 179.03-9.553 249.067 35.021 258.68c26.22 5.654 55.507-10.027 89.538-47.933 39.633-44.137 70.459-61.969 94.23-54.512 34.912 10.951 48.72 74.795 62.068 136.53 12.641 58.472 24.579 113.705 53.011 121.622 20.328 5.664 47.353-13.795 82.615-59.489 37.242-48.248 67.059-69.006 91.133-63.451 33.249 7.671 50.734 63.113 69.235 121.806 18.534 58.776 37.692 119.55 73.993 130.42 21.471 6.425 46.925-4.941 77.783-34.725l.665.663c-9.335 9.02-18.197 16.37-26.614 22.051z" fill="#B426CA"/><path d="M717.344 530.749c-20.34 13.73-38.23 18.127-54.198 13.398-37.711-11.151-58.172-71.966-77.974-130.776-19.612-58.278-38.141-113.334-71.695-120.889-24.006-5.405-53.46 14.553-90.012 61.032-35.109 44.633-62.391 63.53-83.428 57.789-29.738-8.117-42.758-63.346-56.557-121.82-14.415-61.125-29.328-124.332-64.553-135.238-23.775-7.364-54.331 9.716-93.399 52.213-33.845 36.807-63.33 51.947-90.129 46.294-46.197-9.751-77.582-79.993-110.814-154.352-36.847-82.47-74.957-167.738-137.14-182.987-38.895-9.54-82.891 9.355-134.48 57.764l-.655-.67c51.819-48.625 96.071-67.587 135.288-57.964C-149.735-70.083-111.533 15.41-74.584 98.093c33.125 74.118 64.4 144.133 110.102 153.782 26.456 5.584 55.668-9.477 89.297-46.048 39.323-42.759 70.17-59.915 94.316-52.441 35.773 11.077 50.745 74.56 65.229 135.954 13.725 58.178 26.685 113.132 55.84 121.087 20.638 5.634 47.627-13.171 82.503-57.511 36.783-46.755 66.514-66.809 90.885-61.321 34.109 7.677 52.726 62.989 72.423 121.54 19.712 58.57 40.093 119.139 77.305 130.146 21.768 6.435 47.247-4.408 77.895-33.166l.655.669c-8.545 8.053-16.714 14.694-24.522 19.965z" fill="#F01E02"/><path d="M732.283 530.047c-21.132 14.267-39.746 18.822-56.465 13.939-38.63-11.297-60.345-71.931-81.34-130.555-20.837-58.175-40.521-113.131-74.962-120.689-24.303-5.339-53.675 13.948-89.779 58.941-34.731 43.285-61.972 61.554-83.31 55.836-30.479-8.158-44.552-63.13-59.434-121.328-15.562-60.819-31.66-123.712-67.772-134.74-24.149-7.382-54.737 9.03-93.496 50.164-33.447 35.489-62.841 50.028-89.867 44.438-47.324-9.786-80.333-80.033-115.277-154.399-38.75-82.48-78.824-167.766-142.63-183.212-39.31-9.515-83.294 8.516-134.426 55.118l-.646-.677c51.363-46.817 95.592-64.909 135.225-55.31C-157.631-76.871-117.455 8.63-78.602 91.328c34.827 74.13 67.726 144.15 114.571 153.838 26.701 5.524 55.822-8.935 89.062-44.195 39.014-41.396 69.883-57.878 94.404-50.386 36.66 11.2 52.826 74.361 68.45 135.44 14.815 57.912 28.812 112.605 58.731 120.615 20.957 5.615 47.905-12.562 82.403-55.554 36.318-45.273 65.973-64.646 90.635-59.234 34.978 7.676 54.75 62.888 75.683 121.33 20.912 58.395 42.546 118.782 80.685 129.944 22.065 6.445 47.581-3.898 78.009-31.623l.646.677c-7.78 7.07-15.233 13.034-22.394 17.867z" fill="#C636A8"/><path d="M747.462 529.535c-21.934 14.809-41.3 19.543-58.795 14.491-39.566-11.446-62.55-71.917-84.778-130.389-22.085-58.102-42.939-112.977-78.29-120.552-24.594-5.262-53.881 13.338-89.534 56.886-34.339 41.956-61.555 59.594-83.187 53.909-31.237-8.203-46.36-62.934-62.364-120.888-16.723-60.55-34.02-123.147-71.051-134.322-24.517-7.389-55.13 8.364-93.602 48.165-33.059 34.193-62.363 48.131-89.6 42.608-48.492-9.839-83.147-80.12-119.834-154.515-40.701-82.536-82.778-167.87-148.224-183.516-39.717-9.497-83.681 7.68-134.37 52.514l-.636-.683c50.928-45.04 95.137-62.277 135.159-52.7C-165.739-83.702-123.552 1.86-82.756 84.601c36.585 74.178 71.12 144.239 119.134 153.98 26.92 5.467 55.96-8.397 88.804-42.371 38.708-40.05 69.619-55.869 94.49-48.373 37.564 11.325 54.937 74.202 71.731 135.004 15.937 57.669 30.983 112.137 61.66 120.192 21.25 5.582 48.173-11.964 82.29-53.633 35.864-43.812 65.427-62.509 90.388-57.162 35.88 7.683 56.832 62.807 79.012 121.175 22.135 58.249 45.029 118.48 84.121 129.796 22.342 6.468 47.896-3.375 78.118-30.106l.636.683c-6.956 6.108-13.682 11.371-20.166 15.748z" fill="#BA0A2C"/><path d="M762.931 529.237c-22.755 15.364-42.91 20.285-61.206 15.053-40.527-11.61-64.802-71.949-88.276-130.287-23.355-58.059-45.409-112.893-81.69-120.471-24.876-5.193-54.082 12.753-89.276 54.867-33.977 40.646-61.152 57.656-83.08 52.021-32.02-8.245-48.215-62.781-65.356-120.512-17.908-60.294-36.414-122.648-74.393-133.949-24.882-7.413-55.531 7.704-93.709 46.181-32.667 32.923-61.882 46.276-89.327 40.804-49.679-9.895-86.011-80.234-124.486-154.717-42.681-82.63-86.816-168.066-153.934-183.937-40.113-9.484-84.043 6.86-134.31 49.953l-.634-.7c50.487-43.286 94.679-59.687 135.089-50.132C-174.087-90.619-129.84-4.972-87.054 77.858-48.699 152.12-12.46 222.253 36.74 232.05c27.13 5.399 56.089-7.871 88.534-40.584 38.413-38.727 69.358-53.894 94.587-46.384 38.502 11.459 57.087 74.076 75.066 134.622 17.064 57.452 33.181 111.725 64.65 119.832 21.562 5.552 48.445-11.382 82.191-51.752 35.423-42.374 64.906-60.416 90.131-55.143 36.8 7.693 58.961 62.77 82.414 121.079 23.39 58.125 47.564 118.23 87.627 129.703 22.629 6.484 48.215-2.885 78.229-28.606l.634.7c-6.145 5.246-12.093 9.818-17.871 13.719z" fill="#C030B2"/><path d="M778.691 529.138c-23.605 15.939-44.558 21.054-63.696 15.623-41.522-11.779-67.103-72.005-91.854-130.249-24.657-58.039-47.95-112.865-85.185-120.46-25.148-5.13-54.266 12.172-89.031 52.871-33.617 39.352-60.745 55.76-82.964 50.141-32.822-8.29-50.113-62.644-68.403-120.187-19.105-60.073-38.862-122.201-77.795-133.655-25.24-7.428-55.932 7.043-93.82 44.23-32.287 31.675-61.415 44.443-89.044 39.035-50.88-9.954-88.945-80.403-129.232-154.988-44.701-82.758-90.926-168.319-159.775-184.433-40.492-9.469-84.404 6.037-134.248 47.433l-.624-.706c50.071-41.579 94.228-57.146 135.025-47.597 69.284 16.212 115.621 101.983 160.426 184.94 40.175 74.375 78.118 144.621 128.545 154.491 27.322 5.345 56.184-7.35 88.259-38.822 38.139-37.415 69.103-51.95 94.69-44.426 39.448 11.602 59.286 73.976 78.472 134.295 18.204 57.27 35.407 111.369 67.694 119.524 21.856 5.519 48.699-10.803 82.078-49.89 34.977-40.961 64.386-58.339 89.868-53.149 37.747 7.7 61.14 62.759 85.902 121.057 24.65 58.028 50.138 118.03 91.196 129.673 22.899 6.497 48.532-2.378 78.345-27.138l.624.706c-5.266 4.397-10.418 8.282-15.453 11.681z" fill="#FA560E"/><path d="M794.735 529.245c-24.485 16.533-46.261 21.828-66.268 16.203-42.524-11.96-69.45-72.105-95.476-130.273-25.989-58.057-50.536-112.895-88.734-120.501-25.395-5.053-54.433 11.594-88.774 50.91-33.251 38.086-60.359 53.895-82.855 48.312-33.65-8.332-52.049-62.541-71.52-119.919-20.325-59.883-41.347-121.821-81.279-133.412-25.59-7.431-56.319 6.404-93.934 42.295-31.91 30.445-60.943 42.655-88.746 37.304-52.126-10.031-91.938-80.61-134.083-155.34-46.769-82.911-95.129-168.657-165.733-185.029-40.86-9.476-84.749 5.219-134.191 44.947l-.615-.712c49.657-39.889 93.809-54.641 134.949-45.098 71.029 16.476 119.513 102.408 166.379 185.51 42.034 74.519 81.73 144.905 133.395 154.842 27.504 5.297 56.283-6.845 87.98-37.087 37.866-36.121 68.866-50.019 94.794-42.485 40.438 11.746 61.532 73.92 81.938 134.049 19.383 57.122 37.687 111.064 70.809 119.272 22.133 5.482 48.956-10.24 81.987-48.056 34.549-39.563 63.854-56.3 89.591-51.177 38.721 7.705 63.367 62.775 89.463 121.076 25.942 57.954 52.765 117.883 94.833 129.716 23.177 6.52 48.842-1.881 78.471-25.676l.615.712a192.819 192.819 0 01-12.996 9.617z" fill="#A8628A"/><path d="M811.103 529.559c-25.383 17.141-48.021 22.642-68.938 16.805-43.561-12.147-71.837-72.239-99.188-130.356-27.342-58.106-53.165-112.986-92.388-120.606-25.65-4.986-54.586 11.036-88.503 48.986-32.906 36.831-59.967 52.037-82.743 46.509-34.502-8.389-54.027-62.455-74.691-119.705-21.558-59.728-43.867-121.49-84.821-133.248-25.948-7.445-56.716 5.771-94.063 40.4-31.545 29.253-60.466 40.891-88.452 35.588-53.377-10.118-94.975-80.86-139.028-155.761-48.875-83.115-99.421-169.055-171.82-185.718-41.209-9.481-85.088 4.426-134.138 42.493l-.604-.719c49.266-38.243 93.388-52.194 134.878-42.648 72.817 16.758 123.477 102.89 172.458 186.189 43.932 74.698 85.415 145.247 138.356 155.284 27.669 5.246 56.361-6.328 87.695-35.378 37.588-34.852 68.635-48.121 94.913-40.582 41.444 11.892 63.834 73.899 85.483 133.867 20.576 56.994 40.01 110.821 73.985 119.084 22.42 5.439 49.206-9.688 81.884-46.259 34.134-38.187 63.346-54.305 89.327-49.242 39.719 7.721 65.644 62.817 93.094 121.167 27.256 57.91 55.437 117.796 98.548 129.825 23.438 6.54 49.154-1.401 78.593-24.24l.604.718c-3.535 2.703-7.021 5.238-10.441 7.547z" fill="#E84E8C"/><path d="M827.753 530.075c-26.311 17.767-49.835 23.461-71.689 17.415-44.612-12.354-74.271-72.415-102.95-130.508-28.721-58.169-55.859-113.123-96.098-120.764-25.878-4.922-54.738 10.478-88.237 47.094-32.562 35.593-59.588 50.22-82.631 44.721-35.374-8.43-56.052-62.411-77.933-119.562-22.822-59.597-46.425-121.208-88.417-133.136-26.297-7.466-57.103 5.13-94.187 38.53-31.184 28.078-60.02 39.163-88.144 33.908-54.655-10.217-98.095-81.16-144.079-156.262-51.029-83.345-103.797-169.528-178.023-186.507-41.541-9.497-85.407 3.605-134.083 40.083l-.585-.732c48.88-36.631 92.982-49.788 134.804-40.224 74.635 17.062 127.511 103.43 178.656 186.951 45.87 74.909 89.187 145.664 143.404 155.801 27.824 5.202 56.415-5.823 87.389-33.714 37.331-33.597 68.409-46.256 95.028-38.707 42.476 12.053 66.176 73.913 89.081 133.74 21.793 56.895 42.363 110.632 77.227 118.941 22.686 5.409 49.438-9.139 81.782-44.478 33.713-36.836 62.83-52.32 89.035-47.347 40.734 7.742 67.967 62.903 96.815 121.302 28.584 57.885 58.138 117.747 102.318 129.987 23.699 6.559 49.447-.907 78.718-22.838l.595.725a181.122 181.122 0 01-7.796 5.581z" fill="#BE0806"/><path d="M844.739 530.793c-27.277 18.42-51.706 24.319-74.545 18.021-45.688-12.574-76.751-72.635-106.801-130.719-30.147-58.274-58.617-113.306-99.913-120.985-26.098-4.849-54.858 9.943-87.949 45.232-32.228 34.36-59.212 48.418-82.508 42.97-36.27-8.487-58.108-62.391-81.247-119.46-24.101-59.486-49.041-121.006-92.109-133.094-26.638-7.476-57.485 4.516-94.323 36.683-30.834 26.925-59.563 37.472-87.822 32.249-55.946-10.338-101.254-81.493-149.215-156.84-53.23-83.617-108.271-170.072-184.365-187.381-41.879-9.525-85.72 2.809-134.032 37.704l-.576-.739c48.534-35.045 92.601-47.426 134.744-37.839 76.495 17.4 131.642 104.038 184.982 187.823 47.846 75.153 93.028 146.138 148.546 156.388 27.97 5.163 56.453-5.323 87.078-32.062 37.066-32.366 68.195-44.428 95.153-36.853 43.549 12.23 68.565 73.969 92.766 133.688 23.031 56.826 44.779 110.49 80.547 118.866 22.954 5.378 49.673-8.607 81.668-42.734 33.295-35.502 62.322-50.384 88.745-45.468 41.776 7.76 70.356 63.018 100.622 121.512 29.945 57.885 60.911 117.755 106.177 130.209 23.957 6.596 49.723-.417 78.843-21.435l.576.739a172.569 172.569 0 01-5.042 3.525z" fill="#F01AA4"/><path d="M862.04 531.721c-28.262 19.086-53.631 25.184-77.492 18.659-46.789-12.808-79.289-72.891-110.724-130.987-31.587-58.399-61.437-113.552-103.799-121.263-26.299-4.788-54.978 9.409-87.656 43.396-31.892 33.172-58.85 46.657-82.396 41.242-37.185-8.546-60.222-62.407-84.621-119.437-25.42-59.408-51.698-120.836-95.864-133.115-26.969-7.493-57.859 3.912-94.453 34.862-30.497 25.796-59.12 35.82-87.505 30.622-57.28-10.474-104.49-81.892-154.471-157.5-55.473-83.907-112.832-170.675-190.818-188.346-42.198-9.565-86.033 2.014-133.968 35.362l-.567-.745c48.177-33.511 92.216-45.108 134.671-35.491 78.376 17.769 135.854 104.697 191.427 188.778 49.863 75.43 96.959 146.671 153.81 157.058 28.105 5.132 56.49-4.822 86.78-30.447 36.823-31.15 67.992-42.609 95.274-35.026 44.632 12.4 71.01 74.061 96.515 133.682 24.292 56.787 47.229 110.415 83.928 118.853 23.214 5.338 49.891-8.077 81.566-41.012 32.892-34.207 61.818-48.48 88.435-43.636 42.843 7.791 72.795 63.161 104.501 121.781 31.328 57.912 63.731 117.805 110.097 130.493 24.208 6.621 50.008.067 78.974-20.065l.566.745a64.956 64.956 0 01-2.21 1.537z" fill="#F8143E"/><path d="M878.987 533.344c-28.999 19.402-55.123 25.559-79.84 18.816-47.905-13.062-81.866-73.18-114.699-131.325-33.076-58.551-64.318-113.862-107.781-121.61-26.5-4.727-55.065 8.88-87.358 41.587-31.564 31.988-58.474 44.914-82.263 39.543-38.131-8.613-62.384-62.451-88.068-119.455-26.743-59.355-54.399-120.725-99.696-133.203-27.291-7.516-58.242 3.299-94.598 33.082-30.164 24.699-58.671 34.194-87.183 29.021-58.62-10.621-107.775-82.335-159.821-158.246-57.753-84.247-117.481-171.355-197.396-189.421-42.508-9.611-86.318 1.199-133.937 33.055l-.556-.751c47.821-31.994 91.857-42.851 134.619-33.171 80.299 18.153 140.135 105.428 198.008 189.836 51.928 75.733 100.96 147.261 159.167 157.814 28.222 5.114 56.51-4.324 86.467-28.853 36.584-29.966 67.787-40.831 95.4-33.232 45.747 12.595 73.495 74.188 100.341 133.76 25.584 56.771 49.743 110.385 87.372 118.887 23.457 5.294 50.102-7.558 81.452-39.327 32.491-32.929 61.327-46.6 88.128-41.82 43.934 7.836 75.28 63.347 108.475 122.118 32.743 57.965 66.598 117.9 114.097 130.845 24.446 6.67 50.33.54 79.106-18.712l.564.762z" fill="#EC4050"/><path d="M893.956 536.684c-28.855 18.539-55.015 24.254-79.974 17.479-49.045-13.329-84.489-73.513-118.779-131.727-34.595-58.743-67.263-114.218-111.858-122.028-26.676-4.67-55.152 8.352-87.048 39.813-31.249 30.829-58.121 43.218-82.134 37.878-39.079-8.679-64.585-62.527-91.594-119.539-28.099-59.327-57.161-120.679-103.591-133.354-27.612-7.539-58.599 2.698-94.735 31.311-29.826 23.629-58.236 32.608-86.848 27.457-59.983-10.798-111.126-82.809-165.276-159.057-44.25-62.31-90.012-126.74-144.272-163.575-61.452-41.734-124.829-40.499-193.732 3.777l-.538-.765c36.595-23.51 72.248-35.08 105.959-34.395 30.271.618 59.319 10.645 88.787 30.655 54.412 36.943 100.224 101.46 144.526 163.84C-73.125 100.516-22.093 172.376 37.487 183.1c28.329 5.102 56.504-3.824 86.149-27.286 36.353-28.789 67.602-39.083 95.527-31.454 46.886 12.802 76.044 74.361 104.238 133.894 26.891 56.776 52.295 110.407 90.906 118.982 23.697 5.267 50.297-7.059 81.332-37.668 32.101-31.674 60.832-44.763 87.807-40.041 45.043 7.885 77.832 63.563 112.549 122.51 34.173 58.037 69.518 118.047 118.164 131.27 24.696 6.712 50.615 1.024 79.258-17.371l.539.748z" fill="#CC8812"/><path d="M909.163 540.227c-28.714 17.693-54.921 22.974-80.11 16.143-50.199-13.617-87.158-73.89-122.902-132.189-36.138-58.949-70.279-114.632-116.017-122.497-26.841-4.618-55.221 7.828-86.733 38.067-30.936 29.685-57.76 41.532-82.006 36.229-40.069-8.763-66.844-62.641-95.192-119.681-29.486-59.321-59.971-120.676-107.581-133.575-27.941-7.573-58.973 2.094-94.884 29.562-29.517 22.579-57.824 31.052-86.516 25.91C-24.13 167.211-77.308 94.86-133.597 18.268c-45.749-62.26-93.064-126.634-148.59-163.907-62.879-42.214-127.072-42.021-196.233.595l-.528-.771c69.487-42.821 134.012-42.997 197.237-.551 55.67 37.37 103.028 101.821 148.838 164.144 56.171 76.433 109.23 148.623 170.195 159.554 28.435 5.09 56.507-3.33 85.835-25.751 36.129-27.645 67.421-37.353 95.65-29.704 48.05 13.024 78.648 74.572 108.223 134.09 28.238 56.813 54.901 110.481 94.508 119.149 23.931 5.23 50.484-6.553 81.206-36.018 31.723-30.443 60.341-42.959 87.491-38.295 46.175 7.947 80.423 63.813 116.693 122.959 35.644 58.125 72.494 118.232 122.313 131.745 24.934 6.762 50.901 1.508 79.404-16.057l.518.777z" fill="#F6243A"/><path d="M924.623 543.978c-28.585 16.868-54.831 21.725-80.239 14.832-51.379-13.918-89.884-74.321-127.114-132.728-37.721-59.188-73.359-115.092-120.254-123.033-26.996-4.573-55.266 7.317-86.404 36.357-30.625 28.559-57.414 39.885-81.867 34.616-41.075-8.849-69.151-62.781-98.867-119.888-30.887-59.354-62.835-120.727-111.651-133.865-28.253-7.602-59.333 1.511-95.021 27.851-29.219 21.551-57.408 29.539-86.187 24.396-62.76-11.222-118.004-83.936-176.486-160.927C-186.748-50.644-235.628-115-292.429-152.703c-64.339-42.716-129.374-43.563-198.812-2.593l-.518-.778c69.772-41.165 135.121-40.305 199.798 2.634 56.947 37.802 105.879 102.226 153.211 164.53 58.364 76.83 113.486 149.4 175.87 160.545 28.531 5.101 56.502-2.83 85.518-24.243 35.92-26.497 67.252-35.661 95.784-27.976 49.248 13.252 81.283 74.822 112.284 134.369 29.607 56.881 57.578 110.612 98.192 119.368 24.155 5.199 50.67-6.048 81.093-34.41 31.357-29.233 59.855-41.187 87.161-36.567 47.332 8.021 83.077 64.109 120.939 123.488 37.128 58.25 75.516 118.476 126.531 132.293 25.164 6.818 51.187 1.992 79.551-14.743l.45.764z" fill="#CE1C36"/><path d="M940.357 547.946c-96.482 54.437-155.099-34.128-211.802-119.776-39.353-59.453-76.521-115.603-124.598-123.633-27.141-4.535-55.31 6.807-86.087 34.671-30.327 27.454-57.054 38.258-81.72 33.014-42.106-8.951-71.497-62.956-102.617-120.138-32.329-59.402-65.753-120.831-115.798-134.22-28.556-7.639-59.674.913-95.178 26.152-24.594 17.481-48.418 25.452-72.84 24.356-21.906-.989-43.882-9.314-67.195-25.454C-60.9 112.85-102.022 60.423-145.57 4.915c-48.817-62.233-99.286-126.581-157.403-164.75-65.822-43.233-131.724-45.133-201.471-5.774l-.498-.791c70.068-39.531 136.294-37.624 202.438 5.827C-244.26-122.309-193.729-57.898-144.868 4.395c43.487 55.445 84.564 107.812 127.866 137.796 48.56 33.62 92.69 33.988 138.976 1.077 35.699-25.386 67.097-33.992 95.923-26.281 50.461 13.5 83.999 75.123 116.425 134.715 31.008 56.971 60.284 110.783 101.939 119.633 24.359 5.181 50.841-5.562 80.948-32.824 30.987-28.05 59.384-39.456 86.818-34.878 48.514 8.111 85.798 64.437 125.275 124.078 56.438 85.271 114.81 173.445 210.54 119.441l.515.794z" fill="#B072A8"/></mask><g mask="url(#b)"><path transform="rotate(-38.575 -505 -102.273)" fill="url(#paint0_linear_106_737)" fill-opacity=".4" d="M-505-102.273h764.063v1360.08H-505z"/></g></g><defs><linearGradient id="paint0_linear_106_737" x1="-523.356" y1="-102.273" x2="329.04" y2="-82.311" gradientUnits="userSpaceOnUse"><stop stop-color="#BE8143"/><stop offset=".556" stop-color="#8F664E"/><stop offset="1" stop-color="#BB7F44"/></linearGradient></defs></svg>