<svg width="29" height="28" fill="none" xmlns="http://www.w3.org/2000/svg"><path d="M9.058 7.63c-.6 1.737-.839 3.706-.958 5.79h5.99V7.63H9.058zm-2.157 6.95H.911c.12 2.084.719 4.053 1.677 5.79H7.74c-.48-1.737-.719-3.706-.839-5.79zm2.516-8.11h4.673V1.374c-1.917.348-3.594 2.317-4.673 5.097zm5.87-5.097V6.47h4.673c-1.078-2.78-2.755-4.75-4.672-5.097zM20.32 7.63h-5.032v5.792h5.99c-.12-2.085-.36-4.054-.958-5.792zm2.156 6.95c0 2.085-.36 4.054-.838 5.792h5.151a13.6 13.6 0 001.678-5.792h-5.99zm-14.376 0c.12 2.085.359 4.054.958 5.792h5.032V14.58H8.1zM2.588 7.63a13.598 13.598 0 00-1.677 5.792h5.99c.12-2.085.36-4.054.84-5.792H2.587zm6.83 13.9c1.078 2.78 2.755 4.75 4.672 5.097V21.53H9.417zm-1.318 0H3.307c2.037 2.78 5.032 4.865 8.626 5.56-1.557-1.043-2.875-3.012-3.833-5.56zm13.058 0c-.838 2.548-2.156 4.517-3.833 5.56 3.594-.695 6.709-2.664 8.626-5.56h-4.793zM17.445.911c1.557 1.043 2.875 3.012 3.833 5.56h4.793c-2.037-2.78-5.032-4.865-8.627-5.56zM3.427 6.471H8.22c.839-2.548 2.157-4.517 3.834-5.56-3.594.695-6.709 2.664-8.626 5.56zm11.86 15.058v5.097c1.918-.348 3.595-2.317 4.673-5.097h-4.672zm0-6.95v5.792h5.033c.599-1.738.838-3.707.958-5.792h-5.99zM26.79 7.63h-5.151c.479 1.738.718 3.707.838 5.792h5.99A13.601 13.601 0 0026.79 7.63z" fill="#EDEDED"/></svg>