<svg width="1920" height="473" fill="none" xmlns="http://www.w3.org/2000/svg"><path d="M1698.76 87.484c-10.07-16.402-22.45-25.39-36.87-27.058-50.74-5.838-120.39 79.599-187.86 162.256-62.99 77.283-128.15 157.16-171.13 150.951-35.65-5.189-54.01-68.294-56.19-192.928C1244.67 63.298 1228.48 4.363 1197.2.657c-39.86-4.726-97.54 78.023-158.49 165.685-63.934 91.923-130.047 186.905-177.388 181.994-35.233-3.614-56.591-62.271-65.025-179.307-7.754-106.38-31.696-161.33-73.051-168.002-59.584-9.637-146.511 80.619-238.608 176.064-102.027 105.638-207.455 214.797-287.036 203.214-59.311-8.71-97.265-83.769-115.902-229.716l-1.769.185C98.568 297.277 136.93 372.799 197.058 381.51c80.806 11.861 186.642-97.762 288.805-203.678C577.687 82.758 664.342-7.128 722.701 2.325c40.675 6.579 64.073 61.158 71.828 166.889 8.57 117.685 30.335 176.713 66.385 180.419 48.565 5.004 115.087-90.441 179.296-182.735C1100.88 79.7 1158.15-2.587 1196.79 1.954c30.47 3.614 46.11 62.086 48.15 178.843 2.18 125.284 20.95 188.759 57.55 194.134 44.21 6.394 106.92-70.333 173.17-151.6 67.07-82.287 136.44-167.353 185.96-161.608 32.92 3.8 54.14 46.796 64.89 131.584l1.77-.185c-6.39-48.742-16.05-83.862-29.52-105.638z" fill="url(#paint0_linear_702_38242)" fill-opacity=".2"/><path d="M1714.4 99.716c-10.61-17.143-23.39-26.503-38.63-28.356-51.83-6.116-122.57 77.839-190.86 159.013-63.94 75.986-130.18 154.473-174.12 147.894-36.19-5.375-55.24-67.368-58.23-189.315-2.72-114.997-19.59-172.82-51.42-176.712-40.67-4.912-99.03 76.356-160.93 162.349-64.753 90.256-131.819 183.569-180.112 178.38-35.913-3.799-57.815-61.344-67.202-175.971-8.434-103.97-33.056-157.901-74.955-164.85C657.133 2.046 568.709 90.726 474.98 184.503 371.321 288.289 264.124 395.688 182.775 383.456c-60.264-9.081-99.17-82.75-118.896-225.361l-1.768.185c19.861 143.26 59.176 217.299 120.12 226.381 82.574 12.417 190.042-95.353 294.11-199.508 93.32-93.5 181.472-181.716 241.055-171.894 41.219 6.857 65.298 60.418 73.732 163.739 9.386 115.275 31.832 173.191 68.562 177.083 49.653 5.282 116.991-88.495 182.02-179.121 61.48-85.623 119.57-166.427 158.89-161.7 30.88 3.798 47.34 61.158 50.06 175.507 2.99 122.595 22.44 184.959 59.45 190.426 45.16 6.765 108.69-68.665 176.03-148.542 68.01-80.804 138.48-164.295 188.95-158.364 33.46 3.984 55.23 46.24 66.79 129.175l1.77-.186c-6.26-46.147-16.05-79.97-29.25-101.56z" fill="url(#paint1_linear_702_38242)" fill-opacity=".2"/><path d="M1730.46 111.855c-11.02-17.977-24.49-27.8-40.41-29.746-52.91-6.394-124.61 75.985-194.12 155.77-65.02 74.595-132.23 151.785-177.12 144.928-36.86-5.652-56.45-66.441-60.13-185.793-3.53-112.588-20.95-169.3-53.32-173.377-41.49-5.189-100.67 74.596-163.38 159.106-65.707 88.588-133.589 180.234-182.97 174.767-36.458-3.985-59.176-60.511-69.379-172.728-9.25-101.56-34.417-154.473-76.86-161.793-62.032-10.471-152.088 76.634-247.314 168.928-105.427 102.024-214.528 207.57-297.646 194.782-61.081-9.359-100.94-81.73-121.889-221.191l-1.768.185c21.085 140.017 61.352 212.666 123.112 222.211 84.343 12.973 193.716-92.943 299.552-195.338 94.953-91.924 184.601-178.658 245.409-168.28 41.763 7.135 66.521 59.676 75.636 160.681 10.203 112.866 33.329 169.763 70.739 173.84 50.605 5.56 118.895-86.549 184.868-175.508 62.31-84.047 121.21-163.46 161.34-158.457 31.43 3.985 48.43 60.232 51.97 172.264 3.67 120.002 23.81 181.068 61.49 186.906 46.11 7.135 110.73-66.997 179.02-145.484 69.11-79.322 140.53-161.423 192.22-155.122 34.01 4.17 56.32 45.592 68.56 126.766l1.77-.185c-6.67-44.294-16.32-76.912-29.38-98.132z" fill="url(#paint2_linear_702_38242)" fill-opacity=".2"/><path d="M1746.92 123.901c-11.57-18.811-25.58-29.097-42.31-31.135-54.01-6.765-126.92 74.224-197.39 152.619-69.1 76.727-134.27 149.191-180.11 141.87-37.41-5.93-57.68-65.514-62.17-182.272-4.22-110.272-22.31-165.963-55.09-170.133-42.45-5.467-102.44 72.927-165.97 155.955-66.519 87.013-135.489 176.99-185.822 171.338-37.138-4.17-60.536-59.584-71.555-169.577-9.931-99.245-35.778-151.137-78.765-158.735-63.393-11.12-154.945 74.595-251.939 165.221-107.332 100.357-218.338 204.141-303.36 190.705-61.897-9.822-102.844-80.804-124.881-217.022l-1.769.279c22.174 136.866 63.529 208.125 126.105 218.04 86.247 13.622 197.525-90.533 305.265-191.26 96.586-90.349 187.866-175.6 250.035-164.759 42.307 7.413 67.609 58.935 77.54 157.623 11.155 110.55 34.961 166.334 72.915 170.597 51.694 5.838 120.936-84.603 187.731-171.987 63.12-82.564 122.84-160.495 163.92-155.214 31.97 4.078 49.66 59.399 53.74 169.022 4.49 117.406 25.3 177.36 63.39 183.384 47.07 7.413 112.64-65.422 182.15-142.519 70.2-77.931 142.7-158.55 195.49-151.97 34.55 4.262 57.54 45.034 70.46 124.448l1.77-.278c-6.8-42.07-16.6-73.39-29.38-94.24z" fill="url(#paint3_linear_702_38242)" fill-opacity=".2"/><path d="M1763.79 135.762c-12.11-19.645-26.8-30.394-44.35-32.618-55.1-7.042-129.24 72.557-200.79 149.469-70.2 75.429-136.58 146.596-183.38 138.998-37.95-6.209-58.9-64.681-64.07-178.844-4.9-107.955-23.54-162.534-57-166.982-43.26-5.746-104.2 71.259-168.55 152.804-67.473 85.438-137.395 173.747-188.817 167.817-37.818-4.355-61.896-58.75-73.867-166.427-10.747-96.927-37.138-147.8-80.67-155.677-64.753-11.583-157.937 72.557-256.7 161.793-109.237 98.688-222.283 200.805-309.21 186.72C73.674 382.622 31.775 313.031 8.513 179.871l-1.769.278c23.398 133.716 65.57 203.678 129.098 213.964 88.152 14.27 201.47-88.125 311.115-187.184 98.354-88.773 191.13-172.727 254.795-161.237 42.852 7.691 68.834 58.286 79.445 154.658 11.971 108.233 36.594 162.998 75.228 167.446 52.782 6.116 122.977-82.658 190.855-168.558 64.08-81.082 124.61-157.716 166.65-152.063 32.51 4.355 50.74 58.564 55.64 165.87 5.3 114.812 26.66 173.654 65.43 179.956 48.16 7.783 114.81-63.754 185.42-139.554 71.28-76.541 145.01-155.77 199.02-148.82 35.1 4.448 58.63 44.387 72.23 122.133l1.77-.278c-7.34-40.124-17-70.241-29.65-90.72z" fill="url(#paint4_linear_702_38242)" fill-opacity=".2"/><path d="M1781.2 147.623c-12.52-20.479-28.03-31.784-46.39-34.1-56.32-7.321-131.55 70.796-204.33 146.41-71.42 74.132-138.75 144.095-186.77 136.125-38.5-6.393-60.13-63.846-66.12-175.507-5.71-105.638-24.89-159.291-58.77-163.832-44.21-6.023-105.97 69.591-171.26 149.654-68.567 83.955-139.305 170.689-192.087 164.481-38.499-4.541-63.257-57.916-76.045-163.276-11.427-94.611-38.498-144.558-82.573-152.712-66.114-12.14-161.067 70.61-261.598 158.364-111.141 96.928-226.092 197.284-315.195 182.55-63.665-10.563-106.38-78.858-130.867-208.867l-1.768.278c24.486 130.565 67.746 199.23 132.091 209.887 90.056 14.919 205.55-85.808 317.1-183.106C536.876 126.496 631.557 44.024 696.447 55.978c43.259 7.969 69.922 57.637 81.213 151.692 12.787 105.917 38.09 159.662 77.405 164.296 53.87 6.393 125.017-80.804 193.985-165.13 65.03-79.692 126.52-154.843 169.37-149.005 33.05 4.54 51.83 57.73 57.54 162.72 5.99 112.217 28.02 170.04 67.34 176.619 49.11 8.248 116.85-62.178 188.68-136.681 72.51-75.244 147.33-152.99 202.56-145.762 35.64 4.634 59.85 43.831 74.14 119.816l1.77-.278c-7.21-37.807-16.87-66.626-29.25-86.642z" fill="url(#paint5_linear_702_38242)" fill-opacity=".2"/><path d="M1799.29 158.928c-13.06-21.313-29.25-33.174-48.43-35.676-57.54-7.691-133.99 69.036-208 143.26-72.64 72.835-141.2 141.593-190.18 133.16-39.04-6.672-61.21-63.012-68.01-171.986-6.4-103.322-26.26-155.863-60.68-160.681-45.02-6.302-107.74 67.923-174.12 146.596-69.516 82.379-141.479 167.538-195.349 161.052-39.043-4.726-64.617-57.082-78.221-160.126-12.107-92.294-39.722-141.314-84.342-149.654-67.474-12.695-164.196 68.665-266.631 154.844-113.454 95.167-230.717 193.762-321.725 178.38-64.481-10.935-108.149-77.931-133.724-204.79l-1.768.278C-6.18 321 37.896 388.274 103.058 399.394c92.096 15.568 209.767-83.398 323.493-179.121 102.027-85.808 198.341-166.89 264.727-154.38 43.803 8.247 71.01 56.896 83.118 148.634 13.603 103.6 39.722 156.326 79.581 161.238 55.094 6.671 127.329-78.858 197.253-161.701 65.98-78.209 128.42-152.063 172.22-145.947 33.6 4.726 53.05 56.896 59.31 159.569 6.8 109.623 29.39 166.334 69.24 173.098 50.2 8.618 119.17-60.51 192.09-133.715 73.59-73.855 149.77-150.211 206.23-142.705 36.18 4.819 60.94 43.275 75.91 117.5l1.76-.278c-7.21-35.584-16.73-63.105-28.7-82.658z" fill="url(#paint6_linear_702_38242)" fill-opacity=".2"/><path d="M1817.79 169.956c-13.74-22.24-30.47-34.564-50.74-37.344-58.77-8.062-136.58 67.274-211.81 140.109-73.87 71.537-143.65 139.09-193.71 130.287-39.59-6.95-62.44-62.178-69.93-168.558-7.07-101.004-27.61-152.526-62.57-157.53-45.98-6.672-109.65 66.255-177.12 143.445-70.604 80.804-143.655 164.388-198.613 157.624-39.723-4.912-65.978-56.248-80.398-156.975-12.923-89.978-41.083-137.978-86.111-146.689-68.97-13.344-167.596 66.626-271.8 151.322-115.494 93.777-235.07 190.705-328.119 174.581-65.297-11.305-109.917-76.912-136.716-200.712l-1.768.278c26.799 124.264 71.963 190.241 137.94 201.639 94.137 16.309 213.985-80.989 330.024-175.044C520.28 142.063 618.498 62.371 686.38 75.529c44.348 8.526 72.099 56.156 84.887 145.67 14.556 101.283 41.219 152.99 81.757 157.994 56.183 6.95 129.643-77.004 200.516-158.179 67.07-76.727 130.32-149.283 175.22-142.797 34.14 4.911 54.14 56.063 61.21 156.419 7.62 107.028 30.88 162.534 71.15 169.669 51.28 9.082 121.48-58.842 195.62-130.843 74.95-72.556 152.36-147.43 210.04-139.553 36.73 5.004 62.03 42.718 77.68 115.182l1.76-.277c-7.34-33.638-16.73-59.862-28.43-78.858z" fill="url(#paint7_linear_702_38242)" fill-opacity=".2"/><path d="M1836.84 180.89c-14.29-23.166-31.84-36.047-52.92-39.012-59.99-8.432-139.17 65.514-215.75 137.052-75.23 70.332-146.24 136.681-197.53 127.414-40.13-7.228-63.53-61.344-71.83-165.222-7.89-98.688-28.84-149.19-64.34-154.472-47.07-6.95-111.69 64.587-180.25 140.387-71.689 79.322-145.829 161.33-202.148 154.195-40.402-5.097-67.337-55.506-82.71-153.917-13.603-87.661-42.307-134.735-87.879-143.723-70.467-13.9-170.997 64.68-277.241 147.893-117.807 92.109-239.56 187.369-334.921 170.597C3.207 390.406-42.365 326.096-70.252 205.446l-1.769.278C-44.132 326.93 1.984 391.518 68.642 403.286c96.585 17.051 218.746-78.487 336.961-170.967C511.574 149.477 611.697 71.175 681.075 84.797c44.756 8.803 73.187 55.506 86.655 142.704 15.372 99.059 42.851 149.746 83.934 154.936 57.407 7.32 131.955-75.152 204.056-154.844 68.15-75.336 132.5-146.503 178.21-139.739 34.68 5.097 55.23 55.321 63.12 153.361 8.29 104.526 32.24 158.921 73.05 166.334 52.37 9.452 123.79-57.267 199.43-127.878 76.18-71.167 154.94-144.835 213.84-136.588 37.28 5.189 63.26 42.162 79.59 112.958l1.76-.278c-7.34-31.598-16.59-56.525-27.88-74.873z" fill="url(#paint8_linear_702_38242)" fill-opacity=".2"/><path d="M1856.43 191.732c-14.83-24.093-33.2-37.53-55.37-40.68-61.35-8.803-141.89 63.846-219.7 134.086-76.59 69.036-148.96 134.272-201.33 124.542-40.54-7.506-64.76-60.51-73.73-161.886-8.57-96.371-30.2-145.947-66.25-151.415-48.02-7.32-113.73 62.92-183.38 137.33-72.915 77.839-148.279 158.365-205.686 150.859-40.947-5.375-68.698-54.673-84.887-150.952-14.284-85.437-43.667-131.491-89.648-140.758-71.963-14.548-174.398 62.734-282.955 144.465-120.119 90.626-244.32 184.218-341.858 166.704-66.93-12.046-113.454-75.058-142.294-192.65l-1.768.278c29.111 118.148 76.044 181.438 143.518 193.67 98.49 17.699 223.235-76.171 343.627-167.075 108.012-81.453 210.175-158.458 281.05-144.094 45.3 9.081 74.276 54.857 88.424 139.738 16.188 96.743 44.347 146.504 86.247 151.971 58.631 7.599 134.403-73.205 207.59-151.507 69.24-73.947 134.68-143.816 181.47-136.774 35.24 5.282 56.46 54.487 64.89 150.303 9.12 102.024 33.6 155.306 74.96 162.998 53.46 9.915 126.24-55.599 203.24-125.098 77.54-69.87 157.66-142.148 217.93-133.531 37.81 5.375 64.34 41.607 81.34 110.735l1.77-.278c-7.21-29.653-16.32-53.282-27.2-70.981z" fill="url(#paint9_linear_702_38242)" fill-opacity=".2"/><path d="M1876.42 202.388c-15.5-25.112-34.69-39.104-57.81-42.533-62.71-9.174-144.61 62.178-223.92 131.121-78.08 67.831-151.81 131.955-205.28 121.762-41.08-7.784-65.84-59.769-75.63-158.643-9.25-94.147-31.56-142.704-68.02-148.449-49.11-7.599-115.9 61.344-186.64 134.364-74.005 76.449-150.729 155.492-209.497 147.708-41.627-5.559-70.058-53.931-87.063-147.986-14.964-83.213-44.892-128.341-91.28-137.885-73.595-15.105-178.071 60.788-288.668 141.221-122.569 89.051-249.354 181.16-349.205 162.813-67.61-12.417-115.086-74.132-145.15-188.759l-1.769.278c30.2 115.09 78.085 177.176 146.375 189.685C133.666 425.618 260.86 333.231 383.7 243.902c110.189-80.062 214.393-155.77 286.9-140.758 45.708 9.452 75.228 54.209 90.192 136.866 17.004 94.519 45.98 143.261 88.423 148.913 59.992 7.969 136.853-71.445 211.405-148.264 70.33-72.649 136.85-141.221 184.73-133.808 35.64 5.56 57.55 53.745 66.8 147.337 9.79 99.522 34.96 151.785 76.72 159.755 54.69 10.378 128.69-54.024 207.18-122.226 78.9-68.664 160.53-139.646 222.15-130.657 38.23 5.56 65.43 41.05 83.12 108.511l1.77-.371c-7.21-27.429-16.06-49.669-26.67-66.812z" fill="url(#paint10_linear_702_38242)" fill-opacity=".2"/><path d="M1897.1 213.045c-16.05-26.132-36.05-40.773-60.4-44.387-64.07-9.544-147.46 60.511-228.27 128.249-79.58 66.719-154.67 129.731-209.36 119.074-41.62-8.154-66.93-58.935-77.4-155.492-10.07-92.016-32.79-139.553-69.79-145.484-50.06-7.969-118.08 59.769-190.04 131.492-75.365 75.059-153.177 152.712-213.305 144.465-42.307-5.745-71.555-53.19-89.24-145.021-15.78-80.989-46.116-125.19-92.912-135.013-75.228-15.846-181.744 58.842-294.654 137.886-125.017 87.568-254.388 178.102-356.55 159.013-68.427-12.788-116.856-73.298-147.872-184.96l-1.768.371c31.288 112.125 79.989 173.006 149.095 185.886 103.115 19.275 232.894-71.537 358.319-159.384 112.502-78.765 218.746-153.082 292.886-137.515 46.116 9.73 76.18 53.561 91.824 134.087 17.957 92.387 47.612 140.202 90.6 146.04 61.216 8.34 139.573-69.592 215.207-145.021 71.56-71.352 139.17-138.72 188.14-130.936 36.19 5.746 58.63 53.005 68.56 144.465 10.61 97.113 36.32 148.264 78.63 156.511 55.91 10.842 131.41-52.448 211.26-119.538 80.4-67.367 163.38-137.144 226.5-127.692 38.77 5.745 66.53 40.587 84.89 106.38l1.77-.371c-7.48-25.761-16.05-46.703-26.12-63.105z" fill="url(#paint11_linear_702_38242)" fill-opacity=".2"/><path d="M1918.19 223.609c-16.74-27.151-37.55-42.441-62.99-46.24-65.43-9.915-150.45 58.842-232.76 125.376-81.07 65.607-157.66 127.599-213.71 116.387-42.17-8.433-68.02-58.286-79.31-152.341-10.74-89.885-34.14-136.496-71.69-142.612-51.15-8.34-120.25 58.101-193.44 128.619-76.59 73.669-155.899 149.932-217.251 141.314-42.987-6.023-72.915-52.541-91.552-142.24-16.324-78.858-47.341-122.133-94.545-132.233-76.861-16.495-185.689 56.896-300.912 134.549C232.292 340.274 100.337 429.325-4.274 409.402c-69.107-13.158-118.352-72.464-150.592-181.253l-1.769.371c32.513 109.252 82.166 168.836 151.952 182.087 105.564 20.108 237.928-69.221 366.074-155.585 114.814-77.375 223.235-150.488 299.143-134.271 46.524 10.007 77.132 52.911 93.456 131.306 18.773 90.256 49.109 137.051 92.777 143.167 62.577 8.711 142.158-67.83 219.153-141.87 72.78-70.055 141.61-136.217 191.68-128.063 36.73 6.023 59.72 52.356 70.46 141.592 11.29 94.704 37.55 144.836 80.4 153.361 57.13 11.398 134.13-50.873 215.62-116.758 81.89-66.256 166.51-134.642 230.99-124.912 39.31 5.93 67.61 40.031 86.65 104.248l1.77-.371c-7.35-23.63-15.64-43.182-25.3-58.842z" fill="url(#paint12_linear_702_38242)" fill-opacity=".2"/><path d="M1939.82 234.08c-17.42-28.263-39.18-44.109-65.71-48.186-66.93-10.379-153.58 57.174-237.25 122.503-82.71 64.495-160.79 125.376-218.06 113.7-42.58-8.71-69.11-57.545-81.08-149.283-11.43-87.661-35.37-133.438-73.46-139.832-52.24-8.803-122.7 56.618-197.12 125.747-77.944 72.371-158.477 147.244-221.462 138.256-43.531-6.209-74.139-51.8-93.728-139.461-17.005-76.727-48.565-119.075-96.178-129.546-78.493-17.05-189.498 55.043-307.169 131.492-130.459 84.696-265.27 172.264-372.331 151.507-69.786-13.529-119.984-71.537-153.313-177.546l-1.768.371c33.465 106.379 83.934 164.758 154.4 178.38 108.013 20.849 243.233-66.904 373.964-151.878 117.399-76.078 228.132-147.986 305.673-131.028 46.932 10.285 78.085 52.355 94.953 128.619 19.589 88.124 50.605 134.086 94.953 140.387 63.937 9.174 144.879-66.07 223.236-138.719 74.14-68.851 144.06-133.809 195.21-125.284 37.27 6.209 60.81 51.615 72.24 138.813 11.97 92.294 38.9 141.407 82.16 150.302 58.36 11.954 136.85-49.297 219.97-114.07 83.39-65.051 169.64-132.326 235.62-122.133 39.86 6.116 68.69 39.568 88.42 102.21l1.77-.371c-6.8-21.869-14.69-40.124-23.94-54.95z" fill="url(#paint13_linear_702_38242)" fill-opacity=".2"/><path d="M1962.13 244.458c-18.1-29.375-40.81-45.869-68.57-50.224-68.42-10.749-156.71 55.599-242 119.723-84.35 63.476-164.06 123.337-222.7 111.105-42.98-8.988-70.05-56.803-82.84-146.225-12.11-85.622-36.73-130.472-75.23-137.052-53.46-9.173-125.02 55.043-200.92 122.967-79.313 71.074-161.343 144.65-225.688 135.198-44.212-6.486-75.5-51.151-95.905-136.681-17.685-74.688-49.653-116.109-97.674-126.765-80.261-17.792-193.716 53.097-313.835 128.248C203.724 347.965 66.056 434.144-43.589 412.553c-70.603-13.807-121.616-70.704-155.897-173.84l-1.769.371c34.553 103.599 85.839 160.774 156.986 174.766 110.597 21.684 248.674-64.68 382.261-148.171 119.712-74.874 232.758-145.577 312.067-127.971 47.34 10.471 78.901 51.707 96.585 125.932 20.406 86.086 52.238 131.121 97.13 137.608 65.433 9.544 147.871-64.31 227.586-135.755 75.5-67.645 146.79-131.491 199.02-122.503 37.82 6.487 61.9 50.966 74.01 136.032 12.78 89.978 40.13 138.164 83.93 147.245 59.72 12.51 139.71-47.722 224.6-111.476 85.02-63.939 172.9-130.009 240.37-119.352 40.27 6.301 69.79 39.104 90.19 100.17l1.77-.37c-6.94-19.923-14.55-36.788-23.12-50.781z" fill="url(#paint14_linear_702_38242)" fill-opacity=".2"/><path d="M1984.84 254.744c-18.77-30.487-42.44-47.722-71.41-52.356-69.93-11.212-159.98 54.024-246.91 117.036-86.11 62.364-167.46 121.299-227.45 108.511-43.53-9.267-71.15-56.155-84.48-143.26-12.79-83.491-37.96-127.507-77-134.364-54.55-9.638-127.6 53.467-204.87 120.279-80.803 69.869-164.329 142.055-230.171 132.233-44.756-6.672-76.86-50.503-97.946-133.994-18.365-72.649-50.741-113.237-99.17-124.171-82.03-18.533-197.933 51.244-320.637 125.098C188.76 351.672 48.099 436.367-64.267 414.035c-71.283-14.178-123.113-69.869-158.482-170.318l-1.769.371c35.506 100.819 87.744 156.789 159.57 171.152 113.183 22.517 254.252-62.364 390.696-144.558 122.297-73.668 237.791-143.167 319.005-124.819 47.748 10.749 79.717 51.058 98.082 123.244 21.221 84.047 53.734 128.156 99.306 134.92 66.794 9.916 150.728-62.549 231.939-132.696 76.86-66.441 149.51-129.175 202.97-119.816 38.22 6.672 62.98 50.317 75.77 133.345 13.47 87.661 41.49 134.828 85.57 144.28 60.94 13.065 142.7-46.148 229.22-108.882 86.65-62.734 176.16-127.692 245.27-116.665 40.81 6.486 70.88 38.641 91.82 98.132l1.77-.37c-6.25-17.977-13.46-33.453-21.63-46.611z" fill="url(#paint15_linear_702_38242)" fill-opacity=".2"/><path d="M2008.38 265.03c-19.59-31.599-44.08-49.576-74.41-54.487-71.56-11.676-163.25 52.448-251.94 114.349-87.88 61.344-171 119.352-232.35 106.008-43.94-9.544-72.1-55.506-86.11-140.387-13.47-81.545-39.18-124.542-78.63-131.677-55.78-10.008-130.05 51.985-208.82 117.592C993.822 345 908.799 415.981 841.461 405.788c-45.436-6.95-78.221-49.854-100.122-131.399-19.045-70.611-51.966-110.364-100.531-121.484-83.934-19.274-202.286 49.391-327.711 122.04C174.068 355.564 30.278 438.87-84.673 415.611c-71.962-14.549-124.608-69.036-161.066-166.797l-1.768.37c36.593 98.133 89.647 152.99 162.155 167.631 115.902 23.352 259.964-60.139 399.401-140.943C439.067 203.408 557.01 135.021 640.128 154.11c48.021 11.027 80.533 50.502 99.442 120.65 22.038 82.008 55.231 125.283 101.347 132.326 68.426 10.378 153.857-60.881 236.433-129.731 78.35-65.329 152.22-126.952 206.91-117.129 38.77 6.95 64.07 49.668 77.4 130.658 14.15 85.344 42.72 131.584 87.34 141.314 62.44 13.622 145.83-44.665 234.12-106.287 88.28-61.715 179.7-125.468 250.3-113.978 41.36 6.672 71.97 38.178 93.6 96.186l1.76-.37c-6.25-16.402-12.92-30.58-20.4-42.719z" fill="url(#paint16_linear_702_38242)" fill-opacity=".2"/><path d="M2032.32 275.223c-20.27-32.896-45.84-51.522-77.54-56.803-73.19-12.047-166.78 50.873-257.24 111.754-89.79 60.417-174.54 117.406-237.39 103.414-44.34-9.823-73.05-54.858-87.88-137.515-14.14-79.507-40.4-121.762-80.39-129.083-57-10.471-132.77 50.41-213.04 114.905-83.794 67.368-170.449 137.144-239.419 126.395-46.117-7.135-79.582-49.298-102.3-128.804-19.589-68.572-53.054-107.492-102.027-118.889-85.702-20.016-206.774 47.537-334.92 118.981C158.016 358.9 11.097 440.816-106.71 416.723c-72.507-14.827-126.106-68.294-163.515-163.276l-1.633.463c37.546 95.445 91.416 149.191 164.604 164.11 118.623 24.278 265.95-57.916 408.516-137.422C429 209.338 549.664 142.064 634.55 161.801c48.429 11.305 81.35 49.854 100.939 118.055 22.854 80.063 56.727 122.411 103.523 129.732 69.923 10.841 156.986-59.121 241.188-126.859 79.86-64.217 155.22-124.82 211.13-114.534 39.18 7.228 65.03 49.113 79.18 128.063 14.82 83.121 43.93 128.434 88.96 138.442 63.8 14.178 148.96-43.089 239.15-103.785 90.06-60.603 183.24-123.337 255.62-111.383 41.76 6.949 72.91 37.714 95.22 94.333l1.63-.464c-5.57-14.27-11.83-27.058-18.77-38.178z" fill="url(#paint17_linear_702_38242)" fill-opacity=".2"/><path d="M2056.94 285.324c-21.08-34.101-47.75-53.561-80.8-59.028-74.82-12.51-170.32 49.298-262.55 109.159-91.69 59.399-178.35 115.554-242.69 100.913-44.76-10.193-74-54.209-89.38-134.643-14.82-77.468-41.62-118.889-82.03-126.487-58.22-10.935-135.49 48.927-217.25 112.31-85.426 66.255-173.713 134.735-244.18 123.615-46.66-7.413-80.806-48.649-104.34-126.303-20.541-66.626-54.278-104.619-103.523-116.294-87.743-20.757-211.4 45.684-342.403 116.016C142.508 362.514-7.812 443.132-128.34 418.205c-73.188-15.104-127.466-67.46-165.964-159.94l-1.633.464c38.635 92.85 93.185 145.484 167.053 160.681 121.344 25.205 272.072-55.692 417.63-133.901 130.595-70.055 253.98-136.31 340.771-115.739 48.701 11.491 82.165 49.298 102.299 115.554 23.67 78.024 58.223 119.63 105.564 127.136 71.555 11.305 160.25-57.452 245.95-123.986 81.35-63.105 158.21-122.688 215.48-111.939 39.59 7.413 66.12 48.464 80.95 125.468 15.5 80.897 45.16 125.283 90.46 135.569 65.3 14.827 152.22-41.514 244.46-101.283 91.96-59.583 187.05-121.205 260.91-108.788 42.31 7.042 74.01 37.251 96.86 92.387l1.63-.464c-5.17-12.602-10.88-24-17.14-34.1z" fill="url(#paint18_linear_702_38242)" fill-opacity=".2"/><path d="M2082.11 295.424c-21.9-35.398-49.65-55.599-84.21-61.437-76.59-12.973-173.99 47.815-268.12 106.565-93.73 58.472-182.16 113.7-248 98.503-45.16-10.471-74.82-53.56-91.01-131.862-15.5-75.522-42.98-116.11-83.66-123.986-59.58-11.398-138.35 47.444-221.74 109.808-87.06 65.143-177.115 132.418-249.215 120.835-47.34-7.598-82.029-48.093-106.516-123.8-20.813-64.773-55.094-102.025-104.611-113.886-89.648-21.498-216.162 43.831-350.157 113.052-148.552 76.726-302.272 156.048-425.793 130.287-73.868-15.383-128.826-66.626-168.277-156.512l-1.632.464c39.586 90.348 94.953 141.777 169.365 157.345 124.337 25.946 278.33-53.56 427.289-130.472 133.723-69.036 259.829-134.179 348.524-112.866 48.973 11.768 82.846 48.649 103.524 113.051 24.486 76.171 59.72 116.943 107.74 124.634 73.188 11.769 163.516-55.877 250.989-121.205 82.98-61.993 161.34-120.65 219.97-109.345 40.13 7.691 67.06 47.908 82.57 122.966 16.19 78.766 46.25 122.226 92.1 132.789 66.79 15.475 155.62-40.031 249.76-98.781 93.87-58.564 190.86-119.074 266.5-106.286 42.71 7.227 74.95 36.88 98.49 90.533l1.63-.463c-4.76-10.934-9.93-20.942-15.51-29.931z" fill="url(#paint19_linear_702_38242)" fill-opacity=".2"/><path d="M2108.09 305.525c-22.72-36.696-51.55-57.638-87.6-63.847-78.36-13.436-177.67 46.24-273.84 104.063-95.77 57.545-186.24 111.94-253.71 96.094-45.44-10.749-75.77-52.912-92.51-129.082-16.19-73.669-44.07-113.422-85.29-121.484-60.95-11.954-141.34 45.962-226.37 107.213-88.827 63.939-180.651 130.195-254.519 118.055-47.885-7.783-83.39-47.537-108.557-121.298-21.493-62.92-56.046-99.337-105.836-111.384-91.688-22.239-221.058 42.07-358.046 110.087-151.953 75.429-309.074 153.453-435.588 126.765-74.412-15.66-130.186-65.792-170.589-153.268l-1.633.464c40.539 87.846 96.722 138.163 171.678 154.009 127.33 26.873 284.859-51.429 437.22-127.044 136.58-67.831 265.542-131.955 356.414-109.901 49.109 11.954 83.39 48.094 104.748 110.55 25.303 74.317 61.216 114.256 109.781 122.132C908.663 429.881 1000.9 363.44 1090 299.223c84.61-60.973 164.6-118.611 224.59-106.842 40.54 7.969 68.16 47.352 84.21 120.557 16.87 76.634 47.48 119.167 93.59 130.102 68.29 16.123 159.17-38.549 255.34-96.372 95.77-57.545 194.81-117.036 272.21-103.785 43.26 7.413 75.91 36.418 100.12 88.773l1.64-.463c-4.22-9.359-8.85-17.884-13.61-25.668z" fill="url(#paint20_linear_702_38242)" fill-opacity=".2"/><path d="M2134.62 315.532c-23.53-38.085-53.46-59.861-91.14-66.348-80.13-13.9-181.61 44.757-279.69 101.561-97.95 56.618-190.46 110.179-259.43 93.684-45.84-11.027-76.58-52.355-94-126.395-16.86-71.722-45.3-110.734-86.92-118.982-62.31-12.417-144.34 44.48-231.13 104.712-90.6 62.919-184.327 127.97-259.827 115.368-48.429-8.062-84.615-46.981-110.598-118.889-22.037-61.067-57.135-96.65-107.06-108.975-93.729-22.98-226.092 40.217-366.209 107.214C93.126 372.707-67.668 449.526-197.31 422.004c-75.092-15.938-131.547-64.958-172.902-150.024l-1.632.463c41.491 85.345 98.49 134.642 173.99 150.673 130.458 27.707 291.525-49.297 447.422-123.707C389.277 232.69 521.232 169.585 614.145 192.38c49.517 12.14 84.206 47.538 106.108 108.141 26.119 72.371 62.713 111.568 111.822 119.723 76.588 12.695 170.585-52.541 261.595-115.739 86.38-59.954 168.01-116.665 229.36-104.433 40.95 8.154 69.1 46.795 85.84 118.055 17.55 74.595 48.56 116.202 95.09 127.322 69.92 16.772 162.83-36.974 261.19-93.87 97.81-56.526 198.88-114.997 278.19-101.283 43.67 7.599 76.86 36.047 101.75 86.92l1.64-.463c-4.08-7.599-8.03-14.641-12.11-21.221z" fill="url(#paint21_linear_702_38242)" fill-opacity=".2"/><path d="M2161.83 325.448c-24.35-39.476-55.64-62.086-94.96-68.943-82.03-14.363-185.55 43.274-285.81 99.151-100.12 55.785-194.8 108.419-265.4 91.276-46.12-11.213-77.41-51.708-95.37-123.708-17.54-69.87-46.38-108.048-88.56-116.573-63.66-12.973-147.46 42.997-236.02 102.302-92.37 61.808-187.999 125.747-265.404 112.681-48.973-8.247-85.839-46.425-112.638-116.573-22.582-59.213-57.951-94.055-108.284-106.472-95.77-23.722-231.262 38.456-374.508 104.341-158.89 72.835-323.493 148.449-456.265 120.001-75.636-16.216-132.907-64.217-175.214-146.781l-1.632.463c42.443 82.935 100.122 131.214 176.302 147.523 133.588 28.541 298.463-47.167 457.762-120.372 142.973-65.699 277.921-127.692 373.01-104.155 49.654 12.324 84.751 46.888 107.197 105.73 26.935 70.611 64.209 108.974 113.862 117.407 78.357 13.251 174.262-50.966 267.042-113.051 88.15-59.028 171.54-114.72 234.25-101.932 41.36 8.433 69.92 46.24 87.34 115.739 18.09 72.464 49.65 113.236 96.45 124.634 71.41 17.421 166.5-35.491 267.03-91.46 99.85-55.599 203.11-113.052 284.18-98.874 44.08 7.691 77.95 35.584 103.25 85.159l1.64-.556c-2.72-5.93-5.99-11.583-9.25-16.957z" fill="url(#paint22_linear_702_38242)" fill-opacity=".2"/><path d="M2189.71 335.363c-25.3-40.866-57.67-64.402-98.76-71.63-83.8-14.827-189.63 41.884-291.93 96.742-102.44 54.95-199.29 106.75-271.53 88.866-46.52-11.491-78.08-51.059-96.86-121.113-18.09-68.109-47.61-105.453-90.05-114.256-65.16-13.53-150.59 41.513-241.06 99.892-94.27 60.789-191.809 123.616-271.118 110.087-49.653-8.526-87.063-45.87-114.678-114.256-23.127-57.453-58.904-91.554-109.373-104.156-97.946-24.464-236.567 36.695-383.214 101.468-162.7 71.908-330.976 146.226-467.012 116.944-76.18-16.402-134.267-63.383-177.527-143.631l-1.632.556c43.395 80.618 101.891 127.877 178.479 144.372 136.852 29.375 305.401-45.128 468.508-117.129 146.375-64.587 284.452-125.654 381.717-101.375 49.926 12.417 85.295 46.24 108.421 103.414 27.751 68.757 65.57 106.379 115.903 114.997 80.125 13.715 178.066-49.39 272.756-110.364 90.05-58.008 175.07-112.866 239.42-99.522 41.76 8.618 70.87 45.684 88.97 113.329 18.77 70.426 50.74 110.364 97.81 122.04 73.18 18.07 170.31-34.008 273.16-89.144 102.02-54.672 207.45-111.105 290.43-96.464 44.49 7.877 78.91 35.213 104.89 83.491l1.63-.556c-2.45-4.448-4.9-8.618-7.35-12.602z" fill="url(#paint23_linear_702_38242)" fill-opacity=".2"/><path d="M2218.28 345.278c-26.25-42.441-59.85-66.812-102.84-74.41-85.84-15.29-193.85 40.402-298.46 94.333-104.89 54.024-203.92 105.082-277.93 86.549-46.79-11.768-78.9-50.502-98.08-118.519-18.77-66.255-48.7-102.858-91.55-111.846-66.66-14.085-153.86 40.124-246.36 97.483-96.32 59.769-195.894 121.577-276.971 107.492-50.197-8.711-88.287-45.313-116.719-111.94-23.67-55.784-59.856-89.051-110.461-101.746-100.123-25.205-241.872 34.935-392.056 98.689-166.508 70.703-338.73 143.816-478.167 113.7-76.724-16.588-135.492-62.549-179.703-140.573l-1.633.556c44.484 78.394 103.524 124.541 180.656 141.221 140.389 30.116 313.019-43.089 479.799-113.978 149.64-63.568 291.117-123.615 390.56-98.595 50.061 12.602 85.838 45.683 109.509 101.004 28.567 66.997 67.065 103.878 117.807 112.774 82.029 14.27 182.019-47.815 278.599-107.77 91.96-57.081 178.89-111.012 244.6-97.205 42.17 8.896 71.82 45.22 90.46 111.012 19.45 68.48 51.83 107.492 99.17 119.353 74.82 18.811 174.26-32.525 279.55-86.734 104.21-53.654 211.95-109.253 296.97-94.055 45.03 8.061 79.72 34.749 106.38 81.73l1.63-.556c-1.49-2.687-3.13-5.374-4.76-7.969z" fill="url(#paint24_linear_702_38242)" fill-opacity=".2"/><path d="M2247.67 355.193c-27.08-43.923-62.17-69.221-106.93-77.19-87.74-15.753-198.2 39.012-304.99 91.924-107.33 53.19-208.68 103.507-284.45 84.232-47.07-11.954-79.58-49.853-99.45-116.016-19.45-64.495-49.78-100.357-93.04-109.623-68.16-14.641-157.4 38.641-251.81 95.074-98.35 58.75-199.97 119.538-283.088 104.897-50.741-8.896-89.511-44.85-118.623-109.715-24.215-54.117-60.672-86.642-111.55-99.523-102.435-25.946-247.585 33.267-401.17 95.909C22.116 384.66-154.187 456.569-296.889 425.618c-77.132-16.494-136.716-61.529-181.744-137.329l-1.632.556c45.3 76.171 105.156 121.391 182.832 138.163 143.518 31.136 320.093-40.865 490.954-110.549 153.177-62.549 297.919-121.576 399.674-95.816 50.333 12.788 86.383 45.036 110.461 98.781 29.248 65.329 68.427 101.469 119.848 110.457 83.934 14.734 185.966-46.24 284.726-105.175 94-56.155 182.69-109.252 250.03-94.796 42.58 9.081 72.65 44.664 91.96 108.696 20 66.534 52.92 104.711 100.53 116.851 76.59 19.459 178.35-31.043 286.09-84.418 106.38-52.819 216.43-107.399 303.49-91.739 45.44 8.155 80.67 34.286 108.02 80.063l1.63-.556a34.442 34.442 0 01-2.31-3.614z" fill="url(#paint25_linear_702_38242)" fill-opacity=".2"/><path d="M2277.05 363.996c-28.02-44.85-64.21-70.703-110.6-79.043-89.78-16.217-202.69 37.622-311.66 89.7-109.91 52.355-213.57 101.931-291.11 81.916-47.34-12.14-80.26-49.298-100.67-113.422-20-62.735-50.88-97.855-94.41-107.307-69.79-15.197-160.93 37.252-257.38 92.758-100.39 57.823-204.325 117.499-289.348 102.395-51.285-9.081-90.736-44.294-120.528-107.491-24.758-52.449-61.624-84.233-112.502-97.206-104.747-26.688-253.299 31.506-410.42 93.221C3.615 387.718-176.768 458.515-323.007 426.73c-77.813-16.957-138.077-60.881-184.057-134.549l-1.632.556c46.252 73.946 106.788 118.148 185.009 135.105 147.055 31.877 327.71-38.919 502.517-107.491 156.849-61.53 304.993-119.538 409.06-93.036 50.469 12.881 86.927 44.387 111.55 96.465 30.064 63.66 69.922 99.058 121.752 108.232 85.975 15.29 190.178-44.664 290.978-102.673 96.04-55.228 186.78-107.491 255.61-92.479 42.99 9.359 73.46 44.201 93.33 106.472 20.54 64.587 53.87 102.024 101.75 114.256 78.36 20.108 182.56-29.56 292.75-82.101 108.69-51.893 221.19-105.546 310.3-89.422 45.84 8.247 81.62 33.915 109.51 78.394l1.63-.463z" fill="url(#paint26_linear_702_38242)" fill-opacity=".2"/><path d="M2304.94 369.186c-28.57-43.646-65.3-68.943-112.1-77.468-91.96-16.587-207.18 36.232-318.73 87.383-112.5 51.614-218.75 100.356-298.19 79.692-47.48-12.325-80.81-48.649-101.89-110.92-20.68-61.067-51.97-95.445-95.91-105.082-71.42-15.753-164.46 35.861-263.09 90.441-102.57 56.803-208.679 115.553-295.742 99.893-51.83-9.36-91.825-43.738-122.569-105.361-25.302-50.873-62.44-81.915-113.59-94.981-107.196-27.429-259.149 29.838-420.079 90.441C31.503 372.8-104.397 423.951-227.51 433.959c-139.165 11.305-240.103-33.823-308.529-138.071l-1.633.648c36.322 55.321 82.574 94.704 137.669 117.036 49.381 20.016 105.972 27.151 172.765 21.684 123.385-10.008 259.557-61.252 391.24-110.92 160.523-60.418 312.203-117.592 418.583-90.349 50.605 12.973 87.471 43.738 112.502 94.241 30.88 61.993 71.283 96.649 123.656 106.101 88.016 15.846 194.397-43.182 297.377-100.171 98.22-54.394 190.86-105.731 261.46-90.163 43.26 9.545 74.28 43.645 94.82 104.248 21.22 62.735 54.82 99.245 102.98 111.754 80.26 20.85 186.91-28.077 299.68-79.877 111.14-50.966 226.1-103.692 317.24-87.198 46.25 8.34 82.57 33.545 111 76.82l1.64-.556z" fill="url(#paint27_linear_702_38242)" fill-opacity=".2"/><path d="M2333.37 374.282c-29.25-42.441-66.39-67.275-113.59-75.8-94.14-17.051-211.81 34.935-325.81 85.159-115.22 50.78-224.05 98.781-305.26 77.468-47.75-12.51-81.49-48-103.12-108.511-21.22-59.398-53.05-93.035-97.26-102.858-73.06-16.309-168.28 34.379-269.08 88.124-104.89 55.877-213.172 113.608-302.411 97.484-52.374-9.452-93.049-43.274-124.473-103.229-25.847-49.298-63.257-79.599-114.543-92.757-109.509-28.078-265.134 28.17-429.873 87.753-133.86 48.464-272.345 98.503-397.77 108.14-142.021 10.935-245.409-33.452-315.739-135.661l-1.633.648c70.739 102.766 174.534 147.338 317.508 136.311 125.834-9.637 264.454-59.862 398.45-108.326 164.331-59.491 319.548-115.646 428.513-87.753 50.742 13.065 87.879 43.089 113.59 92.109 31.561 60.325 72.644 94.333 125.562 103.877 90.055 16.309 198.749-41.607 303.899-97.669 100.4-53.468 195.22-104.063 267.45-87.939 43.67 9.73 75.09 43.089 96.18 102.024 21.77 60.881 55.77 96.65 104.07 109.345 82.16 21.591 191.26-26.595 306.89-77.561 113.59-50.131 230.99-101.839 324.45-84.973 46.8 8.432 83.53 33.081 112.5 75.243l1.5-.648z" fill="url(#paint28_linear_702_38242)" fill-opacity=".2"/><path d="M2362.34 379.379c-29.79-41.329-67.47-65.607-115.08-74.225-96.32-17.514-216.71 33.545-333.15 82.935-117.95 50.039-229.36 97.298-312.62 75.244-47.88-12.695-82.02-47.352-104.2-106.101-21.76-57.731-54.01-90.627-98.62-100.727-74.82-16.865-172.09 32.989-275.21 85.9-107.06 54.951-217.926 111.754-309.206 94.982-52.918-9.637-94.273-42.719-126.377-101.098-26.255-47.722-64.073-77.375-115.359-90.533-112.094-28.727-271.256 26.594-439.94 85.159-136.309 47.352-277.242 96.371-405.252 105.638-144.878 10.564-250.578-33.082-322.949-133.438l-1.633.649c72.779 100.819 178.888 144.65 324.718 133.994 128.282-9.36 269.351-58.379 405.932-105.824 168.276-58.472 327.166-113.7 438.58-85.066 50.877 13.065 88.423 42.44 114.542 89.885 32.377 58.749 74.004 92.016 127.466 101.746 92.232 16.865 203.238-40.124 310.708-95.26 102.71-52.633 199.56-102.395 273.57-85.622 43.94 9.915 75.91 42.626 97.53 99.893 22.31 59.12 56.73 94.055 105.3 106.842 84.07 22.24 195.89-25.112 314.24-75.336 116.04-49.205 236.16-100.078 331.79-82.75 47.21 8.525 84.48 32.618 114 73.669l1.22-.556z" fill="url(#paint29_linear_702_38242)" fill-opacity=".2"/><path d="M2392 384.383c-102.98-136.218-283.09-62.827-457.08 8.062-120.8 49.205-234.94 95.723-320.23 73.02-48.16-12.881-82.57-46.796-105.29-103.693-22.45-56.062-55.1-88.309-99.85-98.595-76.59-17.421-176.03 31.599-281.46 83.584-109.51 54.023-222.692 109.808-316.285 92.665-53.462-9.823-95.361-42.163-128.282-99.059-22.718-39.383-53.462-65.978-93.864-81.36-36.322-13.807-79.717-18.255-132.908-13.529-99.034 8.71-216.025 47.722-339.818 89.051-138.756 46.332-282.274 94.148-412.869 103.229-147.871 10.193-256.02-32.711-330.432-131.214l-1.632.649c74.82 98.873 183.377 142.055 332.064 131.769 130.867-9.081 274.52-56.989 413.413-103.321 123.657-41.236 240.376-80.248 339.138-88.866 110.734-9.73 182.289 20.108 225.14 94.148 33.057 57.174 75.364 89.792 129.234 99.707 94.409 17.421 208.001-38.641 317.781-92.85 105.02-51.8 204.19-100.727 279.83-83.399 44.21 10.101 76.58 42.07 98.76 97.762 22.85 57.267 57.68 91.46 106.24 104.434 86.11 22.98 200.52-23.723 321.73-73.113 173.31-70.611 352.6-143.631 454.77-8.525l1.9-.556z" fill="url(#paint30_linear_702_38242)" fill-opacity=".2"/><defs><linearGradient id="paint0_linear_702_38242" x1="40.331" y1=".319" x2="1822.61" y2="320.852" gradientUnits="userSpaceOnUse"><stop stop-color="#BE8143"/><stop offset=".556" stop-color="#8F664E"/><stop offset="1" stop-color="#BB7F44"/></linearGradient><linearGradient id="paint1_linear_702_38242" x1="21.713" y1="11.36" x2="1835.08" y2="350.979" gradientUnits="userSpaceOnUse"><stop stop-color="#BE8143"/><stop offset=".556" stop-color="#8F664E"/><stop offset="1" stop-color="#BB7F44"/></linearGradient><linearGradient id="paint2_linear_702_38242" x1="2.936" y1="22.131" x2="1847.9" y2="381.821" gradientUnits="userSpaceOnUse"><stop stop-color="#BE8143"/><stop offset=".556" stop-color="#8F664E"/><stop offset="1" stop-color="#BB7F44"/></linearGradient><linearGradient id="paint3_linear_702_38242" x1="-16.265" y1="32.855" x2="1860.33" y2="413.876" gradientUnits="userSpaceOnUse"><stop stop-color="#BE8143"/><stop offset=".556" stop-color="#8F664E"/><stop offset="1" stop-color="#BB7F44"/></linearGradient><linearGradient id="paint4_linear_702_38242" x1="-36.179" y1="43.23" x2="1872.81" y2="446.909" gradientUnits="userSpaceOnUse"><stop stop-color="#BE8143"/><stop offset=".556" stop-color="#8F664E"/><stop offset="1" stop-color="#BB7F44"/></linearGradient><linearGradient id="paint5_linear_702_38242" x1="-56.37" y1="53.676" x2="1884.29" y2="481.311" gradientUnits="userSpaceOnUse"><stop stop-color="#BE8143"/><stop offset=".556" stop-color="#8F664E"/><stop offset="1" stop-color="#BB7F44"/></linearGradient><linearGradient id="paint6_linear_702_38242" x1="-76.572" y1="63.559" x2="1895.67" y2="516.025" gradientUnits="userSpaceOnUse"><stop stop-color="#BE8143"/><stop offset=".556" stop-color="#8F664E"/><stop offset="1" stop-color="#BB7F44"/></linearGradient><linearGradient id="paint7_linear_702_38242" x1="-97.209" y1="72.86" x2="1907.54" y2="550.206" gradientUnits="userSpaceOnUse"><stop stop-color="#BE8143"/><stop offset=".556" stop-color="#8F664E"/><stop offset="1" stop-color="#BB7F44"/></linearGradient><linearGradient id="paint8_linear_702_38242" x1="-118.549" y1="81.986" x2="1918.68" y2="585.811" gradientUnits="userSpaceOnUse"><stop stop-color="#BE8143"/><stop offset=".556" stop-color="#8F664E"/><stop offset="1" stop-color="#BB7F44"/></linearGradient><linearGradient id="paint9_linear_702_38242" x1="-139.899" y1="91.084" x2="1929.38" y2="622.436" gradientUnits="userSpaceOnUse"><stop stop-color="#BE8143"/><stop offset=".556" stop-color="#8F664E"/><stop offset="1" stop-color="#BB7F44"/></linearGradient><linearGradient id="paint10_linear_702_38242" x1="-161.959" y1="99.914" x2="1939.47" y2="660.492" gradientUnits="userSpaceOnUse"><stop stop-color="#BE8143"/><stop offset=".556" stop-color="#8F664E"/><stop offset="1" stop-color="#BB7F44"/></linearGradient><linearGradient id="paint11_linear_702_38242" x1="-183.895" y1="108.786" x2="1949.39" y2="699.448" gradientUnits="userSpaceOnUse"><stop stop-color="#BE8143"/><stop offset=".556" stop-color="#8F664E"/><stop offset="1" stop-color="#BB7F44"/></linearGradient><linearGradient id="paint12_linear_702_38242" x1="-207.088" y1="117.298" x2="1957.92" y2="740.164" gradientUnits="userSpaceOnUse"><stop stop-color="#BE8143"/><stop offset=".556" stop-color="#8F664E"/><stop offset="1" stop-color="#BB7F44"/></linearGradient><linearGradient id="paint13_linear_702_38242" x1="-230.282" y1="125.453" x2="1965.91" y2="780.517" gradientUnits="userSpaceOnUse"><stop stop-color="#BE8143"/><stop offset=".556" stop-color="#8F664E"/><stop offset="1" stop-color="#BB7F44"/></linearGradient><linearGradient id="paint14_linear_702_38242" x1="-253.784" y1="133.734" x2="1973.08" y2="823.673" gradientUnits="userSpaceOnUse"><stop stop-color="#BE8143"/><stop offset=".556" stop-color="#8F664E"/><stop offset="1" stop-color="#BB7F44"/></linearGradient><linearGradient id="paint15_linear_702_38242" x1="-278.115" y1="141.635" x2="1978.95" y2="867.151" gradientUnits="userSpaceOnUse"><stop stop-color="#BE8143"/><stop offset=".556" stop-color="#8F664E"/><stop offset="1" stop-color="#BB7F44"/></linearGradient><linearGradient id="paint16_linear_702_38242" x1="-302.193" y1="149.617" x2="1984.41" y2="912.072" gradientUnits="userSpaceOnUse"><stop stop-color="#BE8143"/><stop offset=".556" stop-color="#8F664E"/><stop offset="1" stop-color="#BB7F44"/></linearGradient><linearGradient id="paint17_linear_702_38242" x1="-327.665" y1="157.029" x2="1988" y2="958.308" gradientUnits="userSpaceOnUse"><stop stop-color="#BE8143"/><stop offset=".556" stop-color="#8F664E"/><stop offset="1" stop-color="#BB7F44"/></linearGradient><linearGradient id="paint18_linear_702_38242" x1="-352.874" y1="164.706" x2="1990.69" y2="1005.86" gradientUnits="userSpaceOnUse"><stop stop-color="#BE8143"/><stop offset=".556" stop-color="#8F664E"/><stop offset="1" stop-color="#BB7F44"/></linearGradient><linearGradient id="paint19_linear_702_38242" x1="-378.932" y1="171.999" x2="1992.36" y2="1054.23" gradientUnits="userSpaceOnUse"><stop stop-color="#BE8143"/><stop offset=".556" stop-color="#8F664E"/><stop offset="1" stop-color="#BB7F44"/></linearGradient><linearGradient id="paint20_linear_702_38242" x1="-405.281" y1="179.375" x2="1992.08" y2="1104.67" gradientUnits="userSpaceOnUse"><stop stop-color="#BE8143"/><stop offset=".556" stop-color="#8F664E"/><stop offset="1" stop-color="#BB7F44"/></linearGradient><linearGradient id="paint21_linear_702_38242" x1="-432.35" y1="186.456" x2="1990.23" y2="1156.85" gradientUnits="userSpaceOnUse"><stop stop-color="#BE8143"/><stop offset=".556" stop-color="#8F664E"/><stop offset="1" stop-color="#BB7F44"/></linearGradient><linearGradient id="paint22_linear_702_38242" x1="-459.961" y1="193.435" x2="1986.57" y2="1208.78" gradientUnits="userSpaceOnUse"><stop stop-color="#BE8143"/><stop offset=".556" stop-color="#8F664E"/><stop offset="1" stop-color="#BB7F44"/></linearGradient><linearGradient id="paint23_linear_702_38242" x1="-488.027" y1="200.029" x2="1982.26" y2="1262.01" gradientUnits="userSpaceOnUse"><stop stop-color="#BE8143"/><stop offset=".556" stop-color="#8F664E"/><stop offset="1" stop-color="#BB7F44"/></linearGradient><linearGradient id="paint24_linear_702_38242" x1="-516.931" y1="206.796" x2="1974" y2="1318.03" gradientUnits="userSpaceOnUse"><stop stop-color="#BE8143"/><stop offset=".556" stop-color="#8F664E"/><stop offset="1" stop-color="#BB7F44"/></linearGradient><linearGradient id="paint25_linear_702_38242" x1="-545.857" y1="212.998" x2="1966.95" y2="1372.19" gradientUnits="userSpaceOnUse"><stop stop-color="#BE8143"/><stop offset=".556" stop-color="#8F664E"/><stop offset="1" stop-color="#BB7F44"/></linearGradient><linearGradient id="paint26_linear_702_38242" x1="-575.621" y1="219.644" x2="1953.87" y2="1430.9" gradientUnits="userSpaceOnUse"><stop stop-color="#BE8143"/><stop offset=".556" stop-color="#8F664E"/><stop offset="1" stop-color="#BB7F44"/></linearGradient><linearGradient id="paint27_linear_702_38242" x1="-605.963" y1="225.727" x2="1941.73" y2="1487.88" gradientUnits="userSpaceOnUse"><stop stop-color="#BE8143"/><stop offset=".556" stop-color="#8F664E"/><stop offset="1" stop-color="#BB7F44"/></linearGradient><linearGradient id="paint28_linear_702_38242" x1="-636.875" y1="231.922" x2="1925.75" y2="1547.17" gradientUnits="userSpaceOnUse"><stop stop-color="#BE8143"/><stop offset=".556" stop-color="#8F664E"/><stop offset="1" stop-color="#BB7F44"/></linearGradient><linearGradient id="paint29_linear_702_38242" x1="-668.357" y1="237.929" x2="1907.22" y2="1607.23" gradientUnits="userSpaceOnUse"><stop stop-color="#BE8143"/><stop offset=".556" stop-color="#8F664E"/><stop offset="1" stop-color="#BB7F44"/></linearGradient><linearGradient id="paint30_linear_702_38242" x1="-700.553" y1="243.655" x2="1887.8" y2="1666.94" gradientUnits="userSpaceOnUse"><stop stop-color="#BE8143"/><stop offset=".556" stop-color="#8F664E"/><stop offset="1" stop-color="#BB7F44"/></linearGradient></defs></svg>